<svg width="350" height="352" viewBox="0 0 350 352" fill="none" xmlns="http://www.w3.org/2000/svg">
<path d="M79.3604 232.778L79.2876 168.556L91.1477 167.69L102.705 237.006L79.3604 232.778Z" fill="#F3E7D9"/>
<path d="M227.777 16.8012C222.893 23.103 214.08 24.4485 208.093 19.8103C202.105 15.172 201.208 6.30187 206.092 0C206.092 0 204.923 9.52564 211.251 14.4284C217.58 19.3349 227.777 16.8012 227.777 16.8012Z" fill="#F3E7D9"/>
<path d="M202.6 124.757C202.6 124.757 223.138 133.179 229.291 128.395C240.208 119.904 199.568 96.2455 199.568 96.2455C207.062 101.121 224.285 99.4309 216.097 92.1515C207.909 84.8722 193.691 76.0825 190.621 72.1343C190.621 72.1343 209.73 82.1429 207.909 77.5928C206.088 73.0428 182.793 51.8525 182.793 51.8525C182.793 51.8525 201.768 61.934 197.444 56.6632C182.885 38.9268 159.096 6.30958 158.56 5.54677C158.556 5.5391 158.548 5.5391 158.544 5.54677C158.157 6.24825 138.546 32.0882 131.65 41.0236C122.381 53.0293 111.46 66.2234 115.554 65.3149C119.648 64.4064 130.216 57.7557 132.026 57.1041C118.283 79.4175 110.552 80.7821 104.181 90.3346C100.168 96.3566 120.419 92.9029 120.419 92.9029C120.419 92.9029 115.332 99.9024 102.816 112.625C90.3007 125.348 124.938 117.141 124.938 117.141C124.938 117.141 88.5642 138.706 94.0228 151.444C99.3165 163.795 120.215 146.032 120.215 146.032C93.5475 165.202 107.366 182.425 118.74 180.865C129.457 179.393 149.479 165.696 152.403 164.033L149.678 217.917L177.442 216.667L173.567 169.338C177.04 171.887 180.685 173.7 184.104 173.811C196.221 174.206 194.673 159.41 194.673 159.41C201.81 163.117 222.195 163.005 221.965 152.958C221.743 142.919 202.6 124.757 202.6 124.757Z" fill="#F3E7D9"/>
<path d="M86.548 55.011C86.548 55.011 65.2504 94.367 54.0305 106.001C42.8106 117.635 59.4316 110.57 64.4186 104.755C64.4186 104.755 37.4095 145.476 27.0214 152.541C16.6333 159.605 30.3831 165.968 45.7583 156.412C45.7583 156.412 25.7756 187.446 13.3098 196.589C0.844075 205.731 4.58533 213.209 32.8403 197.002C32.8403 197.002 26.6074 203.235 39.905 203.649C53.2025 204.063 57.7718 194.507 57.7718 194.507C57.7718 194.507 42.3966 215.697 53.2025 217.361C64.0046 219.025 76.4704 198.662 76.4704 198.662C76.4704 198.662 70.64 213.133 76.0449 213.965C81.4498 214.796 92.6774 199.908 92.6774 199.908C92.6774 199.908 104.729 214.379 112.208 213.965C119.687 213.551 109.712 189.52 109.712 189.52C109.712 189.52 116.777 198.662 126.747 199.908C136.722 201.154 128.825 187.028 128.825 187.028C128.825 187.028 145.446 198.248 158.326 194.093C171.205 189.938 146.519 173.432 135.529 164.09C126.56 156.466 121.178 148.841 121.178 148.841L137.772 154.074C146.082 155.737 123.838 127.755 118.437 118.195C118.437 118.195 130.565 119.877 126.41 112.813C122.259 105.748 92.3669 68.0977 86.548 55.011Z" fill="white"/>
<path d="M82.6534 54.0566C82.6534 54.0566 59.3472 94.3748 48.0085 106.131C36.6697 117.888 53.467 110.75 58.5078 104.87C58.5078 104.87 31.2111 146.028 20.7118 153.165C10.2126 160.303 24.1119 166.735 39.6481 157.075C39.6481 157.075 19.4507 188.439 6.85078 197.681C-5.74913 206.923 -1.96955 214.478 26.5882 198.103C26.5882 198.103 20.2902 204.401 33.7257 204.822C47.1613 205.244 51.7842 195.584 51.7842 195.584C51.7842 195.584 36.2442 217.001 47.1651 218.683C58.0823 220.362 70.6822 199.786 70.6822 199.786C70.6822 199.786 64.7905 214.413 70.249 215.253C75.7076 216.092 87.0579 201.047 87.0579 201.047C87.0579 201.047 99.24 215.674 106.799 215.253C114.358 214.831 104.277 190.547 104.277 190.547C104.277 190.547 111.414 199.786 121.496 201.047C131.573 202.308 123.596 188.029 123.596 188.029C123.596 188.029 140.394 199.368 153.415 195.166C166.437 190.965 140.398 174.168 130.738 163.251C121.078 152.334 110.579 137.633 110.579 137.633C110.579 137.633 124.436 148.55 132.838 150.233C141.237 151.912 119.821 127.134 114.358 117.478C114.358 117.478 126.537 120.418 122.339 113.277C118.138 106.131 88.5337 67.2852 82.6534 54.0566Z" fill="#F3E7D9"/>
<path d="M249.404 38.4706C249.404 38.4706 229.44 70.7619 213.82 85.7845C202.569 96.6019 221.686 99.6034 231.556 85.5545C231.556 85.5545 213.23 105.821 206.015 111.517C198.801 117.213 220.992 107.715 220.992 107.715C220.992 107.715 209.339 127.483 201.078 138.105C192.817 148.727 214.502 146.07 214.502 146.07C214.502 146.07 201.519 164.362 192.081 176.755C182.64 189.148 209.941 191.437 219.815 178.526C219.815 178.526 201.933 199.303 213.325 202.718C224.718 206.133 251.091 185.016 251.091 185.016C251.091 185.016 266.83 199.747 277.644 200.947C283.593 201.606 285.329 187.826 285.329 187.826C288.335 191.429 307.194 197.815 311.296 194.91C320.407 188.454 308.26 181.24 308.26 181.24C308.26 181.24 336.607 188.953 330.282 180.102C326.483 174.785 314.412 158.402 297.707 134.858C297.707 134.858 320.128 143.118 308.329 131.906C300.39 124.362 284.547 106.971 273.918 89.8861C273.918 89.8861 297.519 103.118 293.747 98.2962C282.926 84.4773 258.899 55.9387 249.404 38.4706Z" fill="white"/>
<path d="M276.287 229.999L268.275 167.015H252.819L244.758 229.999H276.287Z" fill="#F3E7D9"/>
<path d="M255.46 32.9545C255.46 32.9545 232.48 70.3671 216.419 85.8074C204.854 96.9277 226.968 95.7969 237.114 81.357C237.114 81.357 218.274 102.191 210.86 108.044C203.443 113.898 226.259 104.134 226.259 104.134C226.259 104.134 212.915 125.972 204.42 136.889C195.93 147.807 219.585 143.563 219.585 143.563C219.585 143.563 206.241 162.365 196.535 175.107C186.83 187.849 214.897 190.198 225.043 176.928C225.043 176.928 206.663 198.283 218.37 201.798C230.08 205.309 257.189 183.601 257.189 183.601C257.189 183.601 273.369 198.743 284.486 199.981C290.6 200.659 292.386 186.492 292.386 186.492C295.476 190.198 314.864 196.761 319.077 193.775C328.445 187.14 310.567 174.505 310.567 174.505C310.567 174.505 343.15 178.752 336.649 169.652C332.746 164.186 321.066 152 303.893 127.797C303.893 127.797 326.943 136.288 314.811 124.765C306.65 117.01 298.443 107.147 287.514 89.5832C287.514 89.5832 304.909 99.4193 301.03 94.4629C289.921 80.2492 265.216 50.9094 255.46 32.9545Z" fill="#F3E7D9"/>
<path d="M69.7434 227.117C69.7434 227.117 79.3687 228.297 81.4885 232.778C81.4885 232.778 78.8206 227.749 79.2307 221.873C79.2307 221.873 85.4214 230.885 84.6739 232.932C84.6739 232.932 83.0486 228.65 83.4895 225.269C83.4895 225.269 88.9327 232.295 85.6323 236.002L81.1857 235.822C81.1818 235.822 73.155 230.505 69.7434 227.117Z" fill="#F3E7D9"/>
<path d="M275.317 230.317C275.317 230.317 274.247 218.415 272.112 215.977C272.112 215.977 276.08 217.809 277.299 222.08C277.299 222.08 276.992 214.758 276.382 212.619C276.382 212.619 281.569 221.773 280.35 226.657C280.35 226.657 282.792 218.419 282.182 215.061C282.182 215.061 284.927 222.689 284.014 226.657C284.014 226.657 286.15 219.944 292.559 218.419C298.968 216.893 301.103 218.726 301.103 218.726C301.103 218.726 293.168 219.032 290.424 222.386C290.424 222.386 300.187 223.912 302.629 226.354C302.629 226.354 291.033 224.981 287.066 228.186C283.098 231.391 277.302 229.102 277.302 229.102L275.317 230.317Z" fill="#F3E7D9"/>
<path d="M84.9225 262.452C84.9225 262.452 124.351 268.516 129.81 272.763L127.383 263.663C127.383 263.663 139.516 263.057 144.974 266.695C144.974 266.695 133.448 255.778 126.172 252.136L141.942 258.81L144.369 254.563L157.107 256.989L164.386 246.678L187.435 252.136L191.073 249.71L206.843 260.021C206.843 260.021 211.696 254.563 214.728 249.71L215.939 253.348C215.939 253.348 218.366 251.527 220.792 245.463L223.824 249.71C223.824 249.71 233.53 242.431 233.53 230.908L104.633 224.537L109.179 232.909L64.1462 233.633L84.9225 262.452Z" fill="#F3E7D9"/>
<path d="M116.466 273.369C116.466 273.369 128.598 277.007 134.662 278.827L119.498 287.318L126.172 292.777C126.172 292.777 114.04 297.024 98.8752 301.267L111.613 304.299L60.5081 310.517L92.8071 312.79L37.3054 327.801L8.64417 315.063L32.7554 299.596L11.3734 295.502C11.3734 295.502 87.9542 272.755 95.2336 272.755C102.513 272.755 116.466 273.369 116.466 273.369Z" fill="#F3E7D9"/>
<path d="M230.655 231.364L249.764 224.541L349.999 271.552L338.929 287.322L282.063 307.795L296.165 296.878L273.568 302.49L248.698 301.884L252.336 290.967L228.681 286.114L246.271 276.409L233.534 273.982L237.171 266.703C237.171 266.703 228.071 266.703 221.401 268.524C214.728 270.344 228.681 261.85 228.681 261.85L223.828 258.212C223.828 258.212 237.171 248.506 243.239 247.901C249.304 247.295 222.616 244.869 220.796 245.474C218.975 246.08 222.616 244.869 222.616 244.869L230.655 231.364Z" fill="#F3E7D9"/>
<path d="M134.326 211.784C134.326 211.784 219.014 209.94 227.934 210.246C227.934 210.246 235.42 215.475 235.42 223.881C235.42 232.288 230.498 237.006 230.498 237.006H135.966C135.966 237.006 129.12 232.893 128.584 229.624C126.326 215.885 134.326 211.784 134.326 211.784Z" fill="#7A462F"/>
<path d="M230.498 237.029L226.397 232.414L224.243 222.57C224.243 222.57 225.787 211.987 227.911 210.557C230.038 209.131 235.501 217.572 235.643 223.444C235.784 229.317 235.643 232.18 235.643 232.18L230.498 237.029Z" fill="#CC6D3D"/>
<path d="M230.87 232.035L228.352 229.202L227.029 223.157C227.029 223.157 227.976 216.656 229.283 215.778C230.59 214.9 233.944 220.086 234.032 223.694C234.121 227.301 234.032 229.06 234.032 229.06L230.87 232.035Z" fill="#B44C29"/>
<path d="M230.498 237.006L215.882 232.813L218.627 231.161L213.072 231.678L215.648 229.336L209.799 229.57L208.63 228.167L216.626 227.887L211.114 224.265L220.658 220.255L166.245 220.063C159.046 219.814 140.34 220.715 133.387 221.071L131.114 221.022L131.409 221.175C130.968 221.198 130.73 221.209 130.73 221.209L133.816 222.428L135.503 223.31L131.11 223.502L131.873 224.84L141.042 225.292L155.355 230.95L135.959 237.014H230.498V237.006Z" fill="#A96443"/>
<path d="M140.658 227.887L136.078 227.504L141.425 229.225L139.133 229.796L147.723 228.65L140.658 227.887Z" fill="#A96443"/>
<path d="M223.165 240.303C223.165 240.303 222.866 232.138 226.155 228.953L224.894 237.858C224.894 237.858 227.202 232.663 231.698 231.475C231.698 231.475 226.991 234.634 225.619 240.476L223.165 240.303Z" fill="#BB83C3"/>
<path d="M147.987 239.54C147.987 239.54 147.631 237.413 146.213 235.281C144.794 233.154 142.487 233.154 142.487 233.154C142.487 233.154 144.794 235.991 145.503 236.88C145.503 236.88 143.196 235.994 141.778 237.946C140.359 239.897 140.359 239.897 140.359 239.897C140.359 239.897 146.144 238.919 147.987 239.54Z" fill="#BB83C3"/>
<path d="M149.341 239.786C149.341 239.786 148.011 236.458 150.805 234.595L149.341 239.786Z" fill="#BB83C3"/>
<path d="M150.537 239.387C150.537 239.387 150.272 237.39 152.664 236.458C155.06 235.527 156.256 235.661 156.256 235.661L150.537 239.387Z" fill="#BB83C3"/>
<path d="M165.432 208.633C165.432 208.633 164.539 217.859 173.126 216.935C181.065 216.081 185.703 217.181 187.535 214.858C189.321 212.596 189.245 208.629 184.603 205.577C179.964 202.526 169.584 205.581 165.432 208.633Z" fill="#1D2538"/>
<path d="M165.433 205.823C165.433 205.823 153.711 208.265 150.533 209.61C147.359 210.952 147.236 212.784 148.336 214.739C149.436 216.694 152.817 221.344 160.058 218.281C163.232 216.939 171.658 217.913 173.981 216.694C176.3 215.471 173.981 203.017 165.433 205.823Z" fill="#1D2538"/>
<path d="M181.805 206.98C187.286 205.114 200.841 202.281 203.283 203.258C207.557 204.968 208.948 210.867 203.999 212.424C201.017 213.363 200.082 213.995 194.002 215.218C187.961 216.429 185.799 216.207 183.396 216.065C178.654 215.785 177.09 208.587 181.805 206.98Z" fill="#273252"/>
<path d="M181.805 206.98C187.286 205.114 200.841 202.281 203.283 203.258C207.557 204.968 208.948 210.867 203.999 212.424C201.017 213.363 200.082 213.995 194.002 215.218C187.961 216.429 185.799 216.207 183.396 216.065C178.654 215.785 177.09 208.587 181.805 206.98Z" fill="#1D2538"/>
<path d="M207.292 245.294C207.292 245.294 210.477 245.972 210.803 247.97C211.144 250.082 210.745 250.967 209.787 251.27C208.806 251.581 207.238 252.121 205.134 251.979C201.212 251.719 201.411 251.65 198.245 248.556C195.175 245.551 197.594 244.454 197.862 243.941C198.126 243.439 207.292 245.294 207.292 245.294Z" fill="#EE5D4F"/>
<path d="M204.462 243.347C204.462 243.347 210.576 245.873 210.86 247.686C211.159 249.599 210.289 250.58 205.133 250.461C201.269 250.373 201.472 249.606 198.406 246.827C195.412 244.113 197.562 243.742 197.827 243.278C198.091 242.822 204.462 243.347 204.462 243.347Z" fill="#121721"/>
<path d="M195.88 209.959C195.696 205.405 204.731 203.446 206.862 206.697C208.994 209.947 207.457 219.5 207.246 224.418C207.035 229.336 206.149 238.137 206.494 238.912C206.839 239.686 208.124 242.139 208.124 242.139L207.664 244.014C207.664 244.014 203.06 245.332 202.68 245.313C202.301 245.298 197.873 245.486 197.402 244.707C196.93 243.929 196.244 242.258 196.244 242.258C196.244 242.258 196.375 239.234 196.39 238.854C196.409 238.471 196.06 214.513 195.88 209.959Z" fill="#1D2538"/>
<path d="M204.716 226.454C204.716 226.454 205.207 209.618 207.027 212.389C208.848 215.165 207.537 223.318 207.353 227.515C207.173 231.713 206.418 239.226 206.713 239.885C207.008 240.545 208.104 242.641 208.104 242.641L207.714 244.24C207.714 244.24 203.784 245.363 203.462 245.351C203.14 245.336 199.361 245.497 198.958 244.834C198.556 244.171 197.969 242.741 197.969 242.741C197.969 242.741 198.41 233.357 198.422 233.035C198.433 232.713 204.716 226.454 204.716 226.454Z" fill="#273252"/>
<path d="M154.845 247.444C154.845 247.444 151.66 248.123 151.334 250.12C150.993 252.232 151.392 253.118 152.35 253.42C153.331 253.731 154.899 254.271 157.004 254.13C160.925 253.869 160.726 253.8 163.892 250.706C166.962 247.701 164.544 246.605 164.275 246.091C164.011 245.589 154.845 247.444 154.845 247.444Z" fill="#EE5D4F"/>
<path d="M157.677 245.497C157.677 245.497 151.563 248.023 151.28 249.836C150.981 251.749 151.851 252.73 157.007 252.612C160.87 252.523 160.667 251.757 163.734 248.978C166.728 246.264 164.577 245.892 164.313 245.428C164.048 244.976 157.677 245.497 157.677 245.497Z" fill="#121721"/>
<path d="M162.013 227.316C162.013 227.316 161.281 217.913 159.081 214.981C156.884 212.048 150.901 207.533 148.336 211.316C145.772 215.099 146.995 217.787 148.214 221.574C149.432 225.361 153.043 240.207 153.653 242.404C154.262 244.6 154.021 243.745 154.385 245.336C154.749 246.927 158.414 247.778 158.414 247.778C158.414 247.778 164.884 246.923 165.62 246.068C166.352 245.213 165.498 245.091 165.743 243.259C165.988 241.426 164.279 239.352 164.279 239.352L162.013 227.316Z" fill="#1D2538"/>
<path d="M161.91 227.688L157.318 223.732C157.318 223.732 149.862 219.531 150.84 222.774C151.392 224.602 155.455 238.77 155.455 238.77L161.327 241.775L155.796 243.12C156.091 244.481 159.027 245.213 159.027 245.213C159.027 245.213 164.218 244.481 164.808 243.749C165.398 243.017 164.708 242.913 164.908 241.346C165.107 239.778 163.731 237.999 163.731 237.999L161.91 227.688Z" fill="#273252"/>
<path d="M189.248 195.335C189.248 195.335 186.496 189.715 186.385 186.933C186.274 184.153 186.343 181.382 189.233 182.053C192.123 182.72 193.097 183.762 193.653 186.879C194.208 189.991 194.764 191.552 195.765 193.775C196.765 195.998 201.081 203.872 196.98 204.976C192.418 206.206 189.248 195.335 189.248 195.335Z" fill="#CC6D3D"/>
<path d="M164.946 184.82C163.359 183.598 161.465 184.268 160.185 185.553C158.475 187.262 157.62 189.095 157.011 191.904C156.401 194.714 154.289 198.563 153.592 201.917C152.982 204.849 152.127 207.655 155.424 208.269C158.72 208.878 160.43 204.24 161.04 202.407C161.649 200.575 163.359 196.424 164.459 193.982C165.444 191.782 166.533 186.043 164.946 184.82Z" fill="#CC6D3D"/>
<path d="M188.39 181.769C188.39 181.769 182.651 179.205 174.835 180.06C167.809 180.826 162.745 184.088 162.745 184.088C162.745 184.088 163.616 193.181 163.616 194.522C163.616 195.117 166.766 209.273 166.766 209.273C166.766 209.273 171.048 212.052 171.416 212.297C171.784 212.543 179.232 213.275 181.674 213.029C184.116 212.784 188.145 205.946 188.145 205.946C188.145 205.946 188.022 191.782 188.145 190.804C188.267 189.827 188.39 181.769 188.39 181.769Z" fill="#F7BC4B"/>
<path d="M186.669 189.497C185.814 188.75 176.17 187.795 176.17 187.795C176.17 187.795 167.119 189.735 166.433 191.042C165.747 192.349 166.782 198.482 166.782 199.337C166.782 199.716 169.347 208.725 169.347 208.725C169.347 208.725 172.835 210.496 173.13 210.649C173.429 210.806 179.493 211.27 181.483 211.117C183.472 210.959 186.753 206.609 186.753 206.609C186.753 206.609 186.654 197.589 186.753 196.968C186.857 196.347 187.528 190.244 186.669 189.497Z" fill="#FEED7F"/>
<path d="M167.63 204.163C167.63 204.163 168.024 196.155 168.323 195.404C168.323 195.404 165.203 199.256 167.63 204.163Z" fill="#F7BC4B"/>
<path d="M181.532 188.987C181.532 188.987 184.246 191.835 184.921 192.648C185.6 193.461 187.091 200.38 187.091 200.38C187.091 200.38 186.957 194.411 185.872 192.242C184.787 190.072 181.532 188.987 181.532 188.987Z" fill="#F7BC4B"/>
<path d="M187.229 202.818L184.381 207.429C184.381 207.429 181.127 209.058 178.551 209.733C175.975 210.411 172.176 212.036 172.176 212.036C172.176 212.036 179.313 211.159 180.992 210.545C188.042 207.973 187.229 202.818 187.229 202.818Z" fill="#F7BC4B"/>
<path d="M181.429 183.479C181.429 186.242 179.24 190.072 176.545 190.072C173.851 190.072 171.662 187.829 171.662 185.066C171.662 182.302 173.851 180.059 176.545 180.059C179.24 180.059 181.429 180.711 181.429 183.479Z" fill="#F5894E"/>
<path d="M177.795 186.553L172.88 188.485C172.88 188.485 170.684 186.488 170.684 183.724C170.684 180.96 173.846 180.059 176.545 180.059C179.244 180.059 177.795 186.553 177.795 186.553Z" fill="#CC6D3D"/>
<path d="M172.394 180.06L173.126 185.311C173.126 185.311 173.858 186.775 176.545 186.898C179.232 187.021 179.232 182.015 179.232 182.015L178.987 179.327L172.394 180.06Z" fill="#CC6D3D"/>
<path d="M191.062 248.514C191.016 249.833 187.083 251.086 180.275 251.086C173.467 251.086 169.431 249.35 169.477 248.031C169.523 246.712 173.486 243.446 180.294 243.446C187.102 243.446 191.111 247.195 191.062 248.514Z" fill="#856792"/>
<path d="M169.392 248.031L167.687 227.075L191.56 226.304L191.062 248.514L169.392 248.031Z" fill="#856792"/>
<path d="M179.698 229.609C186.322 229.597 191.69 228.268 191.687 226.64C191.684 225.012 186.312 223.702 179.688 223.713C173.063 223.725 167.696 225.054 167.699 226.682C167.701 228.31 173.074 229.62 179.698 229.609Z" fill="#665070"/>
<path d="M179.719 228.746C185.842 228.736 190.803 227.692 190.801 226.416C190.799 225.139 185.834 224.113 179.712 224.123C173.589 224.134 168.628 225.177 168.63 226.454C168.632 227.731 173.597 228.757 179.719 228.746Z" fill="#34283A"/>
<path d="M168.917 242.193C168.917 242.193 172.597 243.88 180.075 243.88C187.554 243.88 191.062 242.385 191.062 242.385" stroke="#665070" stroke-width="4" stroke-miterlimit="10" stroke-linecap="round" stroke-linejoin="round"/>
<path d="M169.013 244.984C169.013 244.984 172.597 246.67 180.076 246.67C187.554 246.67 191.062 245.175 191.062 245.175" stroke="#665070" stroke-width="4" stroke-miterlimit="10" stroke-linecap="round" stroke-linejoin="round"/>
<path d="M169.48 206.799C170.351 207.236 170.799 208.087 170.362 209.176C170.04 209.985 170.098 210.579 166.939 210.406C163.719 210.226 155.65 209.739 154.454 208.869C153.258 207.999 152.135 206.359 154.638 204.507C157.141 202.656 160.077 204.112 161.584 204.438C164.831 205.14 168.606 206.366 169.48 206.799Z" fill="#F5894E"/>
<path d="M169.48 206.8C170.351 207.237 160.518 205.547 158.418 205.355C156.317 205.163 154.454 208.866 154.454 208.866C153.258 207.996 152.135 206.356 154.638 204.504C157.141 202.653 160.078 204.109 161.584 204.435C164.831 205.14 168.607 206.367 169.48 206.8Z" fill="#CC6D3D"/>
<path d="M172.041 206.75C172.041 206.75 170.469 208.491 171.063 209.004C171.657 209.518 173.7 207.774 174.302 207.617C174.904 207.463 175.675 206.57 174.985 206.287C174.295 206.003 172.041 206.75 172.041 206.75Z" fill="#CC6D3D"/>
<path d="M167.901 208.127C167.901 208.127 168.166 210.407 169.833 210.323C171.5 210.235 171.589 208.744 172.466 207.601C173.344 206.459 175.188 205.669 175.188 205.669C175.188 205.669 177.469 206.195 177.91 205.758C178.35 205.317 177.557 205.144 177.557 205.144C177.557 205.144 177.645 204.267 176.856 204.178C176.856 204.178 177.469 203.565 176.503 203.036C175.537 202.507 172.903 201.982 172.378 202.07C171.853 202.158 170.182 203.906 169.392 204.439C168.606 204.972 167.813 206.371 167.901 208.127Z" fill="#F5894E"/>
<path d="M197.819 206.448C198.808 205.033 200.011 202.339 198.03 201.35C196.048 200.361 194.998 200.468 192.111 203.354C189.708 205.758 185.583 210.408 184.169 211.964C182.754 213.52 182.804 216.61 187.634 214.367C191.597 212.527 196.83 207.862 197.819 206.448Z" fill="#CC6D3D"/>
<path d="M196.919 207.613C197.777 206.387 195.358 205.072 195.358 205.072C195.358 205.072 193.561 204.673 191.061 207.172C188.98 209.254 186.32 211.044 185.097 212.389C183.87 213.739 183.916 216.414 188.098 214.471C191.529 212.88 196.064 208.836 196.919 207.613Z" fill="#F5894E"/>
<path d="M186.959 212.075C186.959 212.075 188.109 213.478 186.706 214.624C185.303 215.774 182.865 216.763 182.865 216.763L180.941 219.017C180.941 219.017 181.029 220.55 180.734 220.754C180.439 220.957 179.561 220.999 179.446 220.435C179.331 219.872 179.561 218.63 179.561 218.63L180.128 217.503L178.91 218.45C178.91 218.45 178.365 219.285 178.254 219.849C178.143 220.412 177.464 220.186 177.127 219.734C176.79 219.282 177.399 218.132 177.399 218.132C177.399 218.132 176.429 218.335 176.203 217.883C175.977 217.43 178.936 212.892 179.048 212.78C179.159 212.669 181.577 211.293 181.577 211.293C181.577 211.293 183.866 211.19 184.928 211.282C185.99 211.374 186.959 212.075 186.959 212.075Z" fill="#F5894E"/>
<path d="M168.527 178.775C171.187 183.222 173.05 183.479 173.05 183.479C180.797 183.287 184.224 178.177 183.273 173.566C182.476 168.763 181.242 167.122 175.749 167.659C168.101 168.403 166.158 174.812 168.527 178.775Z" fill="#1D2538"/>
<path d="M168.527 178.775C171.187 183.222 173.05 183.479 173.05 183.479C180.797 183.287 184.224 178.177 183.273 173.566C182.476 168.763 181.242 167.122 175.749 167.659C168.101 168.403 166.158 174.812 168.527 178.775Z" fill="#3E4C6F"/>
<path d="M168.369 177.41C170.639 181.205 176.055 177.567 176.055 177.567C177.14 176.732 177.266 174.041 177.197 171.338C177.136 169.004 178.236 166.662 171.731 168.122C165.947 169.418 166.353 174.033 168.369 177.41Z" fill="#1D2538"/>
<path d="M175.783 168.222C175.783 168.222 180.145 169.79 180.927 170.442C181.709 171.097 183.258 179.17 182.257 181.846C181.272 184.483 172.709 184.257 170.593 182.681C168.86 181.39 169.148 180.581 168.519 178.177C167.856 175.644 169.489 173.742 169.565 172.719C169.7 170.967 175.783 168.222 175.783 168.222Z" fill="#CC6D3D"/>
<path d="M181.364 174.758C182.139 175.406 183.254 179.174 182.254 181.85C181.59 183.601 172.713 184.652 172.483 181.965C172.364 180.562 171.896 178.197 173.525 176.238C175.518 173.838 180.943 174.405 181.364 174.758Z" fill="#F5894E"/>
<path d="M167.388 177.112C167.905 178.522 168.998 179.484 169.833 179.258C170.673 179.032 170.937 177.694 170.42 176.272C169.902 174.842 168.798 173.876 167.959 174.114C167.119 174.352 166.866 175.697 167.388 177.112Z" fill="#CC6D3D"/>
<path d="M169.941 171.051C169.941 171.051 170.818 174.785 170.493 175.966L169.665 177.756L168.645 172.428L169.941 171.051Z" fill="#1D2538"/>
<path d="M178.995 168.122C178.995 168.122 178.01 169.705 173.847 170.568C171.781 170.997 170.167 172.082 169.121 172.085C166.556 172.093 169.822 166.776 174.039 165.761C178.301 164.729 178.995 168.122 178.995 168.122Z" fill="#1D2538"/>
<path d="M174.054 165.704C170.7 166.654 167.748 170.396 169.814 170.388C170.401 170.384 171.328 170.354 172.444 170.254C174.307 169.587 176.112 168.241 176.112 168.241C176.162 169.161 175.165 169.729 174.031 170.078C175.024 169.947 176.089 169.763 177.155 169.51C178.907 169.092 179.11 169.142 179.117 168.556C179.137 167.356 177.676 164.673 174.054 165.704Z" fill="#3E4C6F"/>
<path d="M179.413 174.835C179.551 175.448 179.904 175.64 180.21 175.559C180.521 175.479 180.67 175.153 180.532 174.54C180.394 173.923 180.03 173.489 179.72 173.574C179.413 173.654 179.275 174.222 179.413 174.835Z" fill="#34283A"/>
<path d="M174.038 175.214C174.184 175.82 174.533 176.012 174.836 175.931C175.139 175.851 175.28 175.529 175.139 174.919C174.993 174.31 174.633 173.88 174.326 173.961C174.019 174.045 173.893 174.605 174.038 175.214Z" fill="#34283A"/>
<path d="M173.904 172.918C173.904 172.918 174.441 172.424 175.089 172.612" stroke="#34283A" stroke-miterlimit="10" stroke-linecap="round" stroke-linejoin="round"/>
<path d="M179.19 172.397C179.842 172.309 180.379 172.654 180.379 172.654" stroke="#34283A" stroke-miterlimit="10" stroke-linecap="round" stroke-linejoin="round"/>
<path d="M327.422 248.84L249.714 234.795C249.714 234.795 242.492 238.137 241.289 238.54C240.085 238.942 238.08 248.571 238.08 248.571L244.501 261.413L317.126 280.272L331.037 274.921L335.449 259.274L327.422 248.84Z" fill="#7A462F"/>
<path d="M327.422 248.84C327.422 248.84 316.589 249.775 313.914 253.252C311.238 256.728 310.168 267.695 310.168 267.695L317.122 280.268L331.033 274.917C331.033 274.917 335.315 265.02 335.445 259.27C335.583 253.524 327.422 248.84 327.422 248.84Z" fill="#CC6D3D"/>
<path d="M325.808 254.992C325.808 254.992 325.567 255.015 325.168 255.061L324.75 261.413L323.627 255.287C321.615 255.636 318.793 256.33 317.816 257.603C316.233 259.661 315.6 266.147 315.6 266.147L319.713 273.583L327.94 270.417C327.94 270.417 330.47 264.564 330.55 261.16C330.634 257.763 325.808 254.992 325.808 254.992Z" fill="#B44C29"/>
<path d="M295.579 265.016L295.771 264.591L292.574 264.096L296.353 263.31L296.461 263.076L286.153 259.642L297.22 261.405L298.247 259.144L246.582 252.048C246.582 252.048 263.28 258.776 262.314 259.101C261.344 259.423 247.851 258.017 247.851 258.017L252.762 263.659L300.466 276.01L311.449 273.568L295.579 265.016Z" fill="#A96443"/>
<path d="M239.897 245.896L239.361 248.035L245.249 248.571L246.318 247.233L256.748 248.303L245.781 244.293L239.897 245.896Z" fill="#A96443"/>
<path d="M243.915 265.384C243.915 265.384 244.571 260.079 249.094 258.415C249.094 258.415 248.565 261.781 243.915 265.384Z" fill="#BB83C3"/>
<path d="M245.076 259.554C245.153 258.584 244.612 257.334 244.896 255.536C244.896 255.536 241.688 259.105 242.7 262.367L242.937 263.613C242.933 263.617 245 260.523 245.076 259.554Z" fill="#BB83C3"/>
<path d="M324.24 284.006C324.24 284.006 330.009 275.3 335.234 273.089C335.234 273.089 327.633 272.609 325.272 277.451C325.272 277.451 324.102 274.269 323.596 269.301C323.596 269.301 321.331 279.973 322.772 282.53C323.566 283.929 324.24 284.006 324.24 284.006Z" fill="#34283A"/>
<path d="M321.074 281.641C321.074 281.641 321.434 278.839 319.974 274.733C319.594 273.671 317.068 271.885 317.068 271.885L321.074 281.641Z" fill="#34283A"/>
<path d="M288.538 279.747C288.538 279.747 289.205 274.507 292.279 272.901L290.236 278.409C290.236 278.409 292.724 275.4 296.573 275.224C296.573 275.224 293.433 276.263 291.413 278.812C291.087 279.226 290.788 279.678 290.539 280.173L288.538 279.747Z" fill="#BB83C3"/>
<path d="M299.715 278.16C299.715 278.16 303.395 272.077 306.113 271.249L302.886 275.826C302.886 275.826 309.145 272.778 312.388 272.932L302.978 278.935C302.978 278.935 304.71 278.636 305.975 279.218C307.236 279.805 298.926 280.794 298.926 280.794L297.668 276.098L299.715 278.16Z" fill="#BB83C3"/>
<path d="M279.476 196.7C279.476 196.7 276.244 194.963 273.523 197.213C270.801 199.464 266.301 207.245 263.165 211.626C261.176 214.409 258.883 219.435 262.625 220.899C270.828 224.108 273.595 208.426 277.026 205.233C280.457 202.036 282.408 198.494 279.476 196.7Z" fill="#7A462F"/>
<path d="M273.523 197.214C270.801 199.464 266.301 207.245 263.165 211.627C261.176 214.41 264.319 213.317 266.746 212.558C269.172 211.799 267.965 212.619 270.134 208.464C271.951 204.98 276.244 194.963 273.523 197.214Z" fill="#A96443"/>
<path d="M273.461 228.113C273.461 228.113 264.783 230.072 259.612 231.502C254.441 232.932 251.14 234.354 252.747 238.099C254.353 241.844 284.873 242.024 287.016 236.673C289.159 231.322 282.021 226.683 273.461 228.113Z" fill="#CE9436"/>
<path d="M302.548 226.841C302.548 226.841 305.446 239.525 300.808 241.664C296.17 243.803 274.949 241.127 275.485 234.71C276.022 228.29 279.05 224.188 289.396 224.901C299.742 225.614 302.548 226.841 302.548 226.841Z" fill="#CE9436"/>
<path d="M299.025 236.136C297.929 236.623 295.165 237.359 292.846 238.007C293.666 237.543 294.487 237.06 295.326 236.673C298.65 235.14 301.21 232.928 301.21 232.928C301.21 232.928 295.158 230.425 292.248 232.261C284.401 237.21 283.018 236.719 285.295 238.459C286.372 239.283 287.395 239.598 288.388 239.598C287.296 240.272 287.2 240.924 290.466 240.418C295.1 239.701 300.628 235.423 299.025 236.136Z" fill="#F7BC4B"/>
<path d="M274.861 196.454C273.791 197.746 274.458 200.69 274.458 205.505C274.458 208.449 274.769 210.676 275.125 216.203C275.677 224.778 275.489 227.772 275.489 227.772C275.489 227.772 279.645 229.685 285.9 230.298C291.137 230.816 302.985 229.087 302.985 229.087C302.985 229.087 303.518 227.535 303.28 223.628C302.544 211.523 302.828 210.197 302.59 205.727C302.234 199.05 302.813 196.01 300.271 195.205C297.73 194.4 292.114 193.744 288.986 193.652C285.161 193.549 276.601 194.795 274.861 196.454Z" fill="#29ABE2"/>
<path d="M274.861 196.454C273.791 197.746 274.458 200.69 274.458 205.505C274.458 208.449 276.145 199.303 281.657 198.758C293.992 197.547 297.228 212.711 297.228 212.711C297.228 212.711 287.825 209.074 282.366 216.805C280.235 219.826 283.654 230.08 285.904 230.302C291.14 230.82 302.989 229.091 302.989 229.091C302.989 229.091 303.522 227.538 303.284 223.632C302.548 211.527 302.832 210.201 302.594 205.731C302.238 199.053 302.817 196.014 300.275 195.209C297.734 194.404 292.118 193.748 288.99 193.656C285.161 193.549 276.601 194.795 274.861 196.454Z" fill="#1689CB"/>
<path d="M275.218 213.248C275.218 213.248 284.847 217.323 298.834 214.183L298.409 210.515C298.409 210.515 290.562 214.176 274.98 210.097L275.218 213.248Z" fill="#3E4C6F"/>
<path d="M274.903 208.541C274.903 208.541 285.874 212.152 298.09 208.778L297.6 204.972C297.6 204.972 286.445 207.697 274.569 204.941L274.903 208.541Z" fill="#3E4C6F"/>
<path d="M292.559 194.047C292.157 196.5 291.325 197.21 290.911 197.792C289.837 199.287 287.913 200.552 284.908 200.464C281.903 200.376 283.21 196.259 283.21 196.259C283.21 196.259 284.191 193.844 286.545 193.576C289.788 193.208 292.601 193.802 292.559 194.047Z" fill="#7A462F"/>
<path d="M286.583 196.439C284.317 196.366 284.49 195.665 284.49 195.665L283.853 189.762C283.761 188.865 284.582 188.121 285.992 188.167L288.423 188.205C289.791 188.247 290.55 189.018 290.776 189.888C290.776 189.888 291.631 193.764 291.631 194.975C291.635 196.201 288.852 196.512 286.583 196.439Z" fill="#7A462F"/>
<path d="M266.803 288.759C266.761 288.775 266.719 288.794 266.681 288.817C266.071 289.15 261.099 291.841 260.524 292.562C260.053 293.152 260.356 295.326 260.521 296.307C260.57 296.61 260.785 296.859 261.076 296.959C262.253 297.365 265.354 298.446 268.36 298.143C272.128 297.764 272.013 296.341 274.819 295C276.655 294.122 277.774 293.558 278.326 293.271C278.59 293.133 278.709 292.865 278.721 292.566L278.874 289.277C278.893 288.863 278.667 288.499 278.261 288.418C276.386 288.039 271.119 287.203 266.803 288.759Z" fill="#29ABE2"/>
<path d="M266.738 288.786C266.738 288.786 261.026 291.903 260.413 292.673C259.8 293.44 260.382 296.085 260.382 296.085C260.382 296.085 264.472 297.71 268.24 297.331C272.008 296.951 272.008 295.694 274.814 294.352C276.988 293.314 278.157 292.712 278.571 292.493C278.682 292.436 278.755 292.321 278.763 292.198L278.935 289.07C278.95 288.783 278.755 288.53 278.475 288.468C276.819 288.108 271.246 287.13 266.738 288.786Z" fill="#121721"/>
<path d="M263.955 290.266C263.955 290.266 266.811 289.257 269.609 290.545" stroke="#29ABE2" stroke-width="2" stroke-miterlimit="10" stroke-linecap="round" stroke-linejoin="round"/>
<path d="M266.025 289.035C266.025 289.035 268.881 288.027 271.679 289.315" stroke="#29ABE2" stroke-width="2" stroke-miterlimit="10" stroke-linecap="round" stroke-linejoin="round"/>
<path d="M281.193 281.786C281.193 281.786 283.332 271.088 284.582 265.737C285.831 260.385 284.582 257.89 284.582 257.89L285.831 252.006L287.437 249.51C287.437 249.51 286.724 246.659 283.692 244.339C280.66 242.02 275.489 236.136 273.527 241.131C271.564 246.126 268.532 268.236 268.175 271.448C267.819 274.657 267.106 281.79 267.106 281.79C267.106 281.79 264.967 283.573 265.143 284.822C265.323 286.072 267.639 288.387 267.639 288.387L274.772 287.674C274.772 287.674 278.161 289.1 279.411 288.744C280.656 288.387 281.193 281.786 281.193 281.786Z" fill="#F7BC4B"/>
<path d="M287.434 249.51C287.434 249.51 286.721 246.659 283.689 244.339C280.656 242.02 275.485 236.136 273.523 241.131C272.71 243.197 271.74 248.533 271.74 248.533C271.74 248.533 276.375 254.697 278.349 261.923C277.939 266.584 277.011 274.02 277.011 274.02C278.207 271.26 278.874 268.899 279.196 266.917C279.242 267.807 279.234 268.696 279.146 269.578C278.609 274.929 275.669 282.419 275.669 282.419C275.669 282.419 264.971 283.577 265.147 284.826C265.327 286.076 267.643 288.391 267.643 288.391L274.776 287.678C274.776 287.678 278.165 289.104 279.414 288.748C280.664 288.391 281.197 281.794 281.197 281.794C281.197 281.794 283.336 271.096 284.586 265.744C285.835 260.393 284.586 257.898 284.586 257.898L285.835 252.014L287.434 249.51Z" fill="#CE9436"/>
<path d="M294.03 242.019C294.03 242.019 273.967 233.728 266.657 232.835C259.347 231.942 254.352 231.497 252.926 234.529C251.5 237.561 252.926 239.167 253.996 241.663C255.065 244.158 288.683 250.403 288.683 250.403L294.03 242.019Z" fill="#F7BC4B"/>
<path d="M294.03 242.02C294.03 242.02 273.879 233.461 266.569 232.568C259.259 231.674 254.352 231.498 252.926 234.53C251.5 237.562 252.926 239.168 253.996 241.664C254.188 242.112 254.138 235.42 257.473 235.243C265.139 234.837 279.943 240.058 279.943 240.058L288.683 250.4L294.03 242.02Z" fill="#CE9436"/>
<path d="M270.134 237.026C270.134 237.026 273.86 237.014 275.485 238.275C277.11 239.533 279.23 242.914 279.23 242.914L270.134 237.026Z" fill="#CE9436"/>
<path d="M261.574 234.53C261.574 234.53 270.314 235.956 272.453 237.382C272.453 237.382 269.064 232.568 261.574 234.53Z" fill="#F7BC4B"/>
<path d="M291.045 242.687C291.045 242.687 289.174 244.294 286.54 247.548C285.375 248.989 283.758 250.358 283.305 252.056C282.834 253.823 283.689 257.135 286.364 257.894C289.645 258.852 291.324 256.801 292.635 255.82C293.946 254.839 295.089 249.767 296.235 249.273C297.381 248.778 298.853 245.999 298.853 245.999C298.853 245.999 297.872 242.726 296.235 241.744C294.598 240.763 292.352 240.89 291.045 242.687Z" fill="#121721"/>
<path d="M291.712 245.9C291.712 245.9 287.284 250.971 286.579 252.382C285.874 253.792 285.011 256.694 287.836 257.541C290.661 258.388 291.915 256.61 293.486 255C295.058 253.39 295.606 249.775 296.595 249.349C297.584 248.924 298.535 246.889 298.807 246.168C299.209 245.098 298.539 243.182 297.002 242.622C295.449 242.062 292.842 244.347 291.712 245.9Z" fill="#1689CB"/>
<path d="M300.673 195.519C303.307 195.833 304.848 198.957 305.365 201.016C306.201 204.332 306.672 208.993 307.397 211.189C308.727 215.226 309.145 219.726 305.07 220.362C300.992 220.999 301.126 216.813 300.141 212.612C299.447 209.66 297.917 204.638 298.511 206.344C299.109 208.069 295.322 194.887 300.673 195.519Z" fill="#A96443"/>
<path d="M300.673 195.519C303.307 195.833 305.032 198.747 305.549 200.801C306.385 204.113 306.668 208.993 307.397 211.189C308.727 215.226 309.145 219.726 305.07 220.362C302.912 220.7 301.271 210.285 301.271 210.285C301.271 210.285 300.719 204.213 300.056 201.234C299.213 197.482 300.673 195.519 300.673 195.519Z" fill="#7A462F"/>
<path d="M312.503 217.687C312.748 219.68 311.272 222.007 309.202 222.892C307.132 223.778 302.314 224.59 302.065 222.597C301.819 220.604 301.064 219.074 303.134 218.189C305.204 217.307 312.257 215.697 312.503 217.687Z" fill="#7A462F"/>
<path d="M316.194 210.599C316.543 210.599 316.826 210.33 316.826 209.997C316.826 209.665 316.543 209.396 316.194 209.396C315.844 209.396 315.561 209.665 315.561 209.997C315.561 210.33 315.844 210.599 316.194 210.599Z" fill="#4B3355"/>
<path d="M313.841 211.143C314.19 211.143 314.473 210.874 314.473 210.542C314.473 210.209 314.19 209.94 313.841 209.94C313.491 209.94 313.208 210.209 313.208 210.542C313.208 210.874 313.491 211.143 313.841 211.143Z" fill="#4B3355"/>
<path d="M312.82 212.769L293.302 219.27L294.199 223.08L313.652 216.2L314.998 216.579L319.348 214.804L319.897 214.455L320.123 213.267L317.302 210.603L313.204 211.849L312.82 212.769Z" fill="#4B3355"/>
<path d="M312.502 212.017L292.983 218.515L293.88 222.325L313.334 215.444L314.676 215.824L319.03 214.049L320.123 213.244L318.505 210.158L316.98 209.848L312.886 211.094L312.502 212.017Z" fill="#665070"/>
<path d="M297.127 221.44C297.127 221.44 298.308 228.156 295.479 229.919C292.773 231.606 291.278 231.291 291.278 231.291C290.258 231.997 288.453 234.902 285.47 236.079C282.488 237.256 277.072 235.765 274.089 232.94C271.107 230.114 297.127 221.44 297.127 221.44Z" fill="#4B3355"/>
<path d="M297.127 221.44C297.127 221.44 296.775 215.199 292.182 213.67C287.59 212.14 285.708 215.789 284.412 216.142C283.117 216.495 280.058 215.437 277.585 215.789C275.113 216.142 271.345 218.028 271.464 225.093C271.583 232.158 274.994 235.454 280.529 234.63C286.065 233.806 288.066 229.095 289.361 227.684C289.361 227.684 291.6 228.861 294.54 227.45C297.323 226.109 297.127 221.44 297.127 221.44Z" fill="#856792"/>
<path d="M287.318 224.618C289.031 224.618 290.419 223.406 290.419 221.911C290.419 220.417 289.031 219.205 287.318 219.205C285.605 219.205 284.217 220.417 284.217 221.911C284.217 223.406 285.605 224.618 287.318 224.618Z" fill="#4B3355"/>
<path d="M287.318 224.622C288.857 224.622 290.105 223.532 290.105 222.187C290.105 220.843 288.857 219.753 287.318 219.753C285.779 219.753 284.531 220.843 284.531 222.187C284.531 223.532 285.779 224.622 287.318 224.622Z" fill="#34283A"/>
<path d="M277.045 230.563L279.184 229.85L276.151 221.467L274.549 222.36L277.045 230.563Z" fill="#BB83C3"/>
<path d="M277.823 224.019C277.823 224.019 311.943 212.623 312.821 212.297C313.699 211.968 314.189 211.914 313.917 210.983" stroke="#BB83C3" stroke-width="0.5" stroke-miterlimit="10" stroke-linecap="round" stroke-linejoin="round"/>
<path d="M278.042 224.897C278.042 224.897 313.197 212.983 314.899 212.558C316.6 212.132 316.6 211.366 316.217 210.051" stroke="#BB83C3" stroke-width="0.5" stroke-miterlimit="10" stroke-linecap="round" stroke-linejoin="round"/>
<path d="M278.555 225.626C278.555 225.626 315.5 213.21 316.106 213.053C316.711 212.895 317.206 214.705 317.206 214.705" stroke="#BB83C3" stroke-width="0.5" stroke-miterlimit="10" stroke-linecap="round" stroke-linejoin="round"/>
<path d="M278.774 226.431C278.774 226.431 313.587 214.762 314.135 214.544C314.684 214.325 315.285 214.762 315.615 215.64" stroke="#BB83C3" stroke-width="0.5" stroke-miterlimit="10" stroke-linecap="round" stroke-linejoin="round"/>
<path d="M316.601 216.168C316.606 215.836 316.327 215.562 315.978 215.556C315.629 215.551 315.341 215.816 315.336 216.148C315.331 216.48 315.61 216.754 315.959 216.76C316.308 216.765 316.596 216.5 316.601 216.168Z" fill="#665070"/>
<path d="M318.091 215.374C318.096 215.042 317.817 214.768 317.468 214.763C317.119 214.757 316.831 215.022 316.826 215.354C316.821 215.687 317.1 215.961 317.449 215.966C317.798 215.972 318.086 215.707 318.091 215.374Z" fill="#665070"/>
<path d="M307.071 216.556L306.461 217.089L306.615 219.22L308.213 220.742C308.213 220.742 309.505 222.49 310.268 222.417C311.027 222.34 311.103 221.884 311.866 221.884C312.625 221.884 312.855 222.114 313.541 221.505C314.228 220.895 314.91 220.819 315.289 220.746C315.669 220.669 315.669 219.68 316.048 218.998C316.428 218.312 315.136 216.41 314.603 215.421C314.07 214.432 312.928 214.889 312.928 215.268C312.928 215.648 313.461 216.79 313.461 216.79L313.231 218.465L312.545 216.64L310.946 214.509C310.946 214.509 310.187 214.509 309.881 214.739C309.578 214.969 309.727 215.805 309.727 215.805L308.436 215.272L307.293 215.958L307.523 216.717L307.071 216.556Z" fill="#7A462F"/>
<path d="M277.268 220.504C276.156 219.991 274.293 219.619 272.307 217.794C270.885 216.487 267.083 214.164 264.342 214.256C261.605 214.344 259.477 215.927 260.877 219.837C262.276 223.747 271.18 224.721 273.526 225.43C275.876 226.135 277.11 227.04 278.92 224.989C280.729 222.938 278.379 221.018 277.268 220.504Z" fill="#7A462F"/>
<path d="M264.775 219.534C263.353 218.227 259.478 215.923 260.877 219.833C262.276 223.743 271.18 224.717 273.526 225.426C275.876 226.131 266.761 221.363 264.775 219.534Z" fill="#A96443"/>
<path d="M277.172 220.159C277.172 220.159 279.027 219.117 280.07 219.232C281.112 219.347 282.159 220.972 282.738 221.202C283.316 221.436 282.971 223.172 282.971 223.172L282.274 223.521C282.274 223.521 283.55 224.797 284.129 225.027C284.708 225.261 284.942 225.606 284.942 226.304C284.942 227.002 284.593 227.58 284.593 227.58C284.593 227.58 285.057 227.58 285.057 228.278C285.057 228.976 284.478 229.554 283.895 229.554C283.316 229.554 282.155 228.857 282.155 228.857L280.53 229.554C280.53 229.554 278.789 230.133 278.096 229.669C277.398 229.206 275.891 225.495 275.891 225.495C275.891 225.495 276.359 220.159 277.172 220.159Z" fill="#7A462F"/>
<path d="M292.279 183.061C293.701 189.938 292.846 192.414 288.472 193.564C285.164 194.434 281.469 190.992 280.25 186.001C279.031 181.014 280.737 176.311 284.056 175.498C287.376 174.685 290.998 176.87 292.279 183.061Z" fill="#273252"/>
<path d="M290.048 181.969C288.924 177.503 287.824 175.061 282.945 175.87C280.399 176.291 277.992 177.127 276.735 178.258C275.596 179.281 275.071 180.566 275.332 183.609C275.527 185.905 276.194 190.954 277.816 194.48C278.854 196.738 281.833 195.96 284.447 195.358C288.25 194.484 291.849 192.104 291.47 188.738C290.952 184.18 290.508 183.801 290.048 181.969Z" fill="#A96443"/>
<path d="M291.332 187.14C291.044 183.218 289.147 179.4 284.984 180.09C282.81 180.451 278.896 182.674 279.31 185.25C279.759 188.04 280.115 191.007 281.139 193.269C282.017 195.212 283.723 195.684 286.157 194.818C288.924 193.832 290.07 193.729 290.91 191.682C291.746 189.639 291.477 189.121 291.332 187.14Z" fill="#7A462F"/>
<path d="M275.688 178.442C275.351 178.79 275.102 181.041 275.209 182.708C275.232 183.061 275.915 180.949 275.915 180.949C275.915 180.949 276.286 181.405 278.697 181.163C281.109 180.922 282.742 180.032 282.742 180.032C282.742 180.032 284.409 182.838 285.321 183.977C286.23 185.115 287.491 185.617 287.491 185.617L290.719 183.931C290.009 180.458 288.38 175.682 286.004 175.455C281.661 175.045 276.938 177.161 275.688 178.442Z" fill="#273252"/>
<path d="M291.335 185.514C291.347 187.465 290.396 189.071 289.219 189.156C289.219 189.156 288.234 184.966 288.02 184.173C287.886 183.674 287.79 182.06 289.043 181.968C290.3 181.876 291.328 183.494 291.335 185.514Z" fill="#7A462F"/>
<path d="M291.021 186.986C291.067 187.446 290.737 187.872 290.289 187.945C289.84 188.014 289.43 187.703 289.38 187.247C289.327 186.783 289.656 186.35 290.112 186.277C290.565 186.2 290.975 186.522 291.021 186.986Z" fill="#F3E7D9"/>
<path d="M281.595 186.971C281.71 187.665 281.526 188.266 281.185 188.324C280.844 188.378 280.468 187.868 280.345 187.174C280.219 186.472 280.399 185.851 280.748 185.794C281.101 185.736 281.48 186.269 281.595 186.971Z" fill="#1D2538"/>
<path d="M276.953 187.335C277.053 187.967 276.984 188.504 276.8 188.535C276.616 188.565 276.382 188.086 276.279 187.454C276.171 186.814 276.24 186.262 276.428 186.227C276.616 186.197 276.85 186.695 276.953 187.335Z" fill="#1D2538"/>
<path d="M279.759 184.008L281.584 184.123" stroke="#1D2538" stroke-miterlimit="10" stroke-linecap="round" stroke-linejoin="round"/>
<path d="M275.715 184.847L276.405 184.621" stroke="#1D2538" stroke-miterlimit="10" stroke-linecap="round" stroke-linejoin="round"/>
<path d="M123.773 223.655C123.773 223.655 123.93 221.501 124.283 219.91C124.62 218.388 125.284 219.266 125.855 220.589C126.453 221.972 126.744 224.203 126.851 224.728C126.963 225.254 124.226 225.48 123.773 223.655Z" fill="#1D2538"/>
<path d="M121.515 242.101C119.859 241.806 115.773 238.448 115.88 235.542C115.988 232.637 115.827 228.389 116.382 226.68C116.382 226.68 115.942 223.736 115.907 222.114C115.876 220.493 116.275 220.343 116.973 220.991C117.67 221.639 118.909 224.073 118.909 224.073C118.909 224.073 122.282 221.88 125.486 222.574C128.691 223.268 129.987 225.089 130.569 226.749L130.684 226.856C130.684 226.856 134.077 227.013 135.721 227.339C137.366 227.665 137.983 228.355 137.615 230.126C137.247 231.897 137.293 232.736 136.48 233.522C135.664 234.308 131.796 236.435 129.737 237.164C129.737 237.164 129.592 241.158 129.074 242.319C128.557 243.481 123.171 242.392 121.515 242.101Z" fill="#273252"/>
<path d="M120.116 237.478C120.116 237.478 115.777 238.444 115.881 235.538C115.988 232.633 115.827 228.385 116.383 226.676C116.383 226.676 115.942 223.732 115.907 222.11C115.877 220.489 116.275 220.339 116.973 220.987C117.671 221.635 118.909 224.069 118.909 224.069C118.909 224.069 122.282 221.877 125.487 222.57C125.487 222.57 122.083 223.333 121.002 224.874C119.925 226.415 119.304 231.966 119.304 231.966C119.304 231.966 123.957 235.791 123.792 236.155C123.283 237.317 120.116 237.478 120.116 237.478Z" fill="#1D2538"/>
<path d="M124.513 223.552C124.513 223.552 124.544 221.47 124.59 220.086C124.643 218.526 125.533 219.239 126.108 220.562C126.706 221.946 127.17 223.402 127.281 223.927C127.388 224.452 124.666 224.863 124.513 223.552Z" fill="#273252"/>
<path d="M125.85 227.948C126.131 227.744 126.065 227.173 125.703 226.673C125.34 226.172 124.818 225.931 124.537 226.135C124.256 226.339 124.322 226.91 124.684 227.41C125.047 227.911 125.569 228.152 125.85 227.948Z" fill="#121721"/>
<path d="M130.057 226.827C130.232 226.724 130.157 226.272 129.89 225.818C129.622 225.364 129.263 225.079 129.088 225.182C128.913 225.285 128.988 225.737 129.256 226.191C129.523 226.646 129.882 226.93 130.057 226.827Z" fill="#121721"/>
<path d="M137.646 228.592C137.937 229.474 137.557 229.98 137.431 230.536C137.255 231.295 135.089 230.371 134.797 229.489C134.506 228.608 134.245 227.339 135.365 227.324C136.143 227.312 137.358 227.711 137.646 228.592Z" fill="#121721"/>
<path d="M124.976 236.853C124.976 236.853 129.553 238.164 129.618 237.137C131.642 236.443 134.782 234.695 134.782 234.695L129.158 235.803L124.976 236.853Z" fill="#1D2538"/>
<path d="M105.308 252.688C105.028 252.213 103.227 249.909 102.893 248.755C102.56 247.601 101.881 244.849 103.208 243.496C103.208 243.496 101.467 243.381 100.406 247.015C99.3437 250.649 102.702 254.348 102.985 254.658C104.262 256.05 106.109 254.045 105.308 252.688Z" fill="#1D2538"/>
<path d="M133.874 263.831C133.402 263.023 132.053 262.329 132.053 262.329C131.904 262.156 131.436 261.838 131.367 261.658C130.85 260.274 129.443 256.491 129.282 255.874C128.948 254.589 128.757 250.607 128.063 247.651C127.365 244.696 123.31 247.931 123.67 250.844C123.927 252.922 127.009 261.022 127.319 261.811L128.956 264.272C129.477 264.763 130.689 264.943 131.865 264.771C133.034 264.59 134.334 264.625 133.874 263.831Z" fill="#1D2538"/>
<path d="M124.302 237.037C124.302 237.037 118.974 234.626 115.241 237.271C111.898 239.636 110.986 246.555 106.911 247.421C104.35 247.966 104.465 257.158 105.347 258.814C106.961 261.907 110.457 261.578 111.917 261.34C116.226 260.638 126.48 249.993 128.082 248.805C129.519 247.739 130.991 242.925 128.354 240.004C127.346 238.888 126.204 237.693 124.302 237.037Z" fill="#273252"/>
<path d="M123.206 237.604C120.116 236.006 118.978 234.622 115.24 237.267C111.898 239.632 109.893 246.819 105.834 247.755C101.237 248.813 102.456 257.349 105.416 259.519C113.159 265.196 117.713 256.433 119.024 253.593C119.024 253.593 114.6 251.83 114.435 249.986C114.271 248.142 118.246 244.6 118.246 244.6C119.971 241.97 124.298 238.172 123.206 237.604Z" fill="#1D2538"/>
<path d="M126.081 265.073C125.932 264.288 123.62 262.77 123.593 262.574C123.149 259.285 123.356 256.05 123.34 255.283C123.306 253.712 124.513 250.794 124.456 247.394C124.402 244.117 119.066 246.785 119.051 250.58C119.043 252.769 119.423 260.209 119.542 262.237C119.557 262.524 119.634 262.8 119.756 263.061L121.355 265.238C121.623 265.901 122.827 266.277 124.176 266.093C125.525 265.901 126.284 266.143 126.081 265.073Z" fill="#273252"/>
<path d="M115.746 235.703C115.746 235.703 115.079 236.769 115.022 237.6C115.022 237.6 117.966 238.95 123.045 240.245C125.766 240.939 129.826 241.269 129.826 241.269L129.972 239.072C129.972 239.076 121.715 238.566 115.746 235.703Z" fill="#992C29"/>
<path d="M129.949 239.103C129.949 239.103 131.846 241.602 131.904 243.04L128.641 244.842C128.641 244.842 129.193 240.525 129.949 239.103Z" fill="#C94039"/>
<path d="M129.949 239.103C129.121 240.33 128.641 244.842 128.641 244.842C128.641 244.842 130.171 243.036 130.248 242.442C130.324 241.852 129.949 239.103 129.949 239.103Z" fill="#992C29"/>
<path d="M129.677 240.59C129.677 240.59 127.618 243.27 126.556 243.764L125.901 241.97C125.901 241.97 127.526 240.701 129.677 240.59Z" fill="#992C29"/>
<path d="M33.1696 308.443C33.1696 308.443 28.5697 309.098 24.6253 307.128C24.6253 307.128 26.2697 305.158 29.2252 306.143C29.2252 306.143 25.9401 302.528 22.3253 298.913C22.3253 298.913 35.7992 302.528 37.7695 306.473C39.7436 310.413 33.1696 308.443 33.1696 308.443Z" fill="#34283A"/>
<path d="M57.7988 309.029L116.793 270.271C116.793 270.271 118.797 260.535 115.934 254.233C113.071 247.931 99.6081 247.647 99.6081 247.647L29.7317 280.583L57.7988 309.029Z" fill="#7A462F"/>
<path d="M63.6714 305.499L116.793 270.271L100.758 272.851L105.339 265.691L103.334 262.54L67.5353 281.441L63.6714 290.032L72.691 295.617L63.6714 305.499Z" fill="#A96443"/>
<path d="M57.7987 309.029C57.7987 309.029 42.5232 310.175 37.3713 309.029C32.2155 307.883 26.872 296.046 26.872 296.046C26.872 296.046 22.8624 286.31 29.7354 280.583C36.6084 274.856 47.2036 280.295 50.9295 282.3C54.6478 284.305 62.9544 292.42 57.7987 309.029Z" fill="#CC6D3D"/>
<path d="M61.9347 288.196L60.0909 286.31L77.5323 278.229L67.9146 284.796L73.5457 283.27L73.0742 286.436L77.2984 285.735L63.8092 293.359L61.9347 288.196Z" fill="#7A462F"/>
<path d="M115.435 272.422C115.435 272.422 115.435 264.667 112.645 261.252L113.576 269.627C113.576 269.627 108.923 264.042 107.37 262.49C107.37 262.49 111.092 268.075 112.645 272.418L108.302 269.006L114.508 276.144L115.435 272.422Z" fill="#856792"/>
<path d="M48.6561 285.34C48.6561 285.34 39.7591 280.717 34.4078 283.258L37.7504 292.037L30.5248 288.023C29.4629 291.684 31.0039 295.429 31.0039 295.429C31.0039 295.429 34.9253 304.752 38.7088 305.595C42.4922 306.434 53.7006 304.959 53.7006 304.959C57.4802 292.765 48.6561 285.34 48.6561 285.34Z" fill="#B44C29"/>
<path d="M106.83 251.692L99.5585 254.685L101.249 255.003L107.075 253.485L106.033 255.912L113.251 253.198L110.315 251.768L106.83 251.692Z" fill="#A96443"/>
<path d="M72.6252 268.232C74.63 271.464 90.5419 263.533 92.884 259.956C94.9271 256.836 77.1101 259.308 73.3574 260.861C69.6046 262.413 70.7431 265.196 72.6252 268.232Z" fill="#C94039"/>
<path d="M52.9451 214.862C52.9758 213.486 49.4377 208.05 47.0457 209.127C44.65 210.208 48.4142 214.612 48.4142 214.612C48.4142 214.612 44.995 214.363 43.2853 215.525C41.5757 216.686 42.0893 220.094 44.9106 219.761C47.7319 219.431 52.8608 218.848 52.9451 214.862Z" fill="#273252"/>
<path d="M47.7745 218.986C47.7745 218.986 45.0145 219.676 44.6695 222.521C44.359 225.089 45.7045 226.055 45.7045 226.055C45.7045 226.055 42.0821 227.519 43.2397 231.429C44.5967 236.025 53.4017 236.382 55.4141 233.361C55.4141 233.361 63.7668 234.615 68.7194 229.076C73.6719 223.533 68.7194 217.79 65.5301 218.04C65.5301 218.04 62.2527 207.694 52.773 212.178C47.8895 214.486 47.7745 218.986 47.7745 218.986Z" fill="#273252"/>
<path d="M50.3307 218.707C50.3307 218.707 47.908 220.106 47.6129 222.858C47.3484 225.342 48.4984 226.273 48.4984 226.273C48.4984 226.273 45.4049 227.692 46.3939 231.467C47.5554 235.91 55.0724 236.259 56.7935 233.334C56.7935 233.334 63.9272 234.546 68.1591 229.19C72.3911 223.835 68.1591 218.277 65.4337 218.523C65.4337 218.523 61.4816 208.062 53.3819 212.397C49.2075 214.632 50.3307 218.707 50.3307 218.707Z" fill="#3E4C6F"/>
<path d="M53.3437 214.559C53.1904 213.532 49.8669 209.94 48.2225 211.048C46.578 212.155 49.9398 214.95 49.9398 214.95C49.9398 214.95 47.3638 215.203 46.2407 216.284C45.1175 217.369 45.934 219.837 47.9886 219.228C50.0509 218.626 53.7922 217.537 53.3437 214.559Z" fill="#3E4C6F"/>
<path d="M86.2876 251.293C86.2876 251.293 94.6939 252.198 95.9857 252.845C97.2775 253.493 98.37 257.426 95.0082 259.496C91.6464 261.566 89.0053 262.026 83.1865 260.086C77.3637 258.143 77.6244 250.645 86.2876 251.293Z" fill="#1D2538"/>
<path d="M69.866 267.324C69.866 267.324 85.1262 267.324 87.8401 267.324C90.5541 267.324 92.4937 257.756 85.9005 257.369C79.3073 256.982 69.866 254.524 67.5392 256.982C65.2124 259.439 62.4946 266.419 69.866 267.324Z" fill="#273252"/>
<path d="M69.866 267.324C69.866 267.324 85.1262 267.324 87.8401 267.324C90.5541 267.324 92.4937 257.756 85.9005 257.369C79.3073 256.982 69.866 254.524 67.5392 256.982C65.2124 259.439 62.4946 266.419 69.866 267.324Z" fill="#1D2538"/>
<path d="M86.3866 290.58C86.3866 290.58 97.0201 262.946 95.3143 259.964C93.6085 256.981 83.6458 265.484 84.2783 269.926C84.907 274.369 81.7982 289.388 81.7982 289.388L86.3866 290.58Z" fill="#CC6D3D"/>
<path d="M93.6352 269.558C95.9275 262.31 97.6984 255.678 96.9778 254.417C95.272 251.435 90.6951 251.726 88.4066 255.211C86.1182 258.695 83.6457 265.48 84.2744 269.926L93.6352 269.558Z" fill="#1D2538"/>
<path d="M94.0799 269.037C95.9582 263.092 97.4148 257.652 96.8245 256.621C95.4254 254.175 91.3775 254.348 89.4992 257.208C87.6209 260.067 85.8882 265.698 86.4057 269.34L94.0799 269.037Z" fill="#273252"/>
<path d="M82.733 288.372C82.1733 288.74 81.4642 289.507 79.9769 290.546C78.7042 291.435 80.8892 293.52 81.2304 294.965C80.732 294.072 86.7809 300.638 88.3909 301.463C92.0363 303.326 87.3214 295.264 88.5634 297.595C88.5634 297.595 85.8533 292.895 86.3478 290.875C86.8461 288.855 83.2965 288.004 82.733 288.372Z" fill="#CC6D3D"/>
<path d="M80.805 289.637C81.0427 289.511 81.3493 289.457 81.2535 289.672C81.1577 289.886 80.9852 290.825 81.2765 291.324C81.5678 291.822 84.9372 297.411 87.0149 298.028C88.2837 298.404 88.0767 297.246 87.6665 296.146C87.3944 295.418 86.942 294.122 86.942 294.122C86.942 294.122 88.161 296.824 88.8357 298.005C89.5103 299.186 90.4418 302.394 90.162 303.253C89.8783 304.111 82.7753 299.393 81.9626 298.224C81.15 297.054 80.1303 295.234 79.7048 294.367C79.3675 293.685 78.6469 293.328 78.5817 292.976C78.4399 292.186 80.092 290.024 80.805 289.637Z" fill="#992C29"/>
<path d="M84.5733 262.827C84.5733 262.827 84.9528 260.132 88.0117 259.914C91.5191 259.669 97.6063 274.043 98.3231 275.354C99.04 276.665 107.044 290.764 107.672 292.865C108.251 294.785 105.093 297.798 102.344 294.329C99.8565 291.186 94.3174 283.784 91.6494 281.177C88.9777 278.57 81.6332 268.895 84.5733 262.827Z" fill="#CC6D3D"/>
<path d="M95.5176 272.299C97.4802 272.161 100.604 279.766 101.271 280.717C101.942 281.664 105.936 289.1 106.293 290.273C106.615 291.351 102.617 287.885 101.616 286.597C100.616 285.309 99.1822 283.159 97.8942 281.3C96.6062 279.441 93.8079 272.418 95.5176 272.299Z" fill="#F5894E"/>
<path d="M81.9096 261.202C81.9096 261.202 83.7687 257.319 87.2762 257.587C90.7836 257.856 97.0931 273.258 98.2891 274.948L91.6461 281.173C88.9781 278.571 78.9695 267.27 81.9096 261.202Z" fill="#1D2538"/>
<path d="M84.3854 262.222C84.3854 262.222 85.8343 259.201 88.5636 259.408C91.2929 259.615 96.2071 271.605 97.1386 272.924L91.6877 271.893C89.6063 269.865 84.3854 262.222 84.3854 262.222Z" fill="#273252"/>
<path d="M102.314 293.427C102.494 294.075 103.004 294.983 103.533 296.716C103.989 298.203 106.646 296.762 108.125 296.881C107.121 297.08 115.232 293.343 116.509 292.062C119.403 289.168 110.283 291.177 112.882 290.709C112.882 290.709 107.577 291.844 105.806 290.751C104.035 289.663 102.134 292.779 102.314 293.427Z" fill="#CC6D3D"/>
<path d="M102.674 295.249C102.624 294.984 102.67 294.674 102.847 294.831C103.019 294.988 104.073 294.923 104.637 294.8C105.2 294.678 112.115 292.573 113.231 291.515C114.346 290.457 112.828 290.856 111.632 290.998C110.858 291.09 108.999 291.224 108.999 291.224C108.999 291.224 111.878 290.856 113.212 290.58C114.546 290.304 117.478 290.151 118.54 290.454C119.41 290.703 118.893 293.486 112.119 296.33C110.808 296.882 108.355 296.947 106.948 298.151C106.76 298.312 106.795 298.634 106.611 298.791C106.239 299.113 105.676 299.224 105.438 299.193C104.629 299.09 102.82 296.046 102.674 295.249Z" fill="#992C29"/>
<path d="M89.1581 234.511C89.1581 234.511 90.2697 234.867 90.1586 235.262C90.0512 235.657 89.0469 235.477 89.0469 235.477C89.0469 235.477 89.1887 236.086 88.7594 236.194C88.3301 236.301 87.9736 236.159 87.9736 236.159C87.9736 236.159 88.3301 236.554 87.9736 236.661C87.6171 236.769 85.896 236.949 85.9688 236.769C86.0416 236.585 89.1581 234.511 89.1581 234.511Z" fill="#F5894E"/>
<path d="M84.4318 237.014C84.4318 237.014 85.8654 234.235 86.3407 233.756C86.8199 233.277 88.7288 233.898 88.7288 233.898L84.4318 237.014Z" fill="#F5894E"/>
<path d="M69.2521 238.199C69.2521 238.199 73.8213 244.32 74.5842 245.754C75.347 247.188 73.737 250.277 71.2531 248.652C68.7729 247.03 64.9512 242.496 64.8554 240.491C64.7672 238.482 67.3431 237.052 69.2521 238.199Z" fill="#CC6D3D"/>
<path d="M81.0892 239.295C79.3374 240.226 73.07 242.208 70.7777 244.021C68.4854 245.834 69.1562 247.743 71.4447 248.985C73.7331 250.227 79.069 245.846 82.0283 244.033C84.9876 242.22 85.7159 240.633 84.9531 239.582C84.1941 238.532 83.3355 238.103 81.0892 239.295Z" fill="#CC6D3D"/>
<path d="M81.5644 242.254L75.0287 248.46C75.0287 248.46 78.6549 246.359 82.5687 243.665C85.9918 241.307 81.5644 242.254 81.5644 242.254Z" fill="#F5894E"/>
<path d="M84.0177 241.917C84.0177 241.917 86.0992 242.147 86.977 241.177C87.8548 240.207 89.4801 239.195 89.9785 238.877C90.6569 238.448 90.9099 237.658 89.5491 237.765C88.6138 237.838 88.1768 238.306 87.299 238.49C86.4212 238.674 86.2372 237.566 86.2372 237.566C86.2372 237.566 87.299 236.362 87.5328 235.948C87.7667 235.534 89.1505 234.979 89.9823 234.515C90.8141 234.051 90.9981 233.683 90.6761 233.219C90.3541 232.755 89.8711 233.146 88.8745 233.357C88.104 233.522 86.5592 233.932 85.9114 234.576C85.2636 235.224 84.4777 235.853 82.7144 238.337C81.5683 239.95 82.1701 242.009 84.0177 241.917Z" fill="#CC6D3D"/>
<path d="M61.4402 234.676C62.3027 232.433 63.2495 231.916 65.4038 232.778C67.5581 233.641 70.0574 240.192 70.0574 240.192L63.7631 242.262C63.767 242.262 61.191 235.324 61.4402 234.676Z" fill="#EE5D4F"/>
<path d="M51.9991 233.725C52.6967 232.33 54.9124 232.759 58.3776 232.69C62.6862 232.606 63.9818 233.12 68.5051 235.189C71.7327 236.665 71.564 243.983 71.909 246.31C72.254 248.637 72.254 258.12 66.048 259.5C59.8419 260.88 58.0326 253.121 54.3259 247.26C50.6191 241.399 50.8798 235.968 51.9991 233.725Z" fill="#F7BC4B"/>
<path d="M51.9991 233.725C52.6967 232.33 54.9124 232.759 58.3776 232.69C60.5319 232.648 60.3977 237.673 59.3704 239.855C58.1591 242.434 57.289 244.842 59.5966 247.211C63.541 251.255 59.3436 250.975 66.048 259.5C59.8419 260.88 58.0326 253.121 54.3259 247.26C50.6191 241.399 50.8798 235.968 51.9991 233.725Z" fill="#CE9436"/>
<path d="M58.3852 255.437C58.4696 260.435 58.2702 262.283 60.4475 265.254C62.6248 268.229 71.3953 268.014 72.8596 268.616C74.3239 269.217 74.2396 268.961 74.2396 268.961C74.2396 268.961 74.4351 266.849 74.7801 264.867C75.1251 262.885 75.1672 260.6 78.0115 258.143C80.8558 255.686 83.6349 257.955 85.2525 256.721C90.1668 252.972 92.2367 251.937 92.2367 251.937C92.2367 251.937 87.1922 251.289 81.2468 250.645C75.8342 250.059 76.2022 250.044 70.2568 250.128C68.0719 250.159 58.2971 250.438 58.3852 255.437Z" fill="#F7BC4B"/>
<path d="M57.9059 255.107C57.9903 260.106 58.2739 262.283 60.4474 265.258C62.6247 268.232 71.3952 268.018 72.8595 268.619C74.3238 269.221 74.2395 268.964 74.2395 268.964C74.2395 268.964 74.4349 266.852 74.7799 264.87C75.1249 262.889 75.1671 260.604 78.0114 258.147C80.8556 255.69 83.6348 257.959 85.2524 256.725C85.2524 256.725 80.8058 253.378 76.6046 253.762C72.4033 254.145 66.4963 255.092 65.4345 254.812C64.3726 254.532 63.008 253.129 62.0229 251.991C61.0377 250.852 57.8523 252.194 57.9059 255.107Z" fill="#CE9436"/>
<path d="M70.0842 243.075C69.6894 241.89 66.9218 241.361 65.6032 242.151C64.2845 242.94 62.9659 244.788 62.7052 246.103C62.4446 247.418 64.4187 245.049 67.1863 244.654C69.2869 244.355 70.4791 244.263 70.0842 243.075Z" fill="#CE9436"/>
<path d="M55.6206 244.589C55.6206 244.589 54.6508 252.198 54.1333 253.401C53.6158 254.609 53.2709 257.28 50.7716 257.196C48.2723 257.112 48.0116 255.214 48.0998 253.317C48.188 251.419 48.2071 244.244 48.5521 243.554C48.8971 242.864 55.4481 241.054 55.6206 244.589Z" fill="#CC6D3D"/>
<path d="M55.6208 244.589C55.6208 244.589 54.651 252.198 54.1335 253.401C53.616 254.609 52.558 255.364 52.6462 253.47C52.7305 251.573 52.7535 244.397 53.0985 243.707C53.4397 243.017 55.4483 241.054 55.6208 244.589Z" fill="#F5894E"/>
<path d="M55.9662 241.399C55.9662 241.399 57.1737 232.951 53.467 233.039C49.7602 233.123 48.9821 237.102 48.6409 241.227C48.4684 243.297 48.2959 245.191 48.2959 245.191C48.2959 245.191 49.9327 244.589 51.6577 244.328C53.536 244.048 55.6213 244.585 55.6213 244.585L55.9662 241.399Z" fill="#C94039"/>
<path d="M55.9658 241.399C55.9658 241.399 57.1733 232.951 53.4665 233.039L54.3635 236.769L53.6007 242.783L51.6572 244.336C53.5355 244.056 55.6208 244.593 55.6208 244.593L55.9658 241.399Z" fill="#EE5D4F"/>
<path d="M53.5932 257.392C53.9612 254.567 54.9501 250.948 51.2434 250.174C47.5366 249.399 48.0771 254.892 47.8164 256.272C47.5596 257.652 47.1265 268.685 47.0421 270.41C46.9578 272.134 50.2314 273.687 51.4389 271.617C52.6463 269.547 53.1945 260.458 53.5932 257.392Z" fill="#CC6D3D"/>
<path d="M53.5929 257.392C53.8919 255.092 54.6049 252.259 52.8492 250.871C52.4506 250.557 52.7496 251.408 52.3893 254.13C52.2168 255.444 51.6456 258.047 51.3888 259.427C51.1319 260.807 50.8176 263.395 50.7333 265.12C50.649 266.845 52.1478 269.555 52.4161 267.868C52.9834 264.315 53.3246 259.469 53.5929 257.392Z" fill="#F5894E"/>
<path d="M40.6331 275.04C40.6331 275.04 39.5942 275.301 39.1381 274.779C38.6819 274.258 41.6719 272.311 42.2584 271.724C42.8448 271.138 45.3786 270.294 46.7433 270.425C48.1079 270.555 40.6331 275.04 40.6331 275.04Z" fill="#A96443"/>
<path d="M51.2893 269.838C51.2893 269.838 52.1327 271.073 52.0023 272.307C51.872 273.541 52.0675 274.063 50.3119 274.258C48.5562 274.454 46.9961 275.688 46.9961 275.688C46.9961 275.688 46.6051 276.014 46.0224 276.014C45.4398 276.014 45.1791 275.688 45.2443 275.362C45.3095 275.036 47.7129 273.089 47.7129 273.089C47.7129 273.089 45.5701 273.219 45.1791 273.219C44.7881 273.219 42.9712 274.193 42.9712 274.193C42.9712 274.193 41.7369 275.492 41.2807 275.818C40.8246 276.144 40.5026 276.274 39.7857 275.753C39.0728 275.232 40.4374 274.128 40.7594 273.545C41.0852 272.959 43.1628 271.467 43.1628 271.467C43.1628 271.467 48.8859 269.386 51.2893 269.838Z" fill="#CC6D3D"/>
<path d="M62.8282 235.97C63.31 235.078 62.6964 233.813 61.4576 233.144C60.2189 232.475 58.8241 232.656 58.3423 233.548C57.8605 234.44 58.4742 235.706 59.7129 236.375C60.9517 237.044 62.3465 236.863 62.8282 235.97Z" fill="#F5894E"/>
<path d="M54.9309 227.435L58.3655 235.017L63.0344 235.511L61.2213 227.845L54.9309 227.435Z" fill="#F5894E"/>
<path d="M54.9309 227.435L58.3655 235.017L61.8039 230.731L61.2213 227.845L54.9309 227.435Z" fill="#CC6D3D"/>
<path d="M61.1987 213.298C61.1987 213.298 62.4445 214.689 63.6865 215.256C64.6257 215.686 65.3655 215.739 65.3655 215.739L65.1662 215.379L65.6108 215.007C65.6108 215.007 63.882 214.9 61.5476 213.064L61.1987 213.298Z" fill="#EE5D4F"/>
<path d="M61.0719 213.133C61.0719 213.133 61.7657 214.869 62.7394 215.828C63.4754 216.552 64.1538 216.859 64.1538 216.859L64.0887 216.453L64.633 216.253C64.633 216.253 63.046 215.559 61.4782 213.037L61.0719 213.133Z" fill="#EE5D4F"/>
<path d="M61.8653 214.034C62.3023 213.938 62.6204 211.58 61.574 211.573C60.5888 211.569 59.481 211.738 59.6957 212.474C59.9103 213.21 61.4321 214.126 61.8653 214.034Z" fill="#EE5D4F"/>
<path d="M62.1873 212.684C62.1873 212.684 61.9842 211.688 61.6737 211.722C61.3632 211.757 61.6584 212.175 61.7695 212.834C61.8769 213.489 62.264 213.106 62.1873 212.684Z" fill="#F7BC4B"/>
<path d="M61.4822 213.562C61.4822 213.562 61.3978 213.102 62.0533 212.627C62.7088 212.152 63.211 211.887 63.648 212.136C64.0888 212.385 64.2843 213.547 64.0658 214.145C63.8473 214.743 62.3293 214.36 61.9422 214.153C61.555 213.946 61.4822 213.562 61.4822 213.562Z" fill="#EE5D4F"/>
<path d="M63.9164 213.068C63.9164 213.068 64.0966 213.999 63.6826 214.168C63.0692 214.421 63.3874 212.631 63.4142 212.347C63.4372 212.071 64.0007 212.393 63.9164 213.068Z" fill="#F7BC4B"/>
<path d="M64.6367 218.116C67.7302 225.277 66.2429 228.347 61.0488 229.796C57.1465 230.885 53.2136 229.432 51.4465 224.675C49.6755 219.918 50.469 215.31 54.0838 213.478C58.86 211.055 62.5591 213.306 64.6367 218.116Z" fill="#F5894E"/>
<path d="M63.5332 219.887C65.8906 226.254 62.249 228.876 60.0104 229.52C56.8748 230.421 53.2831 229.371 51.7344 225.154C50.1858 220.938 51.1096 216.261 54.0114 214.735C60.7732 211.178 62.6055 217.388 63.5332 219.887Z" fill="#CC6D3D"/>
<path d="M52.8175 227.334C53.5991 226.839 53.5371 225.339 52.6789 223.983C51.8207 222.627 50.4913 221.929 49.7096 222.424C48.928 222.919 48.99 224.419 49.8482 225.775C50.7064 227.131 52.0358 227.829 52.8175 227.334Z" fill="#CC6D3D"/>
<path d="M50.8178 222.67L51.2203 223.352C51.2203 223.352 49.9055 219.312 53.8767 216.345C57.411 213.7 61.7617 213.972 61.7617 213.972C61.7617 213.972 57.8403 210.235 52.5926 214.471C48.5792 217.71 50.8178 222.67 50.8178 222.67Z" fill="#F7BC4B"/>
<path d="M57.7603 220.324C57.7603 220.324 57.8523 221.21 57.1853 221.558C56.5184 221.911 55.8667 221.21 55.8667 221.21C55.8667 221.21 56.3382 221.286 56.8595 221.045C57.3847 220.799 57.7603 220.324 57.7603 220.324Z" fill="#273252"/>
<path d="M63.7557 217.76C63.7557 217.76 64.1506 218.392 63.4299 218.752C63.0427 218.948 62.3259 218.427 62.3259 218.427C62.3259 218.427 62.9047 218.515 63.2996 218.327C63.6944 218.139 63.7557 217.76 63.7557 217.76Z" fill="#273252"/>
<path d="M61.5208 216.518C62.3564 215.889 63.0847 216.314 63.0847 216.314" stroke="#1D2538" stroke-width="0.25" stroke-miterlimit="10" stroke-linecap="round" stroke-linejoin="round"/>
<path d="M56.1696 218.526C55.3148 218.722 55.0311 219.941 55.0311 219.941" stroke="#1D2538" stroke-width="0.25" stroke-miterlimit="10" stroke-linecap="round" stroke-linejoin="round"/>
<path d="M182.249 320.836C182.249 320.836 156.011 322.906 154.976 322.906C153.941 322.906 152.906 326.36 156.011 329.119L180.869 324.286L182.249 320.836Z" fill="#B44C29"/>
<path d="M167.71 323.952L170.167 325.045L156.011 329.123L180.866 324.29L172.762 322.45L167.71 323.952Z" fill="#7A462F"/>
<path d="M191.223 326.705C191.223 326.705 198.817 334.992 202.271 338.097C205.724 341.206 212.283 344.311 212.283 344.311C212.283 344.311 212.628 347.42 210.903 349.144C209.178 350.869 202.961 351.214 202.961 351.214L196.662 342.248L187.079 328.081L191.223 326.705Z" fill="#B44C29"/>
<path d="M212.283 344.315L207.864 344.031L202.946 346.898L203.084 351.268C203.084 351.268 210.348 350.739 210.903 350.183C211.938 349.148 213.322 346.04 212.283 344.315Z" fill="#D77D5B"/>
<path d="M210.919 345.84L208.251 345.668L205.284 347.4L205.368 350.038C205.368 350.038 209.753 349.716 210.091 349.382C210.708 348.757 211.543 346.883 210.919 345.84Z" fill="#A96443"/>
<path d="M196.211 334.992L198.725 335.878L192.09 329.005L191.749 330.557L198.725 339.979L201.129 343.529L196.211 334.992Z" fill="#7A462F"/>
<path d="M224.802 336.518L193.642 324.635L192.568 327.23L208.488 337.756L215.787 342.8L224.802 336.518Z" fill="#B44C29"/>
<path d="M224.802 336.518C224.802 336.518 221.05 334.877 220.705 334.877C220.36 334.877 216.469 337.334 216.469 337.334C216.469 337.334 214.656 342.536 215.921 343.069C217.189 343.605 221.383 343.479 221.383 343.479L224.933 341.432L224.802 336.518Z" fill="#D77D5B"/>
<path d="M223.242 337.932C223.242 337.932 220.026 337.744 219.838 337.744C219.65 337.744 218.159 339.028 218.159 339.028C218.159 339.028 217.442 341.233 218.136 341.528C218.83 341.823 221.16 342.095 221.16 342.095L223.242 339.638V337.932Z" fill="#A96443"/>
<path d="M215.177 336.062L203.336 329.415L206.721 330.139L197.173 326.275L195.359 327.724L206.357 333.647L205.751 332.194L215.177 336.062Z" fill="#7A462F"/>
<path d="M179.727 326.137C179.727 326.137 171.198 338.791 169.473 340.171C167.748 341.551 167.403 347.075 173.272 348.458C179.141 349.838 181.904 347.768 181.904 347.768L185.358 327.053L179.727 326.137Z" fill="#B44C29"/>
<path d="M181.904 347.768L180.551 341.984L173.314 338.707L168.944 340.481C168.944 340.481 167.851 343.349 168.944 345.672C170.036 347.995 171.949 348.677 175.775 349.497C179.593 350.314 181.904 347.768 181.904 347.768Z" fill="#D77D5B"/>
<path d="M179.206 346.745L178.359 343.123L173.828 341.072L171.091 342.183C171.091 342.183 170.408 343.977 171.091 345.43C171.773 346.883 172.973 347.312 175.365 347.822C177.757 348.336 179.206 346.745 179.206 346.745Z" fill="#A96443"/>
<path d="M181.23 329.143L177.542 335.287L180.275 333.785L181.23 340.75L184.645 329.687L181.23 329.143Z" fill="#7A462F"/>
<path d="M177.071 323.255L164.298 328.433L160.154 331.887C157.391 332.577 145.653 338.791 144.273 339.136C142.893 339.481 144.542 344.479 146.27 345.169C147.995 345.859 149.452 344.315 149.452 344.315C149.452 344.315 177.071 328.778 179.834 327.399C182.594 326.015 177.071 323.255 177.071 323.255Z" fill="#B44C29"/>
<path d="M175.859 326.183L166.51 330.028L172.352 328.805L166.606 332.198L166.698 332.669L162.93 335.211L178.5 327.502L175.859 326.183Z" fill="#7A462F"/>
<path d="M143.441 341.095C143.326 339.439 144.266 339.132 144.266 339.132C144.266 339.132 146.991 339.071 147.673 339.707C148.356 340.343 148.72 343.759 148.72 343.759C148.72 343.759 148.402 345.146 147.991 345.33C147.581 345.514 146.186 345.488 145.193 345.104C143.123 344.303 143.503 341.965 143.441 341.095Z" fill="#D77D5B"/>
<path d="M144.246 341.835C144.174 340.769 144.779 340.57 144.779 340.57C144.779 340.57 146.535 340.527 146.976 340.941C147.417 341.352 147.65 343.552 147.65 343.552C147.65 343.552 147.443 344.445 147.183 344.564C146.918 344.683 146.021 344.663 145.381 344.418C144.039 343.901 144.285 342.398 144.246 341.835Z" fill="#A96443"/>
<path d="M165.981 331.328L152.319 337.883L150.498 340.796L153.051 338.795L157.237 338.247L165.981 331.328Z" fill="#7A462F"/>
<path d="M187.684 331.193C170.688 331.619 164.397 313.319 163.538 310.601C162.68 307.883 160.284 297.917 163.538 294.302C163.538 304.594 169.254 305.533 169.254 305.533C169.254 305.533 163.88 295.352 167.809 291.799C171.738 288.249 179.408 288.295 179.013 276.259C178.891 272.575 182.383 268.803 185.273 268.803C185.273 268.803 183.119 280.127 190.739 279.809C198.36 279.49 195.776 293.033 196.14 297.733C196.14 297.733 197.194 302.455 199.418 299.174C201.641 295.893 202.446 291.078 202.446 291.078C202.446 291.078 205.145 299.864 205.555 305.733C206.636 321.281 197.11 330.959 187.684 331.193Z" fill="#F7BC4B"/>
<path d="M183.107 328.633C167.187 325.616 171.109 312.338 172.259 310.256C172.259 310.256 172.335 314.603 173.083 316.32C174.325 319.184 179.216 320.154 177.177 315.784C175.138 311.414 174.436 308.65 178.526 301.056C178.526 301.056 184.387 296.265 183.118 286.107C182.375 280.15 186.024 299.412 186.024 299.412C186.024 299.412 188.06 294.766 188.834 301.559C189.321 305.844 192.219 320.184 197.087 313.833C198.179 323.473 189.229 329.794 183.107 328.633Z" fill="#EE5D4F"/>
<path d="M204.075 323.04C211.596 323.86 208.801 313.806 208.801 313.806C208.801 313.806 207.122 319.671 204.075 323.04Z" fill="#F7BC4B"/>
<path d="M173.271 265.005C172.934 267.036 173.329 271.03 175.303 266.699C177.066 262.835 173.609 262.973 173.271 265.005Z" fill="#FEED7F"/>
<path d="M196.374 275.132C196.374 275.132 200.1 275.81 199.084 272.759C198.068 269.712 196.374 275.132 196.374 275.132Z" fill="#EE5D4F"/>
<path d="M192.817 290.377C192.817 290.377 194.512 289.361 194.17 286.651C193.833 283.937 192.817 290.377 192.817 290.377Z" fill="#EE5D4F"/>
<path d="M174.693 279.874L173.677 275.132L172.999 275.81C173.002 275.81 170.967 277.842 174.693 279.874Z" fill="#EE5D4F"/>
<path d="M179.922 246.344C176.311 247.548 172.7 240.728 178.316 237.919C182.502 235.826 179.408 237.367 178.297 241.02C177.055 245.106 180.846 246.038 179.922 246.344Z" fill="#F7BC4B"/>
<path d="M166.222 274.335C165.018 272.728 159.924 277.589 161.829 282.986C162.549 285.026 161.806 280.353 164.616 278.348C167.425 276.343 167.425 275.941 166.222 274.335Z" fill="#F7BC4B"/>
<path d="M192.299 254.107C191.096 254.509 189.892 258.921 194.707 261.731C194.707 261.731 193.503 253.704 192.299 254.107Z" fill="#F7BC4B"/>
<path opacity="0.4" d="M157.555 289.855C157.555 289.855 153.856 273.767 166.766 262.451C166.766 262.451 169.066 247.279 181.363 238.796C193.66 230.313 196.037 231.805 198.958 207.862C201.243 189.14 209.729 185.165 205.126 169.648C200.438 153.848 208.058 133.252 195.926 122.94C183.794 112.629 178.906 106.649 178.335 102.317C176.583 88.9775 185.055 76.9027 194.105 59.2506C197.865 51.9137 188.041 16.184 188.041 16.184C200.779 29.5275 205.126 56.4217 203.205 64.1035C198.007 84.8913 194.416 84.7916 203.811 102.317C213.206 119.843 226.255 122.94 230.502 155.09C237.398 167.989 232.323 181.781 228.681 190.271C225.043 198.762 227.194 219.439 225.848 227.274C220.566 258.013 208.472 263.061 212.643 281.867C216.813 300.669 219.316 315.569 197.8 326.885C176.28 338.193 136.648 310.597 157.555 289.855Z" fill="#FEED7F"/>
</svg>
