<svg width="396" height="441" viewBox="0 0 396 441" fill="none" xmlns="http://www.w3.org/2000/svg">
<path d="M182.277 331.382C138.058 331.833 102.646 341.367 68.5747 350.802C45.7357 357.125 26.3021 372.029 34.0746 372.48C41.8472 372.932 54.9716 371.577 54.9716 371.577C54.9716 371.577 1.76046 399.772 17.0707 412.224C28.7544 421.708 80.4164 409.062 84.305 408.159C88.1935 407.256 77.9821 415.385 117.274 419.45C131.807 420.954 135.339 408.611 135.339 406.804C148.012 403.783 166.953 408.611 166.953 408.611C166.953 408.611 158.372 424.418 188.632 429.386C232.688 436.612 250.108 426.45 263.905 424.418C288.442 420.805 278.506 405.901 278.506 405.901C278.506 405.901 358.657 408.611 364 396.417C354.768 376.545 294.516 359.383 294.516 359.383C294.516 359.383 321.727 353.963 294.033 346.737C266.339 339.511 226.492 330.93 182.277 331.382Z" fill="#BB83C3"/>
<path d="M192.244 333.64C168.308 334.092 145.148 341.385 136.694 348.092C128.239 354.799 160.178 358.028 160.178 358.028C160.178 358.028 152.623 370.421 185.921 361.189C219.446 351.895 244.633 353.963 245.988 348.092C247.343 342.221 216.181 333.188 192.244 333.64Z" fill="#856792"/>
<path d="M157.889 385.578C153.617 387.1 154.023 390.997 162.975 389.191C171.926 387.384 163.792 384.607 157.889 385.578Z" fill="#856792"/>
<path d="M65.3362 414.933C60.3682 416.74 59.6953 422.435 68.5834 420.353C76.1753 418.546 70.3041 413.127 65.3362 414.933Z" fill="#BB83C3"/>
<path d="M62.1749 376.807C55.0978 379.137 11.3574 401.741 47.8853 400.111C66.5737 399.276 79.7614 396.796 95.1484 390.545C109.601 384.674 108.697 378.184 114.569 373.835C130.827 362.879 138.053 361.19 130.376 358.028C110.359 349.786 61.8768 356.782 74.3734 367.964C82.9544 375.642 65.3408 379.706 65.3408 379.706C65.3408 379.706 69.1119 374.522 62.1749 376.807Z" fill="#856792"/>
<path d="M121 411.447C111.705 411.542 44.3627 445.089 119.342 439.764C181.667 435.338 140.465 419.17 140.465 419.17C140.465 419.17 183.587 405.386 151.9 403.774C116.506 401.972 121 411.447 121 411.447Z" fill="#BB83C3"/>
<path d="M230.181 359.835C236.053 355.318 279.409 363.448 287.539 376.093C291.355 382.028 260.441 387.836 257.279 390.546C254.118 393.255 263.151 404.546 247.795 409.514C232.44 414.482 209.406 420.353 200.374 417.643C191.341 414.934 169.663 407.707 171.921 402.288C174.179 396.868 199.019 396.417 208.503 389.191C217.987 381.965 232.44 374.738 229.278 370.674C226.117 366.609 224.31 364.351 230.181 359.835Z" fill="#856792"/>
<path d="M108.422 375.642C91.0343 375.642 73.6465 395.513 95.1712 395.513C116.696 395.513 125.81 375.642 108.422 375.642Z" fill="#856792"/>
<path d="M346.368 438.215C356.86 434.602 347.624 427.995 335.981 428.202C324.338 428.41 335.863 441.837 346.368 438.215Z" fill="#BB83C3"/>
<path d="M326.198 436.738C350.022 431.68 353.594 411.591 306.923 413.836C260.251 416.081 302.379 441.792 326.198 436.738Z" fill="#BB83C3"/>
<path d="M283.023 392.352C276.7 395.965 292.958 402.739 296.571 395.965C300.184 389.19 289.345 388.739 283.023 392.352Z" fill="#856792"/>
<path d="M21.6043 90.9262C21.6043 90.9262 -6.36521 108.309 1.34413 116.439L154.262 35.5563C154.262 35.5563 153.81 19.5957 138.988 22.0074C138.988 22.0074 131.626 -5.18976 109.117 0.884666C86.6074 6.9591 82.4705 31.4917 82.4705 31.4917C82.4705 31.4917 74.5083 21.4835 59.3244 27.016C37.4746 35.0144 38.9424 78.3528 38.9424 78.3528C38.9424 78.3528 34.0783 69.1622 19.9423 77.5535C9.22959 83.9214 21.6043 90.9262 21.6043 90.9262Z" fill="#F3E7D9"/>
<path d="M297 132.614C297 132.614 299.258 116.356 309.646 116.356C309.646 116.356 303.323 110.936 312.807 105.968C322.291 101 327.259 99.6452 335.389 103.71C335.389 103.71 322.743 77.5153 356.164 66.6762C389.584 55.837 410.811 81.1283 399.972 85.6446C389.133 90.1609 371.971 103.258 360.68 103.71L297 132.614Z" fill="#F3E7D9"/>
<path d="M168.76 266.347L144.372 277.638C144.372 277.638 153.856 264.089 139.856 262.734C125.855 261.379 99.209 289.38 99.209 289.38C99.209 289.38 84.3052 275.831 63.5302 284.412C42.7552 292.993 39.1422 313.317 39.1422 313.317C39.1422 313.317 21.9802 317.381 15.6574 327.317C9.33458 337.253 21.9802 332.737 38.6906 327.769C55.4009 322.801 131.275 293.445 151.598 287.122C171.922 280.799 173.276 265.444 168.76 266.347Z" fill="#F3E7D9"/>
<path d="M115.283 355.96C115.283 355.96 118.706 355.255 123.76 356.664C128.814 358.073 127.946 362.246 127.563 363.285C127.179 364.324 122.73 366.383 113.002 365.697C103.274 365.01 103.016 364.401 97.5382 364.667C91.5812 364.956 94.1916 354.903 95.9078 351.719C97.624 348.535 115.283 355.96 115.283 355.96Z" fill="#EE5D4F"/>
<path d="M114.7 351.023C114.7 351.023 117.636 350.242 122.726 351.665C127.816 353.087 128.041 359.934 127.662 360.977C127.283 362.021 122.812 364.093 113.056 363.407C103.301 362.721 100.438 363.226 94.9911 362.395C91.9923 361.944 94.1782 352.55 95.8944 349.348C97.6106 346.146 114.7 351.023 114.7 351.023Z" fill="#121721"/>
<path d="M98.2424 249.704C99.0689 250.35 127.052 291.458 127.052 291.458C127.052 291.458 129.676 300.4 129.161 302.726C128.646 305.052 116.416 350.599 116.416 350.599L107.835 352.405L98.0257 349.777L108.056 302.256C108.056 302.256 78.2713 258.963 76.8939 256.921C75.5164 254.88 86.1116 240.261 98.2424 249.704Z" fill="#1D2538"/>
<path d="M105.532 260.927C106.358 261.573 127.052 291.457 127.052 291.457C127.052 291.457 129.676 300.4 129.161 302.726C128.646 305.052 116.416 350.599 116.416 350.599L107.835 352.405L111.855 339.511L123.146 297.961C123.146 297.961 112.758 281.034 111.403 278.992C110.048 276.951 93.4057 251.484 105.532 260.927Z" fill="#273252"/>
<path d="M91.9287 374.639C91.9287 374.639 95.2572 373.966 100.243 375.312C105.229 376.658 104.484 380.655 104.141 381.635C103.798 382.615 99.4935 384.602 89.9596 383.943C80.4256 383.283 80.1547 382.701 74.8029 382.954C68.9813 383.234 71.2711 373.614 72.8654 370.565C74.4596 367.517 91.9287 374.639 91.9287 374.639Z" fill="#EE5D4F"/>
<path d="M91.2284 369.915C91.2284 369.915 94.0782 369.17 99.0913 370.529C104.104 371.888 104.511 378.442 104.172 379.44C103.833 380.438 99.5159 382.425 89.9503 381.761C80.3848 381.097 77.5982 381.594 72.269 380.795C69.3244 380.343 71.2167 371.378 72.8155 368.312C74.4142 365.245 91.2284 369.915 91.2284 369.915Z" fill="#121721"/>
<path d="M54.588 241.846C54.588 241.846 50.0311 249.578 53.4228 258.403C56.7559 267.061 68.8912 278.871 91.5314 258.218C105.437 245.531 68.7918 234.168 54.588 241.846Z" fill="#273252"/>
<path d="M57.2522 265.046C73.0593 285.234 85.2533 303.191 85.2533 303.191C84.8559 306.42 86.1205 306.42 86.1205 306.42L70.3044 362.093C70.3044 362.093 69.6901 368.524 72.4586 369.721C75.2271 370.918 87.3263 371.306 87.3263 371.306L94.3537 369.721C94.3537 369.721 114.162 310.982 114.614 309.613C115.065 308.245 116.511 301.312 115.314 298.512C114.117 295.712 99.001 269.057 86.6398 252.798C73.8497 236.002 40.8084 244.05 57.2522 265.046Z" fill="#273252"/>
<path d="M57.2522 265.046C73.0593 285.234 85.2533 303.191 85.2533 303.191C84.8559 306.42 86.1204 306.42 86.1204 306.42L70.3044 362.093C70.3044 362.093 69.6901 368.524 72.4586 369.721C75.2271 370.918 87.3263 371.306 87.3263 371.306L94.3537 369.721L82.0467 358.028C82.0467 358.028 94.5388 308.493 94.7601 307.825C95.2118 306.47 75.1142 269.147 73.9174 266.347C72.7206 263.547 86.6398 252.798 86.6398 252.798C73.8497 236.002 40.8084 244.05 57.2522 265.046Z" fill="#1D2538"/>
<path d="M156.331 153.471C147.805 154.523 118.688 156.687 108.847 159.794C99.006 162.901 102.176 181.73 115.206 180.361C128.236 178.993 153.951 177.651 162.388 175.24C170.824 172.828 164.858 152.423 156.331 153.471Z" fill="#7A462F"/>
<path d="M152.217 165.318C152.217 165.318 148.644 173.899 147.931 174.608C145.673 176.866 122.748 180.027 135.782 178.672C148.816 177.317 153.951 177.647 162.388 175.244C170.824 172.842 152.217 165.318 152.217 165.318Z" fill="#A96443"/>
<path d="M164.244 174.214C164.244 174.214 138.831 184.855 136.694 189.118C134.436 192.731 130.936 204.925 144.313 200.445C157.691 195.965 172.577 186.372 173.38 182.113C174.184 177.854 175.91 172.141 164.244 174.214Z" fill="#F5894E"/>
<path d="M103.165 184.737C103.165 184.737 131.049 184.286 140.082 185.108C149.114 185.93 153.531 194.94 144.797 200.097C136.062 205.255 118.787 200.743 108.526 201.091C98.2651 201.439 90.8855 189.118 103.165 184.737Z" fill="#CC6D3D"/>
<path d="M103.165 184.737C103.165 184.737 131.049 184.286 140.082 185.108C149.114 185.93 153.531 194.94 144.797 200.097C136.062 205.255 118.787 200.743 108.526 201.091C98.2651 201.439 90.8855 189.118 103.165 184.737Z" fill="#F5894E"/>
<path d="M103.165 184.737L118.629 191.376C118.629 191.376 124.008 197.862 127.21 198.151C136.243 198.964 153.531 194.94 144.797 200.097C136.062 205.255 118.787 200.743 108.526 201.091C98.2651 201.439 90.8855 189.118 103.165 184.737Z" fill="#CC6D3D"/>
<path d="M144.372 195.893L138.952 198.602C138.952 198.602 130.936 204.925 144.313 200.445C157.691 195.965 172.576 186.372 173.38 182.113C173.796 179.918 164.013 173.23 157.469 176.924C155.636 177.958 156.209 188.025 154.308 189.118C149.828 191.688 147.29 194.664 144.372 195.893Z" fill="#CC6D3D"/>
<path d="M220.408 213.1C220.408 213.1 197.344 207.039 194.887 206.095C192.43 205.151 181.198 214.36 192.696 220.281C204.195 226.202 211.665 228.41 219.794 227.959C227.472 227.534 226.713 216.772 220.408 213.1Z" fill="#F5894E"/>
<path d="M234.093 204.198C234.093 204.198 222.694 212.603 217.085 215.146C211.475 217.688 214.677 228.306 220.792 227.728C226.908 227.15 239.919 219.07 242.529 214.762C245.14 210.453 244.115 200.228 234.093 204.198Z" fill="#F5894E"/>
<path d="M234.093 204.198C234.093 204.198 222.694 212.603 217.085 215.146C211.475 217.688 212.762 225.375 218.891 224.797C225.02 224.219 239.933 219.07 242.543 214.762C245.153 210.453 244.115 200.228 234.093 204.198Z" fill="#CC6D3D"/>
<path d="M252.899 195.671C252.899 195.671 251.996 194.8 241.888 199.849C236.27 202.654 228.791 207.007 228.791 207.007L236.333 220.926C236.333 220.926 254.118 213.055 258.115 205.698C262.112 198.34 252.899 195.671 252.899 195.671Z" fill="#992C29"/>
<path d="M220.408 213.1C220.408 213.1 197.344 207.039 194.887 206.095C192.43 205.151 181.198 214.36 192.696 220.281C204.195 226.202 210.762 225.7 218.891 225.249C226.569 224.824 226.713 216.772 220.408 213.1Z" fill="#CC6D3D"/>
<path d="M168.814 338.057C168.146 338.057 163.164 341.53 158.824 346.737C155.17 351.118 157.397 353.286 161.082 354.867C164.244 356.222 167.947 357.576 175.322 351.94C179.735 348.566 183.131 345.432 183.564 343.264C183.998 341.096 182.697 334.584 182.697 334.584L168.814 338.057Z" fill="#29ABE2"/>
<path d="M168.814 337.19C168.146 337.19 166.014 339.046 161.037 343.643C154.759 349.447 157.614 350.955 158.869 351.89C162.889 354.866 167.075 355.413 174.889 351.073C176.393 350.237 178.547 347.713 179.662 346.737C182.142 344.556 183.275 342.591 183.564 341.096C184.016 338.924 182.697 333.717 182.697 333.717L168.814 337.19Z" fill="#121721"/>
<path d="M213.2 336.142C213.982 336.142 219.686 338.969 224.762 344.479C229.034 349.117 226.69 350.075 224.762 352.157C221.05 356.172 212.618 355.418 203.987 349.447C198.82 345.875 196.445 343.951 195.934 341.652C195.424 339.353 196.951 332.466 196.951 332.466L213.2 336.142Z" fill="#29ABE2"/>
<path d="M209.912 332.926C210.694 332.926 217.084 337.704 223.407 342.672C228.375 346.57 227.02 348.092 223.859 350.802C220.295 353.855 214.144 353.128 208.052 348.995C206.656 348.047 200.265 344.407 200.265 344.407C200.265 344.407 196.287 341.399 195.934 339.813C195.428 337.519 196.95 331.549 196.95 331.549L209.912 332.926Z" fill="#121721"/>
<path d="M162.739 222.638C162.739 227.258 161.985 237.131 161.985 244.217C161.985 262.282 161.985 280.908 162.288 282.606C162.717 284.968 166.782 333.667 168.76 337.253C168.76 337.253 170.706 339.186 173.15 338.924C178.357 338.369 183.785 336.359 183.989 335.022C184.404 332.398 182.331 304.763 183.203 283.084C183.634 273.233 185.138 263.458 187.688 253.932C194.846 211.357 162.739 206.587 162.739 222.638Z" fill="#F7BC4B"/>
<path d="M179.224 265.597C179.224 265.597 172.373 279.774 172.825 282.154C173.276 284.534 166.782 333.215 168.76 336.801C168.76 336.801 170.706 339.186 173.15 338.924C178.357 338.368 183.786 336.359 183.989 335.022C184.418 332.312 183.655 283.057 183.655 283.057C183.655 283.057 187.516 254.948 187.688 253.909C194.846 211.356 179.224 265.597 179.224 265.597Z" fill="#CE9436"/>
<path d="M196.59 216.216C196.59 216.216 162.324 206.967 161.986 222.087C161.647 237.208 212.369 249.185 214.375 226.152C215.671 211.248 196.59 216.216 196.59 216.216Z" fill="#F7BC4B"/>
<path d="M186.374 237.894C186.256 240.64 193.92 277.285 194.765 284.773C196.273 298.092 194.846 335.889 194.846 335.889C194.846 335.889 200.839 337.641 203.247 337.641C205.654 337.641 211.769 333.717 211.769 333.717C211.769 333.717 212.749 305.756 213.07 297.704C213.693 282.217 215.242 293.973 216.177 273.767C217.044 255.16 212.64 224.336 207.862 218.293C202.994 212.151 187.57 209.938 186.374 237.894Z" fill="#F7BC4B"/>
<path d="M162.938 226.897L175.534 232.023L211.534 224.038L162.938 226.897Z" fill="#CE9436"/>
<path d="M184.527 228.162C184.527 228.162 172.454 234.886 178.696 237.443C184.938 239.999 186.667 228.704 186.667 228.704C186.667 228.704 186.667 235.65 191.003 234.778C195.339 233.906 190.204 227.195 184.527 228.162Z" stroke="#FEED7F" stroke-width="2" stroke-miterlimit="10"/>
<path d="M209.601 240.428C209.547 241.647 206.245 264.541 206.245 264.541L194.955 280.302L194.846 335.898C194.846 335.898 200.839 337.65 203.247 337.65C205.654 337.65 211.769 333.726 211.769 333.726C211.769 333.726 215.779 290.026 214.826 295.703C213.873 301.38 217.536 278.993 217.536 278.993C217.536 278.993 216.89 223.618 212.117 217.571C207.248 211.406 210.798 212.472 209.601 240.428Z" fill="#CE9436"/>
<path d="M171.47 283.509C171.47 283.509 174.631 301.122 173.276 311.058C173.276 311.058 170.567 297.961 170.115 293.445C169.663 288.928 171.47 283.509 171.47 283.509Z" fill="#F7BC4B"/>
<path d="M183.041 149.925L151.237 153.602L152.502 165.773L156.67 180.916L161.638 226.364C161.638 226.364 176.994 228.974 191.297 227.15C199.279 226.165 207.189 224.67 214.98 222.674L217.609 176.924L219.456 168.063C219.456 168.063 221.714 156.537 220.152 156.059C218.589 155.58 195.407 149.239 183.041 149.925Z" fill="#1689CB"/>
<path d="M200.975 162.752L198.198 183.075L188.601 207.635L180.376 222.448L161.656 226.364C161.656 226.364 177.012 228.974 191.315 227.15C199.297 226.165 207.207 224.67 214.998 222.674L217.609 176.924L219.456 168.063C219.456 168.063 221.714 156.537 220.151 156.059C218.589 155.58 212.745 161.907 200.975 162.752Z" fill="#29ABE2"/>
<path d="M174.225 165.565C177.147 169.743 182.991 170.985 188.42 169.743C193.849 168.501 195.095 166.401 195.515 163.063C195.935 159.726 197.602 151.795 193.008 150.54C188.415 149.284 176.75 148.038 173.39 154.297C173.39 154.297 171.303 161.392 174.225 165.565Z" fill="#7A462F"/>
<path d="M160.085 177.064L160.988 186.097C160.988 186.097 193.862 191.566 214.023 184.516V176.748C214.023 176.748 188.587 185.266 160.085 177.064Z" fill="#3E4C6F"/>
<path d="M160.631 187.985L161.498 196.701C161.498 196.701 193.564 201.601 213.223 194.529V187.014C213.223 187.014 188.849 193.955 160.631 187.985Z" fill="#3E4C6F"/>
<path d="M205.342 139.014C204.615 154.559 201.422 159.401 191.4 159.469C183.827 159.518 177.779 150.097 177.901 138.721C178.023 127.344 184.215 117.228 191.793 117.309C199.259 117.39 206.128 122.62 205.342 139.014Z" fill="#273252"/>
<path d="M199.665 135.288C199.769 122.683 198.798 119.251 188.375 118.357C182.955 117.905 175.842 117.955 172.662 119.712C169.781 121.292 169.316 123.325 168.223 129.991C167.396 135.027 166.918 146.679 168.354 155.124C169.257 160.544 175.354 160.918 181.026 161.036C189.282 161.208 197.922 158.033 198.943 150.599C200.338 140.527 199.629 139.471 199.665 135.288Z" fill="#7A462F"/>
<path d="M199.245 147.058C200.848 138.477 198.554 129.223 188.216 128.306C182.824 127.827 172.179 130.343 171.664 136.101C171.1 142.338 170.648 148.453 171.772 153.882C172.734 158.547 176.099 160.991 182.408 160.535C189.589 160.011 192.385 160.449 195.578 156.551C198.771 152.654 198.432 151.384 199.245 147.058Z" fill="#A96443"/>
<path d="M170.567 120.47C168.39 124.562 169.153 124.345 168.471 127.986C168.309 128.753 171.018 125.89 171.018 125.89C171.018 125.89 171.944 126.685 177.255 127.489C182.567 128.293 184.567 126.793 184.567 126.793C184.567 126.793 188.6 134.218 189.928 137.158C190.799 139 192.085 140.616 193.686 141.878L201.535 140.031C201.923 132.19 201.043 120.136 196.07 118.352C186.97 115.078 172.744 116.379 170.567 120.47Z" fill="#273252"/>
<path d="M201.991 143.761C200.943 147.957 198.026 150.879 195.447 150.418C195.447 150.418 195.632 140.884 195.614 139.064C195.614 137.926 196.278 134.408 199.024 134.9C201.77 135.392 203.084 139.439 201.991 143.761Z" fill="#A96443"/>
<path d="M200.505 146.751C200.428 147.24 200.169 147.683 199.78 147.989C199.39 148.296 198.899 148.444 198.405 148.404C198.168 148.382 197.938 148.313 197.729 148.199C197.519 148.085 197.336 147.93 197.189 147.742C197.042 147.555 196.935 147.339 196.875 147.109C196.814 146.878 196.802 146.638 196.838 146.403C196.91 145.908 197.167 145.459 197.558 145.147C197.949 144.835 198.444 144.683 198.943 144.723C199.182 144.744 199.415 144.814 199.626 144.93C199.837 145.045 200.022 145.203 200.169 145.394C200.316 145.584 200.422 145.803 200.48 146.037C200.537 146.27 200.546 146.513 200.505 146.751Z" fill="#F3E7D9"/>
<path d="M180.286 141.543C180.155 143.097 179.432 144.289 178.664 144.222C177.897 144.154 177.377 142.867 177.495 141.295C177.612 139.723 178.339 138.486 179.116 138.558C179.893 138.63 180.421 139.972 180.286 141.543Z" fill="#1D2538"/>
<path d="M170.115 139.778C169.984 141.196 169.537 142.302 169.126 142.271C168.715 142.239 168.471 141.074 168.598 139.66C168.724 138.247 169.167 137.081 169.591 137.113C170.016 137.145 170.255 138.346 170.115 139.778Z" fill="#1D2538"/>
<path d="M177.973 134.173C178.665 133.95 179.409 133.95 180.101 134.174C180.792 134.397 181.396 134.833 181.826 135.419" stroke="#1D2538" stroke-linecap="round" stroke-linejoin="round"/>
<path d="M168.833 135.108L171.294 134.751" stroke="#1D2538" stroke-linecap="round" stroke-linejoin="round"/>
<path d="M220.246 189.57C219.794 190.021 217.085 200.409 224.762 201.312C232.44 202.215 237.408 195.441 231.537 191.376C225.666 187.312 220.246 189.57 220.246 189.57Z" fill="#273252"/>
<path d="M247.904 280.347C247.872 281.603 248.356 295.016 249.006 300.486C249.656 305.955 252.619 343.034 253.78 350.07C254.818 356.393 262.361 357.536 264.077 351.741C265.793 345.947 264.677 326.653 267.365 314.202C270.052 301.75 267.365 281.969 260.215 280.844C256.149 280.164 252.012 279.997 247.904 280.347Z" fill="#F5894E"/>
<path d="M247.167 272.796C247.136 274.052 247.678 287.47 248.414 292.939C249.15 298.408 249.435 304.284 249.435 304.284C252.352 306.408 255.72 307.832 259.276 308.448C265.3 309.527 268.394 306.723 268.394 306.723C271.285 294.28 268.304 274.49 260.554 273.338C256.128 272.642 251.636 272.46 247.167 272.796Z" fill="#121721"/>
<path d="M264.98 347.094C265.432 347.672 267.518 351.836 267.69 353.611C267.861 355.386 268.99 358.872 262.401 358.782C256.982 358.705 254.583 361.402 251.449 361.542C244.517 361.844 240.231 362.183 236.446 359.862C232.661 357.54 239.183 358.15 247.877 353.647C256.571 349.144 263.959 345.784 264.98 347.094Z" fill="#992C29"/>
<path d="M255.058 347.663C259.466 343.752 263.639 344.289 264.325 347.049C264.732 348.647 259.357 351.944 258.079 352.748C254.66 354.889 250.812 357.314 246.3 356.293C241.789 355.273 246.463 355.286 255.058 347.663Z" fill="#F5894E"/>
<path d="M254.828 294.904C254.828 296.258 255.785 310.711 256.634 316.582C257.483 322.453 261.715 362.26 263.11 369.77C264.361 376.545 271.822 377.349 273.322 371.008C274.821 364.667 273.539 348.074 275.223 330.361C276.524 316.672 274.053 295.586 266.985 294.773C262.946 294.258 258.855 294.302 254.828 294.904Z" fill="#F5894E"/>
<path d="M254.828 294.903C254.828 296.258 255.785 310.711 256.634 316.582C257.483 322.453 261.715 362.26 263.11 369.77C264.361 376.545 274.049 368.867 272.635 362.544C271.732 358.48 271.28 352.157 267.216 329.575C264.781 316.026 274.053 295.594 266.985 294.768C262.946 294.255 258.855 294.301 254.828 294.903Z" fill="#CC6D3D"/>
<path d="M253.833 286.783C253.833 288.138 254.863 302.59 255.78 308.461C256.697 314.333 257.194 320.656 257.194 320.656C260.101 322.766 263.484 324.125 267.044 324.612C273.019 325.452 275.968 322.254 275.968 322.254C278.375 308.678 274.73 287.479 267.048 286.675C262.656 286.155 258.216 286.192 253.833 286.783Z" fill="#1D2538"/>
<path d="M253.833 286.783C253.833 288.138 254.863 302.59 255.78 308.461C256.697 314.333 257.194 320.655 257.194 320.655C260.101 322.766 263.484 324.125 267.044 324.612L262.247 303.381C262.247 303.381 280.313 292.004 272.635 291.187C264.957 290.369 253.833 286.783 253.833 286.783Z" fill="#121721"/>
<path d="M262.044 368.199C262.044 368.199 251.706 384.335 260.238 381.079C268.769 377.823 276.496 372.896 272.766 368.623C269.035 364.351 262.044 368.199 262.044 368.199Z" fill="#CC6D3D"/>
<path d="M274.044 366.275C274.446 366.939 276.167 371.667 276.158 373.641C276.149 375.614 276.98 379.548 270.309 379.101C264.84 378.735 262.135 381.603 258.946 381.594C251.883 381.594 247.506 381.72 243.893 378.947C240.28 376.174 246.829 377.191 256.065 372.652C265.301 368.113 273.127 364.766 274.044 366.275Z" fill="#992C29"/>
<path d="M263.928 366.388C268.769 362.273 272.933 363.091 273.385 366.189C273.642 367.995 267.888 371.36 266.511 372.182C262.844 374.382 258.711 376.875 254.231 375.506C249.751 374.138 254.493 374.395 263.928 366.388Z" fill="#CC6D3D"/>
<path d="M263.4 227.981C263.4 230.452 247.516 258.344 247.796 261.984C244.635 281.856 245.086 285.117 245.086 285.117C245.086 285.117 256.377 291.087 264.958 293.4C273.539 295.712 286.781 296.417 292.508 292.497C298.234 288.576 296.536 287.98 296.536 287.98L303.798 285.998L309.67 284.611C309.67 284.611 308.446 270.019 302.443 247.577C294.766 218.894 291.153 215.584 283.023 213.804C274.894 212.025 263.423 225.515 263.4 227.981Z" fill="#F7BC4B"/>
<path d="M263.4 227.981C263.4 230.452 247.516 258.344 247.796 261.984C244.635 281.856 245.086 285.117 245.086 285.117C245.086 285.117 256.377 291.088 264.958 293.4C264.958 293.4 266.313 293.4 267.216 274.431C268.12 255.463 276.701 240.658 274.442 226.78C266.313 225 263.423 225.515 263.4 227.981Z" fill="#CE9436"/>
<path d="M235.625 198.038C235.625 198.038 236.505 213.308 240.118 217.481C245.452 223.645 264.484 231.404 264.484 231.404C264.484 231.404 267.194 235.112 274.871 232.814C287.517 229.038 295.195 226.838 289.807 216.65C287.373 212.061 278.064 202.45 272.808 197.939C266.403 192.438 258.667 188.323 251.468 188.816C238.353 189.719 235.625 198.038 235.625 198.038Z" fill="#F7BC4B"/>
<path d="M235.625 198.038C235.625 198.038 236.505 213.308 240.118 217.481C245.452 223.645 264.484 231.405 264.484 231.405C264.484 231.405 270.31 237 274.871 232.814L267.216 220.281L264.958 205.016C264.958 205.016 258.635 188.305 251.45 188.798C238.353 189.719 235.625 198.038 235.625 198.038Z" fill="#CE9436"/>
<path d="M227.924 192.514L236.053 202.667C236.884 203.832 240.488 193.142 239.215 190.261C238.212 187.976 236.505 186.982 235.886 185.053C235.782 184.705 235.579 184.394 235.302 184.158C235.025 183.922 234.686 183.771 234.325 183.723C233.964 183.675 233.597 183.733 233.269 183.889C232.94 184.045 232.663 184.292 232.472 184.602L227.021 188.811C226.614 189.488 227.472 191.864 227.924 192.514Z" fill="#CC6D3D"/>
<path d="M296.572 287.849L297.475 262.865C297.475 262.865 301.088 284.146 301.088 285.998C301.088 287.849 296.572 287.849 296.572 287.849Z" fill="#CE9436"/>
<path d="M258.738 217.408C258.738 217.408 262.075 236.625 261.57 241.647C261.064 246.67 250.654 252.487 248.513 242.686C246.372 232.886 244.204 222.643 244.295 218.104C244.399 213.055 256.742 209.415 258.738 217.408Z" fill="#F5894E"/>
<path d="M258.738 217.408C258.738 217.408 254.411 221.107 254.569 226.152C254.669 229.34 255.473 240.604 255.473 240.604C255.473 240.604 250.179 250.323 248.513 242.686C246.377 232.89 244.204 222.643 244.295 218.104C244.399 213.055 256.742 209.415 258.738 217.408Z" fill="#CC6D3D"/>
<path d="M244.097 221.292C244.024 220.389 237.408 199.054 245.316 196.728C256.39 193.567 256.873 205.309 257.609 208.891C258.345 212.472 258.919 219.662 258.919 219.662L244.097 221.292Z" fill="#992C29"/>
<path d="M253.215 214.409C253.188 214.048 254.118 210.796 254.118 210.796L245.316 196.728C256.39 193.567 256.873 205.309 257.609 208.891C258.345 212.472 258.919 219.662 258.919 219.662L253.215 214.409Z" fill="#C94039"/>
<path d="M250.681 243.133C250.681 243.133 248.73 243.314 249.15 251.895C249.57 260.476 251.539 275.831 251.86 278.993C252.181 282.154 257.126 284.245 259.538 276.735C261.949 269.224 262.464 250.992 261.891 243.562C261.317 236.133 251.435 237.158 250.681 243.133Z" fill="#F5894E"/>
<path d="M250.053 243.314C249.773 245.816 248.73 243.314 249.15 251.895C249.57 260.476 251.539 275.831 251.86 278.993C252.18 282.154 259.537 276.735 259.537 276.735L255.021 238.346C255.021 238.346 250.505 239.249 250.053 243.314Z" fill="#CC6D3D"/>
<path d="M258.919 273.984C258.919 273.984 262.708 279.955 259.343 282.565C255.979 285.176 251.86 288.025 251.86 288.025C251.86 288.025 253.296 294.61 251.408 293.897C249.52 293.183 245.537 291.187 245.537 291.187C243.518 293.662 244.182 280.799 244.182 280.799C244.182 280.799 251.548 272.923 258.919 273.984Z" fill="#CC6D3D"/>
<path d="M273.94 187.465C273.633 186.481 258.097 176.658 250.537 176.175C241.703 175.615 238.925 178.6 240.601 183.997C242.276 189.394 264.009 186.255 264.009 186.255L273.94 187.465Z" fill="#7A462F"/>
<path d="M265.021 181.612C267.037 181.892 269.01 182.426 270.892 183.202C273.557 184.39 274.473 184.231 276.248 189.57C277.282 192.677 277.522 193.901 277.603 197.247C277.666 199.993 277.197 199.871 275.946 200.59C275.755 201.042 275.402 201.408 274.956 201.614C274.51 201.82 274.003 201.853 273.534 201.705C271.727 201.253 271.727 199.957 271.727 199.957C271.727 199.957 271.353 201.917 269.018 201.312C266.683 200.707 266.759 197.699 266.759 197.699C266.759 197.699 267.297 201.05 264.863 200.129C263.697 199.677 262.343 199.465 262.464 196.304C262.51 195.089 262.361 193.747 262.32 192.56C262.094 191.995 258.937 189.972 258.937 189.972L260.13 191.638C260.13 191.638 261.584 195.12 260.708 196.042C258.978 197.871 257.126 196.087 256.449 195.053C255.568 193.698 252.7 191.191 254.565 188.215C257.835 183.012 258.806 180.655 265.021 181.612Z" fill="#7A462F"/>
<path d="M265.021 181.612C267.037 181.892 269.01 182.426 270.892 183.202C273.556 184.39 274.473 184.232 276.248 189.57C277.282 192.677 277.644 194.588 277.553 196.552L274.428 192.487L271.718 192.745C271.718 192.745 258.806 180.655 265.021 181.612Z" fill="#A96443"/>
<path d="M222.134 156.876C222.057 155.35 231.004 150.034 238.772 150.802C249.964 151.904 258.635 160.214 254.638 167.892C254.638 167.892 266.335 167.553 266.728 175.289C267.121 183.026 264.592 190.243 254.412 186.255C254.412 186.255 239.779 181.856 241.03 182.046C242.281 182.235 222.915 172.349 222.134 156.876Z" fill="#273252"/>
<path d="M215.92 163.511C215.92 163.511 210.825 159.27 214.614 155.607C218.404 151.945 220.246 155.698 220.246 155.698C220.246 155.698 215.238 144.497 221.303 145.965C227.368 147.433 226.921 160.982 221.43 162.49C215.938 163.999 215.92 163.511 215.92 163.511Z" fill="#273252"/>
<path d="M228.588 160.882C225.833 157.59 223.01 157.567 217.821 161.216C213.571 164.41 212.998 172.76 212.907 180.185C212.817 187.61 217.207 195.089 224.722 194.434C232.982 193.693 233.33 193.431 235.715 189.75C238.099 186.07 236.424 170.263 228.588 160.882Z" fill="#F5894E"/>
<path d="M228.588 160.882C225.833 157.59 223.01 157.567 217.821 161.216C213.571 164.41 214.895 177.724 215.83 183.757C216.764 189.791 224.722 194.434 224.722 194.434C232.982 193.693 233.33 193.431 235.715 189.75C238.099 186.07 236.424 170.263 228.588 160.882Z" fill="#CC6D3D"/>
<path d="M217.821 161.216C217.821 161.216 220.079 161.018 225.273 164.093C229.123 166.405 232.115 169.909 233.795 174.074L235.823 172.462C235.823 172.462 234.622 164.843 229.527 160.43C224.311 155.91 220.445 158.696 217.821 161.216Z" fill="#F7BC4B"/>
<path d="M244.282 177.931C244.282 177.931 232.992 184.557 232.915 191.322C232.838 198.087 249.828 202.161 254.828 192.076C259.827 181.991 244.282 177.931 244.282 177.931Z" fill="#273252"/>
<path d="M233.281 175.285C233.281 175.285 232.793 168.266 238.529 169.843C244.264 171.419 242.666 181.861 238.362 183.364C231.425 185.781 233.281 175.285 233.281 175.285Z" fill="#CC6D3D"/>
<path d="M219.595 170.713C219.682 169.459 219.228 168.406 218.581 168.361C217.934 168.316 217.339 169.297 217.252 170.551C217.165 171.805 217.619 172.858 218.266 172.903C218.913 172.947 219.508 171.967 219.595 170.713Z" fill="#273252"/>
<path d="M219.447 164.73C219.905 164.803 220.337 164.996 220.697 165.289C221.057 165.583 221.333 165.966 221.497 166.401" stroke="#273252" stroke-width="0.5" stroke-linecap="round" stroke-linejoin="round"/>
<path d="M115.68 163.637L106.232 177.295L117.78 196.448L129.843 176.057C129.843 176.057 131.518 159.279 115.68 163.637Z" fill="#CC6D3D"/>
<path d="M118.403 197.474C118.403 197.474 119.307 215.539 120.662 217.345" stroke="#992C29" stroke-miterlimit="10"/>
<path d="M120.436 194.989C120.888 190.473 119.081 180.898 109.597 174.214C104.579 170.674 84.0661 179.413 76.3929 186.977C53.143 209.893 51.7881 247.83 51.7881 247.83C51.7881 247.83 63.7653 257.251 82.499 257.314C88.745 257.314 96.9511 255.959 100.564 250.991L103.726 232.023C103.726 232.023 119.984 199.506 120.436 194.989Z" fill="#F7BC4B"/>
<path d="M85.6601 180.537C85.6601 180.537 82.4987 181.892 76.6275 186.86C52.5195 208.873 51.7878 247.83 51.7878 247.83C51.7878 247.83 63.7651 257.251 82.4987 257.315C88.7448 257.315 96.9509 255.96 100.564 250.992C100.564 250.992 83.2033 256.574 72.1112 246.475C69.0898 243.72 63.0786 231.572 63.0786 231.572C63.0786 231.572 61.7237 216.216 66.24 205.377C70.7563 194.538 85.6601 180.537 85.6601 180.537Z" fill="#CE9436"/>
<path d="M88.8216 253.25C85.5366 252 82.5956 249.988 80.2406 247.379C74.9385 241.575 69.4015 232.023 69.4015 232.023C69.4015 232.023 69.8531 242.862 74.8211 249.637C79.789 256.411 88.8216 253.25 88.8216 253.25Z" fill="#CE9436"/>
<path d="M115.265 174.214C117.279 178.347 120.124 185.595 120.662 191.625C121.336 200.042 121.336 208.499 120.662 216.916" stroke="#992C29" stroke-miterlimit="10"/>
<path d="M121.196 221.638C121.99 221.589 122.557 220.314 122.463 218.79C122.368 217.267 121.648 216.072 120.854 216.121C120.06 216.17 119.492 217.445 119.587 218.969C119.681 220.492 120.402 221.687 121.196 221.638Z" fill="#29ABE2"/>
<path d="M113.21 181.535C113.21 181.535 104.48 176.924 95.0094 187.312C85.5387 197.699 88.7905 208.579 94.6933 206.732C100.596 204.885 120.143 188.432 113.21 181.535Z" fill="#CC6D3D"/>
<path d="M93.4555 235.636C87.9095 237.199 80.3582 233.974 82.1648 225.664C83.9713 217.354 98.9925 186.408 103.726 183.143C112.139 177.353 119.402 184.046 119.081 189.466C118.76 194.885 111.322 211.524 106.173 219.499C97.6738 232.682 99.0016 234.073 93.4555 235.636Z" fill="#F5894E"/>
<path d="M82.6573 224.634C84.4639 216.324 98.9928 186.404 103.73 183.143C112.144 177.353 110.956 183.992 103.73 193.743C101.179 197.193 98.8663 207.337 95.2262 211.176C88.5737 218.181 91.9022 218.903 91.3512 220.823C85.5703 241.056 80.8508 232.926 82.6573 224.634Z" fill="#CC6D3D"/>
<path d="M124.849 234.001C118.58 231.237 92.9818 217.742 87.3048 221.536C81.6278 225.33 78.1413 233.942 90.7327 237.709C105.158 242.022 122.392 246.118 126.976 245.938C132.283 245.73 133.394 237.763 124.849 234.001Z" fill="#F5894E"/>
<path d="M91.0079 230.217C90.1633 228.329 91.6492 221.003 91.6492 221.003C91.6492 221.003 90.2943 218.614 86.6813 221.039C81.0043 224.851 78.1274 233.947 90.7188 237.714C105.144 242.027 119.569 245.007 119.569 245.007C119.569 245.007 116.733 243.689 112.853 241.846C104.602 237.894 91.5814 231.49 91.0079 230.217Z" fill="#CC6D3D"/>
<path d="M103.143 224.038C103.143 224.038 100.167 220.94 95.759 221.179C92.8866 221.338 103.143 224.038 103.143 224.038Z" fill="#CC6D3D"/>
<path d="M122.934 238.594C123.512 235.433 129.36 233.265 132.955 230.79C136.55 228.315 138.325 227.376 140.606 228.505C142.887 229.634 139.355 231.183 138.461 232.077C137.718 232.956 137.084 233.92 136.573 234.95C136.121 236.368 139.938 237.118 144.418 236.901C148.108 236.725 152.497 234.327 152.511 238.12C152.511 239.967 149.002 241.191 149.002 241.191C149.002 241.191 150.7 241.905 150.357 243.422C150.108 244.488 146.96 245.744 146.96 245.744C146.96 245.744 148.713 247.035 147.231 247.889C146.265 248.388 145.245 248.777 144.192 249.05C144.192 249.05 145.8 250.657 142.584 251.014C140.326 251.267 136.451 251.791 128.665 248.061C123.448 245.572 122.026 243.571 122.934 238.594Z" fill="#F5894E"/>
<path d="M139.355 250.481L141.857 246.015L142.394 242.081L144.716 240.117L143.284 246.909L139.355 250.481Z" fill="#CC6D3D"/>
<path d="M81.645 180.086C81.5592 178.934 91.4725 166.505 95.09 164.73C103.992 160.358 108.187 162.472 108.639 168.795C109.091 175.118 85.2083 180.804 85.2083 180.804L81.645 180.086Z" fill="#7A462F"/>
<path d="M95.4013 174.725C104.335 168.294 111.403 162.472 111.854 168.795C112.306 175.118 95.2252 177.584 95.2252 177.584C95.2252 177.584 88.514 179.684 95.4013 174.725Z" fill="#A96443"/>
<path d="M87.8008 174.458C87.8008 174.458 82.3812 177.371 79.9199 179.729C77.7023 181.851 75.9952 189.154 75.6836 190.568C75.6498 190.726 75.6498 190.889 75.6836 191.047C75.9274 192.28 77.0926 197.848 78.2533 198.905C78.9488 199.537 80.4121 199.004 80.9947 197.952C81.9703 196.191 80.8773 193.544 80.8773 193.544C80.8773 193.544 82.8103 199.465 83.1355 199.975C83.9665 201.29 85.6465 201.682 87.4214 200.097C87.986 199.591 86.1117 195.929 86.1117 195.929C86.1117 195.929 87.4214 199.74 88.4918 199.858C89.5622 199.975 90.1944 199.831 91.3506 198.788C92.5068 197.744 90.1764 192.831 90.1764 192.831C90.1764 192.831 92.1726 196.796 93.6313 195.992C94.9004 195.283 97.1405 194.217 95.5824 190.925C94.6331 188.921 93.9761 186.792 93.6313 184.602C93.6313 184.602 92.9178 182.344 95.0585 183.292C97.818 184.511 101.494 183.098 102.361 181.991C104.254 179.598 102.989 176.879 97.9173 176.504C92.2313 176.089 91.2332 172.819 87.8008 174.458Z" fill="#7A462F"/>
<path d="M94.5074 176.87L88.853 179.128L85.2083 184.733L85.7458 185.921L84.6754 189.854C84.6754 189.854 88.3381 199.84 88.4827 199.858C89.5575 199.975 90.1853 199.831 91.3415 198.788C92.4976 197.744 90.1763 192.831 90.1763 192.831C90.1763 192.831 88.3697 188.879 88.984 189.732C89.6795 190.676 93.1028 196.353 93.8661 195.929C95.1397 195.22 97.1404 194.213 95.5823 190.92C94.633 188.917 93.976 186.787 93.6312 184.597L94.8777 180.786C94.8777 180.786 101.02 184.629 102.921 180.966C104.172 178.554 102.077 177.62 99.8818 176.766C98.2605 176.156 94.5074 176.87 94.5074 176.87Z" fill="#A96443"/>
<path d="M103.811 165.895C109.967 179.738 116.976 174.63 125.2 172.742C133.425 170.854 139.26 146.412 139.404 138.987C139.495 134.29 138.763 132.804 129.92 132.213C123.146 131.761 110.952 140.794 110.952 140.794C110.952 140.794 106.137 141.733 104.177 143.955C98.3059 150.621 100.523 158.502 103.811 165.895Z" fill="#1D2538"/>
<path d="M129.418 139.475C129.418 139.475 136.893 140.758 139.029 142.636C141.165 144.515 146.63 165.633 143.469 172.408C142.091 175.357 124.717 180.537 119.663 175.203C118.308 173.79 119.428 169.59 117.96 162.919C116.411 155.896 122.829 150.129 123.186 147.333C123.795 142.541 129.418 139.475 129.418 139.475Z" fill="#CC6D3D"/>
<path d="M138.69 143.445C140.808 145.31 146.115 163.624 142.918 170.827C140.804 175.556 127.562 176.319 126.307 173.311C123.046 165.48 124.649 151.89 129.54 146.715C135.529 140.383 137.534 142.429 138.69 143.445Z" fill="#F5894E"/>
<path d="M113.905 160.345C115.228 164.518 118.471 167.395 121.167 166.776C123.863 166.157 125.006 162.26 123.692 158.033C122.377 153.805 119.081 150.901 116.371 151.561C113.661 152.22 112.582 156.149 113.905 160.345Z" fill="#CC6D3D"/>
<path d="M123.597 147.297C123.597 147.297 125.539 157.644 124.5 160.846L122.025 165.633L119.893 150.901L123.597 147.297Z" fill="#1D2538"/>
<path d="M140.564 138.477C140.564 138.477 139.047 143.075 131.039 147.672C126.704 150.161 126.049 149.402 123.962 149.931C118.832 151.249 121.781 139.475 129.892 134.598C138.098 129.684 140.564 138.477 140.564 138.477Z" fill="#1D2538"/>
<path d="M129.92 134.471C123.511 138.73 118.796 150.31 122.924 149.239C124.682 148.761 126.414 148.193 128.113 147.537C131.631 144.795 134.815 140.252 134.815 140.252C135.208 142.704 133.393 144.741 131.239 146.259C133.322 145.345 135.347 144.306 137.304 143.147C140.673 141.133 141.098 141.169 140.917 139.574C140.601 136.336 136.83 129.851 129.92 134.471Z" fill="#3E4C6F"/>
<path d="M136.811 153.801C137.128 155.458 138.049 156.014 138.875 155.833C139.702 155.652 140.126 154.803 139.815 153.123C139.503 151.443 138.568 150.256 137.742 150.441C136.915 150.626 136.495 152.139 136.811 153.801Z" fill="#34283A"/>
<path d="M134.91 149.7C134.91 149.7 135.416 147.794 137.168 147.279" stroke="#34283A" stroke-linecap="round" stroke-linejoin="round"/>
<path d="M186.672 347.13C190.51 347.907 210.427 346.737 212.112 339.091C213.358 333.423 215.725 327.1 216.253 322.29C217.764 319.813 219.129 317.249 220.341 314.613C222.274 310.385 221.425 309.721 218.918 310.945C216.411 312.169 211.778 316.564 211.778 316.564C207.553 314.001 202.768 312.505 197.836 312.205C190.1 311.79 191.897 314.333 189.007 317.941L186.934 321.193C186.934 321.193 181.392 318.361 177.743 318.031C174.171 317.729 172.942 319.228 171.42 323.207C169.862 327.303 169.79 327.723 170.652 330.081C171.515 332.438 174.627 336.901 178.068 340.193C178.082 340.229 182.914 346.376 186.672 347.13Z" fill="#1D2538"/>
<path d="M186.672 347.13C190.51 347.907 194.589 351.84 196.233 344.285C197.452 338.684 197.177 329.471 197.177 329.471C197.177 329.471 205.902 312.657 197.836 312.223C190.1 311.808 189.567 313.985 187.394 317.322L185.949 320.682C185.949 320.682 181.392 318.379 177.743 318.067C174.171 317.765 172.942 319.264 171.42 323.243C169.862 327.339 169.79 327.759 170.652 330.117C171.515 332.474 174.627 336.937 178.068 340.229C178.082 340.229 182.914 346.376 186.672 347.13Z" fill="#273252"/>
<path d="M172.974 319.607C171.619 321.414 174.288 323.383 175.683 321.545C177.079 319.707 180.954 318.912 178.696 318.149C177.129 317.625 174.351 317.769 172.974 319.607Z" fill="#121721"/>
<path d="M202.045 315.028C202.555 311.815 202.884 308.577 203.03 305.327C203.111 301.371 200.93 302.102 198.784 305.381C196.553 308.782 193.442 315.272 192.886 316.564C192.331 317.855 199.859 319.59 202.045 315.028Z" fill="#273252"/>
<path d="M200.374 306.194C201.169 302.211 200.374 303.43 198.242 306.7C196.02 310.092 196.165 310.765 195.605 312.043C195.045 313.321 199.67 309.735 200.374 306.194Z" fill="#1D2538"/>
<path d="M188.004 317.968C187.552 319.179 187.502 320.281 187.922 320.43C188.342 320.579 189.061 319.712 189.526 318.501C189.991 317.291 190.027 316.184 189.607 316.04C189.187 315.895 188.469 316.758 188.004 317.968Z" fill="#121721"/>
<path d="M182.801 343.4C182.801 343.4 180.29 350.278 178.737 351.872L177.12 348.304C177.12 348.304 179.333 344.741 182.801 343.4Z" fill="#992C29"/>
<path d="M181.754 346.344C181.754 346.344 182.811 352.066 182.251 354.094L179.315 353.159C179.55 350.72 180.388 348.378 181.754 346.344Z" fill="#992C29"/>
<path d="M258.96 373.713C258.96 373.713 261.318 389.999 260.518 393.842C259.719 397.686 261.137 402.622 262.813 405.223C263.716 406.827 260.473 412.562 260.473 412.562C260.473 412.562 255.46 413.755 250.673 411.993C246.513 410.467 247.511 408.181 250.153 407.129C252.795 406.077 246.64 395.513 246.64 395.513C246.64 395.513 242.029 377.836 241.726 375.19C241.423 372.543 256.377 364.893 258.96 373.713Z" fill="#1D2538"/>
<path d="M193.406 394.66C193.957 393.169 196.762 393.196 196.879 392.822C198.844 386.458 199.372 379.955 199.643 378.437C200.203 375.321 198.446 369.233 199.598 362.517C200.709 356.032 211.937 362.323 210.78 370.096C210.112 374.576 206.905 389.633 205.998 393.711C205.866 394.288 205.61 394.829 205.248 395.297L201.807 398.458C201.012 399.673 199.426 399.172 196.536 398.237C193.646 397.302 192.652 396.674 193.406 394.66Z" fill="#273252"/>
<path d="M173.277 401.927C173.642 398.056 178.443 398.277 178.443 398.277C178.728 397.776 179.672 396.828 179.767 396.317C180.512 392.393 180.286 383.27 180.467 381.517C180.837 377.877 180.467 366.83 181.167 358.416C181.867 350.003 192.317 357.156 192.367 365.606C192.403 371.627 187.218 395.414 186.735 397.672C186.735 397.672 181.207 405.309 178.538 404.952C175.869 404.596 173.055 404.311 173.277 401.927Z" fill="#273252"/>
<path d="M212.117 341.909C213.779 345.522 212.532 347.144 217.116 348.724C227.662 352.337 236.455 353.024 248.731 356.339C256.86 358.534 261.945 375.081 258.4 379.616C254.855 384.15 240.913 383.075 232.323 388.251C223.421 393.612 213.774 386.67 208.386 384.159C202.998 381.648 189.459 372.083 186.157 368.704C184.969 367.49 184.486 364.188 183.718 360.679C182.612 355.63 180.557 349.84 183.845 345.211C186.071 342.054 210.455 338.305 212.117 341.909Z" fill="#1D2538"/>
<path d="M191.965 347.83L196.933 357.012C196.933 357.012 202.61 365.529 202.104 365.511L196.364 375.154C196.364 375.154 189.472 372.083 186.171 368.704C184.983 367.49 182.418 364.698 181.654 361.212C180.552 356.172 181.257 352.143 182.454 345.034L191.965 347.83Z" fill="#273252"/>
<path d="M212.117 340.297C212.117 340.297 212.952 341.34 212.808 343.499C212.808 343.499 205.812 345.888 192.683 347.826C188.86 348.418 184.97 348.429 181.144 347.857L181.65 344C181.65 344 196.915 346.48 212.117 340.297Z" fill="#992C29"/>
<path d="M246.549 361.709C247.8 360.074 249.602 361.302 254.43 353.421C259.258 345.54 261.015 332.457 254.882 328.247C254.882 328.247 261.692 326.441 266.868 338.73C272.197 351.375 257.483 365.498 256.151 366.582C250.271 371.374 242.999 366.342 246.549 361.709Z" fill="#273252"/>
<path d="M245.858 362.147C247.118 360.503 250.917 367.115 258.089 355.07C261.891 348.693 264.411 332.696 254.846 328.247C254.846 328.247 265.428 326.563 268.201 339.683C271.814 356.709 257.465 365.819 256.124 366.916C250.208 371.744 242.277 366.817 245.858 362.147Z" fill="#1D2538"/>
<path d="M240.683 377.475C240.683 377.475 235.051 398.038 232.634 401.073C230.218 404.108 228.389 408.678 228.913 411.388C229.437 414.098 224.162 417.124 224.162 417.124C224.162 417.124 217.387 416.112 216.285 415.674C215.183 415.236 213.056 410.873 216.023 410.814C218.991 410.756 220.815 398.318 220.815 398.318C220.815 398.318 222.021 375.998 222.852 373.555C223.683 371.112 242.015 368.808 240.683 377.475Z" fill="#1D2538"/>
</svg>
