<svg width="394" height="367" viewBox="0 0 394 367" fill="none" xmlns="http://www.w3.org/2000/svg">
<path d="M468.158 337.629C455.996 320.247 373.139 257.345 242.862 262.534C132.368 266.937 55.0879 317.897 43.2947 323.627C31.5016 329.357 36.417 333.18 69.8303 328.401C103.244 323.623 119.948 324.578 119.948 324.578L117.982 329.353C117.982 329.353 91.3682 351.725 89.4059 359.367C87.4397 367.008 98.2498 367.964 110.043 363.189C121.836 358.415 208.395 341.773 219.205 340.817C230.015 339.861 249.07 345.971 256.931 346.923C264.791 347.879 316.68 364.051 327.588 364.995C338.496 365.943 333.028 348.329 319.222 323.427C313.104 312.39 369.665 340.441 382.441 343.308C395.217 346.175 376.417 329.361 374.451 326.498C372.485 323.635 447.199 342.725 462.925 351.322C478.647 359.927 480.319 355.011 468.158 337.629Z" fill="#F4E8D8"/>
<path d="M175.585 254.329C175.585 254.329 80.0879 271.857 41.4576 215.343C2.82731 158.829 38.3164 77.2285 111.284 61.4912C111.284 61.4912 34.6622 93.377 61.8479 172.063C89.0337 250.75 175.585 254.329 175.585 254.329Z" fill="#F4E8D8"/>
<path d="M399.737 226.015C420.504 205.934 423.343 188.826 435.05 168.82C446.757 148.813 459.181 137.854 459.181 137.854C459.181 137.854 451.606 137.842 432.931 154.665C416.309 169.638 399.737 204.324 399.737 204.324C403.482 187.052 402.385 165.263 402.385 165.263C380.612 212.867 304.664 246.55 283.2 235.576C283.204 235.576 339.812 283.962 399.737 226.015Z" fill="#F4E8D8"/>
<path d="M352.991 147.028C356.567 147.028 420.245 117.566 423.096 89.0841C425.242 67.6245 420.95 35.4332 368.728 18.9792C309.485 0.312283 285.033 9.68101 262.144 16.1161C262.144 16.1161 325.809 6.81791 365.153 34.7165C430.926 81.3604 352.991 147.028 352.991 147.028Z" fill="#F4E8D8"/>
<path d="M323.659 71.9173C323.659 71.9173 281.453 32.5742 239.963 39.0132C210.972 43.5135 135.521 62.0277 124.076 107.685C116.239 138.963 151.258 151.32 151.258 151.32C151.258 151.32 129.082 139.159 139.813 109.114C150.545 79.0692 217.07 46.8779 259.276 49.741C301.483 52.6041 323.659 71.9173 323.659 71.9173Z" fill="#F4E8D8"/>
<path d="M110.49 111.26C110.49 111.26 75.4395 142.735 96.8991 161.335C118.359 179.935 162.711 164.198 162.711 164.198C162.711 164.198 131.237 167.061 116.929 149.178C102.621 131.29 110.49 111.26 110.49 111.26Z" fill="#F4E8D8"/>
<path d="M41.4578 215.342C41.4578 215.342 -10.0467 192.81 1.75823 148.817C13.5631 104.825 33.9495 125.212 33.9495 125.212C33.9495 125.212 29.6568 84.4388 52.1895 71.5607C74.7222 58.6826 83.3076 66.9116 83.3076 66.9116C83.3076 66.9116 94.0394 55.467 99.4013 57.6133C101.787 58.569 102.119 60.3668 101.759 62.0745C101.273 64.3618 87.2713 71.7839 85.0936 72.6338C78.7956 75.0974 73.3945 77.2477 60.4146 90.5175C41.3951 109.96 34.9287 137.831 36.0919 161.695C38.2383 205.684 41.4578 215.342 41.4578 215.342Z" fill="#F4E8D8"/>
<path d="M106.197 120.558C106.197 120.558 116.212 103.391 103.334 100.528C90.4558 97.665 89.7429 124.851 89.7429 124.851C89.7429 124.851 85.4502 118.412 79.0112 129.856C72.5722 141.301 86.8798 158.472 96.8948 161.331C106.914 164.194 101.904 129.86 106.197 120.558Z" fill="#F4E8D8"/>
<path d="M406.819 106.968C406.819 106.968 428.012 104.508 438.473 80.6788C448.132 58.6827 438.473 44.1948 427.205 40.9792C415.937 37.7597 406.819 42.589 406.819 42.589C406.819 42.589 416.477 14.6904 392.335 11.4709C368.192 8.25137 368.729 18.9831 368.729 18.9831C368.729 18.9831 360.68 7.1782 349.416 2.35283C338.147 -2.47645 338.684 13.0846 338.684 13.0846C338.684 13.0846 327.952 1.27966 312.932 4.49918C297.911 7.7187 298.303 11.3769 305.278 11.9135C312.254 12.4501 354.151 12.5245 381.513 40.4231C408.875 68.3216 406.819 106.968 406.819 106.968Z" fill="#F4E8D8"/>
<path d="M179.161 59.7554C179.161 59.7554 202.947 29.7105 235.671 25.4178C261.85 21.9829 248.706 40.3169 252.482 38.2959C262.497 32.93 275.046 28.2026 280.024 31.144C287.892 35.7931 281.097 41.5154 281.097 41.5154C281.097 41.5154 303.63 54.0331 306.849 60.8286C307.206 62.6185 288.202 46.6032 263.57 44.7349C235.315 42.5886 179.161 59.7554 179.161 59.7554Z" fill="#F4E8D8"/>
<path d="M115.326 196.601C115.326 196.601 114.069 192.03 112.631 188.756C111.256 185.622 110.203 187.796 109.533 190.886C108.832 194.126 109.161 199.049 109.149 200.224C109.138 201.403 115.122 200.733 115.326 196.601Z" fill="#1D2538"/>
<path d="M128.036 235.353C131.475 234.017 138.842 225.04 137.373 218.828C135.904 212.616 134.439 203.408 132.516 199.965C132.516 199.965 132.215 193.44 131.592 189.935C130.973 186.433 130.049 186.277 128.819 187.969C127.589 189.661 125.96 195.426 125.96 195.426C125.96 195.426 117.762 192.144 111.159 194.999C104.555 197.854 102.538 202.331 101.994 206.15L101.794 206.428C101.794 206.428 94.5597 208.214 91.1561 209.616C87.7525 211.018 86.7224 212.765 88.2656 216.423C89.8088 220.082 90.0673 221.911 92.1588 223.254C94.2503 224.598 103.486 227.527 108.225 228.224C108.225 228.224 110.238 236.767 111.852 239.046C113.466 241.33 124.601 236.692 128.036 235.353Z" fill="#273150"/>
<path d="M129.086 224.805C129.086 224.805 138.842 225.04 137.377 218.828C135.913 212.617 134.444 203.408 132.521 199.966C132.521 199.966 132.219 193.44 131.596 189.935C130.977 186.434 130.053 186.277 128.823 187.969C127.593 189.661 125.964 195.426 125.964 195.426C125.964 195.426 117.767 192.144 111.163 194.999C111.163 194.999 118.82 195.195 121.797 198.05C124.773 200.906 128.475 212.597 128.475 212.597C128.475 212.597 120.085 222.812 120.59 223.529C122.2 225.812 129.086 224.805 129.086 224.805Z" fill="#1D2538"/>
<path d="M113.685 196.703C113.685 196.703 112.729 192.238 112.04 189.273C111.264 185.94 109.646 187.855 108.977 190.945C108.276 194.185 107.9 197.51 107.888 198.689C107.88 199.868 113.916 199.586 113.685 196.703Z" fill="#273150"/>
<path d="M112.364 204.243C112.876 202.781 112.501 201.319 111.525 200.977C110.549 200.635 109.343 201.543 108.831 203.004C108.318 204.466 108.694 205.928 109.67 206.27C110.646 206.612 111.852 205.704 112.364 204.243Z" fill="#121721"/>
<path d="M87.5567 213.145C87.31 215.166 88.3362 216.095 88.8493 217.234C89.5503 218.789 93.8234 215.879 94.0741 213.858C94.3209 211.837 94.3444 208.994 91.9317 209.44C90.2514 209.753 87.8035 211.124 87.5567 213.145Z" fill="#121721"/>
<path d="M118.353 225.539C118.353 225.539 109.059 230.313 108.476 228.128C103.822 227.497 96.322 225.069 96.322 225.069L108.899 225.061L118.353 225.539Z" fill="#1D2538"/>
<path d="M162.449 231.518C162.092 230.359 161.015 224.037 159.637 221.789C158.262 219.541 154.792 214.374 150.64 214.523C150.64 214.523 153.025 211.527 160.49 215.173C167.956 218.816 169.001 229.736 169.084 230.66C169.444 234.788 163.463 234.824 162.449 231.518Z" fill="#1D2538"/>
<path d="M110.685 287.402C111.351 285.455 113.967 283.387 113.967 283.387C114.218 282.949 115.087 282.067 115.154 281.648C115.675 278.444 117.097 269.702 117.179 268.304C117.355 265.398 116.066 256.742 116.305 250.087C116.544 243.433 126.661 248.666 127.127 255.093C127.46 259.676 124.272 278.429 123.939 280.262L121.468 286.254C120.555 287.531 118.021 288.44 115.416 288.565C112.816 288.683 110.035 289.305 110.685 287.402Z" fill="#1D2538"/>
<path d="M155.222 250.58C152.699 249.746 148.779 251.92 148.736 255.496C148.7 258.539 162.538 270.567 162.538 270.567L163.314 273.019C163.314 273.019 161.363 275.271 162.197 276.481C162.393 276.767 165.06 276.297 167.211 275.867C168.785 275.549 169.905 274.797 169.901 274.041L169.894 273.09L170.708 269.478L161.183 259.565C161.187 259.569 158.668 251.724 155.222 250.58Z" fill="#1D2538"/>
<path d="M119.886 225.643C119.886 225.643 130.328 218.178 139.497 222.283C147.695 225.953 151.431 226.572 160.573 226.709C166.315 226.795 170.259 246.997 169.068 250.929C166.914 258.277 141.553 258.927 138.302 259.037C128.722 259.362 120.713 254.458 116.761 252.586C113.216 250.906 107.995 241.169 112.429 233.755C114.121 230.927 116.071 227.864 119.886 225.643Z" fill="#273150"/>
<path d="M122.49 226.399C128.455 221.64 130.323 218.182 139.496 222.283C147.694 225.952 153.898 226.693 163.036 226.971C173.38 227.288 171.989 244.67 168.95 252.12C166.643 257.776 141.553 258.927 138.306 259.037C138.306 259.037 147.079 253.358 146.648 249.319C146.221 245.281 136.155 239.348 136.155 239.348C131.307 234.424 120.375 228.087 122.49 226.399Z" fill="#1D2538"/>
<path d="M127.993 286.755C127.982 284.996 132.313 280.746 132.286 280.316C131.843 273.046 130.018 266.165 129.728 264.508C129.137 261.108 125.291 255.347 123.967 247.999C122.69 240.918 135.31 244.392 136.962 252.554C137.914 257.262 140.264 273.442 140.867 277.86C140.954 278.483 140.914 279.113 140.754 279.724L138.235 285.09C137.942 286.629 135.505 287.953 132.525 288.129C129.544 288.306 128.013 289.148 127.993 286.755Z" fill="#273150"/>
<path d="M169.197 243.292C166.048 240.421 159.045 244.193 157.768 245.36C156.428 246.586 162.28 254.29 162.574 255.367C162.879 256.491 175.843 263.639 178.475 265.731C181.323 267.994 178.942 271.104 180.641 272.076C181.503 272.569 188.69 271.061 188.232 268.241C187.801 265.578 184.973 261.383 184.903 261.172C184.766 260.76 173.634 252.124 173.368 251.587C173.114 251.063 170.129 244.146 169.197 243.292Z" fill="#1D2538"/>
<path d="M137.734 219.129C137.734 219.129 139.625 221.138 140.103 222.909C140.103 222.909 134.342 227.072 123.955 232.023C118.389 234.674 109.792 237.111 109.792 237.111L108.543 232.446C108.547 232.442 126.109 227.832 137.734 219.129Z" fill="#992C29"/>
<path d="M108.609 232.493C108.609 232.493 105.59 238.685 106.075 241.799L113.866 244.294C113.866 244.294 110.842 235.231 108.609 232.493Z" fill="#C93F37"/>
<path d="M108.611 232.492C110.914 234.784 113.867 244.293 113.867 244.293C113.867 244.293 109.805 241.058 109.39 239.813C108.975 238.567 108.611 232.492 108.611 232.492Z" fill="#992C29"/>
<path d="M109.827 235.576C109.827 235.576 115.401 240.468 117.892 241.079L118.538 236.943C118.542 236.943 114.504 234.902 109.827 235.576Z" fill="#992C29"/>
<path d="M239.968 161.683L203.484 159.536C193.136 158.154 193.242 143.999 193.473 133.463L193.947 96.8145C194.158 86.5841 199.978 79.5967 210.318 79.5967H240.32C251.922 79.5967 258.921 86.5371 258.921 97.8289L261.784 144.273C261.784 156.043 251.902 163.304 239.968 161.683Z" fill="#634874"/>
<path d="M201.979 90.6185C205.352 82.8361 196.034 75.7469 187.155 72.6879C174.551 68.3482 173.058 66.0335 167.892 63.3466C161.547 60.0449 156.166 58.8307 152.32 61.7251C148.477 64.6196 147.643 69.6329 149.919 71.8184C155.288 76.9845 157.85 78.1361 164.685 83.0202C177.202 91.962 183.888 93.9046 187.934 96.6111C194.714 101.151 197.945 99.9285 201.979 90.6185Z" fill="#A86243"/>
<path d="M204.615 91.8129C207.987 84.0304 157.846 78.1358 164.681 83.016C177.198 91.9578 183.884 93.9005 187.93 96.6069C194.714 101.15 200.585 101.123 204.615 91.8129Z" fill="#D77E5B"/>
<path d="M159.844 52.0628C157.118 55.999 152.774 62.7671 156.452 66.4488C159.104 69.1003 157.964 71.7598 161.884 69.8563C166.291 67.7138 169.017 57.6989 169.134 57.4599C171.206 53.2652 162.601 48.0873 159.844 52.0628Z" fill="#7A4630"/>
<path d="M175.711 29.8358C175.711 29.8358 157.89 43.2074 153.209 48.444C148.58 53.6258 144.55 59.9473 147.233 67.0679C148.862 71.3919 150.734 74.3177 156.531 72.4377C163.185 70.2796 168.308 60.8678 170.991 54.8752C174.591 46.8499 179.212 42.8001 181.942 39.9996C185.444 36.408 185.173 25.0653 175.711 29.8358Z" fill="#A86243"/>
<path d="M200.839 27.0669L201.157 32.4641L197.667 33.4158L194.913 28.7863L200.839 27.0669Z" fill="#273150"/>
<path d="M172.471 36.6317L176.553 30.1144C176.553 30.1144 185.146 26.8987 190.1 26.5345C195.055 26.1702 197.867 28.5007 197.867 28.5007L198.286 38.0535C198.333 39.1306 197.62 40.1097 196.645 40.3134L195.122 40.6307L192.776 40.5171L192.685 41.7978C192.642 42.4402 192.231 43.0003 191.663 43.1961L188.589 44.2497L184.014 45.2484C184.014 45.2484 180.563 44.375 180.928 42.072C181.292 39.769 174.559 44.1714 172.471 36.6317Z" fill="#A86243"/>
<path d="M167.297 36.2749L170.661 41.9893L179.121 39.2594C179.854 39.0244 180.253 38.0178 179.967 37.1248C179.642 36.1065 178.753 35.5855 177.931 35.9263L172.157 37.54L171.037 34.998L167.297 36.2749Z" fill="#273150"/>
<path d="M161.101 15.8688C152.516 19.0883 115.676 30.1764 115.676 30.1764C115.437 31.9664 115.914 39.4747 117.227 40.3089C117.227 40.3089 122.592 47.4608 155.019 40.5478C192.877 32.4755 231.7 16.5385 231.7 16.5385L231.081 6.21021C231.085 6.21412 169.683 12.6492 161.101 15.8688Z" fill="#B44C29"/>
<path d="M158.594 10.0291C149.931 13.0293 120.442 22.3706 116.149 28.9271C112.797 34.0502 124.257 38.7619 165.746 29.1073C207.236 19.4526 223.69 10.8046 229.769 7.94542C235.847 5.08231 221.72 1.38888 195.552 0.018035C189.56 -0.299217 177.195 3.59006 158.594 10.0291Z" fill="#F08650"/>
<path d="M117.344 33.1572L131.174 28.3867L119.252 34.8258L117.344 33.1572Z" fill="#B44C29"/>
<path d="M195.881 0.4021L172.722 8.0044C172.726 8.00048 195.834 1.40869 195.881 0.4021Z" fill="#B44C29"/>
<path d="M148.403 26.0641C152.159 24.2742 136.344 29.1426 128.373 32.5031C128.373 32.5031 144.647 27.8501 148.403 26.0641Z" fill="#B44C29"/>
<path d="M214.751 14.7958L212.961 12.6494L219.04 13.5463L214.751 14.7958Z" fill="#B44C29"/>
<path d="M151.086 33.2159L153.769 30.3567L156.984 32.6793L151.086 33.2159Z" fill="#B44C29"/>
<path d="M181.648 12.5199C182.67 14.0161 180.281 16.3935 174.985 18.2422C167.383 20.8938 157.215 21.4421 155.99 18.3714C154.834 15.4731 163.008 12.0773 170.818 11.0785C176.395 10.3618 180.653 11.0668 181.648 12.5199Z" fill="#B44C29"/>
<path d="M181.158 11.2666C182.016 12.3555 179.56 14.3922 174.378 16.2369C166.941 18.8846 157.223 20.0949 156.295 17.7958C155.418 15.6259 163.455 12.3516 170.963 10.9729C176.325 9.98979 180.324 10.2091 181.158 11.2666Z" fill="#F08650"/>
<path d="M241.26 80.4597C242.784 75.1212 251.013 78.3251 255.121 80.9062C261.658 85.0069 260.973 88.0541 265.403 90.365C273.404 94.5402 295.545 109.831 289.502 116.791C283.462 123.751 273.322 117.562 265.41 112.631C259.747 109.102 249.697 101.543 244.041 96.0089C241.687 93.7059 239.737 85.7981 241.26 80.4597Z" fill="#A86243"/>
<path d="M288.12 127C291.034 122.226 294.026 117.925 290.07 113.143C283.874 105.658 279.013 109.755 274.85 114.882C270.757 119.927 270.776 121.611 267.04 126.687C263.276 131.798 256.034 139.142 256.034 139.142C256.034 139.142 249.904 144.626 252.826 148.742C255.909 153.089 258.086 153.136 261.498 151.276C266.476 148.566 285.926 130.596 288.12 127Z" fill="#A86243"/>
<path d="M191.426 258.16C191.336 258.192 191.246 258.235 191.16 258.282C189.863 258.994 179.276 264.721 178.047 266.256C177.04 267.513 177.682 272.147 178.035 274.23C178.145 274.877 178.595 275.405 179.214 275.621C181.72 276.486 188.324 278.789 194.728 278.143C202.757 277.332 202.51 274.309 208.487 271.45C212.396 269.581 214.777 268.375 215.96 267.768C216.528 267.474 216.775 266.906 216.806 266.268L217.135 259.265C217.174 258.387 216.689 257.608 215.827 257.436C211.844 256.621 200.622 254.843 191.426 258.16Z" fill="#29ACE4"/>
<path d="M191.29 258.211C191.29 258.211 179.125 264.853 177.817 266.487C176.509 268.12 177.75 273.752 177.75 273.752C177.75 273.752 186.457 277.215 194.486 276.404C202.516 275.593 202.512 272.918 208.489 270.059C213.118 267.846 215.605 266.565 216.49 266.099C216.729 265.974 216.882 265.735 216.894 265.468L217.258 258.81C217.293 258.199 216.878 257.655 216.283 257.529C212.762 256.773 200.894 254.686 191.29 258.211Z" fill="#13161F"/>
<path d="M185.36 261.364C185.36 261.364 191.439 259.217 197.4 261.959" stroke="#29ACE4" stroke-width="2" stroke-miterlimit="10" stroke-linecap="round" stroke-linejoin="round"/>
<path d="M189.77 258.74C189.77 258.74 195.849 256.593 201.81 259.335" stroke="#29ACE4" stroke-width="2" stroke-miterlimit="10" stroke-linecap="round" stroke-linejoin="round"/>
<path d="M256.229 258.422C262.97 260.78 272.746 263.071 273.204 266.087C273.662 269.079 273.979 272.236 273.717 273.356C273.517 274.202 273.157 274.708 272.507 274.986C270.85 275.695 267.544 277.394 260.859 278.06C257.972 278.35 251.635 276.799 247.769 273.936C244.698 271.66 241.013 269.013 239.63 268.022C239.27 267.763 239.031 267.372 238.968 266.933L238.463 263.541C238.361 262.848 238.71 262.162 239.336 261.845C242.27 260.357 250.73 256.499 256.229 258.422Z" fill="#29ACE4"/>
<path d="M258.947 257.031C264.834 259.252 272.89 262.609 273.349 265.938C273.76 268.938 273.944 270.587 273.862 271.735C273.823 272.295 272.467 272.561 271.805 272.839C270.121 273.548 266.757 275.252 259.961 275.926C257.024 276.215 251.259 275.35 247.334 272.491C244.064 270.109 240.112 267.321 238.882 266.455C238.635 266.283 238.471 266.016 238.42 265.719L237.926 262.793C237.715 261.532 238.431 260.302 239.634 259.871C244.005 258.293 253.71 255.057 258.947 257.031Z" fill="#13161F"/>
<path d="M255.226 263.388C255.226 263.388 260.71 258.382 266.91 260.29" stroke="#29ACE4" stroke-width="2" stroke-miterlimit="10" stroke-linecap="round" stroke-linejoin="round"/>
<path d="M251.41 261.003C251.41 261.003 257.133 256.471 263.333 258.379" stroke="#29ACE4" stroke-width="2" stroke-miterlimit="10" stroke-linecap="round" stroke-linejoin="round"/>
<path d="M254.271 158.472C254.271 158.472 256.037 181.866 259.276 200.678C261.023 210.822 262.66 228.984 263.694 242.21C264.391 251.125 264.963 257.85 264.548 258.155C263.526 258.915 258.587 257.438 249.563 259.698C240.656 261.931 236.99 263.22 236.99 263.22L235.592 258.919C235.592 258.919 234.754 256.918 235.85 248.665C236.175 246.225 233.383 242.438 232.983 239.328C230.437 219.4 226.756 188.955 224.935 168.487C222.158 137.216 248.442 132.277 254.271 158.472Z" fill="#F6BE4A"/>
<path opacity="0.5" d="M254.271 158.472C254.271 158.472 256.038 181.866 259.277 200.678C261.27 212.256 262.837 232.023 264.181 245.782C264.463 248.669 265.516 248.912 265.712 251.144C265.947 253.835 265.551 257.701 264.388 258.312C263.127 258.974 258.591 257.438 249.567 259.698C240.661 261.931 236.995 263.22 236.995 263.22L235.597 258.919C235.158 256.878 235.091 255.864 235.855 248.665C236.114 246.252 233.364 242.265 232.988 239.328C230.442 219.325 226.71 188.395 224.939 168.487C222.158 137.216 248.443 132.277 254.271 158.472Z" fill="#F6BE4A"/>
<path d="M194.748 157.14C194.748 157.14 193.472 183.821 192.794 199.718C192.304 211.151 190.773 258.116 190.773 258.116C190.773 258.116 192.786 257.341 201.329 257.607L213.588 263.055C213.588 263.055 216.337 263.799 217.062 263.384C217.786 262.973 219.753 261.042 219.945 256.35C220.556 241.431 220.669 208.919 220.446 206.51C220.242 204.336 220.45 179.218 222.087 160.599C222.804 152.44 219.044 145.609 208.257 142.825C197.901 140.153 195.019 148.927 194.748 157.14Z" fill="#F6BE4A"/>
<path d="M259.28 200.678C261.254 212.146 262.813 231.64 264.144 245.384C264.242 246.374 265.515 248.877 265.609 249.802C266.142 255.054 265.198 258.367 264.164 258.583C263.126 258.794 258.594 257.439 249.57 259.699C240.664 261.932 236.998 263.22 236.998 263.22L235.599 258.92C235.599 258.92 244.53 246.163 249.265 237.875C250.694 235.372 256.205 227.939 257.67 218.025C259.041 208.751 258.485 196.072 259.28 200.678Z" fill="#F6BE4A"/>
<path d="M224.108 171.35C239.977 171.35 252.841 161.942 252.841 150.337C252.841 138.732 239.977 129.324 224.108 129.324C208.239 129.324 195.375 138.732 195.375 150.337C195.375 161.942 208.239 171.35 224.108 171.35Z" fill="#F6BE4A"/>
<path opacity="0.5" d="M224.108 171.35C239.977 171.35 252.841 161.942 252.841 150.337C252.841 138.732 239.977 129.324 224.108 129.324C208.239 129.324 195.375 138.732 195.375 150.337C195.375 161.942 208.239 171.35 224.108 171.35Z" fill="#F6BE4A"/>
<path d="M219.815 150.067C220.563 145.653 217.34 148.422 214.837 149.886C212.988 150.971 211.524 151.786 213.247 153.032C216.02 155.037 219.33 152.938 219.815 150.067Z" stroke="#FEED7F" stroke-width="3" stroke-miterlimit="10"/>
<path d="M220.293 149.53C220.293 149.53 223.869 153.643 227.089 154.179C230.308 154.716 229.771 149.887 227.625 148.994C225.479 148.101 221.546 148.101 220.293 149.53Z" stroke="#FEED7F" stroke-width="3" stroke-miterlimit="10"/>
<path d="M220.474 149.173C220.474 149.173 224.943 153.556 225.123 159.635" stroke="#FEED7F" stroke-width="3" stroke-miterlimit="10"/>
<path d="M219.757 158.025C219.757 158.025 220.203 151.319 220.473 149.173" stroke="#FEED7F" stroke-width="3" stroke-miterlimit="10"/>
<path d="M251.113 233.375C255.163 229.188 258.853 219.2 258.563 214.269C258.563 214.269 243.343 236.222 242.826 237.158C241.384 239.779 250.957 233.539 251.113 233.375Z" fill="#F6BE4A"/>
<path d="M203.085 77.5137C203.085 77.5137 200.441 78.1286 199.642 86.4555C199.286 90.1646 196.231 107.308 196.45 119.156C196.708 133.044 195.522 151.821 195.522 151.821C195.522 151.821 205.204 148.966 219.488 147.869C233.776 146.773 251.099 152.71 251.099 152.71C256.63 153.623 250.786 136.883 249.517 130.506C248.033 123.045 250.128 109.548 248.898 99.4863C247.046 84.3561 244.457 81.3168 244.147 80.0752C243.47 77.3492 234.708 77.2669 228.802 76.4209C220.161 75.1911 209.438 76.5972 203.085 77.5137Z" fill="#29ACE4"/>
<path d="M195.972 97.7128C195.972 97.7128 222.797 90.3064 243.72 96.4164L244.793 101.97C244.793 101.97 220.294 93.0833 195.255 103.083L195.972 97.7128Z" fill="#3D4C6D"/>
<path d="M195.079 104.379C195.079 104.379 222.797 96.788 243.72 102.898L244.794 108.452C244.794 108.452 220.471 100.121 195.435 110.117L195.079 104.379Z" fill="#3D4C6D"/>
<path opacity="0.5" d="M203.085 77.5144C203.085 77.5144 200.441 78.1293 199.642 86.4562C199.286 90.1653 196.231 107.309 196.45 119.157C209.786 98.6959 241.852 147.416 252.843 148.371C255.882 148.634 249.357 136.974 249.028 125.662C248.644 112.443 250.637 100.858 250.637 100.858C248.785 85.7277 244.461 81.3253 244.151 80.0798C243.474 77.3538 234.712 77.2716 228.806 76.4256C220.162 75.1918 209.438 76.5979 203.085 77.5144Z" fill="#29ACE4"/>
<path d="M234.603 77.0716C235.006 77.0481 234.603 77.9999 234.603 77.9999C231.771 80.5692 225.136 84.5682 219.234 84.5682C213.41 84.5682 208.506 84.2 207.241 80.4635C206.696 78.8537 209.27 76.7348 209.27 76.7348C209.27 76.7348 213.895 75.9436 219.226 75.7791C224.427 75.6146 234.199 77.0951 234.603 77.0716Z" fill="#7A4630"/>
<path d="M219.025 79.335C214.345 79.1862 214.49 75.5711 214.525 73.3033L214.987 65.9008C215.015 64.0991 216.899 62.6068 219.813 62.693L224.846 62.7713C227.673 62.8575 229.06 64.4124 229.318 66.1593C229.318 66.1593 230.149 73.9613 229.859 76.3936C229.561 78.8611 223.71 79.4799 219.025 79.335Z" fill="#7A4630"/>
<path d="M252.169 94.4999C252.169 94.4999 253.474 110.915 251.221 108.823C243.012 101.193 244.277 86.9367 244.908 83.1258C245.538 79.3148 247.336 77.8539 249.8 79.5107C253.591 82.0487 252.169 94.4999 252.169 94.4999Z" fill="#A86243"/>
<path d="M200.19 75.3091C202.36 75.3756 205.231 76.0297 204.718 77.1616C203.167 80.5887 200.727 89.1036 199.45 96.2124C197.954 104.539 196.61 112.118 195.964 117.856C195.667 120.504 193.352 122.599 191.292 121.119C190.708 120.7 190.269 120.112 190.132 119.293C189.596 116.015 187.731 101.735 195.42 78.3288C196.372 75.4383 197.907 75.2386 200.19 75.3091Z" fill="#634874"/>
<path d="M248.025 77.1655C246.596 76.0532 240.631 74.8351 238.418 75.5166C236.205 76.1981 236.851 85.9506 239.608 96.9722C242.276 107.626 246.4 121.436 248.601 123.872C249.036 124.35 249.647 124.597 250.277 124.554C251.601 124.46 253.709 123.997 253.599 121.996C253.442 119.094 251.12 106.278 249.322 92.3466C247.794 80.4712 249.412 78.2426 248.025 77.1655Z" fill="#634874"/>
<path d="M255.442 154.907C256.657 155.291 258 154.981 258.893 154.073C261.012 151.923 261.885 148.699 261.596 145.245C261.239 140.952 256.053 139.342 252.713 138.629C250.069 138.061 247.875 137.497 247.076 137.286C246.873 137.231 246.653 137.278 246.489 137.411L236.999 145.096C236.834 145.229 236.744 145.433 236.756 145.644L236.944 149.212C236.964 149.565 237.253 149.839 237.606 149.839C238.186 149.839 238.483 150.528 238.092 150.951L237.876 151.182C237.692 151.378 237.649 151.668 237.759 151.911L238.703 153.951C238.867 154.304 239.294 154.441 239.631 154.249L240.234 153.904C240.492 153.756 240.818 153.799 241.029 154.01L242.729 155.71C242.925 155.906 243.222 155.961 243.473 155.843L245.51 154.903C245.843 154.75 246.23 154.895 246.387 155.228C246.602 155.683 246.978 156.27 247.586 156.572C248.518 157.038 252.466 155.028 253.484 154.496C253.641 154.414 253.821 154.398 253.989 154.453L255.442 154.907Z" fill="#A86243"/>
<path d="M246.203 137.646L237.003 145.092C236.838 145.225 236.748 145.429 236.76 145.64L236.948 149.208C236.968 149.561 237.257 149.835 237.61 149.835C238.19 149.835 238.487 150.524 238.096 150.947L237.88 151.178C237.696 151.374 237.653 151.664 237.763 151.907L238.707 153.948C238.871 154.3 239.298 154.437 239.635 154.245L240.238 153.901C240.496 153.752 240.822 153.795 241.033 154.006L242.733 155.706C242.929 155.902 243.226 155.957 243.477 155.839L245.514 154.899C245.847 154.747 246.234 154.891 246.391 155.224C246.607 155.679 246.983 156.266 247.59 156.568C248.479 157.014 252.117 155.201 253.331 154.57C253.57 154.445 253.711 154.186 253.684 153.916L253.367 150.72C253.269 149.729 252.818 148.801 252.098 148.112L250.884 146.948C250.092 146.193 249.63 145.158 249.595 144.066L249.536 142.358C249.509 141.551 249.25 140.768 248.788 140.106L247.159 137.772C246.939 137.466 246.501 137.403 246.203 137.646Z" fill="#D77E5B"/>
<path d="M237.876 51.962C237.359 65.8193 234.469 70.1668 225.249 70.3235C218.277 70.441 212.621 62.1023 212.621 51.962C212.621 41.8217 218.277 33.6006 225.249 33.6006C232.221 33.6006 238.338 39.4874 237.876 51.962Z" fill="#273150"/>
<path d="M233.987 48.8209C233.92 39.7302 232.93 34.5288 222.875 33.7886C217.627 33.4048 212.461 33.8826 209.418 35.4571C206.668 36.8828 205.007 39.0996 204.048 45.0647C203.323 49.5572 202.305 57.3279 203.809 64.8519C204.772 69.6733 210.957 71.4985 216.409 71.8745C230.485 72.8458 232.647 69.1054 233.525 62.4705C234.708 53.4895 234.011 52.5535 233.987 48.8209Z" fill="#7A4630"/>
<path d="M232.166 54.3232C232.08 46.4429 228.841 43.0197 219.789 42.3499C215.066 42.0013 205.76 44.4336 205.325 49.6506C204.859 55.2985 204.181 60.2179 205.184 65.1059C206.045 69.3085 210.554 70.7812 215.465 71.1258C228.139 72.011 231.026 67.7183 231.774 61.9686C232.413 57.0728 232.201 57.5584 232.166 54.3232Z" fill="#A96344"/>
<path d="M207.256 35.3235C206.413 35.8327 206.088 36.3379 205.493 39.5888C205.368 40.2742 206.629 37.6265 207.765 36.5925C208.901 35.5585 208.638 36.945 214.584 36.8001C220.529 36.6552 228.958 35.6329 228.958 35.6329L229.784 43.8501L232.855 50.9864L234.708 47.0462C234.986 40.051 233.725 35.9776 229.13 34.4344C220.721 31.6066 210.346 33.4513 207.256 35.3235Z" fill="#273150"/>
<path d="M222.166 42.5107C222.061 43.8972 221.407 44.9665 220.702 44.9117C219.997 44.8568 219.503 43.7014 219.593 42.3149C219.683 40.9127 220.341 39.8043 221.062 39.8591C221.779 39.914 222.272 41.1086 222.166 42.5107Z" fill="#102342"/>
<path d="M219.296 39.7501L222.84 38.626" stroke="#273150" stroke-miterlimit="10" stroke-linecap="round" stroke-linejoin="round"/>
<path d="M212.222 42.8588C212.175 44.167 211.603 45.1735 210.945 45.1226C210.283 45.0717 209.774 43.9829 209.805 42.6747C209.836 41.3548 210.408 40.3129 211.082 40.3639C211.76 40.4148 212.269 41.5389 212.222 42.8588Z" fill="#102342"/>
<path d="M211.877 39.7495L208.693 38.8408" stroke="#273150" stroke-miterlimit="10" stroke-linecap="round" stroke-linejoin="round"/>
<path d="M238.488 54.7702C237.563 58.5185 234.908 61.1505 232.531 60.7667C232.531 60.7667 232.605 52.2674 232.57 50.6459C232.546 49.6276 233.134 46.4864 235.668 46.9016C238.194 47.3128 239.443 50.8927 238.488 54.7702Z" fill="#7A4630"/>
<path d="M237.148 57.4452C237.015 58.3499 236.157 59.0118 235.233 58.9374C234.309 58.863 233.651 58.0757 233.772 57.171C233.89 56.2584 234.751 55.5769 235.691 55.6513C236.627 55.7296 237.281 56.5365 237.148 57.4452Z" fill="#E2D6C9"/>
<path d="M274.689 130.835C274.689 130.835 264.529 131.004 259.794 129.167C255.058 127.334 256.394 107.821 265.81 105.252C276.569 102.314 289.498 108.589 296.65 113.633C303.802 118.678 300.896 126.222 290.548 129.778C280.047 133.385 274.689 130.835 274.689 130.835Z" fill="#1689CB"/>
<path d="M296.83 121.667C296.83 126.68 277.814 126.935 272.014 126.935C266.217 126.935 261.517 122.869 261.517 117.856C261.517 112.843 266.217 108.777 272.014 108.777C277.81 108.773 296.83 116.654 296.83 121.667Z" fill="#992C29"/>
<path d="M292.96 124.827C292.96 124.827 318.771 133.612 333.795 155.55C346.658 174.334 364.792 162.228 375.524 167.233C386.255 172.239 322.261 184.451 311.204 187.443C297.969 191.019 258.806 146.823 266.138 134.666C274.998 119.967 292.96 124.827 292.96 124.827Z" fill="#1689CB"/>
<path d="M299.218 130.574C299.348 131.181 313.244 137.154 322.049 150.843C340.767 179.932 364.016 161.097 374.744 166.102C385.472 171.108 382.374 184.021 382.374 184.021C382.374 184.021 364.49 179.016 360.197 193.319C355.905 207.623 318.684 209.648 307.628 212.636C294.393 216.212 263.96 210.858 263.96 210.858C263.96 210.858 252.473 162.233 266.972 129.857C269.534 124.135 287.598 125.564 287.598 125.564L299.218 130.574Z" fill="#992C29"/>
<path d="M277.939 88.1197C277.939 88.1197 273.184 86.5334 268.429 92.8745C264.693 97.8566 262.793 102.384 266.49 108.545C267.536 110.288 263.322 110.66 265.962 118.055C268.727 125.798 284.452 126.155 289.736 122.457C289.736 122.457 299.951 131.086 311.395 124.921C319.095 120.773 308.579 109.775 308.579 109.775C308.579 109.775 314.074 97.8096 301.396 86.0125C292.368 77.6151 282.694 83.3648 277.939 88.1197Z" fill="#273150"/>
<path d="M274.296 101.487C277.651 101.487 280.371 96.8749 280.371 91.1859C280.371 85.4969 277.651 80.885 274.296 80.885C270.941 80.885 268.222 85.4969 268.222 91.1859C268.222 96.8749 270.941 101.487 274.296 101.487Z" fill="#273150"/>
<path d="M287.369 86.1812C289.145 82.0209 288.518 77.7665 285.969 76.6789C283.42 75.5913 279.915 78.0823 278.14 82.2426C276.364 86.403 276.991 90.6573 279.54 91.7449C282.089 92.8325 285.594 90.3416 287.369 86.1812Z" fill="#273150"/>
<path d="M276.65 90.7246C276.65 90.7246 272.694 88.1631 268.272 93.3684C263.851 98.5737 263.142 103.18 266.33 108.491C267.231 109.995 263.486 111.413 265.762 117.789C267.031 121.337 272.847 122.791 272.475 122.129C272.103 121.467 272.424 119.598 272.424 119.598C276.423 121.988 282.96 123.394 289.857 122.853C293.731 125.176 300.875 124.941 305.493 122.454C312.132 118.882 303.064 109.399 303.064 109.399C303.064 109.399 307.804 99.0868 296.872 88.9151C289.09 81.6653 280.751 86.6239 276.65 90.7246Z" fill="#3D4C6D"/>
<path d="M275.992 91.3934C275.992 96.2971 276.407 102.247 273.513 102.247C270.622 102.247 268.276 98.2711 268.276 93.3674C268.276 88.4637 270.622 84.4883 273.513 84.4883C276.403 84.4883 275.992 86.4897 275.992 91.3934Z" fill="#3D4C6D"/>
<path d="M283.583 86.1257C282.052 89.7094 280.226 94.8011 278.029 93.8611C275.832 92.925 275.291 89.2551 276.819 85.6713C278.35 82.0876 281.37 79.9412 283.567 80.8773C285.765 81.8173 285.114 82.5419 283.583 86.1257Z" fill="#3D4C6D"/>
<path d="M298.043 124.913C298.043 124.913 302.485 123.675 303.21 120.471C303.21 120.471 304.761 125.12 298.043 124.913Z" fill="#273150"/>
<path d="M302.941 135.79C302.941 135.79 310.304 150.239 312.399 153.874C314.495 157.504 308.874 161.735 305.208 160.751C301.542 159.768 294.551 142.746 292.796 139.143C291.038 135.536 298.303 129.876 302.941 135.79Z" fill="#F6874E"/>
<path d="M303.959 137.565C303.959 137.565 297.214 124.095 292.675 124.808C288.124 125.521 288.214 127.574 289.181 131.537C290.615 137.412 294.539 145.277 294.539 145.277C294.539 145.277 298.444 139.077 303.959 137.565Z" fill="#C93F37"/>
<path d="M321.577 153.047C321.577 153.047 312.455 152.451 310.308 151.735C308.162 151.018 300.56 154.508 303.693 159.603C306.255 163.775 320.265 162.165 322.65 161.213C325.035 160.261 326.046 153.881 321.577 153.047Z" fill="#F6874E"/>
<path d="M345.123 57.0099C345.123 57.0099 330.717 132.069 330.545 133.237C330.373 134.404 330.22 135.453 330.22 135.453C329.981 135.998 329.398 136.088 327.263 135.598L318.117 134.008L330.882 54.233C330.945 53.8256 338.594 46.9949 338.594 46.9949C338.848 46.9714 339.17 46.6033 339.812 47.3592L344.962 55.5881C345.268 56.2148 345.186 56.6809 345.123 57.0099Z" fill="#F6BE4A"/>
<path d="M345.124 57.0096C345.124 57.0096 330.718 132.069 330.546 133.236C330.373 134.403 330.221 135.453 330.221 135.453C329.982 135.998 330.992 136.119 328.862 135.625L343.526 56.1793C343.526 56.1793 339.17 46.5991 339.817 47.355L344.967 55.584C345.269 56.2145 345.186 56.6806 345.124 57.0096Z" fill="#F6874E"/>
<path d="M337.404 94.1747L338.152 91.1275C338.246 90.9082 337.835 90.7789 337.408 90.8964L334.509 91.6954C334.251 91.7659 334.129 91.9265 334.239 92.0479L336.797 94.3979C336.981 94.6016 337.302 94.3979 337.404 94.1747Z" fill="#F6874E"/>
<path d="M327.839 73.0793L329.903 71.6654L328.364 69.9656L327.839 73.0793Z" fill="#F6874E"/>
<path d="M341.853 69.2529L339.417 66.9107L342.46 66.7148L341.853 69.2529Z" fill="#F6874E"/>
<path d="M339.158 47.0063L323.468 134.666" stroke="#F4E8D8" stroke-miterlimit="10"/>
<path d="M325.583 87.3636L327.471 87.6926L329.108 85.3661L327.949 83.0396L331.987 79.3383L333.53 77.8892" stroke="#F4E8D8" stroke-miterlimit="10"/>
<path d="M320.225 164.206C320.186 164.327 319.277 164.754 317.648 164.323C315.736 163.818 315.905 162.506 315.905 162.506L319.136 134.588L328.051 136.017L320.225 164.206Z" fill="#1D2538"/>
<path d="M316.21 172.646C318.819 173.316 321.263 171.397 321.615 168.498C321.952 165.745 320.256 163.168 317.871 162.616C315.513 162.071 313.194 163.681 312.642 166.321C312.062 169.098 313.633 171.984 316.21 172.646ZM317.605 165.31C318.498 165.624 319.156 166.857 319.069 168.091C318.983 169.352 318.153 170.12 317.225 169.779C316.304 169.438 315.662 168.146 315.787 166.912C315.909 165.706 316.719 164.997 317.605 165.31Z" fill="#1D2538"/>
<path d="M315.963 170.849C317.44 171.256 318.834 170.148 319.058 168.428C319.101 168.091 319.093 167.754 319.046 167.433C319.077 167.649 319.085 167.872 319.069 168.095C318.983 169.356 318.153 170.124 317.225 169.783C316.304 169.443 315.662 168.15 315.787 166.916C315.909 165.71 316.719 165.005 317.605 165.314C318.157 165.51 318.619 166.055 318.87 166.736C318.529 165.78 317.804 165.021 316.896 164.789C315.505 164.433 314.158 165.424 313.864 167.049C313.566 168.722 314.495 170.445 315.963 170.849Z" fill="#F6BE4A"/>
<path d="M319.018 167.278C319.014 167.25 319.01 167.218 319.002 167.19C319.01 167.222 319.014 167.25 319.018 167.278Z" fill="#F6BE4A"/>
<path d="M318.94 166.944C318.928 166.901 318.912 166.858 318.897 166.811C318.912 166.854 318.928 166.897 318.94 166.944Z" fill="#F6BE4A"/>
<path d="M318.905 164.28C318.956 164.28 319.007 164.3 319.05 164.331C319.371 164.582 319.63 164.856 319.814 165.154C319.884 165.263 319.837 165.412 319.716 165.483C319.594 165.553 319.438 165.522 319.371 165.412C319.215 165.161 318.991 164.922 318.713 164.707C318.607 164.625 318.6 164.476 318.694 164.374C318.745 164.308 318.827 164.276 318.905 164.28Z" fill="#F4E8D8"/>
<path d="M319.775 152.835C318.133 152.835 316.982 153.352 316.982 153.352L318.596 139.711C318.705 138.238 319.066 133.961 319.066 133.961C319.066 133.961 327.483 135.183 328.544 135.5C328.544 135.5 327.396 140.145 327.009 141.457L323.472 153.309C323.472 153.313 321.416 152.835 319.775 152.835Z" fill="#C73F37"/>
<path d="M324.592 149.553L324.095 151.194C324.095 151.194 321.255 150.955 317.84 150.955C317.844 150.955 318.874 149.976 324.592 149.553Z" fill="#1D2538"/>
<path d="M316.975 153.459C316.975 153.459 321.667 153.419 323.206 154.214L322.607 156.165C322.607 156.165 317.821 154.833 316.814 154.833L316.975 153.459Z" fill="#C73F37"/>
<path d="M317.55 148.567L317.616 148.03C317.616 148.03 321.2 147.827 323.582 148.583L317.55 148.567Z" fill="#1D2538"/>
<path d="M325.348 146.784L325.786 145.394C325.786 145.394 321.02 144.36 317.883 145.593C317.883 145.593 323.64 145.394 325.348 146.784Z" fill="#1D2538"/>
<path d="M327.009 141.461L326.292 143.831C326.292 143.831 321.611 141.931 318.219 142.566L318.713 138.292C318.713 138.292 322.262 139.726 327.009 141.461Z" fill="#1D2538"/>
<path d="M327.746 138.614L328.094 137.377C328.094 137.377 323.641 135.246 319.842 136.174C319.842 136.174 327.28 137.568 327.746 138.614Z" fill="#1D2538"/>
<path d="M311.334 127.131C311.6 127.017 311.902 126.982 312.192 127.033L338.218 131.032C338.551 131.102 338.88 131.658 339.812 133.057C340.439 133.997 340.733 135.207 339.671 135.704C338.281 136.358 336.738 137.467 336.166 137.298L311.193 132.853C310.809 132.779 309.611 131.815 309.121 131.416C308.565 130.961 307.789 130.088 307.315 129.348C306.963 128.799 307.182 128.079 307.778 127.824L311.334 127.131Z" fill="#C73F37"/>
<path d="M310.684 126.022C310.966 125.9 311.275 125.865 311.581 125.92L338.007 130.616C338.077 130.631 339.906 132.637 339.671 133.385C339.436 134.133 336.26 135.457 336.26 135.457C336.26 135.457 309.321 131.101 309.082 130.776C308.639 130.173 307.907 129.562 307.409 128.791C307.041 128.219 307.272 127.467 307.891 127.2L310.684 126.022Z" fill="#F6874E"/>
<path d="M310.684 126.022C310.966 125.9 311.275 125.865 311.581 125.92L314.886 129.664L336.26 135.457C336.26 135.457 309.321 131.101 309.082 130.776C308.428 130.13 307.907 129.562 307.409 128.791C307.041 128.219 307.272 127.467 307.891 127.2L310.684 126.022Z" fill="#F6BE4A"/>
<path d="M325.681 90.6575L324.521 97.5234L332.852 109.732L334.117 103.034L325.681 90.6575Z" fill="#F6BE4A"/>
<path d="M324.279 99.5491L323.95 102.193L332.277 114.401L332.716 111.922L324.279 99.5491Z" fill="#F6BE4A"/>
<path d="M315.161 126.672L315.933 127.761C316.191 128.145 316.27 128.184 316.665 127.929L317.922 127.158L315.161 126.672Z" fill="#C73F37"/>
<path d="M318.498 151.72C318.252 152.311 318.886 152.499 319.783 152.597C320.429 152.668 321.624 152.017 321.624 152.017C321.624 152.017 322.701 152.37 323.152 152.64C323.383 152.777 321.35 152.597 320.629 152.64C319.908 152.683 318.275 153.373 318.275 153.373C318.228 153.377 318.181 153.384 318.138 153.4C317.59 153.596 317.245 154.176 317.347 155.08C317.363 155.202 317.421 155.292 317.511 155.374C317.625 155.48 317.833 155.523 317.754 155.848C317.649 156.275 317.155 156.584 317.159 156.894C317.159 157.07 317.504 158.558 317.621 158.691L319.203 158.754C319.203 158.754 317.386 158.962 317.257 159.792C317.034 161.233 318.26 161.989 319.109 161.852C320.163 161.684 320.155 162.201 321.064 162.358C321.064 162.358 323.304 162.6 323.602 161.821C323.915 161.002 324.914 160.364 325.223 159.209C325.404 158.531 325.404 157.184 325.897 156.373C326.865 154.79 325.674 154.328 325.94 153.31C326.175 152.429 326.794 152.366 326.481 151.328C326.234 150.521 325.388 150.294 324.769 150.067C324.15 149.844 322.517 149.707 320.899 149.887C320.903 149.895 318.749 151.128 318.498 151.72Z" fill="#CE6D3E"/>
<path d="M318.497 151.72C318.25 152.311 318.877 152.589 319.774 152.687C320.42 152.758 321.619 152.017 321.619 152.017C321.619 152.017 322.696 152.37 323.146 152.64C323.377 152.777 321.345 152.597 320.624 152.64C319.903 152.683 318.27 153.373 318.27 153.373C318.223 153.376 318.176 153.384 318.133 153.4C317.585 153.596 317.193 154.226 317.299 155.127C317.314 155.249 317.561 155.546 317.651 155.629C317.765 155.734 317.675 155.871 317.651 155.918C317.455 156.314 317.216 156.4 317.15 156.702C316.993 157.399 317.177 158.045 317.616 158.691L319.277 158.754C319.277 158.754 317.361 158.958 317.252 159.792C317.146 160.595 317.835 161.688 318.756 161.453C320.072 161.116 321.662 161.656 321.83 161.582C323.017 161.041 321.979 159.89 322.371 159.001C322.661 158.343 322.684 157.591 322.99 156.882C323.256 156.267 323.146 154.504 323.146 154.504L324.697 153.11C324.697 153.11 324.646 151.767 324.541 151.25C324.349 150.286 321.854 149.707 320.898 149.887C320.726 149.926 318.748 151.128 318.497 151.72Z" fill="#F6874E"/>
<path d="M316.48 155.284C317.416 156.694 318.607 155.229 318.328 153.087C318.195 152.056 317.87 150.725 316.311 151.183C314.752 151.641 314.807 152.765 316.48 155.284Z" fill="#F6874E"/>
<path d="M330.635 199.483C330.714 201.621 322.629 202.593 320.561 205.483C317.577 209.658 320.15 209.823 292.671 211.887C270.44 213.559 263.472 202.816 263.75 198.288C264.024 193.823 279.961 187.921 296.728 187.901C313.527 187.885 330.471 194.951 330.635 199.483Z" fill="#EC5E4D"/>
<path d="M266.851 213.395C266.851 213.395 262.559 195.966 262.202 190.663C261.846 185.36 279.729 177.781 282.949 186.495C286.169 195.21 286.885 209.228 286.885 215.671C286.885 222.114 285.812 227.797 277.943 227.417C266.444 226.861 269.644 224.812 266.851 213.395Z" fill="#273150"/>
<path d="M266.851 213.395C266.851 213.395 262.559 195.966 262.202 190.663C261.846 185.36 279.729 177.781 282.949 186.495C286.169 195.21 286.885 209.228 286.885 215.671C286.885 222.114 285.812 227.797 277.943 227.417C266.444 226.861 269.644 224.812 266.851 213.395Z" fill="#102441"/>
<path d="M279.428 214.863C274.705 213.735 268.05 217.652 268.52 222.869C268.877 226.849 264.886 227.984 262.203 235.751C259.52 243.518 279.37 248.633 281.16 238.783C282.946 228.932 292.126 217.895 279.428 214.863Z" fill="#273150"/>
<path d="M279.729 213.587C275.005 212.459 268.053 217.653 268.523 222.87C268.879 226.849 271.265 229.156 268.582 236.923C265.899 244.69 279.372 248.638 281.162 238.783C282.944 228.933 292.423 216.619 279.729 213.587Z" fill="#102441"/>
<path d="M281.159 238.783C279.369 248.634 268.641 276.109 267.568 281.032C266.495 285.96 262.919 287.789 262.919 287.789C262.919 287.789 258.023 290.037 258.176 278.933C258.289 270.45 259.523 243.522 262.206 235.756C262.206 235.756 269.001 232.912 273.294 234.052C277.583 235.184 281.159 238.783 281.159 238.783Z" fill="#F6874E"/>
<path d="M281.158 238.783C279.368 248.634 268.641 276.109 267.568 281.033C267.043 283.449 266.436 287.076 265.123 287.174C263.764 287.276 263.216 288.189 262.86 279.705C262.503 271.746 265.899 243.519 268.582 235.752C268.582 235.752 269.001 232.908 273.294 234.048C277.582 235.184 281.158 238.783 281.158 238.783Z" fill="#CE6D3E"/>
<path d="M263.213 276.591C261.25 280.304 257.67 282.494 257.67 282.494C257.67 282.494 255.132 286.986 255.497 288.678C255.732 289.705 256.762 292.321 256.762 292.321C256.762 292.321 257.529 301.427 257.8 302.5C258.199 304.106 274.301 306.676 275.378 307.083C276.455 307.49 276.22 298.431 276.22 298.431C276.22 298.431 269.319 289.908 268.026 286.262C266.753 282.682 265.332 272.589 263.213 276.591Z" fill="#CE6D3E"/>
<path d="M290.458 183.84C286.882 186.872 284.794 193.691 287.477 200.134C290.16 206.577 292.604 218.193 295.107 220.849C297.61 223.505 301.902 227.037 306.912 227.037C311.917 227.037 314.064 219.839 313.171 214.155C312.278 208.472 309.058 192.367 306.555 185.168C304.053 177.969 294.034 180.809 290.458 183.84Z" fill="#102441"/>
<path d="M295.785 216.822C294.011 218.718 293.568 224.989 292.569 228.365C291.226 232.908 290.967 236.347 291.226 242.567C291.488 248.888 292.757 257.07 293.376 261.476C294.645 270.528 292.005 273.892 296.298 274.394C300.591 274.899 299.874 273.383 301.543 268.836C303.211 264.289 309.294 240.546 310.484 235.744C311.675 230.946 312.392 225.639 312.631 221.346C312.87 217.053 300.524 211.758 295.785 216.822Z" fill="#273150"/>
<path d="M296.388 216.263C293.674 218.092 293.321 224.958 294.12 232.317C294.755 238.157 309.297 240.55 310.488 235.752C311.679 230.954 312.395 225.647 312.634 221.354C312.873 217.062 301.538 212.103 296.388 216.263Z" fill="#102441"/>
<path d="M291.589 232.705C290.144 237.405 290.865 245.411 292.901 260.29C294.139 269.346 292.306 275.742 296.599 276.247C300.892 276.752 301.632 276.893 302.497 272.13C303.375 267.301 309.293 240.554 310.483 235.756C310.483 235.756 305.118 232.474 300.112 232.219C295.107 231.965 291.589 232.705 291.589 232.705Z" fill="#F6874E"/>
<path d="M294.12 232.317C294.147 237.686 296.29 254.395 296.537 263.329C296.791 272.561 294.331 274.926 298.624 275.431C302.917 275.937 301.656 276.896 302.502 272.13C303.418 266.952 309.297 240.553 310.488 235.755C310.488 235.755 305.345 232.638 300.116 232.219C298.005 232.046 294.12 232.317 294.12 232.317Z" fill="#CE6D3E"/>
<path d="M293.646 271.159C293.646 271.159 293.152 274.167 291.797 277.328C290.634 280.038 296.689 281.28 298.894 283.297C298.894 283.297 314.902 291.671 320.264 289.019C326.221 286.074 309.7 277.7 314.424 280.269C314.424 280.269 304.409 275.342 302.979 271.555C301.546 267.771 293.646 271.159 293.646 271.159Z" fill="#F6874E"/>
<path d="M296.212 270.666C296.004 275.158 294.034 276.173 293.317 278.828C291.935 283.947 302.091 287.093 301.425 286.697C301.425 286.697 314.718 291.315 320.084 288.663C326.151 285.663 309.587 277.759 314.421 280.274C314.421 280.274 304.406 275.346 302.976 271.559C301.546 267.771 296.4 266.612 296.212 270.666Z" fill="#CE6D3E"/>
<path d="M292.185 275.111C292.44 274.606 292.906 274.167 292.984 274.672C293.066 275.177 293.838 277.112 294.896 277.708C295.949 278.303 307.981 284.859 312.2 283.665C314.773 282.936 312.912 280.614 311.071 278.91C309.896 277.821 308.725 276.987 308.725 276.987C308.725 276.987 314.123 280.026 316.602 281.456C319.081 282.885 324.294 287.773 324.788 289.681C325.285 291.588 306.462 291.827 303.763 290.574C301.064 289.321 297.065 285.745 295.577 284.315C294.206 282.999 292.612 283.587 292.103 283.003C290.951 281.691 291.414 276.627 292.185 275.111Z" fill="#992C29"/>
<path d="M286.702 124.494C286.702 124.494 291.464 123.421 293.141 125.567C295.068 128.039 300.218 134.387 300.473 139.44C300.676 143.466 299.983 146.686 297.954 152.287C296.29 156.889 294.045 163.955 291.218 165.239C282.601 169.152 275.241 168.514 270.428 165.627C268.638 164.554 266.738 161.832 266.883 154.707C266.946 151.637 266.852 150.607 266.135 139.699C265.175 125.034 270.964 124.427 276.855 124.098C282.742 123.765 286.702 124.494 286.702 124.494Z" fill="#F6BE4A"/>
<path d="M286.075 130.208L285.135 130.158C283.451 130.067 282.159 128.626 282.253 126.942L282.918 114.589C283.009 112.905 284.45 111.612 286.134 111.706L287.074 111.757C288.758 111.847 290.051 113.288 289.957 114.973L289.291 127.326C289.197 129.01 287.759 130.299 286.075 130.208Z" fill="#F6874E"/>
<path d="M286.313 125.203L285.373 125.152C283.689 125.062 282.397 123.621 282.491 121.937L283.156 109.584C283.247 107.899 284.688 106.607 286.372 106.701L287.312 106.752C288.996 106.842 290.289 108.283 290.195 109.967L289.529 122.321C289.435 124.001 287.998 125.293 286.313 125.203Z" fill="#CE6D3E"/>
<path d="M258.302 282.003C257.792 282.168 256.711 283.026 256.519 283.527C255.677 285.724 254.968 287.8 255.176 289.104C255.258 289.614 255.748 290.914 256.253 293.381C256.813 296.1 256.437 300.995 257.949 303.056C259.457 305.116 272.335 309.589 275.194 309.052C278.057 308.515 276.436 300.091 276.216 298.434C275.985 296.687 269.715 288.862 267.106 283.041C267.106 283.041 267.13 283.613 267.545 285.07C268.524 288.478 270.432 295.622 267.764 295.884C263.945 296.256 258.466 291.067 258.239 288.47C258.016 285.904 257.597 283.856 257.671 283.327C257.745 282.791 258.302 282.003 258.302 282.003Z" fill="#992C29"/>
<path d="M298.56 194.329L305.849 200.749C306.613 201.352 307.678 200.878 307.526 199.993C307.001 196.957 305.45 191.83 298.56 194.329Z" fill="#EC5E4D"/>
<path d="M267.09 157.159C265.9 159.423 256.719 188.039 265.539 207.113C265.539 207.113 273.31 198.676 284.41 196.393C306.516 191.849 304.608 198.089 305.176 199.738C305.552 200.834 306.743 201.402 307.839 201.026C308.121 200.928 308.439 200.811 308.791 200.67C313.758 198.688 322.394 195.68 330.431 198.524C330.431 198.524 314.839 172.587 293.986 159.65C274.027 147.281 268.281 154.896 267.09 157.159Z" fill="#F6BE4A"/>
<path opacity="0.5" d="M306.723 198.049C306.723 198.049 304.658 183.174 299.492 178.63C299.492 178.63 301.556 182.144 301.556 184.827L299.077 183.174C299.077 183.174 301.647 186.965 303.417 190.819C304.968 194.195 305.661 197.662 306.723 198.049Z" fill="#F6BE4A"/>
<path d="M300.822 101.332C303.849 115.898 297.911 120.864 287.634 120.543C279.91 120.3 273.585 115.412 273.08 105.746C272.57 96.0793 276.64 88.148 284.266 86.8711C294.332 85.1869 298.851 91.8688 300.822 101.332Z" fill="#CE6D3E"/>
<path d="M297.28 104.645C297.433 105.362 297.555 106.047 297.653 106.701C299.078 116.45 294.449 119.826 286.792 119.595C280.65 119.407 275.617 115.604 275.214 108.08C274.81 100.556 281.148 95.5073 287.215 94.5164C295.224 93.2043 295.714 97.2776 297.28 104.645Z" fill="#F6874E"/>
<path d="M274.204 112.754C276.566 112.388 278.102 109.642 277.634 106.619C277.166 103.597 274.872 101.443 272.51 101.808C270.148 102.174 268.613 104.92 269.08 107.943C269.548 110.965 271.842 113.119 274.204 112.754Z" fill="#F6874E"/>
<path d="M273.076 101.744L275.555 104.466C275.555 104.466 275.567 93.0799 284.489 89.9426C292.432 87.1461 296.067 90.2794 296.067 90.2794C296.067 90.2794 291.778 83.1941 280.98 87.8354C271.948 91.7169 273.076 101.744 273.076 101.744Z" fill="#F6BE4A"/>
<path d="M280.454 103.321C281.149 103.321 281.712 102.269 281.712 100.971C281.712 99.673 281.149 98.6208 280.454 98.6208C279.76 98.6208 279.197 99.673 279.197 100.971C279.197 102.269 279.76 103.321 280.454 103.321Z" fill="#273150"/>
<path d="M293.376 102.315C294.07 102.315 294.633 101.263 294.633 99.9648C294.633 98.6669 294.07 97.6147 293.376 97.6147C292.681 97.6147 292.118 98.6669 292.118 99.9648C292.118 101.263 292.681 102.315 293.376 102.315Z" fill="#273150"/>
<path d="M291.895 97.1135L294.245 95.825" stroke="#273150" stroke-miterlimit="10" stroke-linecap="round" stroke-linejoin="round"/>
<path d="M282.46 97.7825L279.343 96.9443" stroke="#273150" stroke-miterlimit="10" stroke-linecap="round" stroke-linejoin="round"/>
<path d="M294.884 88.2819C294.884 88.2819 297.148 91.0353 299.471 92.2142C301.225 93.1072 302.635 93.2717 302.635 93.2717L302.283 92.5667L303.156 91.893C303.156 91.893 299.874 91.5484 295.566 87.8706L294.884 88.2819Z" fill="#EE5D4F"/>
<path d="M294.656 87.9599C294.656 87.9599 295.843 91.3204 297.621 93.2239C298.965 94.6613 300.234 95.2998 300.234 95.2998L300.144 94.5203L301.197 94.1874C301.197 94.1874 298.232 92.7422 295.444 87.8071L294.656 87.9599Z" fill="#EE5D4F"/>
<path d="M296.094 89.7342C296.932 89.5854 297.727 85.1165 295.734 85.0225C293.858 84.9324 291.731 85.1752 292.083 86.5891C292.44 88.0031 295.26 89.8831 296.094 89.7342Z" fill="#EE5D4F"/>
<path d="M296.818 87.193C296.818 87.193 296.509 85.2777 295.914 85.3208C295.318 85.3639 295.851 86.1824 296.004 87.4436C296.16 88.7048 296.924 88.0037 296.818 87.193Z" fill="#F7BC4B"/>
<path d="M295.401 88.8111C295.401 88.8111 295.276 87.9298 296.56 87.076C297.845 86.2222 298.824 85.7561 299.639 86.2653C300.454 86.7744 300.74 89.003 300.273 90.1271C299.807 91.2512 296.948 90.3974 296.228 89.9744C295.507 89.5474 295.401 88.8111 295.401 88.8111Z" fill="#EE5D4F"/>
<path d="M300.077 88.0624C300.077 88.0624 300.347 89.8523 299.548 90.1421C298.362 90.5769 299.11 87.1889 299.18 86.6563C299.247 86.1197 300.293 86.7816 300.077 88.0624Z" fill="#F7BC4B"/>
<path d="M268.998 148.053C268.998 148.053 273.667 158.464 275.797 160.747C277.944 163.05 280.783 165.608 283.576 164.527C286.361 163.45 287.59 156.513 285.628 152.879C283.689 149.291 280.133 138.943 278.935 137.31C277.744 135.684 273.306 136.836 271.144 138.148C268.967 139.464 267.431 144.164 268.998 148.053Z" fill="#F6874E"/>
<path d="M280.399 140.149C280.399 140.149 276.388 124.016 271.023 124.729C265.899 125.41 264.956 129.781 265.602 135.77C266.26 141.888 269.076 148.358 269.076 148.358C269.076 148.358 270.145 142.491 280.399 140.149Z" fill="#EC5E4D"/>
<path d="M278.775 134.909C278.775 134.909 276.393 124.016 271.028 124.729C265.904 125.411 264.961 129.782 265.607 135.77C266.265 141.888 267.275 143.075 267.275 143.075C267.275 143.075 267.808 139.213 268.521 136.891C269.136 134.897 273.052 133.969 273.052 133.969L278.775 134.909Z" fill="#C93F37"/>
<path d="M310.844 144.403C310.844 144.403 302.736 146.071 298.212 147.564C294.225 148.88 287.394 151.104 283.493 153.862C279.557 156.647 279.103 160.626 280.149 163.227C281.206 165.851 286.286 164.288 290.481 162.854C294.656 161.425 310.534 153.83 314.42 151.32C318.274 148.825 317.279 141.963 310.844 144.403Z" fill="#CE6D3E"/>
<path d="M293.853 149.052C289.56 150.243 287.394 151.105 283.493 153.862C279.557 156.647 279.103 160.626 280.149 163.227C281.206 165.851 286.286 164.288 290.481 162.855C294.66 161.425 297.633 148.003 293.853 149.052Z" fill="#F6874E"/>
<path d="M313.6 149.471C314.779 151.084 317.772 150.838 318.778 149.984C320 148.954 320.729 148.076 321.504 148.08C321.99 148.08 323.78 148.417 324.759 148.86C324.814 148.965 324.579 149.381 324.622 149.498C324.681 149.663 324.732 149.76 324.908 149.772C326.02 149.851 326.937 149.118 326.878 147.955L326.764 146.408L327.904 145.029L328.123 140.709L324.344 136.643C324.156 136.444 323.89 136.338 323.615 136.358L318.477 136.737C318.167 136.761 317.885 136.929 317.721 137.188L313.056 144.489C313.052 144.493 312.421 147.857 313.6 149.471Z" fill="#CE6D3E"/>
<path d="M324.568 146.71C324.924 147.098 325.484 147.689 325.966 148.065C326.487 148.472 326.914 148.617 326.879 147.955L326.765 146.408L328.187 145.276C328.187 145.276 328.516 141.924 328.406 140.956C328.112 138.387 324.305 136.48 324.305 136.48C323.969 136.311 323.886 136.342 323.612 136.362C323.612 136.362 322.402 138.363 322.327 138.967C322.253 139.57 323.369 142.221 323.369 142.221C323.369 142.221 322.151 143.769 322.085 144.231C321.924 145.316 323.33 145.367 324.568 146.71Z" fill="#F6874E"/>
<path d="M267.415 139.871C267.415 139.871 267.772 137.459 269.561 136.742C269.561 136.742 267.576 142.527 267.27 143.075C266.965 143.624 266.969 141.215 267.415 139.871Z" fill="#C93F37"/>
<path d="M266.257 127.949C265.301 130.691 261.725 139.989 258.149 160.497C254.573 181.005 260.295 207.47 263.632 210.333C266.969 213.196 278.653 191.971 303.692 205.206C303.692 205.206 286.518 180.578 276.867 173.849C265.062 165.624 266.018 145.711 267.447 135.101C268.881 124.495 266.257 127.949 266.257 127.949Z" fill="#29ACE4"/>
<path d="M258.149 160.5C254.573 181.008 260.296 207.473 263.633 210.336C266.97 213.199 278.653 191.975 303.692 205.209C303.692 205.209 294.61 192.55 288.978 186.002C288.978 186.002 281.724 196.682 279.863 196.295C278.759 196.064 269.735 196.843 264.369 190.408C259.003 183.973 258.149 160.5 258.149 160.5Z" fill="#1689CB"/>
<path d="M264.06 184.671C264.06 184.671 264.357 186.982 267.005 190.867C270.205 195.563 279.868 197.529 279.868 197.529L283.741 194.972C283.741 194.972 278.422 194.533 273.875 192.261C269.328 189.99 264.232 186.112 264.06 184.671Z" fill="#1689CB"/>
<path d="M281.516 123.512C279.718 123.097 269.535 122.258 266.672 127.268C263.809 132.273 266.135 141.544 266.135 141.544C266.135 141.544 266.668 133.903 270.518 131.47C272.747 130.06 285.883 134.666 287.775 134.956C291.261 135.493 286.882 130.487 286.882 130.487C286.882 130.487 283.843 124.048 281.516 123.512Z" fill="#29ACE4"/>
<path d="M289.832 124.197C288.594 124.514 285.135 136.244 288.547 134.153C289.444 133.601 294.383 132.097 300.023 132.633C303.779 132.99 306.736 135.109 306.998 134.689C307.895 133.256 295.099 122.838 289.832 124.197Z" fill="#1689CB"/>
<path d="M288.402 133.139C288.748 133.139 289.028 132.858 289.028 132.512C289.028 132.166 288.748 131.885 288.402 131.885C288.055 131.885 287.775 132.166 287.775 132.512C287.775 132.858 288.055 133.139 288.402 133.139Z" fill="#273150"/>
<path d="M189.293 180.612C189.293 180.612 189.716 172.767 185.596 172.313C181.476 171.858 172.694 180.953 170.709 181.92C168.723 182.892 167.156 186.017 166.142 186.985C165.127 187.952 162.401 188.692 160.889 189.906C159.374 191.124 154.067 194.787 157.874 198.876C161.688 202.972 163.13 204.175 168.386 201.942C173.626 199.714 190.664 184.662 189.293 180.612Z" fill="#1D2436"/>
<path d="M181.134 223.586C181.134 223.586 167.226 219.035 151.277 217.018C144.086 216.109 143.722 226.923 148.477 235.262C151.089 239.848 165.021 243.15 177.907 249.511C188.56 254.767 198.278 263.693 202.7 263.509C212.456 263.098 206.256 228.964 181.134 223.586Z" fill="#48598B"/>
<path d="M168.37 228.395C166.247 228.211 170.078 232.347 171.076 234.161C173.983 239.437 176.36 245.46 178.918 249.283C181.178 252.659 179.591 248.135 177.754 242.39C176.92 239.781 176.293 237.282 175.686 235.575C175.346 234.611 168.37 228.395 168.37 228.395Z" fill="#273150"/>
<path d="M168.816 291.633C168.816 291.633 160.658 298.499 157.803 302.204C154.936 305.921 162.593 309.956 169.388 309.023C176.168 308.095 182.595 305.62 184.891 301.93C187.178 298.252 187.194 298.213 190.777 294.265C194.349 290.333 189.434 281.986 187.409 280.232C185.38 278.481 169.937 285.684 168.816 291.633Z" fill="#EC6141"/>
<path d="M169.028 289.844C169.028 289.844 160.869 296.71 158.014 300.415C155.147 304.132 163.298 306.615 170.093 305.683C176.873 304.755 181.502 303.587 183.797 299.898C186.085 296.22 187.753 295.68 191.337 291.732C194.909 287.799 189.645 280.201 187.62 278.446C185.591 276.692 170.148 283.894 169.028 289.844Z" fill="#13161F"/>
<path d="M164.293 278.867C164.293 278.867 166.776 282.674 166.295 284.225C165.813 285.78 164.344 290.092 170.164 292.046C175.123 293.711 187.135 286.567 190.923 284.064C191.596 283.618 192.043 282.897 192.117 282.133C192.321 280.006 192.435 275.628 190.386 273.035C187.605 269.521 187.97 270.532 183.571 258.95C179.208 247.451 165.276 223.528 164.403 221.072C163.529 218.62 152.198 216.286 149.915 216.556C147.628 216.826 138.764 228.537 138.999 231.765C139.234 235 144.255 246.194 148.572 255.703C152.911 265.268 158.238 269.702 159.511 272.443C161.505 276.74 164.293 278.867 164.293 278.867Z" fill="#48598B"/>
<path d="M187.511 269.588C185.463 265.773 186.45 271.496 185.373 275.549C184.754 277.876 189.563 273.403 187.511 269.588Z" fill="#273150"/>
<path d="M164.133 277.695C164.133 277.695 166.592 284.076 167.967 284.55C169.342 285.027 173.458 284.491 176.251 283.061C179.043 281.628 169.119 283.895 164.133 277.695Z" fill="#273150"/>
<path d="M143.335 236.711C143.335 236.711 144.831 234.149 146.018 231.803C147.205 229.457 147.769 237.404 145.203 239.449C142.638 241.497 143.335 236.711 143.335 236.711Z" fill="#273150"/>
<path d="M174.296 236.621L166.271 232.681L156.366 224.758C156.366 224.758 158.684 224.805 160.502 226.077C161.324 226.653 165.652 230.237 168.01 232.113C170.85 234.381 173.419 235.713 174.296 236.621Z" fill="#273150"/>
<path d="M221.771 183.151C221.771 183.151 180.673 174.099 188.507 168.13C196.289 162.197 218.003 151.516 225.942 163.003C233.936 174.573 226.588 187.263 221.771 183.151Z" fill="#1D2436"/>
<path d="M237.574 266.295C237.574 266.295 238.217 264.779 240.124 263.459C242.028 262.143 247.93 262.692 248.984 265.03C250.037 267.376 250.026 283.458 250.026 284.547C250.026 285.639 247.907 290.171 245.984 292.834C244.057 295.506 240.426 296.019 237.226 294.765C234.026 293.512 236.192 287.993 237.057 285.357C237.923 282.733 236.078 269.119 237.574 266.295Z" fill="#EC6141"/>
<path d="M236.325 265.045C236.325 265.045 236.438 264.113 238.346 262.793C240.249 261.477 246.152 262.026 247.205 264.364C248.259 266.71 248.776 282.208 248.776 283.297C248.776 284.39 246.657 288.922 244.734 291.585C242.807 294.256 239.176 294.769 235.976 293.516C232.776 292.262 234.942 286.744 235.808 284.108C236.673 281.48 234.829 267.869 236.325 265.045Z" fill="#13161F"/>
<path d="M226.471 271.097C226.471 271.097 233.615 264.991 236.967 264.842C244.127 264.521 242.47 271.72 242.455 276.682C242.443 281.66 238.581 285.326 237.147 286.278C235.714 287.23 238.213 286.744 234.049 292.419C229.862 298.122 222.428 304.957 217.478 305.654C213.706 306.187 201.055 299.54 207.819 285.98C209.934 281.746 222.671 274.681 226.471 271.097Z" fill="#273150"/>
<path d="M203.35 240.915C203.35 240.915 202.026 273.431 202.571 285.718C203.119 298.114 202.555 303.954 205.555 307.02C208.559 310.095 214.011 310.667 217.834 309.406C221.649 308.145 220.278 306.554 223.317 305.708C226.353 304.866 228.53 295.65 229.306 292.537C230.081 289.431 232.153 259.245 232.96 248.333C233.763 237.511 231.585 231.981 222.73 232.09C213.858 232.208 204.944 234.562 203.35 240.915Z" fill="#273150"/>
<path d="M202.543 246.171C202.543 246.171 202.096 276.4 202.523 287.691C202.958 299.085 202.512 304.447 204.873 307.271C207.239 310.095 211.54 310.624 214.551 309.46C217.559 308.301 225.033 296.95 225.644 294.091C226.255 291.236 228.432 271.778 226.474 253.342C225.42 243.433 225.389 238.314 218.409 238.416C211.418 238.513 203.8 240.331 202.543 246.171Z" fill="#47588A"/>
<path d="M178.73 230.485C180.9 233.316 183.258 235.377 186.121 237.637C186.791 238.165 209.488 247.652 209.488 247.652C209.488 247.652 196.751 242.811 198.521 244.076C206.084 249.477 208.058 253.135 216.883 255.281C218.943 255.783 223.228 251.737 224.454 253.076C228.39 257.369 226.992 265.496 227.317 261.481C228.476 247.15 233.47 240.613 222.668 235.012C211.29 229.114 172.675 222.573 178.73 230.485Z" fill="#273150"/>
<path d="M183.618 223.313C183.951 220.344 183.234 208.86 183.348 194.318C183.461 179.932 183.36 174.221 191.694 170.861C199.99 167.516 210.385 166.525 218.265 171.671C221.919 174.057 223.521 226.293 224.219 230.962C224.916 235.647 216.683 243.327 209.241 243.805C201.788 244.287 182.666 231.851 183.618 223.313Z" fill="#F6BE4A"/>
<path opacity="0.5" d="M202.101 226.669C202.101 226.669 200.918 228.878 201.408 231.001C197.064 229.113 192.791 226.979 191.608 225.479C191.608 225.479 195.423 231.918 201.145 234.064C206.867 236.211 212.112 235.255 212.112 235.255C212.112 235.255 203.942 229.634 202.101 226.669Z" fill="#F6BE4A"/>
<path d="M178.663 227.808C178.663 227.961 178.718 228.106 178.824 228.215C179.678 229.108 182.263 232.97 186.238 234.317C187.303 234.678 189.136 233.898 189.144 233.444L189.164 232.516C189.168 232.293 186.943 232.508 186.747 232.406C185.572 231.787 180.61 227.898 178.542 225.454C178.185 225.031 178.667 227.244 178.663 227.808Z" fill="#F4E8D8"/>
<path d="M195.121 169.309C196.127 168.748 182.85 175.176 188.811 201.762C190.397 208.832 188.823 221.173 189.34 223.566C189.86 225.959 191.462 231.302 189.105 232.512C184.737 234.752 180.601 227.867 179.078 226.324C176.712 223.935 181.577 222.814 181.377 214.006C181.165 204.696 178.044 191.704 178.655 186.417C180.053 174.349 184.032 173.417 185.595 172.313C187.299 171.11 193.902 169.99 195.121 169.309Z" fill="#972B28"/>
<path d="M195.121 169.309C195.501 167.899 187.413 172.109 186.305 173.112C185.224 174.091 184.08 175.442 183.042 177.315C179.717 183.299 188.149 198.625 188.149 198.625C188.149 198.625 188.122 183.965 188.443 180.62C188.76 177.283 194.389 172.035 195.121 169.309Z" fill="#F4E8D8"/>
<path d="M195.392 168.154C195.392 168.154 194.988 169.082 195.031 170.218C195.192 174.785 196.147 187.408 197.851 187.565C199.582 187.722 200.381 187.306 202.551 180.229C203.013 178.721 207.612 167.367 206.166 166.387" stroke="#913636" stroke-miterlimit="10"/>
<path d="M198.168 191.466C198.674 191.466 199.084 190.526 199.084 189.366C199.084 188.207 198.674 187.267 198.168 187.267C197.662 187.267 197.251 188.207 197.251 189.366C197.251 190.526 197.662 191.466 198.168 191.466Z" fill="#29ACE4"/>
<path d="M195.079 163.885L195.345 171.013C195.455 173.978 198.177 176.168 201.298 175.799L201.721 175.748C204.718 175.396 206.911 172.811 206.625 169.983L205.908 162.917C205.572 159.584 201.98 157.544 198.647 158.781C196.438 159.604 194.997 161.664 195.079 163.885Z" fill="#CE6D3E"/>
<path d="M210.197 236.05L210.224 236.645C210.24 236.986 210.369 237.303 210.589 237.538C212.159 239.23 218.853 246.253 223.275 247.913C226.678 249.19 231.245 249.429 233.85 249.449C235.088 249.456 236.223 248.653 236.748 247.396C237.093 246.574 236.658 245.622 235.867 245.461C231.903 244.651 221.164 241.921 212.198 234.812C211.349 234.134 210.142 234.878 210.197 236.05Z" fill="#F4E8D8"/>
<path d="M207.487 167.013C206.265 167.961 201.02 177.451 205.411 190.545C209.837 203.756 205.787 227.491 208.658 233.382C209.476 235.058 221.207 245.727 225.66 245.915C228.594 246.037 232.82 246.511 235.753 246.894C237.132 247.075 239.255 244.399 239.302 242.997C239.447 238.564 239.302 229.187 236.317 219.783C232.244 206.94 231.931 170.147 221.598 165.271C213.71 161.546 208.709 166.066 207.487 167.013Z" fill="#972B28"/>
<path d="M221.359 222.149C221.359 222.149 229.659 227.205 231.86 227.918L230.614 230.887C230.614 230.887 221.32 225.83 219.867 223.884L221.359 222.149Z" fill="#F4E8D8"/>
<path d="M207.256 166.306C209.7 164.179 217.651 163.091 220.032 164.606C221.379 165.46 215.011 162.769 211.779 170.054C207.777 179.071 206.335 193.417 206.335 193.417C206.335 193.417 204.161 192.235 203.386 180.763C202.869 173.105 204.808 168.437 207.256 166.306Z" fill="#F4E8D8"/>
<path d="M227.673 216.952C227.673 216.952 228.656 214.088 228.21 212.749C227.763 211.409 226.6 215.968 225.261 217.845C224.614 218.745 227.258 217.257 227.673 216.952Z" fill="#972B28"/>
<path d="M181.237 217.606L180.908 219.189L183.023 217.967L183.411 216.087L181.237 217.606Z" fill="#F4E8D8"/>
<path d="M205.618 249.261C205.618 249.261 209.194 251.349 211.58 253.256C213.965 255.163 218.496 256.656 218.496 256.656C218.496 256.656 212.77 257.607 205.618 249.261Z" fill="#273150"/>
<path d="M178.135 199.248C179.976 204.708 173.987 211.273 168.351 211.328C164.975 211.363 162.437 209.808 160.177 206.698C159.323 205.523 159.844 204.16 159.225 202.875C158.748 201.88 157.075 200.968 156.758 200.012C154.956 194.556 158.074 190.616 163.655 190.072C167.678 189.68 168.508 192.347 170.717 193.346C171.512 193.706 173.909 193.777 174.653 194.239C177.34 195.927 177.234 196.581 178.135 199.248Z" fill="#C93F37"/>
<path d="M177.035 202.746C177.313 205.578 175.527 208.398 173.036 209.044C170.541 209.686 168.301 207.9 168.03 205.061C167.76 202.225 168.978 198.097 171.461 197.462C173.941 196.824 176.757 199.918 177.035 202.746Z" fill="#F4E8D8"/>
<path d="M175.753 203.032C175.957 205.163 174.657 207.29 172.847 207.771C171.038 208.257 169.408 206.91 169.213 204.771C169.017 202.637 170.266 198.41 173.008 199.127C174.814 199.597 175.55 200.905 175.753 203.032Z" fill="#CE6D3E"/>
<path d="M172.323 199.605C171.308 200.404 170.493 202.065 170.208 204.611C169.922 207.157 175.444 209.91 175.444 209.91C175.444 209.91 178.887 211.183 181.182 205.664C182.095 203.467 177.387 199.398 177.422 197.995C177.551 192.908 173.987 198.293 172.323 199.605Z" fill="#F6874E"/>
<path d="M176.706 198.888C176.706 198.888 174.916 199.096 175.276 200.439C175.632 201.779 178.448 204.164 181.402 203.451C184.355 202.739 176.706 198.888 176.706 198.888Z" fill="#CE6D3E"/>
<path d="M159.358 201.034C159.119 199.483 159.28 197.999 159.241 197.697C159.123 196.804 157.811 201.155 157.811 201.155C159.417 203.478 159.479 201.837 159.358 201.034Z" fill="#972B28"/>
<path d="M169.91 193.522C169.91 193.522 166.511 190.483 165.441 195.312C165.437 195.312 167.407 194.059 169.91 193.522Z" fill="#972B28"/>
<path d="M221.633 198.48C219.193 194.532 216.71 189.515 214.153 185.587C211.599 181.67 213.068 169.227 218.625 167.084C224.167 164.949 225.202 167.585 230.317 174.988C235.451 182.422 243.371 201.923 240.923 208.644C239.619 212.22 228.139 214.041 221.633 198.48Z" fill="#1D2436"/>
<path d="M239.34 202.138C236.611 198.21 233.129 195.491 226.008 196.921C222.46 197.634 222.009 201.006 222.009 201.006C222.009 201.006 217.963 200.638 216.118 202.283C214.27 203.932 208.007 202.283 208.207 210.508C208.406 218.733 210.424 222.513 215.923 223.562C221.418 224.612 230.003 217.429 230.003 217.429C230.003 217.429 233.031 218.016 237.053 214.194C241.111 210.34 243.676 208.377 239.34 202.138Z" fill="#C93F37"/>
<path d="M222.926 199.898C222.926 199.898 226.165 197.047 229.349 199.859C229.698 200.168 225.421 199.31 222.926 199.898Z" fill="#972B28"/>
<path d="M208.391 213.986C207.972 221.424 216.883 220.684 216.883 220.684C216.883 220.684 215.175 221.471 216.236 221.761C217.49 222.101 219.683 222.474 221.023 221.537C225.809 218.189 228.476 209.968 222.621 206.599C221.547 205.984 221.23 210.63 221.074 209.29C220.905 207.868 219.393 205.667 216.718 204.269C215.226 203.485 208.908 204.766 208.391 213.986Z" fill="#972B28"/>
<path d="M231.103 204.609C231.103 204.609 229.568 202.999 227.59 202.282C225.612 201.566 222.15 200.763 222.15 200.763C222.694 200.598 231.319 200.065 231.103 204.609Z" fill="#972B28"/>
<path d="M212.398 204.892C211.047 204.974 206.754 205.405 206.425 213.015C206.163 219.156 211.634 220.586 211.634 220.586C211.634 220.586 215.618 220.931 217.431 219.388C219.875 217.308 220.075 212.361 218.559 208.127C217.78 205.957 213.749 204.81 212.398 204.892Z" fill="#F4E8D8"/>
<path d="M209.68 206.305C208.332 206.363 204.416 205.631 204.212 212.853C204.048 218.678 209.523 220.111 209.523 220.111C209.523 220.111 213.495 220.491 215.277 219.05C217.678 217.107 217.795 212.415 216.217 208.377C215.406 206.301 211.027 206.246 209.68 206.305Z" fill="#CE6D3E"/>
<path d="M182.936 180.417C182.936 180.417 184.491 178.306 188.929 178.443C195.129 178.635 201.787 180.496 203.769 183.296C205.238 185.368 205.32 187.471 205.32 187.471C205.32 187.471 207.29 187.663 208.265 189.105C208.88 190.013 208.606 201.438 208.606 201.438C208.5 203.455 207.494 204.842 205.442 204.814L203.703 204.791L182.513 202.022C182.521 202.022 180.911 182.893 182.936 180.417Z" fill="#634874"/>
<path d="M175.632 196.386C175.871 201.869 180.575 202.829 181.93 203.056C185.592 203.667 205.313 205.391 205.313 205.391C205.313 205.391 208.752 204.075 206.789 203.937C206.319 203.906 196.586 201.732 193.398 201.153C187.966 200.166 186.125 196.621 186.125 196.621C186.125 196.621 175.522 193.883 175.632 196.386Z" fill="#7E6391"/>
<path d="M204.6 221.825L206.222 205.715C206.128 204.885 205.474 204.537 202.897 204.086C202.897 204.086 201.651 203.973 200.676 203.875C200.202 203.828 199.058 204.059 199.011 205.484L198.201 223.728C198.13 224.394 200.523 223.928 200.523 223.928C204.06 223.489 204.526 223.329 204.6 221.825Z" fill="#634874"/>
<path d="M186.019 198.979C182.608 200.499 180.387 200.953 177.257 199.441C174.931 198.45 174.289 193.378 174.347 191.788L174.39 186.32C174.516 182.756 177.555 179.869 181.178 179.869C186.391 179.865 189.113 183.927 188.972 189.066L188.788 192.144C188.745 193.731 187.586 198.282 186.019 198.979Z" fill="#634874"/>
<path d="M199.806 223.611L200.253 204.92C200.331 203.389 200.429 203.134 197.981 202.931L195.772 202.915C193.951 203.013 193.05 203.937 192.995 205.441L193.755 220.38C193.719 223.039 193.375 223.779 195.251 223.928C198.376 224.175 199.771 224.523 199.806 223.611Z" fill="#7E6391"/>
<path d="M191.789 205.351C192.016 207.669 192.501 210.18 195.725 210.979C195.862 211.014 198.392 210.854 198.392 210.854L197.331 204.708C197.35 203.498 196.704 202.856 195.936 202.77L193.214 202.582C192.215 202.468 191.64 203.812 191.789 205.351Z" fill="#7E6391"/>
<path d="M194.495 205.398C194.687 207.603 195.243 210.082 198.028 210.846C198.146 210.877 198.271 210.877 198.392 210.854C200.049 210.991 202.697 209.949 202.717 208.794L202.983 204.09C202.905 203.894 195.937 202.981 195.937 202.981C195.075 202.875 194.366 203.937 194.495 205.398Z" fill="#634874"/>
<path d="M184.774 188.439C184.59 190.358 182.847 191.815 180.881 191.694C178.914 191.572 177.473 189.916 177.661 187.993C177.849 186.073 179.596 184.624 181.558 184.746C183.517 184.871 184.958 186.524 184.774 188.439Z" fill="#1D2436"/>
<path d="M183.696 187.424C183.442 190.092 181.021 192.12 178.287 191.952C175.55 191.784 173.548 189.477 173.811 186.805C174.073 184.142 176.498 182.125 179.224 182.297C181.95 182.47 183.951 184.765 183.696 187.424Z" fill="#F6BE4A"/>
<path d="M181.616 187.028C181.456 188.709 179.928 189.982 178.209 189.876C176.49 189.77 175.224 188.317 175.393 186.637C175.557 184.96 177.085 183.687 178.8 183.797C180.516 183.907 181.777 185.352 181.616 187.028Z" fill="#1D2436"/>
<path d="M189.627 180.433C192.126 182.16 192.749 184.714 192.098 189.21C192.044 189.578 192.341 189.907 192.78 189.974L201.921 191.482C202.474 191.568 203.888 191.964 203.946 191.494C204.189 189.594 204.503 184.17 200.531 182.145C198.655 181.189 194.123 179.881 190.426 179.191C189.517 179.023 188.926 179.947 189.627 180.433Z" fill="#BB83C3"/>
<path d="M190.48 178.839C190.48 178.839 197.096 181.534 194.35 190.671" stroke="#634874" stroke-width="2" stroke-miterlimit="10" stroke-linecap="round" stroke-linejoin="round"/>
<path d="M195.22 179.881C195.22 179.881 200.699 183.496 198.063 191.103" stroke="#634874" stroke-width="2" stroke-miterlimit="10" stroke-linecap="round" stroke-linejoin="round"/>
<path d="M198.812 180.938C198.812 180.938 203.712 184.525 201.624 191.497" stroke="#634874" stroke-width="2" stroke-miterlimit="10" stroke-linecap="round" stroke-linejoin="round"/>
<path d="M191.879 191.971L203.887 194.059" stroke="#BB83C3" stroke-width="2" stroke-miterlimit="10" stroke-linecap="round" stroke-linejoin="round"/>
<path d="M214.49 208.872C214.49 208.872 213.527 205.073 212.978 204.031C212.708 203.518 212.771 202.496 212.148 200.992C211.474 199.362 211.803 198.046 211.083 196.754C210.472 195.657 207.648 197.655 207.761 199.719C207.824 200.886 207.965 203.166 208.278 204.305C208.631 205.598 203.801 204.576 203.801 204.576C203.288 204.395 199.971 204.63 199.43 204.689L196.007 204.736C194.585 205.194 194.347 206.228 194.394 207.721C194.417 208.52 198.255 208.069 199.881 208.332C201.064 208.52 203.7 208.077 203.739 208.249C203.739 208.249 194.691 210.513 194.194 211.676C193.215 213.983 193.497 217.003 193.857 217.454C194.926 218.789 195.008 218.891 195.008 218.891C195.008 218.891 194.946 220.61 196.199 221.453C198.091 222.725 204.115 223.783 204.115 223.783C204.115 223.783 211.22 221.386 212.406 220.262C213.593 219.142 215.074 218.225 215.226 214.649C215.371 211.085 214.49 208.872 214.49 208.872Z" fill="#F6874E"/>
<path d="M194.185 211.673C193.226 213.988 193.488 217 193.849 217.45C194.918 218.786 195 218.888 195 218.888C195 218.888 194.937 220.607 196.191 221.449C198.083 222.722 204.106 223.78 204.106 223.78L201.944 219.671C201.944 219.671 200.025 210.283 199.461 209.962C198.897 209.64 194.538 210.827 194.185 211.673Z" fill="#CE6D3E"/>
<path d="M178.013 175.944L177.762 163.415L171.974 168.644L165.362 158.985L164.681 170.402L155.116 170.516L162.534 175.533L158.994 179.849L168.511 180.284C169.357 180.319 163.968 178.012 163.968 178.012L164.587 175.741L162.523 172.227L166.862 172.02L167.689 167.476L171.668 171.346L175.745 168.718C175.741 168.714 178.017 176.034 178.013 175.944Z" fill="#F6BE4A"/>
<path d="M171.86 206.549L176.235 210.587C176.309 210.654 176.399 210.697 176.501 210.708C177.457 210.814 183.387 210.732 185.333 210.422C186.183 210.289 188.247 208.178 190.453 206.02C191.142 205.343 191.635 204.947 192.337 204.097C192.724 203.627 192.822 203.012 192.293 202.711C192.293 202.711 191.428 202.229 190.95 202.585C190.742 202.742 190.727 202.683 190.778 202.566C190.883 202.319 190.778 202.033 190.527 201.931C190.041 201.735 189.297 201.563 188.565 201.931C187.492 202.468 187.609 202.319 187.609 202.319C187.609 201.814 187.041 201.214 186.297 201.187C185.302 201.148 184.511 201.727 184.358 201.849C184.339 201.865 182.991 202.166 181.797 202.734C180.379 203.408 178.279 202.526 177.175 202.107C175.142 201.34 171.993 201.257 171.699 206.177C171.699 206.314 171.758 206.455 171.86 206.549Z" fill="#F6874E"/>
<path d="M214.098 147.023C212.14 158.139 208.435 160.199 208.435 160.199C192.282 166.136 178.825 159.439 177.458 149.729C175.691 139.985 174.508 134.873 190.931 131.697C207.248 128.544 215.822 137.263 214.098 147.023Z" fill="#1D2436"/>
<path d="M212.273 144.868C210.605 154.288 196.595 151.57 196.595 151.57C193.763 150.83 184.01 148.863 182.173 143.635C180.607 139.177 178.554 134.16 192.486 131.465C205.172 129.014 213.742 136.588 212.273 144.868Z" fill="#3D4C6D"/>
<path d="M210.42 150.004C210.42 150.004 211.579 146.96 210.502 143.663C210.502 143.663 214.76 144.646 210.42 150.004Z" fill="#1D2436"/>
<path d="M186.122 135.61C186.122 135.61 176.483 138.171 175.406 140.044C174.329 141.92 179.142 162.753 183.098 167.253C187.062 171.765 204.628 164.323 207.785 159.384C210.37 155.346 209.109 153.967 208.47 148.668C207.809 143.146 202.944 140.839 201.984 138.939C200.359 135.7 186.122 135.61 186.122 135.61Z" fill="#CE6D3E"/>
<path d="M206.495 151.48C207.204 155.095 203.656 163.351 196.355 165.58C189.027 167.82 183.101 167.248 180.073 159.482C176.968 151.511 184.864 140.635 192.129 138.465C199.367 136.307 204.02 143.349 206.495 151.48Z" fill="#F6874E"/>
<path d="M185.349 150.63C185.639 151.899 185.138 152.608 184.476 152.764C183.81 152.921 183.234 152.471 182.948 151.198C182.658 149.929 182.964 148.769 183.63 148.613C184.288 148.46 185.059 149.361 185.349 150.63Z" fill="#34273A"/>
<path d="M194.73 141.355L192.873 143.239" stroke="#34273A" stroke-miterlimit="10" stroke-linecap="round" stroke-linejoin="round"/>
<path d="M184.781 147.084L182.173 147.253" stroke="#34273A" stroke-miterlimit="10" stroke-linecap="round" stroke-linejoin="round"/>
<path d="M193.597 146.125C193.907 145.138 195.575 143.223 197.683 143.811C197.683 143.811 194.859 146.509 193.891 147.414C193.742 147.551 193.539 146.313 193.597 146.125Z" fill="#34273A"/>
<path d="M209.974 145.614C210.041 148.829 208.536 151.649 206.613 151.9C204.69 152.151 203.081 149.738 203.022 146.519C202.963 143.303 204.471 140.506 206.386 140.26C208.301 140.009 209.907 142.406 209.974 145.614Z" fill="#F6874E"/>
<path d="M195.905 131.552C195.905 131.552 180.45 148.296 175.17 150.348C169.875 152.408 172.53 138.038 180.293 132.942C188.013 127.882 195.905 131.552 195.905 131.552Z" fill="#1D2436"/>
<path d="M196.908 131.251C196.908 131.251 197.096 132.422 193.923 134.533C188.432 138.187 177.869 143.819 175.194 144.857C170.956 146.502 174.226 137.141 180.281 132.833C186.732 128.247 196.908 131.251 196.908 131.251Z" fill="#3D4C6D"/>
<path d="M186.329 135.958C186.329 135.958 182.04 142.39 177.564 144.442C177.56 144.446 188.17 139.789 186.329 135.958Z" fill="#1D2436"/>
<path d="M199.838 135.814C199.838 135.814 200.942 143.718 202.528 145.735L205.654 148.543L203.539 137.341L199.838 135.814Z" fill="#3D4C6D"/>
</svg>
