<svg width="350" height="286" viewBox="0 0 350 286" fill="none" xmlns="http://www.w3.org/2000/svg">
<path d="M219.791 198.672C249.001 208.891 251.814 223.06 251.814 223.06C251.814 223.06 311.625 235.932 325.181 242.707C338.738 249.482 357.653 261.467 330.603 270.48C312.303 276.577 267.573 285.382 227.586 279.285C187.6 273.188 161.596 269.321 150.878 262.446C140.16 255.575 150.259 246.925 150.259 246.925C150.259 246.925 125.821 249.36 91.1305 248.938C56.4399 248.515 37.0096 239.606 53.4087 233.22C53.4087 233.22 -31.6474 207.141 12.9154 192.068C20.0327 190.035 37.3152 175.3 94.2454 174.794C151.176 174.288 179.126 184.444 219.791 198.672Z" fill="#856792"/>
<path d="M152.729 204.417C152.729 204.417 193.348 214.703 186.331 220.47C179.314 226.236 153.847 225.525 153.847 225.525C153.847 225.525 142.597 237.882 122.045 236.446C101.492 235.011 87.2745 233.643 74.882 228.801C62.4895 223.96 11.2657 211.201 57.0008 204.363C102.736 197.525 152.729 204.417 152.729 204.417Z" fill="#4B3355"/>
<path d="M167.587 191.742C191.326 196.638 195.441 200.986 178.113 205.275C160.784 209.564 154.123 205.217 142.735 199.149C131.344 193.081 143.845 186.842 167.587 191.742Z" fill="#4B3355"/>
<path d="M177.769 229.324C185.904 227.29 193.356 234.065 177.091 234.743C160.826 235.421 169.638 231.354 177.769 229.324Z" fill="#4B3355"/>
<path d="M214.708 240.669C214.708 240.669 215.742 240.82 217.354 241.079C224.111 242.163 241.059 245.125 235.043 246.766C227.586 248.799 199.121 246.088 208.612 242.025" fill="#4B3355"/>
<path d="M251.626 231.383C251.626 231.383 303.741 238.937 311.658 244.682C319.575 250.427 288.569 254.574 288.569 254.574C288.569 254.574 278.014 256.851 263.499 255.579C248.984 254.307 203.22 243.653 216.002 238.054C225.895 233.714 251.626 231.383 251.626 231.383Z" fill="#4B3355"/>
<path d="M188.374 253.064C188.374 253.064 218.079 251.302 212.573 258.249C207.068 265.195 164.15 257.265 188.374 253.064Z" fill="#4B3355"/>
<path d="M176.073 274.54C181.215 277.05 193.008 285.378 165.908 285.378C138.808 285.378 132.934 267.765 139.478 267.765C146.017 267.765 170.936 272.033 176.073 274.54Z" fill="#856792"/>
<path d="M144.535 158.658C144.535 158.658 215.047 167.065 228.13 172.061C241.214 177.058 259.388 191.223 226.678 194.989C193.967 198.759 175.793 204.915 161.257 198.462C146.721 192.009 157.623 179.238 157.623 179.238C157.623 179.238 131.452 181.439 114.006 177.489C96.5563 173.53 92.9222 149.565 144.535 158.658Z" fill="#856792"/>
<path d="M100.847 232.768C103.782 233.672 106.269 239.543 98.8126 239.543C91.3561 239.543 83.6067 236.94 86.6127 234.124C90.2299 230.734 97.9083 231.864 100.847 232.768Z" fill="#4B3355"/>
<path d="M133.378 252.185C133.378 252.185 139.478 256.248 132.021 256.926C124.565 257.604 124.565 252.185 133.378 252.185Z" fill="#856792"/>
<path d="M129.686 261.868C132.453 264.634 134.37 268.681 124.147 269.108C113.923 269.534 113.5 260.805 116.904 260.379C120.316 259.952 126.918 259.102 129.686 261.868Z" fill="#856792"/>
<path d="M68.9911 225.993C68.9911 225.993 68.765 228.927 63.1172 228.479C57.4694 228.027 51.1434 225.545 51.1434 225.545C51.1434 225.545 45.7216 225.997 41.6564 223.286C37.5912 220.574 41.8825 215.833 53.6302 218.319C65.378 220.8 70.5736 224.863 68.9911 225.993Z" fill="#4B3355"/>
<path d="M137.954 168.692C137.954 168.692 154.73 167.676 149.643 172.756C144.56 177.84 123.719 172.76 137.954 168.692Z" fill="#4B3355"/>
<path d="M137.959 143.836L138.386 168.237L141.342 170.388L144.812 175.945C144.812 175.945 144.385 180.226 144.812 187.076C145.239 193.927 146.098 202.915 146.098 202.915L92.5629 225.178L72.0064 226.035L54.0875 223.738L24.2659 207.481L32.6016 181.515L33.4598 175.949L40.3134 172.526L36.0304 169.103L39.4551 136.999L112.692 135.714L137.959 143.836Z" fill="#7A462F"/>
<path d="M39.4511 136.986L76.2853 122.858L116.117 126.712L137.959 143.836C137.959 143.836 134.534 146.832 127.681 146.832C120.827 146.832 90.4195 150.686 90.4195 150.686L68.1465 150.259C68.1465 150.259 50.5876 143.409 45.4464 142.124C40.3052 140.84 39.4511 136.986 39.4511 136.986Z" fill="#A96443"/>
<path d="M42.5614 212.896L56.1178 197.316L57.4701 175.64L64.9265 155.315L63.57 171.572L59.5048 178.347L60.183 197.994L59.5048 212.218L72.002 226.031L54.0831 214.251L56.1178 204.091L47.3049 214.929L42.5614 212.896Z" fill="#A96443"/>
<path d="M81.87 148.54L83.2264 158.026L92.0352 147.866L81.87 148.54Z" fill="#A96443"/>
<path d="M56.1182 143.121L51.3705 149.896L47.9835 140.413L56.1182 143.121Z" fill="#A96443"/>
<path d="M86.6135 137.023L88.6482 156.67L81.87 166.831L82.5482 179.703L85.257 170.22L92.0352 155.993L86.6135 137.023Z" fill="#A96443"/>
<path d="M79.1572 166.831V182.41L73.0615 201.379L72.3832 210.862L70.3485 196.638L75.092 181.737L79.1572 166.831Z" fill="#A96443"/>
<path d="M74.4136 168.865L75.0918 181.059L72.383 189.185L73.0613 173.606L71.3657 163.106L74.4136 168.865Z" fill="#A96443"/>
<path d="M136.766 169.881L139.14 181.511L136.653 192.575L137.783 200.701L135.074 192.575L137.557 182.184L136.766 169.881Z" fill="#A96443"/>
<path d="M47.3052 144.476C47.3052 144.476 47.9834 155.314 47.9834 157.348C47.9834 159.382 47.9834 180.042 47.9834 180.042L39.1747 198.333L41.8876 181.059L24.266 207.477L33.4599 175.945L40.3134 172.522L36.0305 169.099L38.5006 144.48L40.8661 150.573L41.2052 163.445L43.579 155.314L43.2399 148.2L47.3052 144.476Z" fill="#A96443"/>
<path d="M46.7977 222.039C44.9346 221.7 41.7151 215.774 49.5107 206.288C52.7428 202.358 52.479 213.092 51.2063 216.959C49.9293 220.825 48.6608 222.378 46.7977 222.039Z" fill="#33A86D"/>
<path d="M44.5252 216.524C44.5252 216.524 47.1503 205.656 45.1951 205.786C39.317 206.171 41.4355 210.054 41.4355 210.054C41.4355 210.054 33.3176 202.178 31.8229 205.032C30.3283 207.89 35.6956 212.251 35.6956 212.251C35.6956 212.251 21.5321 202.773 28.4485 210.025C35.3607 217.277 45.6096 221.767 44.5252 216.524Z" fill="#33A86D"/>
<path d="M52.0479 191.218C52.0479 191.218 49.3349 200.023 47.3044 194.604C45.2696 189.185 46.6261 185.121 52.0479 191.218Z" fill="#33A86D"/>
<path d="M34.4262 193.252C34.4262 193.252 30.3609 187.833 35.1044 187.833C39.8479 187.833 37.1391 191.897 34.4262 193.252Z" fill="#33A86D"/>
<path d="M52.726 148.539C52.726 148.539 51.3695 154.636 55.439 153.28C59.5084 151.924 59.5042 146.509 52.726 148.539Z" fill="#33A86D"/>
<path d="M53.404 160.055C53.404 160.055 43.9171 158.021 48.6605 155.992C53.404 153.958 57.4693 158.026 53.404 160.055Z" fill="#33A86D"/>
<path d="M47.9828 171.572C47.9828 171.572 41.8828 165.474 47.9828 164.797C54.0827 164.123 54.761 170.894 47.9828 171.572Z" fill="#33A86D"/>
<path d="M60.8613 162.089C60.8613 162.089 60.1831 170.22 57.4743 167.508C54.7655 164.796 54.7614 158.703 60.8613 162.089Z" fill="#33A86D"/>
<path d="M83.0388 230.002C83.0388 230.002 87.4055 222.729 83.5244 219.335C79.6434 215.937 83.0388 230.002 83.0388 230.002Z" fill="#288453"/>
<path d="M85.7686 228.474C86.8404 230.282 95.4272 212.217 91.362 211.707C87.2967 211.196 84.6926 226.671 85.7686 228.474Z" fill="#288453"/>
<path d="M93.279 226.671C94.3507 224.809 95.4267 215.155 91.9225 219.105C89.3477 222.014 88.703 222.604 87.9703 226.897C87.2376 231.186 92.2072 228.533 93.279 226.671Z" fill="#288453"/>
<path d="M145.239 205.442C145.239 205.442 146.595 192.909 150.661 194.265C154.726 195.621 149.982 201.379 149.982 201.379C149.982 201.379 156.082 195.959 154.387 200.701C152.691 205.442 145.239 205.442 145.239 205.442Z" fill="#33A86D"/>
<path d="M141.173 206.459C141.173 206.459 138.125 199.006 141.512 198.328C144.899 197.65 144.225 202.052 144.225 202.052C144.225 202.052 147.273 194.6 147.612 198.328C147.951 202.052 145.917 204.764 143.547 205.781C141.173 206.798 141.173 206.798 141.173 206.798" fill="#288453"/>
<path d="M238.597 271.321C238.597 271.321 244.697 257.098 241.645 260.65C238.597 264.207 237.58 266.241 237.58 266.241C237.58 266.241 238.597 257.604 235.038 259.638C231.48 261.671 233.514 267.258 233.514 267.258C233.514 267.258 227.921 262.684 227.415 265.735C226.908 268.785 234.532 272.844 238.597 271.321Z" fill="#33A86D"/>
<path d="M271.299 274.033C271.299 274.033 276.382 263.362 272.823 262.349C269.265 261.332 268.247 268.446 268.247 268.446C268.247 268.446 268.754 255.235 264.182 255.235C259.61 255.235 263.675 266.919 263.675 266.919C263.675 266.919 262.151 264.379 259.61 266.919C257.069 269.459 258.593 274.033 258.593 274.033C258.593 274.033 253.51 270.476 250.458 273.016C247.41 275.556 250.458 276.573 250.458 276.573C250.458 276.573 240.799 274.539 241.31 277.079C241.817 279.62 249.952 281.653 257.575 279.62C265.199 277.586 281.975 279.113 280.447 275.046C278.923 270.982 271.299 274.033 271.299 274.033Z" fill="#33A86D"/>
<path d="M328.426 251.942C328.426 251.942 337.122 242.76 330.595 236.295L328.694 242.627C328.694 242.627 325.96 234.425 322.209 231.713L326.199 243.719C326.199 243.719 323.444 237.739 319.73 236.04C316.017 234.345 328.426 251.942 328.426 251.942Z" fill="#856792"/>
<path d="M332.069 251.624C332.069 251.624 340.689 245.882 350 245.175C350 245.175 343.527 242.957 339.416 244.305C335.305 245.652 335.322 248.887 335.322 248.887L337.185 241.543C337.185 241.543 328.64 249.305 328.43 251.942C328.221 254.578 332.069 251.624 332.069 251.624Z" fill="#856792"/>
<path d="M18.555 194.487C18.555 194.487 21.5777 182.728 17.5627 179.221L17.4664 185.783C17.4664 185.783 15.0675 179.238 12.8904 178.15L16.3988 187.733C16.3988 187.733 14.2804 183.251 12.254 183.084C10.2277 182.916 18.555 194.487 18.555 194.487Z" fill="#856792"/>
<path d="M20.28 192.818C20.28 192.818 23.7131 184.269 28.1426 180.105C28.1426 180.105 24.7095 180.498 22.8883 183.294C21.0671 186.089 21.4984 189.068 21.4984 189.068L21.4439 181.586C21.4439 181.586 18.3081 191.973 18.551 194.487C18.7938 197.002 20.28 192.818 20.28 192.818Z" fill="#856792"/>
<path d="M178.745 197.334C178.828 197.363 178.912 197.4 178.992 197.446C180.197 198.108 191.866 200.418 193.013 201.824C193.951 202.97 193.72 207.866 193.41 209.749C193.314 210.335 192.9 210.812 192.33 210.996C190.015 211.758 186.712 213.612 181.022 213.281C173.482 212.842 171.983 212.377 166.377 209.703C162.706 207.954 156.966 206.293 155.852 205.724C155.32 205.452 155.086 204.924 155.057 204.343L154.755 197.961C154.717 197.162 155.174 196.463 155.982 196.317C159.725 195.647 170.191 194.208 178.745 197.334Z" fill="#29ABE2"/>
<path d="M174.663 194.872C174.663 194.872 191.916 199.793 193.122 201.174C194.328 202.555 193.511 207.995 193.511 207.995C193.511 207.995 188.542 211.033 181.081 210.322C173.591 209.606 171.854 210.012 166.277 207.564C161.952 205.664 156.124 204.036 155.291 203.634C155.069 203.526 154.927 203.325 154.914 203.099L154.625 197.458C154.6 196.943 154.99 196.487 155.551 196.383C158.867 195.776 165.754 191.838 174.663 194.872Z" fill="#121721"/>
<path d="M184.971 198.747C184.971 198.747 180.252 197.994 176.715 201.023" stroke="#29ABE2" stroke-width="2" stroke-miterlimit="10" stroke-linecap="round" stroke-linejoin="round"/>
<path d="M181.722 197.202C181.722 197.202 178.335 196.637 172.687 200.024" stroke="#29ABE2" stroke-width="2" stroke-miterlimit="10" stroke-linecap="round" stroke-linejoin="round"/>
<path d="M118.001 104.986C118.001 104.986 148.191 98.4365 159.783 97.2732C166.172 96.6329 169.124 98.5077 171.087 102.169C173.055 105.827 172.561 118.347 166.269 121.812C159.976 125.277 149.999 125.097 141.936 127.846C133.876 130.592 122.321 137.153 115.639 133.835C108.957 130.516 99.7174 112.685 118.001 104.986Z" fill="#CE9436"/>
<path d="M118.001 104.986L131.566 102.37L156.464 124.716C156.464 124.716 145.495 126.633 141.94 127.846C133.881 130.591 122.326 137.153 115.644 133.834C108.958 130.516 108.368 104.76 118.001 104.986Z" fill="#F7BC4B"/>
<path d="M154.09 148.766C154.09 148.766 155.668 119.209 155.053 112.84C154.433 106.471 155.065 97.5076 166.415 97.0264C174.098 96.7 178.561 97.9596 179.013 107.216C179.373 114.594 180.198 120.64 179.084 128.252C177.585 138.463 176.815 185.289 178.276 186.946C179.737 188.603 179.888 187.938 179.712 191.926C179.57 195.144 176.76 195.47 169.262 196.822C164.657 197.395 159.984 200.521 156.216 198.157C152.449 195.793 153.361 194.06 153.361 194.06L153.566 190.06L154.09 148.766Z" fill="#CE9436"/>
<path d="M154.089 148.766C154.089 148.766 150.769 120.193 150.15 113.824C149.53 107.455 164.275 146.987 163.17 151.055C162.061 155.122 161.558 163.462 161.558 163.462L164.376 159.595C164.376 159.595 167.223 186.201 167.047 190.194C166.905 193.412 176.764 195.479 169.266 196.826C164.661 197.4 159.988 200.526 156.22 198.161C152.452 195.797 153.365 194.064 153.365 194.064L153.57 190.064L154.089 148.766Z" fill="#F7BC4B"/>
<path d="M63.7954 109.475C63.7954 109.475 57.4694 123.025 59.5041 131.152C61.5388 139.283 63.3433 139.283 72.8344 138.605C81.505 137.985 131.854 133.466 122.986 114.443C115.543 98.4699 103.33 101.345 90.0039 103.604C76.6736 105.864 63.7954 109.475 63.7954 109.475Z" fill="#F7BC4B"/>
<path d="M124.113 50.7564C124.113 50.7564 131.992 56.9204 132.679 64.9424C133.366 72.9644 138.39 81.7313 140.328 84.4681C142.267 87.2048 147.119 96.976 138.624 102.391C130.129 107.806 127.069 95.5951 123.866 90.2345C120.663 84.874 116.008 79.9486 113.592 71.9768C111.176 64.0008 108.597 45.0025 124.113 50.7564Z" fill="#7A462F"/>
<path d="M131.913 97.03C131.913 97.03 129.828 102.889 136.384 108.977C142.941 115.066 153.922 124.636 156.777 127.239C159.633 129.842 163.702 128.867 166.541 126.122C169.379 123.372 166.696 119.221 159.737 110.798C152.779 102.374 145.185 90.9832 138.54 88.3469C131.896 85.7105 131.913 97.03 131.913 97.03Z" fill="#7A462F"/>
<path d="M148.966 114.895C147.705 113.865 129.828 102.889 136.385 108.978C142.941 115.066 153.923 124.637 156.778 127.239C159.633 129.842 161.844 123.477 159.135 120.77C156.426 118.062 153.609 118.678 148.966 114.895Z" fill="#A96443"/>
<path d="M163.728 119.619C165.143 119.23 167.324 119.87 170.318 120.77C172.579 121.448 176.079 121.787 178.452 122.126C182.183 122.657 182.179 121.222 184.665 122.917C185.917 123.77 185.252 125.779 184.439 126.302C182.518 127.545 176.983 126.549 176.25 126.867C175.518 127.185 180.571 132.663 180.801 133.069C181.031 133.475 187.131 136.475 188.442 137.404C189.752 138.333 188.785 139.065 188.22 139.572C187.655 140.078 185.653 140.045 185.653 140.045C185.653 140.045 187.537 140.932 186.177 142.359C184.812 143.79 183.824 143.593 182.991 143.12C182.158 142.648 180.889 142.296 180.889 142.296C180.889 142.296 181.182 144.208 179.239 144.388C177.297 144.568 176.543 143.962 176.543 143.962C176.543 143.962 176.208 144.874 174.576 145.326C172.943 145.778 172.792 145.234 169.924 143.33C167.056 141.426 163.154 138.756 162.032 137.659C160.91 136.563 156.874 128.307 157.749 125.959C158.616 123.603 162.313 120.008 163.728 119.619Z" fill="#7A462F"/>
<path d="M161.391 123.703C162.806 123.314 166.985 122.13 169.974 123.026C172.235 123.703 176.413 123.139 178.783 123.477C182.513 124.009 181.718 122.009 184.204 123.703C185.456 124.557 185.239 125.775 184.431 126.302C182.509 127.545 176.974 126.549 176.241 126.867C175.509 127.185 180.562 132.663 180.792 133.069C181.023 133.475 187.123 136.475 188.433 137.404C189.743 138.333 188.776 139.065 188.211 139.572C187.646 140.078 185.222 139.341 185.222 139.341C185.222 139.341 187.529 140.932 186.168 142.363C184.803 143.794 183.89 142.689 182.965 142.446C181.667 142.107 180.704 141.769 180.704 141.769C180.704 141.769 181.646 144.175 179.231 144.392C177.77 144.522 174.931 142.488 174.931 142.488C174.931 142.488 176.329 143.589 175.396 144.309C173.951 145.422 173.097 144.392 170.229 142.488C167.361 140.584 163.983 137.529 162.861 136.433C161.739 135.337 158.172 128.198 159.047 125.85C159.922 123.498 159.976 124.093 161.391 123.703Z" fill="#A96443"/>
<path d="M177.318 134.767C177.318 134.767 173.533 137.253 172.009 137.759C170.485 138.266 169.409 138.718 169.409 138.718C169.409 138.718 175.283 135.274 175.622 135.106C175.961 134.939 177.824 133.524 177.824 133.524L177.318 134.767Z" fill="#7A462F"/>
<path d="M176.288 143.417L172.52 140.835L169.979 138.55C169.979 138.55 170.804 139.781 172.407 141.099C173.383 141.898 175.112 142.79 176.288 143.417Z" fill="#7A462F"/>
<path d="M180.709 141.936L176.87 139.115C176.87 139.115 174.517 137.157 173.144 136.63L176.192 139.115L180.709 141.936Z" fill="#7A462F"/>
<path d="M185.792 139.622L180.199 137.082L177.318 134.37C177.318 134.37 179.973 136.517 180.425 136.856C180.877 137.195 186.638 139.789 186.638 139.789L185.792 139.622Z" fill="#7A462F"/>
<path d="M96.5523 42.0732C111.235 43.429 118.013 46.0235 121.404 47.6053C124.791 49.1871 124.117 50.317 124.117 50.317C124.117 50.317 122.987 62.0591 122.309 66.3484C121.63 70.6377 119.91 81.3211 119.315 86.8951C118.662 93.0256 113.722 103.998 114.061 107.726C114.471 112.246 112.026 118.904 112.026 118.904C112.026 118.904 99.2611 115.799 90.2263 116.928C81.1915 118.058 63.1176 114.33 62.2133 114.104C61.309 113.878 62.1003 111.392 62.1003 109.137C62.1003 106.877 62.4394 103.378 62.4394 103.378C62.4394 103.378 64.7546 83.2837 64.7546 78.7643C64.7546 74.2491 63.9968 49.8734 65.8264 45.1196C66.961 42.1862 81.8697 40.7174 96.5523 42.0732Z" fill="#29ABE2"/>
<path d="M69.7832 76.5088C69.7832 76.5088 68.9919 83.7357 68.9919 88.9289C68.9919 94.1221 66.279 99.4282 67.2963 103.153C68.3137 106.877 68.9919 114.33 68.9919 114.33" stroke="#1689CB" stroke-miterlimit="10"/>
<path d="M86.7261 41.5962C85.3696 41.5962 86.2196 48.7352 87.9696 51.4468C89.7196 54.1585 97.4565 58.4477 103.556 58.6737C110.1 58.9164 113.399 56.8199 111.239 50.7689C110.109 47.6095 109.43 44.22 107.174 43.768C104.913 43.3161 103.305 43.0357 98.0511 42.5252C92.7968 42.0147 88.0826 41.5962 86.7261 41.5962Z" fill="#7A462F"/>
<path d="M94.1445 49.1578C89.0368 47.8438 89.3257 47.7769 89.803 45.1364L91.3562 32.7037C91.733 30.603 94.0943 29.3183 97.2761 30.1343L104.038 31.6366C107.127 32.4275 108.346 34.5826 108.291 36.6917C108.291 36.6917 107.395 45.5967 106.604 48.3711C105.804 51.179 99.2564 50.4718 94.1445 49.1578Z" fill="#A96443"/>
<path d="M94.4382 49.5723C105.818 43.7682 108.35 34.5829 108.296 36.6878C108.296 36.6878 107.693 46.007 106.902 48.7814C106.094 51.5934 99.5501 50.8904 94.4382 49.5723Z" fill="#7A462F"/>
<path d="M121.179 70.9764L119.96 77.7641C119.96 77.7641 100.166 79.9527 74.9203 76.7346L76.4443 69.1143C76.4484 69.1143 94.4511 72.3323 121.179 70.9764Z" fill="#3E4C6F"/>
<path d="M74.7526 79.9526C74.7526 79.9526 97.3899 82.6643 119.433 81.3085L118.302 87.46C118.302 87.46 110.846 88.8158 99.8265 88.5898C88.8072 88.3639 73.2245 86.0497 73.2245 86.0497L74.7526 79.9526Z" fill="#3E4C6F"/>
<path d="M89.1499 16.2833C86.3825 36.6332 90.2677 35.1812 98.5489 36.763C105.478 38.0895 112.562 30.7622 114.32 20.6604C116.078 10.5587 111.871 1.39009 104.921 0.180731C97.9711 -1.02863 90.8496 3.77535 89.1499 16.2833Z" fill="#273252"/>
<path d="M93.5421 14.2039C95.2042 4.91396 97.1049 -0.233158 107.253 0.78371C112.55 1.31516 117.615 2.71284 120.37 4.85956C122.861 6.80123 124.126 9.36223 124.038 15.6308C123.971 20.3553 123.619 28.4819 120.801 35.9138C118.993 40.6759 112.512 41.4542 107.011 40.8768C93.0899 39.4205 91.2185 37.6086 91.6958 27.6198C92.1437 18.2295 92.8597 18.0161 93.5421 14.2039Z" fill="#7A462F"/>
<path d="M95.7065 4.45739C98.9386 -1.02029 107.128 5.80904 103.33 7.18579C97.737 9.21952 99.0893 21.9366 99.9978 29.6531C100.998 38.1437 105.834 40.236 105.834 40.236C105.834 40.236 103.18 40.3072 100.056 39.4744C94.9738 38.1186 91.3607 38.2316 92.0306 25.8032C92.3488 19.8401 93.7178 7.82184 95.7065 4.45739Z" fill="#A96443"/>
<path d="M122.556 5.01865C123.305 5.67146 124.029 11.0696 124.059 14.4132C124.063 15.1162 123.485 9.99419 122.535 8.76809C122.535 8.76809 119.533 9.4753 116.116 8.98988C109.774 8.09018 104.126 6.4205 104.126 6.4205C104.126 6.4205 101.539 13.5972 99.4159 15.8401C97.2388 18.1417 94.7059 19.2632 94.7059 19.2632L92.2107 13.9068C93.1485 6.89337 96.0666 1.08507 100.911 0.340206C109.778 -1.0198 119.801 2.61666 122.556 5.01865Z" fill="#273252"/>
<path d="M106.68 20.8106C106.6 22.2167 107.245 22.4175 107.957 22.4552C108.669 22.497 109.192 22.3631 109.288 20.9571C109.384 19.5384 108.874 18.3416 108.145 18.2997C107.417 18.2621 106.759 19.392 106.68 20.8106Z" fill="#1D2538"/>
<path d="M110.561 13.7179C110.561 13.7179 107.689 13.1736 106.328 14.4296" stroke="#1D2538" stroke-miterlimit="10" stroke-linecap="round" stroke-linejoin="round"/>
<path d="M117.029 22.0706C116.899 23.3846 117.469 23.5143 118.139 23.552C118.809 23.5896 119.336 23.5227 119.478 22.2087C119.625 20.8821 119.19 19.7605 118.507 19.7229C117.825 19.681 117.163 20.7398 117.029 22.0706Z" fill="#1D2538"/>
<path d="M117.745 15.1238C117.745 15.1238 119.905 14.5209 121.697 16.4091" stroke="#1D2538" stroke-miterlimit="10" stroke-linecap="round" stroke-linejoin="round"/>
<path d="M88.1163 20.3885C88.828 23.7906 91.3484 26.2303 93.7683 25.9374C93.7683 25.9374 94.1953 18.2669 94.3251 16.8064C94.4088 15.89 94.0027 13.0402 91.4237 13.3541C88.8531 13.6679 87.3836 16.8692 88.1163 20.3885Z" fill="#A96443"/>
<path d="M89.4644 23.9492C89.5565 24.8656 90.398 25.577 91.3358 25.5435C92.2736 25.5101 92.9728 24.7401 92.8932 23.8237C92.8137 22.8989 91.9764 22.1708 91.0218 22.2042C90.0672 22.2377 89.3681 23.0244 89.4644 23.9492Z" fill="#F3E7D9"/>
<path d="M100.86 127.992C100.86 127.992 100.324 134.579 106.026 134.993C106.026 134.993 101.036 129.365 100.86 127.992Z" fill="#CE9436"/>
<path d="M123.091 208.919C130.548 211.585 141.45 214.267 141.898 217.527C142.346 220.766 142.63 224.189 142.308 225.394C142.061 226.306 141.647 226.846 140.906 227.131C139.022 227.855 135.249 229.608 127.718 230.152C124.469 230.387 117.423 228.541 113.207 225.352C109.866 222.829 105.867 219.9 104.373 218.803C103.983 218.519 103.732 218.096 103.678 217.623L103.242 213.991C103.154 213.25 103.565 212.526 104.264 212.204C107.546 210.685 117.037 206.751 123.091 208.919Z" fill="#29ABE2"/>
<path d="M122.76 205.781C129.262 208.003 141.596 212.991 142.019 216.221C142.4 219.138 142.563 220.745 142.442 221.858C142.383 222.402 140.847 222.632 140.093 222.892C138.176 223.549 134.341 225.139 126.696 225.662C123.401 225.888 116.987 224.934 112.717 222.092C109.171 219.737 104.896 216.983 103.569 216.129C103.305 215.958 103.129 215.703 103.083 215.414L102.652 212.598C102.468 211.388 102.836 206.183 104.18 205.785C109.07 204.337 117 203.81 122.76 205.781Z" fill="#121721"/>
<path d="M121.827 214.213C121.827 214.213 128.082 208.974 134.965 211.154" stroke="#29ABE2" stroke-width="2" stroke-miterlimit="10" stroke-linecap="round" stroke-linejoin="round"/>
<path d="M117.653 211.577C117.653 211.577 124.151 206.861 131.013 209.033" stroke="#29ABE2" stroke-width="2" stroke-miterlimit="10" stroke-linecap="round" stroke-linejoin="round"/>
<path d="M111.72 208.669C111.72 208.669 114.174 209.129 119.633 208.962C125.097 208.798 125.49 207.02 126.926 206.25C128.362 205.48 131.435 208.945 130.242 199.986C129.049 191.026 130.514 187.536 130.95 185.31C131.385 183.084 131.867 185.716 131.854 178.681C131.841 171.647 131.41 166.073 131.833 156.812C132.256 147.552 133.692 117.974 132.708 114.028C131.72 110.078 104.666 111.438 102.656 118.28C100.647 125.122 102.979 133.219 103.808 136.471C104.636 139.722 103.393 149.213 104.239 155.649C104.712 159.231 104.729 169.898 103.824 181.837C102.92 193.775 102.066 198.002 101.266 199.287C100.467 200.571 101.409 204.969 101.915 206.832C102.413 208.698 111.72 208.669 111.72 208.669Z" fill="#F7BC4B"/>
<path d="M61.4261 116.024C62.1044 113.312 62.5691 115.174 82.7739 112.413C98.411 110.274 119.6 102.93 122.761 111.735C125.922 120.539 82.7739 122.121 72.8348 122.347C62.8914 122.573 60.7479 118.736 61.4261 116.024Z" fill="#F7BC4B"/>
<path d="M118.017 128.67C118.017 128.67 126.378 124.607 125.7 118.51C125.013 112.321 110.377 110.044 103.222 108.914C116.439 104.512 131.72 110.086 132.708 114.036C133.696 117.987 132.256 147.564 131.833 156.82C131.41 166.081 131.842 171.655 131.854 178.689C131.871 185.724 131.389 183.091 130.95 185.318C130.51 187.544 129.049 191.034 130.242 199.993C131.435 208.953 128.362 205.488 126.926 206.258C125.49 207.028 125.097 208.806 119.633 208.969C114.17 209.133 111.72 208.676 111.72 208.676C111.72 208.676 102.414 208.702 101.911 206.839C101.409 204.977 100.463 200.579 101.262 199.294C101.693 198.6 109.158 190.95 116.083 183.673L115.455 185.56L115.032 192.884C115.032 192.884 117.975 186.657 119.022 184.359C119.763 182.732 121.187 179.3 121.961 177.43C125.248 173.881 127.672 171.123 127.944 170.399C128.388 169.228 130.426 125.247 126.156 127.766C121.178 130.704 118.017 128.67 118.017 128.67Z" fill="#CE9436"/>
<path d="M67.9743 44.2203C70.0299 44.3082 74.1203 43.2035 76.2806 50.9953C78.4409 58.7871 73.195 77.4129 69.1842 76.0613C65.1734 74.7096 65.7888 64.5451 64.8636 58.7871C63.9383 53.0248 65.3032 44.1073 67.9743 44.2203Z" fill="#7A462F"/>
<path d="M67.9749 44.2159C70.3654 43.8853 71.2488 45.9149 72.7183 48.8483C75.0252 53.464 73.1956 64.185 69.1848 63.369C65.174 62.553 65.287 53.6648 64.3618 50.1999C63.4365 46.7351 64.7009 44.672 67.9749 44.2159Z" fill="#A96443"/>
<path d="M53.744 66.5748C53.744 66.5748 55.7787 61.6076 58.8266 55.5105C61.8745 49.4135 63.7961 43.7684 67.8614 45.1242C71.9266 46.48 73.6766 53.029 74.0157 58.1092C74.3549 63.1894 71.981 68.1566 68.1419 73.1237C65.0605 77.1075 61.5353 89.6071 57.2398 95.0263C51.8767 101.797 47.3007 105.865 42.5572 102.14C37.8137 98.4158 40.8616 88.9292 44.5919 82.4932C48.3222 76.0572 53.744 66.5748 53.744 66.5748Z" fill="#A96443"/>
<path d="M70.348 63.6367C74.6225 58.5105 72.8893 50.9907 72.8893 50.9907C72.8893 50.9907 74.0741 53.0245 74.4132 58.1046C74.7523 63.1848 72.3785 68.1519 68.5393 73.1191C65.4579 77.1029 61.535 89.6024 57.2437 95.0215C57.2437 95.0215 45.609 92.9041 49.1677 91.8872C52.5547 90.9205 54.5015 91.9081 55.4351 90.364C57.2563 87.3636 63.3981 74.5293 63.3981 74.5293C63.3981 74.5293 66.9609 67.7042 70.348 63.6367Z" fill="#7A462F"/>
<path d="M45.27 92.3145C45.27 92.3145 48.1923 91.2139 55.6487 93.5866C63.1051 95.9593 59.5046 98.0725 73.1447 104.847C80.1323 108.317 75.3176 114.556 65.8306 112.865C56.3437 111.17 48.6612 108.915 43.9177 103.835C39.1742 98.7504 38.8351 95.704 45.27 92.3145Z" fill="#A96443"/>
<path d="M58.4878 98.7504C56.4866 96.9385 53.1917 94.1515 52.2748 92.9924C51.5631 92.0927 52.4004 92.4065 55.6618 93.4443C63.1183 95.817 59.501 98.0725 73.1411 104.847C80.1328 108.316 62.0465 101.968 58.4878 98.7504Z" fill="#7A462F"/>
<path d="M71.7045 106.543C72.793 105.798 79.1609 103.157 82.8871 102.818C86.6132 102.479 90.6826 103.496 90.6826 103.496L98.139 106.543C98.139 106.543 100.68 109.254 101.359 110.267C102.037 111.284 100.764 112.213 100.764 112.213C100.764 112.213 98.1391 113.82 97.6283 113.313C97.1217 112.807 97.1217 112.807 97.1217 112.807C97.1217 112.807 95.7652 114.33 94.7479 114.502C93.7305 114.669 92.5457 114.502 92.5457 114.502C92.5457 114.502 89.8327 115.686 87.9697 115.686C86.1066 115.686 84.411 112.807 82.5479 112.468C80.6849 112.129 79.073 114.924 75.5144 114.753C71.9557 114.585 68.4849 108.744 71.7045 106.543Z" fill="#A96443"/>
<path d="M74.0699 105.4C76.5568 104.358 80.3374 103.048 82.8871 102.818C86.6132 102.479 90.6826 103.496 90.6826 103.496L98.139 106.543C98.139 106.543 100.68 109.254 101.359 110.267C102.037 111.284 100.764 112.213 100.764 112.213C100.764 112.213 98.1391 113.82 97.6283 113.313C97.1217 112.807 97.1217 112.807 97.1217 112.807C97.1217 112.807 95.7652 114.33 94.7479 114.502C93.7305 114.669 92.5457 114.502 92.5457 114.502L91.813 112.188L81.0826 105.639C81.0784 105.639 72.9186 105.881 74.0699 105.4Z" fill="#7A462F"/>
<path d="M218.427 176.325C218.427 176.325 215.722 183.77 214.035 185.49L212.285 181.598C212.289 181.598 214.692 177.74 218.427 176.325Z" fill="#992C29"/>
<path d="M217.3 179.51C217.3 179.51 218.439 185.728 217.836 187.925L214.666 186.891C214.671 186.891 214.905 182.958 217.3 179.51Z" fill="#992C29"/>
<path d="M296.097 208.409C296.097 208.409 298.375 225.11 297.605 229.073C296.838 233.036 298.203 238.074 299.811 240.698C300.694 242.314 297.558 248.31 297.558 248.31C297.558 248.31 292.702 249.725 288.034 248.088C283.952 246.657 284.944 244.251 287.527 243.071C290.131 241.878 284.077 231.157 284.077 231.157C284.077 231.157 279.527 212.866 279.229 210.104C278.932 207.346 293.602 199.345 296.097 208.409Z" fill="#1D2538"/>
<path d="M222.584 180.414C226.674 181.284 247.561 180.217 249.303 172.107C250.588 166.115 253.025 159.457 253.565 154.377C253.565 154.377 255.788 150.778 257.748 146.401C259.715 142.003 258.853 141.271 256.295 142.476C253.758 143.668 248.964 148.192 248.964 148.192C248.964 148.192 242.877 143.815 234.436 143.066C226.251 142.342 228.156 145.146 225.083 148.941L222.869 152.393C222.869 152.393 216.923 149.154 212.984 148.698C209.103 148.251 207.767 149.849 206.118 154.151C204.414 158.591 204.334 159.043 205.28 161.65C206.231 164.269 209.614 169.182 213.348 172.827C213.336 172.818 218.552 179.556 222.584 180.414Z" fill="#1D2538"/>
<path d="M222.584 180.414C226.674 181.284 230.999 185.553 232.737 177.443C234.022 171.45 233.729 161.549 233.729 161.549C233.729 161.549 242.864 143.806 234.424 143.057C226.239 142.333 225.669 144.66 223.35 148.192L221.805 151.778C221.805 151.778 216.911 149.142 212.971 148.69C209.09 148.242 207.755 149.841 206.105 154.143C204.401 158.582 204.322 159.034 205.268 161.641C206.218 164.261 209.601 169.174 213.336 172.819C213.336 172.819 218.552 179.556 222.584 180.414Z" fill="#273252"/>
<path d="M207.788 150.217C206.293 152.171 209.224 154.377 210.731 152.418C212.247 150.447 216.433 149.715 213.992 148.811C212.305 148.192 209.287 148.255 207.788 150.217Z" fill="#121721"/>
<path d="M238.841 146.213C238.841 146.213 239.774 140.304 239.871 135.876C239.959 131.65 237.677 132.336 235.424 135.759C233.076 139.325 229.785 146.188 229.199 147.556C228.608 148.924 236.551 151.025 238.841 146.213Z" fill="#273252"/>
<path d="M237.091 136.693C237.92 132.462 237.103 133.73 234.851 137.149C232.506 140.706 232.661 141.417 232.071 142.79C231.485 144.158 236.354 140.459 237.091 136.693Z" fill="#1D2538"/>
<path d="M229.743 231.635C230.329 230.019 233.293 229.973 233.415 229.567C235.483 222.696 236.04 215.712 236.325 214.084C236.911 210.74 235.064 204.233 236.274 197.027C237.442 190.081 249.115 196.789 247.926 205.058C247.239 209.832 243.911 225.922 242.965 230.291C242.831 230.906 242.567 231.488 242.186 232.003L238.594 235.468C237.761 236.79 236.099 236.3 233.059 235.384C230.057 234.48 228.948 233.827 229.743 231.635Z" fill="#273252"/>
<path d="M208.123 240.116C208.521 235.882 213.733 235.978 213.733 235.978C214.039 235.421 215.06 234.367 215.165 233.802C215.969 229.517 215.726 219.612 215.919 217.708C216.321 213.745 215.931 201.747 216.672 192.608C217.417 183.427 228.596 191.261 228.65 200.367C228.688 206.849 223.17 232.605 222.655 235.082C222.655 235.082 216.722 243.535 213.838 243.242C210.987 242.954 207.876 242.728 208.123 240.116Z" fill="#273252"/>
<path d="M249.299 175.1C251.011 178.954 249.726 180.665 254.44 182.377C265.162 186.273 273.992 187.022 286.133 190.512C294.054 192.788 298.978 209.778 295.557 214.486C292.133 219.194 278.425 218.34 269.86 223.905C260.875 229.743 251.015 222.621 245.447 220.051C239.879 217.482 225.556 207.372 222.031 203.752C220.758 202.447 220.243 198.848 219.419 195.069C218.226 189.596 216.036 183.302 219.557 178.305C221.939 174.916 247.587 171.25 249.299 175.1Z" fill="#1D2538"/>
<path d="M228.219 181.217L233.456 191.118C233.456 191.118 239.414 200.241 238.89 200.22L232.862 210.602C232.862 210.602 225.552 207.367 222.031 203.748C220.758 202.442 218.003 199.429 217.178 195.646C215.985 190.173 216.751 185.8 218.037 178.096L228.219 181.217Z" fill="#273252"/>
<path d="M249.299 173.388C249.299 173.388 250.161 174.505 250.011 176.795C250.011 176.795 242.768 179.264 228.977 181.214C221.977 182.205 216.639 181.147 216.639 181.147L217.187 176.962C217.187 176.966 233.452 179.812 249.299 173.388Z" fill="#992C29"/>
<path d="M283.99 196.077C285.22 194.382 286.987 195.65 291.697 187.515C296.407 179.38 298.078 166.006 292.128 161.55C292.128 161.55 298.722 159.859 303.692 172.534C308.775 185.494 294.653 199.965 293.359 201.086C287.64 206.07 280.489 200.902 283.99 196.077Z" fill="#273252"/>
<path d="M283.311 196.534C284.55 194.826 288.277 201.643 295.256 189.223C298.927 182.691 301.339 166.316 292.107 161.546C292.107 161.546 302.327 160.048 304.977 173.522C308.406 190.939 294.653 200.287 293.351 201.421C287.582 206.456 279.778 201.401 283.311 196.534Z" fill="#1D2538"/>
<path d="M278.196 212.506C278.196 212.506 272.594 234.078 270.17 237.325C267.758 240.556 265.899 245.439 266.431 248.268C266.963 251.11 261.629 254.491 261.629 254.491C261.629 254.491 254.733 253.704 253.595 253.29C252.46 252.875 250.275 248.327 253.327 248.151C256.412 247.975 258.229 234.768 258.229 234.768C258.229 234.768 259.456 211.188 260.302 208.602C261.147 206.02 279.519 203.476 278.196 212.506Z" fill="#1D2538"/>
<path d="M223.933 152.408C223.484 152.236 223.522 151.047 224.018 149.752C224.514 148.457 225.281 147.547 225.73 147.719C226.179 147.891 226.141 149.08 225.644 150.375C225.148 151.67 224.382 152.58 223.933 152.408Z" fill="#121721"/>
<path d="M209.848 167.17C209.848 167.17 215.897 167.17 215.868 171.978C215.864 172.346 215.671 172.694 215.361 172.895L211.091 175.64C211.091 175.64 202.508 185.122 201.152 186.139C199.795 187.156 194.487 189.976 190.987 184.783C187.851 180.134 189.802 172.083 193.361 171.233L209.848 167.17Z" fill="#F5894E"/>
<path d="M201.717 182.523C202.91 179.577 200.909 173.853 195.902 173.267C190.141 172.589 189.748 181.398 191.962 184.461C194.684 188.231 199.796 187.269 201.717 182.523Z" fill="#FFFCF3"/>
<path d="M201.491 179.703L198.724 181.904C198.724 181.904 199.109 181.477 198.95 179.364C198.845 177.975 197.698 176.464 195.052 175.301L197.677 174.539C197.677 174.539 200.897 174.962 201.491 179.703Z" fill="#F5894E"/>
<path d="M202.169 184.444C202.169 184.444 193.247 188.056 192.795 179.477C192.715 177.996 194.83 175.301 197.936 176.092C201.411 176.975 198.217 174.736 197.43 174.736C196.643 174.736 190.425 175.539 191.949 181.226C193.419 186.704 197.945 186.612 200.31 185.741C201.365 185.352 202.169 184.444 202.169 184.444Z" fill="#F5894E"/>
<path d="M208.097 167.508C208.097 167.508 213.942 166.621 213.393 174.283" stroke="#F7BC4B" stroke-miterlimit="10" stroke-linecap="round" stroke-linejoin="round"/>
<path d="M208.269 168.015C208.269 168.015 204.543 163.274 207.423 164.63C210.304 165.985 208.269 168.015 208.269 168.015Z" stroke="#F7BC4B" stroke-miterlimit="10"/>
<path d="M208.098 167.51C208.098 167.51 204.372 164.631 202.843 167.003C201.315 169.376 205.724 169.376 206.57 169.205C207.419 169.033 208.098 167.51 208.098 167.51Z" stroke="#F7BC4B" stroke-miterlimit="10"/>
<path d="M208.098 167.509C208.098 167.509 209.58 167.383 211.359 169.245C212.54 170.48 213.603 173.861 212.883 174.497" stroke="#F7BC4B" stroke-miterlimit="10" stroke-linecap="round" stroke-linejoin="round"/>
</svg>
