<svg width="351" height="200" viewBox="0 0 351 200" fill="none" xmlns="http://www.w3.org/2000/svg">
<path d="M249.724 186.834C251.601 186.738 274.134 186.067 280.818 188.077C280.818 188.077 305.673 186.817 305.491 192.465C305.491 192.465 332.342 193.452 337.126 195.091C341.911 196.727 311.945 199.186 306.739 198.512C301.533 197.836 284.413 194.005 261.806 193.27C247.397 192.803 211.485 191.776 194.133 193.882C184.263 195.081 239.93 199.078 229.216 199.621C199.67 201.118 117.689 197.757 139.469 191.483C161.247 185.213 249.724 186.834 249.724 186.834Z" fill="#866694"/>
<path d="M197.185 183.191C235.065 184.785 293.439 184.987 305.921 180.934C305.921 180.934 278.929 178.957 278.217 174.834C277.284 169.441 275.208 160.916 252.859 148.549C252.859 148.549 272.111 114.053 243.937 96.4517C215.762 78.8502 225.155 99.267 225.155 99.267C225.155 99.267 186.802 48.1442 138.752 36.8425C122.787 33.0879 126.543 46.6999 126.543 46.6999C126.543 46.6999 112.455 35.4361 96.4897 38.7211C81.6611 41.7712 57.5186 61.8269 66.1909 95.5023C88.1357 104.794 95.0826 112.551 95.0826 112.551C95.5499 101.613 107.994 95.9795 126.425 101.024C149.413 107.317 147.202 128.834 147.202 128.834C171.956 124.623 177.256 154.649 177.256 154.649C177.256 154.649 176.794 144.661 192.592 157.821C208.391 170.981 197.448 182.81 197.448 182.81L197.185 183.191Z" fill="#F4E8D8"/>
<path d="M223.863 183.749C223.863 183.749 204.066 169.624 189.467 157.464C174.868 145.304 178.817 162.9 178.817 162.9C178.817 162.9 169.086 126.422 146.214 130.313C146.214 130.313 145.727 107.94 128.21 103.077C110.694 98.2137 96.022 102.592 96.022 114.752C96.022 114.752 88.0393 105.834 61.742 95.9791C42.9954 88.9521 28.4573 89.947 17.754 99.6731L22.1344 103.077C22.1344 103.077 5.59055 105.508 0.725159 118.641C-4.14023 131.773 16.7814 138.095 24.567 140.04C32.3527 141.984 98.5279 160.466 98.5279 160.466C98.5279 160.466 83.7448 159.489 82.2872 161.921C80.8271 164.352 99.5434 178.818 122.372 179.921C140.672 180.81 223.863 183.749 223.863 183.749Z" fill="#F4E8D8"/>
<path d="M89.682 192.905C89.682 192.905 92.2157 189.064 118.033 190.003C125.063 190.258 143.504 190.087 145.844 192.905C148.183 195.722 170.805 197.795 163.004 197.795C155.203 197.795 92.0237 196.662 89.682 192.905Z" fill="#866694"/>
<path d="M51.883 169.67C51.883 169.67 54.6996 164.037 52.8227 159.346C50.9432 154.652 43.4304 155.121 38.7343 155.591C34.0382 156.061 34.743 160.166 34.743 160.166C34.743 160.166 29.3041 156.237 24.6459 156.997C18.189 158.053 19.01 164.976 19.01 169.2C19.01 173.425 25.1132 181.638 31.9238 174.364C31.9238 174.364 42.0208 184.222 50.4708 177.179C50.4708 177.179 68.3156 180.464 74.8887 179.525L51.883 169.67Z" fill="#F4E8D8"/>
<path d="M114.945 18.5894C114.945 18.5894 80.1975 12.4891 75.5013 12.4891C70.8052 12.4891 59.536 4.51026 73.6219 0.75567C87.7077 -2.99892 100.856 8.26486 103.676 12.0194C106.495 15.774 105.555 12.4891 105.555 12.4891C105.555 12.4891 103.208 5.44954 107.435 5.44954C111.661 5.44954 126.684 11.5473 114.945 18.5894Z" fill="#F4E8D8"/>
<path d="M341.022 123.908C341.022 123.908 350.186 128.97 348.966 128.993C344.583 129.071 339.771 131.104 338.01 131.808C336.25 132.513 324.119 122.029 331.281 118.979C333.86 119.802 341.022 123.908 341.022 123.908Z" fill="#229BC6"/>
<path opacity="0.5" d="M341.022 123.908C341.022 123.908 350.186 128.97 348.966 128.993C344.583 129.071 339.771 131.104 338.01 131.808C336.25 132.513 324.119 122.029 331.281 118.979C333.86 119.802 341.022 123.908 341.022 123.908Z" fill="#229BC6"/>
<path d="M335.191 126.958C335.191 126.958 337.381 125.079 342.861 125.236C347.143 125.357 351 126.019 351 126.019C351 126.019 342.547 119.683 336.209 119.33C329.871 118.979 321.77 118.625 321.77 118.625L335.191 126.958Z" fill="#F6BE4A"/>
<path d="M351 126.022C349.424 125.113 347.784 124.318 346.112 123.6C344.44 122.883 342.732 122.242 340.991 121.697C339.246 121.171 337.475 120.712 335.671 120.424C333.868 120.144 332.034 120.017 330.22 120.156C332.039 120.214 333.83 120.472 335.601 120.813L336.922 121.106C337.364 121.197 337.796 121.328 338.235 121.439L338.892 121.606L339.541 121.795C339.973 121.924 340.41 122.043 340.84 122.181L342.131 122.593C342.56 122.732 342.984 122.891 343.414 123.035C343.843 123.176 344.268 123.335 344.692 123.492C345.117 123.646 345.541 123.802 345.963 123.967C346.387 124.126 346.809 124.29 347.228 124.459C347.65 124.623 348.072 124.792 348.489 124.967C349.335 125.295 350.166 125.658 351 126.022Z" fill="#F4E8D8"/>
<path opacity="0.5" d="M335.191 126.958C335.191 126.958 337.381 125.079 342.861 125.236C347.143 125.357 351 126.019 351 126.019C351 126.019 342.547 119.683 336.209 119.33C329.871 118.979 321.77 118.625 321.77 118.625L335.191 126.958Z" fill="#F6874E"/>
<path d="M296.26 94.4971C296.26 94.4971 293.118 89.2276 291.345 84.9503C289.647 80.8599 292.628 81.8219 296.111 83.9656C299.764 86.2128 304.071 90.9294 305.183 91.9747C306.292 93.02 300.3 98.0093 296.26 94.4971Z" fill="#1D2538"/>
<path d="M297.824 93.0581C297.824 93.0581 294.702 87.9324 292.549 84.6322C290.132 80.9205 292.34 81.4028 295.826 83.5465C299.479 85.7937 303.766 88.3818 304.875 89.4272C305.984 90.47 300.31 95.8583 297.824 93.0581Z" fill="#273150"/>
<path d="M279.624 114.912C281.504 112.253 284.391 102.534 286.041 97.7017L290.423 91.4752C290.423 91.4752 300.101 85.3876 309.18 87.4883C318.259 89.5891 321.869 94.8182 323.45 99.5525L323.769 99.8605C323.769 99.8605 331.87 101.322 336.531 102.312C341.189 103.305 342.909 105.289 341.795 110.304C340.681 115.318 340.164 116.54 337.814 118.737C335.465 120.931 324.9 127.774 319.022 129.763C319.022 129.763 316.564 134.78 313.588 136.813C310.607 138.856 274.86 121.661 279.624 114.912Z" fill="#273150"/>
<path d="M291.663 130.267C291.663 130.267 275.415 120.944 279.313 113.662C282.913 106.936 284.393 102.535 286.043 97.7047C285.871 98.2577 284.224 92.2786 282.913 86.2843C282.261 83.3049 283.617 82.7645 285.987 83.8427C288.453 84.9638 294.965 88.476 294.965 88.476C294.965 88.476 300.103 85.3905 309.18 87.4913C309.18 87.4913 299.32 93.9678 296.193 98.293C293.065 102.618 294.225 119.553 294.225 119.553C294.225 119.553 302.667 125.638 302.19 126.669C300.669 129.943 291.663 130.267 291.663 130.267Z" fill="#1D2538"/>
<path d="M315.538 97.6003C316.531 99.3425 316.395 101.292 315.233 101.953C314.071 102.615 313.02 101.322 312.025 99.5799C311.029 97.8377 310.473 96.305 311.636 95.6435C312.798 94.982 314.546 95.8581 315.538 97.6003Z" fill="#121721"/>
<path d="M341.921 105.683C342.505 108.253 342.219 110.776 340.81 111.872C338.016 114.043 333.459 109.849 332.67 107.334C331.882 104.819 331.261 100.764 336.114 102.171C340.176 103.35 341.514 103.893 341.921 105.683Z" fill="#121721"/>
<path d="M308.694 128.986C308.694 128.986 316.525 131.067 319.024 129.764C323.551 128.287 330.422 123.333 330.422 123.333L318.044 126.782L308.694 128.986Z" fill="#1D2538"/>
<path d="M333.448 121.971C333.448 121.971 324.761 118.686 321.767 118.628L333.448 121.971Z" fill="#273150"/>
<path d="M201.411 142.196C199.888 142.107 191.829 142.675 188.666 141.66C185.504 140.648 178.145 137.946 177.089 132.823C177.089 132.823 174.136 136.636 180.825 144.68C187.514 152.725 201.186 150.745 202.343 150.568C207.501 149.778 205.758 142.451 201.411 142.196Z" fill="#1D2538"/>
<path d="M308.386 148.549C308.386 148.549 323.53 156.646 326.698 157.702C329.868 158.757 331.629 165.446 331.276 168.261C330.924 171.077 325.993 177.765 325.993 177.765L305.567 160.517C305.569 160.517 298.173 148.198 308.386 148.549Z" fill="#1D2537"/>
<path d="M226.604 157.416C229.259 155.846 252.581 157.017 252.151 161.948C251.937 164.398 227.963 177.964 227.963 177.964L218.892 185.822C218.892 185.822 220.486 188.703 219.483 190.513C219.248 190.94 215.411 191.036 213.302 190.796C211.756 190.622 209.669 185.067 209.669 185.067C209.586 183.905 209.934 181.789 210.917 181.161L216.623 176.303C217.361 175.833 217.909 175.121 218.177 174.285C219.47 170.253 223.586 159.204 226.604 157.416Z" fill="#1D2538"/>
<path d="M299.348 132.121C299.348 132.121 286.788 124.377 276.009 118.474C266.283 124.256 252.824 124.465 241.405 125.965C234.231 126.907 210.536 132.583 203.44 139.395C198.68 143.966 196.407 155.161 202.03 158.403C211.187 163.683 254.958 161.176 271.762 163.097C283.756 164.468 299.84 160.615 304.514 157.699C307.04 156.123 312.923 146.117 311.456 138.408C310.488 133.33 303.67 134.674 299.348 132.121Z" fill="#273150"/>
<path d="M296.685 126.489C296.685 126.489 286.884 112.008 276.006 118.475C266.281 124.257 252.821 124.466 241.403 125.966C234.229 126.908 210.533 132.584 203.437 139.396C198.678 143.967 196.756 157.273 202.381 160.517C211.539 165.797 230.791 165.406 235.838 160.167C237.354 158.593 255.208 145.734 265.068 141.04C273.22 137.162 267.427 130.764 269.764 129.307C273.955 126.691 307.571 132.917 296.685 126.489Z" fill="#1D2538"/>
<path d="M253.948 137.661C253.948 137.661 259.256 157.643 274.066 163.421C274.066 163.421 271.535 164.61 264.341 163.832C259.394 163.299 245.354 148.849 245.953 138.86C246.885 135.82 253.948 137.661 253.948 137.661Z" fill="#634874"/>
<path d="M279 114.285C279 114.285 276.81 114.598 275.244 118.352C275.244 118.352 281.738 126.018 294.652 132.356C304.15 137.017 314.139 137.989 316.097 135.563C318.054 133.136 319.024 129.763 319.024 129.763C319.024 129.763 308.341 133.331 298.527 128.952C289.759 125.041 284.098 120.052 279 114.285Z" fill="#992C29"/>
<path d="M317.923 133.449C317.923 133.449 307.477 136.78 304.095 136.199L306.737 130.402C306.737 130.402 313.075 129.962 317.923 133.449Z" fill="#C93F37"/>
<path d="M317.865 133.392C317.865 133.392 315.857 141.827 312.896 144.476L303.317 140.681C303.32 140.681 313.503 134.273 317.865 133.392Z" fill="#C93F37"/>
<path d="M317.865 133.392C313.793 133.783 303.32 140.681 303.32 140.681C303.32 140.681 309.86 140.772 311.259 139.893C312.659 139.017 317.865 133.392 317.865 133.392Z" fill="#992C29"/>
<path d="M274.834 137.86C279.199 139.83 301.341 140.615 305.531 154.126C305.653 154.52 305.913 154.853 306.272 155.058C307.333 155.664 308.656 154.909 308.671 153.687C308.727 148.955 303.306 140.85 294.323 136.361C283.529 130.967 275.735 132.765 275.735 132.765C275.735 132.765 274.038 137.502 274.834 137.86Z" fill="#634874"/>
<path d="M206.64 150.682C209.053 148.632 216.843 146.364 224.914 150.321C232.986 154.278 232.056 159.865 232.109 161.12C232.235 164.064 222.335 169.198 220.88 170.127C218.475 171.662 205.061 176.881 201.073 179.861C198.718 181.621 193.474 187.299 194.558 188.112C195.515 188.832 196.71 192.114 195.553 192.632C193.158 193.705 180.717 193.144 182.073 188.774C183.354 184.648 183.564 179.474 184.564 177.26C184.85 176.629 195.5 169.018 195.99 168.208C196.47 167.415 205.195 151.912 206.64 150.682Z" fill="#1D2538"/>
<path d="M286.55 154.533C286.55 154.533 291.832 164.741 295.354 166.852C298.875 168.963 312.964 169.667 317.541 172.132C322.119 174.596 324.233 180.229 324.938 181.285C325.643 182.34 335.856 183.749 338.672 178.116C341.489 172.483 331.63 172.132 329.164 169.667C326.698 167.203 324.587 164.739 322.472 162.979C320.36 161.219 313.669 158.404 313.669 158.404C313.669 158.404 303.544 146.354 299.317 145.65C295.091 144.948 284.085 149.253 286.55 154.533Z" fill="#273150"/>
<path d="M275.901 136.926C273.436 140.426 250.761 142.564 232.651 140.244C230.726 139.997 229.031 138.997 228.011 137.53C225.977 134.608 224.262 128.718 223.1 124.478C221.849 119.921 224.426 112.72 226.497 110.96C230.971 107.157 235.637 108.793 240.614 108.344C249.056 107.581 256.485 108.036 263.192 110.051C271.529 112.556 275.939 119.214 279.127 124.261C282.075 128.922 277.147 135.159 275.901 136.926Z" fill="#BB83C3"/>
<path opacity="0.5" d="M231.628 109.16C226.861 109.049 234.179 124.838 237.158 125.274C240.136 125.711 256.531 127.443 261.393 126.262C273.499 124.163 254.004 109.685 231.628 109.16Z" fill="#634874"/>
<path opacity="0.5" d="M229.362 137.062C228.569 139.673 223.335 126.983 222.966 123.478C222.67 120.683 224.095 115.282 224.565 114.287C225.636 112.025 227.563 122.279 229.162 126.074C230.761 129.869 229.695 135.967 229.362 137.062Z" fill="#634874"/>
<path d="M238.191 64.3562C238.191 64.3562 247.702 54.3322 251.213 45C251.213 45 264.162 48.8733 270 48.1057C270 48.1057 262.896 63.7755 256.978 67.4619L238.191 64.3562Z" fill="#229BC6"/>
<path d="M269.997 48.1079L261.646 51.7414C260.254 52.3449 258.854 52.9306 257.455 53.5038C256.05 54.0694 254.643 54.635 253.211 55.0946L252.971 55.1728L253.054 55.4102L254.105 58.4023L255.136 61.402C255.477 62.4019 255.805 63.4068 256.131 64.4118C256.447 65.4193 256.76 66.4293 256.972 67.467C256.851 66.4141 256.583 65.3814 256.328 64.3537C256.068 63.326 255.767 62.311 255.469 61.2934C255.161 60.2809 254.85 59.2684 254.519 58.2609C254.188 57.2534 253.862 56.2485 253.511 55.2486L253.355 55.5617C254.817 55.1021 256.235 54.5441 257.639 53.9608C259.046 53.3826 260.436 52.7665 261.817 52.1353C263.197 51.499 264.571 50.8526 265.935 50.1809C266.617 49.8502 267.294 49.5017 267.971 49.1583C268.653 48.8149 269.33 48.469 269.997 48.1079Z" fill="#F4E8D8"/>
<path d="M258.463 53.3805L257.508 51.4237L256.53 49.4794C256.202 48.8331 255.911 48.1665 255.533 47.5479C255.156 46.9292 254.76 46.3182 254.29 45.7476L254.244 45.7728C254.469 46.4747 254.77 47.1388 255.088 47.7903C255.404 48.4442 255.808 49.0477 256.177 49.6739L257.286 51.5449L258.417 53.4058L258.463 53.3805Z" fill="#F4E8D8"/>
<path d="M255.118 60.1396L252.016 61.1471L248.921 62.1772C247.891 62.5231 246.847 62.8286 245.837 63.2325C244.826 63.6315 243.821 64.0506 242.846 64.548L242.864 64.5959C243.932 64.3586 244.976 64.043 246.009 63.7072C247.044 63.3739 248.045 62.9447 249.06 62.5584L252.102 61.3844L255.136 60.1876L255.118 60.1396Z" fill="#F4E8D8"/>
<path d="M225.235 82.6348C225.235 82.6348 242.307 97.2416 259.022 103.299C259.022 103.299 257.883 110.735 243.512 115.085C243.512 115.085 215.628 103.211 209.724 94.4212L225.235 82.6348Z" fill="#229BC6"/>
<path d="M225.634 82.9023L226.68 86.7781C227.028 88.0709 227.387 89.3586 227.751 90.6463L228.837 94.512C229.193 95.8022 229.577 97.0849 229.946 98.3701L229.984 98.5039L230.123 98.5292L237.434 99.8699L244.754 101.155C247.192 101.594 249.64 101.981 252.083 102.395C253.303 102.602 254.528 102.799 255.751 102.991C256.973 103.185 258.199 103.382 259.424 103.566C258.211 103.311 256.996 103.069 255.781 102.827C254.566 102.582 253.351 102.339 252.133 102.11C249.698 101.647 247.27 101.16 244.833 100.721L237.522 99.3775L230.204 98.0873L230.381 98.2464C229.994 96.9662 229.623 95.681 229.226 94.4034L228.049 90.5655C227.657 89.2854 227.263 88.0078 226.857 86.7327L225.634 82.9023Z" fill="#F4E8D8"/>
<path d="M241.819 100.933C241.675 102.15 241.67 103.377 241.721 104.602C241.774 105.826 241.893 107.046 242.072 108.258C242.264 109.467 242.486 110.674 242.8 111.856C243.095 113.043 243.472 114.212 243.911 115.351C243.674 114.149 243.403 112.964 243.184 111.77L243.014 110.876L242.86 109.98C242.754 109.384 242.661 108.783 242.572 108.185L242.438 107.286L242.322 106.384C242.241 105.784 242.178 105.18 242.113 104.577C241.989 103.365 241.883 102.153 241.819 100.933Z" fill="#F4E8D8"/>
<path d="M228.297 92.6465C226.779 92.8283 225.265 93.0151 223.752 93.2196C222.239 93.414 220.731 93.6236 219.218 93.8053C217.707 93.9972 216.194 94.179 214.681 94.3355C213.165 94.482 211.652 94.6335 210.124 94.6915C211.647 94.8304 213.185 94.8102 214.711 94.7294C216.24 94.6537 217.763 94.4921 219.281 94.3078C220.797 94.1134 222.31 93.8836 223.813 93.6084C225.319 93.3357 226.814 93.0201 228.297 92.6465Z" fill="#F4E8D8"/>
<path d="M270.342 111.942C270.342 111.942 253.492 92.6434 249.349 82.5234C249.349 82.5234 234.854 89.3585 228.097 88.3434C228.097 88.3434 241.763 110.505 248.64 114.653L270.342 111.942Z" fill="#F6874E"/>
<path d="M270.342 111.942C270.342 111.942 253.492 92.6434 249.349 82.5234C249.349 82.5234 234.854 89.3585 228.097 88.3434C228.097 88.3434 241.763 110.505 248.64 114.653L270.342 111.942Z" fill="#F6BE4A"/>
<path d="M249.349 82.5234L246.315 99.163L270.342 111.942" stroke="#F4E8D8" stroke-width="2" stroke-miterlimit="10"/>
<path d="M255.92 104.622C255.92 104.622 249.478 109.071 248.64 114.653" stroke="#F4E8D8" stroke-width="2" stroke-miterlimit="10"/>
<path d="M247.578 93.6228C247.578 93.6228 237.504 91.4716 228.096 88.3457" stroke="#F4E8D8" stroke-width="2" stroke-miterlimit="10"/>
<path d="M278.259 124.422C278.259 124.422 274.26 122.066 264.019 118.064C263.079 117.698 260.083 115.113 256.845 115.385C245.022 116.38 242.865 121.895 240.046 121.183C238.512 120.503 237.242 112.499 236.224 110.217C234.791 107.003 236.108 101.362 238.611 101.188C238.611 101.188 252.914 101.152 256.943 102.697C260.973 104.243 262.673 107.167 263.438 107.891C264.337 108.745 268.142 107.258 270.832 109.29C277.281 114.158 274.844 112.032 277.807 116.724C281.765 122.991 283.738 126.318 282.374 128.864C280.992 131.439 279.196 134.865 276.195 136.994C273.197 139.122 284.334 128.894 278.259 124.422Z" fill="#634874"/>
<path d="M230.82 103.415C230.451 103.723 232.232 105.344 236.964 105.761C237.823 105.837 238.578 105.771 238.692 105.496C238.77 105.307 239.03 103.804 238.823 103.097C238.74 102.814 238.553 102.847 238.285 102.789C236.459 102.395 235.392 102.698 232.998 101.009L230.82 103.415Z" fill="#BB83C3"/>
<path d="M233.359 115.687C233.167 115.111 236.957 116.086 240.086 114.111C240.357 113.939 240.71 114.361 240.94 114.662L241.837 115.833C242.565 116.785 241.895 117.24 241.077 117.84C238.098 120.032 237.899 120.03 235.757 119.59C234.784 119.391 234.016 118.638 233.801 117.669L233.359 115.687Z" fill="#BB83C3"/>
<path d="M260.982 116.504C263.094 117.381 266.734 118.34 269.061 118.971C271.388 119.603 280.969 122.14 284.402 120.191C284.402 120.191 278.266 129.202 261.505 129.505C261.505 129.505 247.134 125.996 246.434 118.181C246.434 118.179 253.879 113.555 260.982 116.504Z" fill="#229BC6"/>
<path d="M261.503 129.503C261.549 128.468 261.566 127.43 261.581 126.395C261.594 125.357 261.586 124.322 261.574 123.284C261.551 122.246 261.531 121.211 261.465 120.171C261.448 119.911 261.43 119.651 261.402 119.386C261.389 119.252 261.374 119.123 261.344 118.974C261.314 118.835 261.276 118.704 261.23 118.573C261.046 118.052 260.796 117.583 260.472 117.133L260.417 117.055L260.318 117.037C259.497 116.894 258.679 116.765 257.855 116.659C257.032 116.545 256.208 116.452 255.38 116.378C254.554 116.303 253.723 116.252 252.889 116.245C252.472 116.245 252.055 116.252 251.641 116.28C251.227 116.308 250.807 116.361 250.411 116.485C251.229 116.348 252.058 116.406 252.879 116.469C253.7 116.54 254.521 116.639 255.337 116.747C256.971 116.972 258.606 117.237 260.227 117.527L260.073 117.431C260.351 117.825 260.591 118.28 260.75 118.737C260.788 118.853 260.824 118.969 260.849 119.083C260.872 119.189 260.889 119.315 260.902 119.441C260.93 119.691 260.952 119.949 260.97 120.204C261.038 121.231 261.094 122.264 261.142 123.297L261.304 126.397C261.369 127.435 261.427 128.47 261.503 129.503Z" fill="#F4E8D8"/>
<path d="M261.232 121.564C264.552 121.933 267.871 122.251 271.201 122.493C272.865 122.615 274.53 122.718 276.197 122.781C277.865 122.842 279.534 122.885 281.199 122.806C279.532 122.842 277.867 122.756 276.202 122.655C274.54 122.551 272.881 122.405 271.221 122.241C267.904 121.915 264.595 121.516 261.296 121.064L261.232 121.564Z" fill="#F4E8D8"/>
<path d="M257.531 115.664C257.385 115.701 257.243 115.749 257.099 115.792C256.958 115.838 256.816 115.888 256.68 115.944C256.541 115.997 256.382 116.012 256.273 116.116C256.162 116.217 256.061 116.336 256.003 116.53L256.028 116.573C256.225 116.621 256.379 116.596 256.523 116.555C256.67 116.515 256.763 116.386 256.882 116.295C256.998 116.204 257.114 116.111 257.228 116.012C257.339 115.911 257.453 115.815 257.562 115.707L257.531 115.664Z" fill="#F4E8D8"/>
<path d="M256.302 156.742C257.507 156.232 259.169 155.47 260.621 154.793C262.084 154.111 262.539 153.543 261.69 152.344L261.041 151.394C260.391 150.788 259.631 150.758 258.651 151.324L254.607 153.659C253.381 154.366 252.697 154.99 253.445 155.788L254.293 156.937C254.836 157.341 255.561 157.058 256.302 156.742Z" stroke="#866694" stroke-width="4" stroke-miterlimit="10"/>
<path d="M260.909 152.014C260.909 152.014 263.208 163.767 261.076 170.027L254.281 167.229C254.281 167.229 255.18 157.74 254.513 155.874L257.646 154.142L260.909 152.014Z" fill="#634874"/>
<path d="M261.74 152.046L254.078 156.503" stroke="#866694" stroke-width="4" stroke-miterlimit="10"/>
<path d="M338.008 131.809C336.247 132.513 333.213 143.83 331.827 147.61C331.397 148.784 311.931 137.328 310.069 135.876C306.861 133.374 307.017 132.278 307.017 132.278C307.017 132.278 315.389 127.519 323.154 123.161C326.287 121.403 339.769 131.104 338.008 131.809Z" fill="#229BC6"/>
<path opacity="0.5" d="M338.008 131.809C336.247 132.513 331.796 140.058 330.599 141.457C330.599 141.457 325.501 140.457 319.906 137.861C314.31 135.265 308.912 131.268 308.912 131.268C308.912 131.268 315.389 127.519 323.154 123.161C326.287 121.403 339.769 131.104 338.008 131.809Z" fill="#229BC6"/>
<path d="M328.813 139.045C328.813 139.045 312.262 133.765 307.33 127.781C307.33 127.781 319.656 118.628 321.77 118.628C322.753 118.628 326.07 119.534 329.76 120.719C330.526 120.964 331.306 121.221 332.087 121.484C335.623 122.678 339.132 124.001 340.981 124.925C340.981 124.925 335.229 125.943 334.095 127.897C332.329 130.942 328.813 139.045 328.813 139.045Z" fill="#F6BE4A"/>
<path opacity="0.5" d="M307.33 127.781C307.33 127.781 319.656 118.628 321.77 118.628C322.753 118.628 326.07 119.534 329.76 120.719C330.526 120.963 331.306 121.221 332.087 121.484C335.623 122.678 339.132 124.001 340.981 124.925C340.981 124.925 312.259 133.765 307.33 127.781Z" fill="#F6874E"/>
<path d="M331.748 121.208C331.933 121.408 332.087 121.655 332.107 121.913C332.125 122.176 331.912 122.362 331.678 122.463C331.443 122.564 331.17 122.63 330.907 122.698L330.106 122.893L326.885 123.612C324.736 124.094 322.588 124.584 320.456 125.168C319.923 125.317 319.393 125.471 318.865 125.637C318.339 125.799 317.822 125.958 317.291 126.097C316.235 126.38 315.164 126.612 314.088 126.826C311.931 127.238 309.756 127.574 307.568 127.836C309.771 127.761 311.971 127.549 314.154 127.203C315.245 127.031 316.331 126.814 317.407 126.549C317.945 126.422 318.481 126.261 319.011 126.102C319.532 125.94 320.06 125.791 320.59 125.647C322.71 125.072 324.849 124.557 326.984 124.011C328.05 123.736 329.119 123.466 330.18 123.16C330.445 123.082 330.71 123.009 330.975 122.923C331.238 122.832 331.501 122.756 331.763 122.62C331.89 122.547 332.011 122.458 332.102 122.332C332.193 122.208 332.233 122.047 332.211 121.898C332.155 121.605 331.953 121.385 331.748 121.208Z" fill="#F4E8D8"/>
<path d="M325.155 124.127C325.104 125.448 325.309 126.728 325.541 127.993C325.781 129.258 326.084 130.505 326.428 131.74C326.769 132.977 327.14 134.202 327.542 135.419C327.941 136.636 328.36 137.845 328.812 139.044C328.401 137.832 328.022 136.61 327.663 135.383C327.302 134.156 326.973 132.919 326.673 131.679C326.37 130.439 326.11 129.187 325.915 127.93C325.726 126.675 325.571 125.402 325.66 124.16L325.155 124.127Z" fill="#F4E8D8"/>
<path d="M321.77 118.628C318.777 118.57 330.928 115.871 333.451 121.971L321.77 118.628Z" fill="#273150"/>
<path d="M225.584 117.464C225.584 117.464 214.893 124.913 211.834 127.291C208.777 129.67 181.417 112.508 179.29 108.034C179.29 108.034 193.757 97.4566 199.186 94.9165C199.186 94.919 202.073 111.515 225.584 117.464Z" fill="#F6BE4A"/>
<path opacity="0.5" d="M202.581 116.085C205.279 121.181 181.419 112.51 179.292 108.036C179.292 108.036 193.759 97.459 199.188 94.9189C199.185 94.9189 199.883 110.99 202.581 116.085Z" fill="#F6874E"/>
<path d="M211.433 127.508L211.337 124.787L211.215 122.065C211.172 121.158 211.17 120.247 211.069 119.345C210.97 118.441 210.849 117.542 210.644 116.646L210.594 116.649C210.521 117.565 210.533 118.474 210.564 119.381C210.591 120.29 210.723 121.188 210.811 122.092L211.084 124.802L211.382 127.511L211.433 127.508Z" fill="#F4E8D8"/>
<path d="M179.29 108.062L183.951 108.143L188.612 108.198C190.165 108.218 191.719 108.266 193.272 108.228C194.048 108.206 194.826 108.185 195.602 108.14L196.766 108.074C197.155 108.041 197.542 108.019 197.931 107.978V107.928C197.542 107.89 197.153 107.872 196.766 107.842L195.602 107.786C194.823 107.751 194.048 107.736 193.27 107.721C191.716 107.695 190.163 107.759 188.609 107.791L183.948 107.887L179.288 108.009L179.29 108.062Z" fill="#F4E8D8"/>
<path d="M199.186 94.9199C198.529 98.6316 198.069 102.386 197.965 106.168C197.945 107.115 197.953 108.065 198.029 109.012C198.104 109.958 198.221 110.913 198.544 111.842C198.713 112.299 198.92 112.774 199.332 113.137C199.719 113.465 200.143 113.698 200.567 113.925C201.424 114.364 202.31 114.713 203.207 115.028C205.006 115.639 206.84 116.117 208.689 116.518C209.614 116.72 210.543 116.897 211.475 117.058C212.408 117.225 213.345 117.354 214.282 117.465C218.031 117.904 221.853 118.079 225.584 117.462C224.647 117.568 223.707 117.624 222.765 117.652C221.825 117.677 220.883 117.654 219.943 117.614C218.064 117.536 216.192 117.349 214.33 117.081C210.614 116.538 206.911 115.776 203.369 114.554C202.485 114.251 201.611 113.912 200.785 113.498C200.378 113.286 199.969 113.061 199.635 112.781C199.327 112.519 199.128 112.105 198.971 111.688C198.665 110.837 198.539 109.903 198.458 108.976C198.382 108.047 198.352 107.11 198.349 106.171C198.349 104.295 198.458 102.414 198.61 100.538C198.751 98.6644 198.956 96.7909 199.186 94.9199Z" fill="#F4E8D8"/>
<path d="M169.089 73.7345C163.746 71.3888 144.381 63.4226 129.81 64.3594C129.81 64.3594 117.444 70.1491 117.914 77.8148C117.914 77.8148 137.191 77.3022 142.959 79.2237C147.536 80.7488 158.689 87.5156 158.689 87.5156C158.689 87.5156 159.707 84.7382 160.569 82.3925C161.844 78.9131 166.687 76.4539 169.15 75.0853C169.693 74.7798 169.66 73.9845 169.089 73.7345Z" fill="#229BC6"/>
<path opacity="0.5" d="M129.81 64.3592C129.81 64.3592 118.174 69.8055 117.907 77.1278C117.899 77.355 132.293 77.1278 132.293 77.1278C132.293 77.1278 131.626 69.5353 133.326 68.038C135.026 66.5408 149.814 67.3386 149.814 67.3386C142.837 65.2455 135.693 63.9805 129.81 64.3592Z" fill="#229BC6"/>
<path d="M130.162 64.4378C131.882 64.5262 133.572 64.9226 135.141 65.5942C136.717 66.2532 138.182 67.1546 139.546 68.1798C140.228 68.6949 140.888 69.2377 141.537 69.7957C142.186 70.3538 142.815 70.9345 143.454 71.5152C143.775 71.8056 144.096 72.0934 144.437 72.3712C144.609 72.5101 144.78 72.6464 144.98 72.7701C145.073 72.8358 145.187 72.8888 145.298 72.9418C145.361 72.9646 145.427 72.9873 145.493 73.005L145.66 73.0302C146.544 73.1615 147.385 73.2272 148.249 73.3105C151.682 73.5781 155.115 73.8256 158.551 74.0276L163.704 74.3104C165.424 74.3836 167.142 74.4745 168.862 74.53C167.15 74.3609 165.434 74.222 163.722 74.0654L158.578 73.6412C155.15 73.361 151.717 73.1186 148.292 72.8105C147.44 72.7348 146.566 72.6742 145.748 72.558L145.594 72.5378L145.48 72.5C145.399 72.4596 145.316 72.4242 145.233 72.3661C145.063 72.2651 144.897 72.1339 144.732 72.0051C144.404 71.7425 144.083 71.4597 143.762 71.1744C142.484 70.0306 141.196 68.864 139.776 67.8692C138.364 66.8668 136.853 65.9881 135.234 65.367C133.61 64.761 131.887 64.4126 130.162 64.4378Z" fill="#F4E8D8"/>
<path d="M159.533 85.1928L157.947 82.2386L156.34 79.2971C155.802 78.3174 155.302 77.3175 154.711 76.3682C154.125 75.4163 153.518 74.477 152.841 73.5781L152.798 73.6034C153.235 74.6411 153.746 75.6359 154.274 76.6207C154.799 77.6079 155.413 78.5421 155.992 79.4991L157.73 82.3649L159.49 85.218L159.533 85.1928Z" fill="#F4E8D8"/>
<path d="M141.469 69.4194L135.972 69.9496L130.48 70.543C128.651 70.7475 126.817 70.9293 124.998 71.2247C124.089 71.3737 123.179 71.5251 122.277 71.717C121.376 71.9013 120.469 72.1008 119.592 72.3937L119.605 72.4417C121.421 72.1513 123.247 71.9619 125.071 71.7246C126.895 71.4948 128.711 71.2045 130.533 70.9444L136.002 70.1996L141.474 69.4699L141.469 69.4194Z" fill="#F4E8D8"/>
<path d="M90.2295 102.396C90.2295 102.396 89.4464 117.414 79.7434 121.012C79.7434 121.012 61.2747 124.61 47.4995 120.072C47.4995 120.072 64.2758 115.26 68.7875 111.937C71.7608 109.748 73.7968 107.243 73.7968 104.741C73.7943 104.744 85.69 104.274 90.2295 102.396Z" fill="#F6BE4A"/>
<path opacity="0.5" d="M79.7432 121.014C79.7432 121.014 61.2744 124.612 47.4993 120.075C47.4993 120.075 64.2755 115.262 68.7872 111.939C71.7605 109.75 73.7966 107.245 73.7966 104.743C73.794 104.743 75.8605 113.288 79.7432 121.014Z" fill="#F6874E"/>
<path d="M90.2295 102.396C88.1909 103.767 86.1447 105.122 84.0909 106.463C83.0603 107.127 82.0321 107.794 80.9863 108.433C79.9531 109.084 78.882 109.662 77.7907 110.22C77.2475 110.506 76.7019 110.783 76.1563 111.079C75.6131 111.377 75.0675 111.672 74.5572 112.063C74.3071 112.268 74.0469 112.48 73.8776 112.831C73.7261 113.187 73.7463 113.538 73.7892 113.864C73.8979 114.515 74.1606 115.098 74.4637 115.646C75.0725 116.742 75.8632 117.712 76.7221 118.598C77.5936 119.474 78.5309 120.28 79.5464 120.974C78.6016 120.189 77.7023 119.353 76.904 118.429C76.0981 117.515 75.3681 116.527 74.8123 115.462C74.542 114.929 74.3122 114.366 74.2288 113.801C74.1934 113.523 74.1985 113.235 74.297 113.023C74.3955 112.816 74.6204 112.616 74.8477 112.445C75.3176 112.096 75.8531 111.803 76.3912 111.516C76.9293 111.23 77.4774 110.952 78.0231 110.672C79.1119 110.102 80.2032 109.513 81.2414 108.842C82.2771 108.175 83.3028 107.498 84.3107 106.794C86.3342 105.393 88.3071 103.928 90.2295 102.396Z" fill="#F4E8D8"/>
<path d="M75.0469 115.694C73.7004 116.131 72.3641 116.598 71.0404 117.096C69.7142 117.585 68.4006 118.103 67.087 118.628C65.7784 119.161 64.4699 119.699 63.1739 120.264C61.8755 120.822 60.5897 121.413 59.314 122.032C60.6604 121.595 61.9968 121.128 63.3205 120.63C64.6467 120.141 65.9603 119.62 67.2739 119.098C68.5824 118.565 69.891 118.027 71.1844 117.462C72.4854 116.901 73.7712 116.313 75.0469 115.694Z" fill="#F4E8D8"/>
<path d="M79.5869 109.594C79.4833 109.041 79.2635 108.516 78.9983 108.023C78.8695 107.773 78.7128 107.538 78.5587 107.304C78.392 107.076 78.2228 106.852 78.0384 106.64C77.8565 106.425 77.6493 106.23 77.4498 106.034C77.2325 105.854 77.0279 105.66 76.7904 105.506C76.3383 105.17 75.8305 104.915 75.3051 104.726C75.7269 105.097 76.1538 105.43 76.5403 105.809C76.9344 106.177 77.3108 106.561 77.6595 106.97C78.0182 107.369 78.3491 107.796 78.6674 108.233C78.9832 108.67 79.2888 109.119 79.5869 109.594Z" fill="#F4E8D8"/>
<path d="M49.8418 50.0461C49.8418 50.0461 41.8793 45.2033 39.8028 42.4334C37.7263 39.6661 36.342 34.1289 35.3038 28.5942C34.2655 23.0595 35.3038 16.1387 35.3038 16.1387C35.3038 16.1387 22.1501 29.632 19.7275 31.0156C19.7275 31.0156 16.2666 42.0875 24.5727 56.2726C24.5727 56.2751 37.7263 58.3506 49.8418 50.0461Z" fill="#229BC6"/>
<path opacity="0.5" d="M24.4964 44.7185C25.6786 38.0299 35.3008 28.5967 35.3008 28.5967C34.2625 23.062 35.3008 16.1411 35.3008 16.1411C35.3008 16.1411 22.1471 29.6344 19.7245 31.0181C19.7245 31.0181 16.2636 42.09 24.5697 56.2751C24.5722 56.2751 23.8977 48.1145 24.4964 44.7185Z" fill="#229BC6"/>
<path d="M49.6494 50.0083C47.5022 49.7987 45.365 49.5058 43.2456 49.1145C41.1261 48.7307 39.0218 48.2635 36.9655 47.6374C34.9194 47.0036 32.8909 46.2537 31.0594 45.1654C30.15 44.62 29.2911 43.9812 28.5812 43.2111C28.2149 42.8096 27.8386 42.4334 27.6365 41.9991C27.5859 41.8906 27.548 41.7795 27.5228 41.6658C27.495 41.5547 27.4899 41.4361 27.4798 41.3048C27.4672 41.0472 27.4672 40.7846 27.4798 40.522C27.5354 39.4666 27.6895 38.4036 27.8815 37.3507C28.0735 36.2953 28.3034 35.2474 28.5535 34.2021C29.0536 32.1114 29.6549 30.0435 30.2839 27.9856C30.9179 25.9303 31.6126 23.8901 32.4008 21.8878C32.7898 20.8854 33.1991 19.8881 33.6613 18.916C33.8912 18.4286 34.1337 17.9489 34.399 17.4818C34.6642 17.0147 34.9472 16.5551 35.2983 16.1436C34.5632 16.9389 34.0377 17.9009 33.535 18.8528C33.0374 19.8123 32.5877 20.7971 32.1633 21.7894C31.3272 23.7816 30.5845 25.8141 29.9024 27.8619C29.2204 29.9122 28.6267 31.9927 28.0987 34.0884C27.8385 35.1388 27.5986 36.1943 27.3965 37.2598C27.1994 38.3253 27.0226 39.401 26.9796 40.4993C26.9695 40.7745 26.9695 41.0523 26.9847 41.3325C26.9948 41.4689 27.0024 41.6204 27.0403 41.7719C27.0731 41.9209 27.1236 42.0673 27.1893 42.2011C27.452 42.749 27.8689 43.1379 28.225 43.5293C28.9829 44.3448 29.8797 44.9963 30.8219 45.5543C32.7115 46.6602 34.7703 47.4101 36.8544 47.9959C41.0377 49.1549 45.3398 49.771 49.6494 50.0083Z" fill="#F4E8D8"/>
<path d="M28.2148 34.8788L22.2657 29.0591L27.8511 35.2297L28.2148 34.8788Z" fill="#F4E8D8"/>
<path d="M34.7302 47.0488L32.391 56.1538L35.2178 47.1877L34.7302 47.0488Z" fill="#F4E8D8"/>
</svg>
