<svg width="382" height="370" viewBox="0 0 382 370" fill="none" xmlns="http://www.w3.org/2000/svg">
<path d="M20.0409 335.292L0 345.075L55.5053 363.857L114.681 357.698L115.331 348.151L148.136 329.936L121.293 316.887L20.0409 335.292Z" fill="#866694"/>
<path d="M225.468 338.549L148.62 322.791L129.228 313.578L162.196 302.428L155.409 297.701L251.768 272.246L241.587 268.609L277.949 261.152L334.554 262.914L363.765 268.609L356.13 278.064L344.736 280.853L358.676 284.247L345.949 306.791L294.313 311.884V319.154L225.468 338.549Z" fill="#866694"/>
<path d="M338.192 324.73L314.676 326.428L298.677 321.565L229.513 341.631C229.513 341.631 260.167 347.624 275.891 352.281L312.253 350.256L338.192 324.73Z" fill="#866694"/>
<path d="M304.345 293.338L287.916 293.129L282.484 299.778L299.761 300.596L304.345 293.338Z" fill="#634874"/>
<path d="M296.651 286.625L286.335 286.496L282.925 290.669L293.774 291.184L296.651 286.625Z" fill="#634874"/>
<path d="M337.545 263.64L332.514 264.308L324.778 270.913L360.858 271.339L337.545 263.64Z" fill="#634874"/>
<path d="M257.093 278.319L239.041 283.157L230.097 290.152L267.851 285.51L257.093 278.319Z" fill="#634874"/>
<path d="M203.408 295.639L173.71 302.913L185.408 315.095L232.739 301.457L203.408 295.639Z" fill="#634874"/>
<path d="M287.196 260.009V128.26C287.196 128.26 305.902 124.533 317.338 124.533C328.773 124.533 345.353 128.26 345.353 128.26V259.665L287.196 260.009Z" fill="#BB83C3"/>
<path d="M287.196 260.01V146.135L287.389 127.8L307.468 124.943L307.437 147.752L333.13 131.069L345.353 150.684L347.045 265.903C347.045 265.903 338.44 263.004 316.385 263.004C294.33 263.004 287.196 260.01 287.196 260.01Z" fill="#856792"/>
<path d="M287.388 258.491L287.22 146.203L303.452 180.894L305.902 210.844L316.698 219.633L309.987 263.12L294.195 262.032L287.388 258.491Z" fill="#665070"/>
<path d="M332.586 157.476L331.471 175.154C331.471 175.154 336.977 177.219 338.353 181.004C339.73 184.789 336.289 227.805 336.289 227.805L339.042 240.882L339.664 251.956L340.896 252.39L341.795 241.915L338.697 227.461C338.697 227.461 340.762 188.575 340.762 182.725C340.762 176.875 333.191 173.089 333.191 173.089L332.586 157.476Z" fill="#BB83C3"/>
<path d="M325.782 154.32L319.963 173.344L325.954 179.879L329.007 203.372L330.776 180.605L328.133 173.344L325.782 154.32Z" fill="#BB83C3"/>
<path d="M318.174 222.145L313.428 262.108L317.609 262.122H318.986L319.894 229.326L318.174 222.145Z" fill="#665070"/>
<path d="M298.28 218.741L296.373 234.533L301.305 243.491L302.337 252.094L303.025 244.179L299.643 235.077L298.28 218.741Z" fill="#856792"/>
<path d="M323.852 231.071L325.851 217.836L325.108 208.779L321.453 206.346L323.852 231.071Z" fill="#665070"/>
<path d="M326.87 225.682L329.726 262.442L324.42 262.848L326.87 225.682Z" fill="#665070"/>
<path d="M322.648 130.658L325.917 145.769L335.212 128.693L322.648 130.658Z" fill="#BB83C3"/>
<path d="M345.353 128.26L339.258 139.234L345.353 150.669V128.26Z" fill="#BB83C3"/>
<path d="M296.511 135.218V153.188L303.862 157.683L304.271 176.878L308.353 160.133L298.824 149.038L300.458 128.346L296.511 135.218Z" fill="#BB83C3"/>
<path d="M314.615 189.879L317.885 210.572L309.171 209.484L306.993 183.344L314.615 189.879Z" fill="#665070"/>
<path d="M341.936 251.131C341.936 251.131 341.368 245.687 345.136 245.68C348.905 245.673 347.156 250.842 347.156 250.842C347.156 250.842 353.038 250.57 352.797 252.218C352.556 253.866 350.305 256.107 350.305 256.107C350.305 256.107 356.637 254.555 356.124 256.75C355.612 258.946 348.681 259.971 348.681 259.971C348.681 259.971 368.733 261.62 356.272 261.998C343.811 262.377 349.593 262.501 344.376 262.597C339.159 262.693 337.586 261.678 336.413 259.582C335.239 257.487 340.824 258.289 340.824 258.289C340.824 258.289 334.203 252.542 336.351 249.654C338.498 246.767 341.936 251.131 341.936 251.131Z" fill="#33A86D"/>
<path d="M290.382 260.941C290.382 260.941 286.301 248.962 283.032 248.962C279.763 248.962 283.847 255.226 283.847 255.226C283.847 255.226 280.582 251.684 278.403 253.591C276.225 255.497 284.666 259.582 284.666 259.582C284.666 259.582 271.053 259.854 275.681 261.217C280.31 262.58 290.382 260.941 290.382 260.941Z" fill="#33A86D"/>
<path d="M286.301 261.76C286.301 261.76 288.48 252.232 292.561 250.325C296.642 248.419 292.833 256.585 292.833 256.585C292.833 256.585 302.637 256.041 297.465 259.854C292.293 263.667 289.839 262.304 286.301 261.76Z" fill="#33A86D"/>
<path d="M297.175 266.682C295.713 266.719 294.257 266.888 292.826 267.188L293.658 269.029L288.135 268.884C285.482 270.529 286.397 272.46 295.148 272.277C309.863 271.968 306.467 266.451 297.175 266.682Z" fill="#33A86D"/>
<path d="M308.208 263.984C300.256 264.307 302.537 267.81 310.48 267.39C319.733 266.891 316.161 263.657 308.208 263.984Z" fill="#288453"/>
<path d="M315.61 261.348C307.658 261.671 309.939 265.174 317.885 264.755C327.135 264.269 323.563 261.021 315.61 261.348Z" fill="#33A86D"/>
<path d="M331.131 263.794C323.178 264.118 325.46 267.621 333.402 267.201C342.656 266.719 339.084 263.471 331.131 263.794Z" fill="#33A86D"/>
<path d="M344.565 262.304C344.565 262.304 339.403 262.576 341.028 259.039C342.652 255.501 344.294 260.942 344.294 260.942C344.294 260.942 345.928 256.585 346.744 256.585C347.559 256.585 347.019 259.582 347.019 259.582C347.019 259.582 349.741 259.039 349.741 260.959C349.741 262.879 344.565 262.304 344.565 262.304Z" fill="#288453"/>
<path d="M289.295 236.712C290.795 237.424 293.122 241.605 294.195 236.44C295.248 231.381 289.295 232.627 289.295 236.712Z" fill="#33A86D"/>
<path d="M289.295 226.364C284.395 225.82 284.133 230.448 286.573 230.992C289.013 231.536 294.195 226.907 289.295 226.364Z" fill="#288453"/>
<path d="M303.992 239.905C301.16 241.319 302.375 245.16 305.606 242.937C308.838 240.714 306.811 238.491 303.992 239.905Z" fill="#33A86D"/>
<path d="M292.561 225.276C289.295 223.9 288.479 229.086 291.745 229.905C295.011 230.724 295.83 226.629 292.561 225.276Z" fill="#33A86D"/>
<path d="M284.938 222.403C281.672 224.447 284.938 225.128 288.479 223.597C292.02 222.065 288.204 220.359 284.938 222.403Z" fill="#33A86D"/>
<path d="M306.075 257.879C306.129 257.695 306.139 257.501 306.102 257.314C306.065 257.126 305.983 256.95 305.862 256.801C305.742 256.652 305.587 256.535 305.411 256.46C305.235 256.384 305.044 256.353 304.853 256.368C302.706 256.502 300.187 259.854 302.365 260.941C304.543 262.029 305.834 258.56 306.075 257.879Z" fill="#33A86D"/>
<path d="M303.181 249.234C299.915 248.419 297.465 252.775 302.909 254.135C308.353 255.494 306.467 250.053 303.181 249.234Z" fill="#33A86D"/>
<path d="M305.09 246.512C303.184 248.147 306.178 251.141 308.903 248.691C311.629 246.241 306.993 244.868 305.09 246.512Z" fill="#33A86D"/>
<path d="M289.949 67.9858L289.26 116.508" stroke="#F7BC4B" stroke-miterlimit="10"/>
<path d="M289.776 23.9375L289.088 57.9614" stroke="#FEED7F" stroke-miterlimit="10"/>
<path d="M342.428 82.9556V122.186" stroke="#F7BC4B" stroke-miterlimit="10"/>
<path d="M333.033 114.729V91.5312L330.679 95.943V119.223L333.033 114.729Z" fill="#FEED7F"/>
<path d="M340.889 19.9766V46.526" stroke="#F7BC4B" stroke-miterlimit="10"/>
<path d="M324.189 59.555V39.2515" stroke="#F7BC4B" stroke-miterlimit="10"/>
<path d="M316.429 32.6407V1.27002" stroke="#F7BC4B" stroke-miterlimit="10"/>
<path d="M302.908 52.6516V11.0122L300.868 15.8954V55.1018L302.908 52.6516Z" fill="#FEED7F"/>
<path d="M305.689 91.8579V117.433" stroke="#F7BC4B" stroke-miterlimit="10"/>
<path d="M296.297 48.5669V74.139" stroke="#FEED7F" stroke-miterlimit="10"/>
<path d="M275.715 45.0601L273.912 49.5888L275.715 53.911L277.315 49.5888L275.715 45.0601Z" fill="#FEED7F"/>
<path d="M279.707 91.166L277.904 95.6947L279.707 100.017L281.307 95.6947L279.707 91.166Z" fill="#F7BC4B"/>
<path d="M315.331 41.9321L313.528 46.4574L315.331 50.7796L316.932 46.4574L315.331 41.9321Z" fill="#FEED7F"/>
<path d="M359.438 74.6035L357.635 79.1288L359.438 83.451L361.038 79.1288L359.438 74.6035Z" fill="#F7BC4B"/>
<path d="M328.05 14.8389L325.235 19.3641L328.05 23.6898L330.545 19.3641L328.05 14.8389Z" fill="#FEED7F"/>
<path d="M348.047 52.3799L345.453 58.8908L348.047 65.1092L350.35 58.8908L348.047 52.3799Z" fill="#FEED7F"/>
<path d="M294.587 0L292.268 5.81919L294.587 11.3769L296.645 5.81919L294.587 0Z" fill="#FEED7F"/>
<path opacity="0.39" d="M315.706 112.55C334.803 112.55 350.284 97.0693 350.284 77.9724C350.284 58.8756 334.803 43.3945 315.706 43.3945C296.609 43.3945 281.128 58.8756 281.128 77.9724C281.128 97.0693 296.609 112.55 315.706 112.55Z" fill="#FEED7F"/>
<path d="M316.749 66.5371L299.367 80.7874L299.639 82.1467L316.749 93.7645C316.749 93.7645 316.839 66.5371 316.749 66.5371Z" fill="#C94039"/>
<path d="M316.749 66.5371L309.261 81.8749L309.35 82.7834L316.749 93.7645V66.5371Z" fill="#EE5D4F"/>
<path d="M301.274 82.9658L310.985 83.0553L302.182 83.5095L301.274 82.9658Z" fill="#EE5D4F"/>
<path d="M316.835 66.5371L334.214 80.7874L333.942 82.1467L316.835 93.7645C316.835 93.7645 316.742 66.5371 316.835 66.5371Z" fill="#C94039"/>
<path d="M316.835 66.5371L324.323 81.8749L324.23 82.7834L316.835 93.7645V66.5371Z" fill="#EE5D4F"/>
<path d="M332.311 82.9658L322.599 83.0553L331.402 83.5095L332.311 82.9658Z" fill="#EE5D4F"/>
<path d="M299.367 80.7874L316.835 66.5371L302.182 83.5783L299.643 82.1467L299.367 80.7874Z" fill="#EE5D4F"/>
<path d="M316.835 66.5371L334.213 80.7874L333.942 82.1467L332.31 82.9657L316.835 66.5371Z" fill="#EE5D4F"/>
<path d="M359.215 253.229C359.215 253.229 364.222 238.736 375.001 234.609C385.782 230.482 386.551 238.491 386.551 238.491C386.551 238.491 390.017 219.072 399.64 212.378C409.267 205.686 407.726 218.837 404.647 223.359C404.647 223.359 419.663 220.148 416.584 229.603C413.504 239.058 391.009 253.753 374.069 258.302C357.129 262.855 359.215 253.229 359.215 253.229Z" fill="#F4E8D8"/>
<path d="M176.011 196.043C160.35 177.91 161.332 166.909 181.708 167.503C189.088 167.718 201.358 167.441 202.851 178.633C203.325 182.183 203.233 182.9 203.233 182.9C203.233 182.9 208.059 181.176 215.402 185.271C221.674 188.769 221.026 197.882 220.176 200.632C220.176 200.632 236.49 202.196 247.181 203.92C253.287 204.905 227.362 208.691 213.758 209.117C198.09 209.607 186.224 207.868 176.011 196.043Z" fill="#F4E8D8"/>
<path d="M238.113 253.482C238.113 253.482 222.099 251.54 219.896 251.859C217.684 252.179 216.569 251.035 215.451 249.449C214.325 247.859 203.685 244.704 203.685 244.704L195.232 248.987C195.232 248.987 185.609 232.456 178.513 227.654C171.293 222.768 163.679 227.358 163.679 227.358L162.056 230.561C162.056 230.561 166.095 223.063 166.905 216.183C167.716 209.273 160.622 194.246 155.403 187.939C150.109 181.54 132.606 165.369 106.641 171.299C79.626 177.469 64.7587 184.376 61.5778 197.818C58.4143 211.193 65.8503 237.512 78.081 245.859C78.081 245.859 56.9513 259.847 57.3186 268.452C57.9566 283.347 70.0003 292.039 83.467 291.632C96.634 291.235 154.75 276.663 175.936 269.098C196.454 261.771 238.113 253.482 238.113 253.482Z" fill="#F4E8D8"/>
<path d="M176.387 146.492C176.387 146.492 168.672 137.444 163.083 137.181C163.083 137.181 159.891 125.207 133.55 126.803C133.55 126.803 147.387 134.785 153.239 138.777C159.091 142.766 176.387 146.492 176.387 146.492Z" fill="#F4E8D8"/>
<path d="M159.938 88.4224C159.938 88.4224 160.299 92.4054 169.776 99.2777C172.019 100.905 177.855 105.687 191.778 110.804C205.7 115.918 221.724 121.727 225.094 123.724C228.465 125.722 219.028 115.418 212.921 114.468C206.812 113.516 203.748 110.626 206.135 107.89C208.522 105.154 207.327 102.351 201.79 99.0357C196.254 95.7205 183.186 93.5207 179.988 95.1476C176.792 96.7714 165.045 96.5784 159.938 88.4224Z" fill="#F4E8D8"/>
<path d="M250.431 168.919C250.431 168.919 241.218 162.617 240.007 160.919C238.797 159.222 237.584 153.888 235.16 152.678C232.737 151.464 231.765 151.464 231.765 151.464C231.765 151.464 230.552 147.101 225.947 146.617C221.342 146.133 219.403 150.738 219.403 150.738C219.403 150.738 216.25 149.77 216.495 151.222C216.737 152.678 220.374 155.101 225.708 155.827C231.042 156.553 235.889 160.674 240.494 163.585C245.096 166.496 250.431 168.919 250.431 168.919Z" fill="#F4E8D8"/>
<path d="M382.553 133.949C378.916 135.162 371.646 139.041 370.916 147.767C370.916 147.767 364.372 146.553 360.735 153.101C357.098 159.648 353.219 163.524 353.219 163.524C353.219 163.524 351.764 164.738 360.735 159.403C366.667 155.877 397.823 133.949 403.642 129.586C409.46 125.223 395.642 131.041 389.097 136.859C392.25 130.554 386.19 132.735 382.553 133.949Z" fill="#F4E8D8"/>
<path d="M280.891 190.437C280.891 190.437 283.737 191.504 282.928 192.187C282.12 192.87 281.452 192.349 280.989 192.748C280.401 193.253 279.837 193.431 279.837 193.431C279.837 193.431 278.388 193.039 278.042 192.135C277.692 191.234 277.753 189.889 280.891 190.437Z" fill="#7A4630"/>
<path d="M255.663 178.642C255.929 175.933 257.636 173.093 261.548 177.3C262.685 178.522 265.393 181.871 266.598 182.836C269.052 184.797 270.106 186.102 269.91 187.603C269.643 189.635 268.623 191.636 266.598 191.562C262.939 191.433 255.396 181.35 255.663 178.642Z" fill="#A86243"/>
<path d="M255.663 178.642C255.929 175.933 257.636 173.093 261.548 177.3C262.685 178.522 263.292 185.266 264.499 186.228C266.953 188.189 268.626 191.632 266.601 191.562C262.939 191.433 255.396 181.35 255.663 178.642Z" fill="#7A4630"/>
<path d="M276.252 189.433C276.252 189.433 270.51 185.973 269.346 185.339C266.472 183.777 264.309 191.256 267.244 191.804C270.185 192.352 273.497 193.627 275.134 193.425C276.954 193.204 277.425 190.511 276.252 189.433Z" fill="#A86243"/>
<path d="M269.891 190.431L266.037 187.741C265.504 189.485 265.697 191.491 267.164 191.764C270.106 192.313 273.5 193.627 275.134 193.428C276.953 193.204 269.891 190.431 269.891 190.431Z" fill="#7A4630"/>
<path d="M274.943 189.5L278.105 188.627C279.999 188.97 283.648 191.498 284.432 191.501C285.217 191.504 285.584 192.677 284.864 193.082C284.144 193.486 281.911 191.636 280.538 191.565C279.165 191.495 278.749 193.594 278.813 194.001C278.835 194.139 279.521 193.655 279.812 193.719C280.388 193.848 280.719 194.51 280.416 195.095C280.103 195.695 279.071 196.127 278.574 196.213C278.341 196.253 278.099 196.201 277.906 196.066C277.254 195.613 275.617 194.458 274.542 193.499C273.173 192.273 274.943 189.5 274.943 189.5Z" fill="#A86243"/>
<path d="M274.012 192.249C274.012 192.249 279.071 196.124 278.577 196.21C278.345 196.25 278.102 196.198 277.909 196.063C277.257 195.61 275.621 194.455 274.545 193.496C273.173 192.273 274.012 192.249 274.012 192.249Z" fill="#7A4630"/>
<path d="M233.211 281.796C233.165 281.811 233.122 281.83 233.079 281.851C232.424 282.179 227.089 284.808 226.452 285.531C225.931 286.122 226.14 288.359 226.265 289.37C226.305 289.682 226.513 289.946 226.814 290.056C228.03 290.507 231.241 291.711 234.43 291.484C238.441 291.199 238.38 289.725 241.413 288.417C243.401 287.559 244.615 287.005 245.215 286.723C245.503 286.588 245.638 286.312 245.666 286.006L245.954 282.617C245.99 282.194 245.761 281.811 245.335 281.716C243.362 281.281 237.822 280.304 233.211 281.796Z" fill="#29ACE4"/>
<path d="M235.432 280.567C235.432 280.567 227.074 284.474 226.406 285.185C225.735 285.896 226.249 288.436 226.249 288.436C226.249 288.436 230.478 290.139 234.464 289.909C238.462 289.679 238.499 288.472 241.514 287.28C243.851 286.355 245.111 285.819 245.561 285.623C245.681 285.571 245.76 285.464 245.773 285.344L246.039 282.348C246.064 282.075 245.864 281.824 245.567 281.756C243.818 281.367 240.233 279.131 235.432 280.567Z" fill="#13161F"/>
<path d="M230.153 283.264C230.153 283.264 233.195 282.302 236.085 283.69" stroke="#29ACE4" stroke-width="2" stroke-miterlimit="10" stroke-linecap="round" stroke-linejoin="round"/>
<path d="M232.383 282.056C232.383 282.056 235.429 281.094 238.324 282.479" stroke="#29ACE4" stroke-width="2" stroke-miterlimit="10" stroke-linecap="round" stroke-linejoin="round"/>
<path d="M266.592 275.889C270.158 277.167 275.373 278.448 275.587 280.007C275.802 281.557 275.939 283.197 275.783 283.773C275.667 284.211 275.468 284.468 275.112 284.603C274.211 284.949 272.407 285.789 268.804 286.049C267.25 286.162 263.88 285.277 261.861 283.751C260.262 282.544 258.35 281.141 257.633 280.617C257.446 280.482 257.326 280.277 257.299 280.053L257.09 278.316C257.048 277.96 257.244 277.614 257.581 277.461C259.155 276.735 263.696 274.854 266.592 275.889Z" fill="#29ACE4"/>
<path d="M266.435 274.388C269.545 275.451 275.446 277.841 275.649 279.385C275.832 280.782 275.909 281.548 275.851 282.081C275.823 282.342 275.088 282.452 274.726 282.578C273.81 282.893 271.975 283.653 268.317 283.904C266.739 284.011 263.672 283.555 261.628 282.195C259.934 281.067 257.887 279.75 257.25 279.339C257.124 279.256 257.039 279.134 257.017 278.999L256.809 277.651C256.72 277.072 256.898 274.581 257.541 274.391C259.888 273.695 263.681 273.444 266.435 274.388Z" fill="#13161F"/>
<path d="M265.988 278.423C265.988 278.423 268.982 275.917 272.272 276.959" stroke="#29ACE4" stroke-width="2" stroke-miterlimit="10" stroke-linecap="round" stroke-linejoin="round"/>
<path d="M263.993 277.16C263.993 277.16 267.103 274.905 270.385 275.941" stroke="#29ACE4" stroke-width="2" stroke-miterlimit="10" stroke-linecap="round" stroke-linejoin="round"/>
<path d="M264.174 214.424C266.096 221.021 268.289 234.539 269.625 243.231C270.354 247.962 267.551 271.704 267.814 274.317C267.848 274.66 267.563 274.958 267.202 274.955C266.371 274.948 265.379 275.031 262.526 275.368C259.686 275.702 258.917 276.572 257.446 276.71C255.979 276.848 256.343 274.915 256.343 274.915C256.343 274.915 255.951 273.928 256.637 269.924C256.84 268.741 256.211 251.559 255.936 247.177C255.464 239.695 250.506 229.039 250.145 223.104C249.284 208.919 261.677 205.855 264.174 214.424Z" fill="#FEED7F"/>
<path d="M237.23 217.829C237.23 217.829 236.394 233.853 235.754 241.13C235.291 246.396 234.948 280.479 234.948 280.479C234.948 280.479 236.998 280.317 241.229 280.537L244.642 281.328C244.642 281.328 245.693 282.216 246.061 282.023C246.428 281.83 247.449 280.92 247.626 278.659C248.187 271.502 250.083 247.073 250.01 245.952C249.946 244.941 250.987 230.826 252.078 222.336C252.553 218.638 249.964 211.434 244.81 211.508C240.742 211.563 237.518 214.155 237.23 217.829Z" fill="#FEED7F"/>
<path d="M259.891 223.399C260.375 220.246 264.174 214.425 264.174 214.425C261.677 205.855 248.255 221.217 248.255 221.217C248.255 221.217 255.467 239.696 255.939 247.178C256.215 251.556 256.843 268.741 256.64 269.924C255.954 273.932 256.346 274.915 256.346 274.915C256.346 274.915 255.982 276.848 257.449 276.711C257.48 276.707 257.514 276.661 257.55 276.585C260.82 272.611 260.617 263.156 260.617 263.156C260.207 264.213 259.566 265.555 259.018 266.655C260.133 256.808 261.343 243.277 261.343 243.277C261.343 243.277 259.407 226.552 259.891 223.399Z" fill="#F6BE4A"/>
<path d="M237.23 217.828C237.23 217.828 236.394 233.852 235.754 241.129C235.291 246.396 234.948 280.479 234.948 280.479C234.948 280.479 236.998 280.316 241.229 280.537L244.642 281.327C244.642 281.327 245.693 282.216 246.061 282.023C246.428 281.83 243.711 277.782 243.888 275.521C244.449 268.364 245.656 252.401 245.586 251.28C245.521 250.269 251.281 229.22 251.281 229.22C251.281 229.22 249.964 211.434 244.81 211.508C240.742 211.563 237.518 214.155 237.23 217.828Z" fill="#F6BE4A"/>
<path d="M245.346 266.793C245.346 266.793 244.378 263.885 241.468 259.519C241.468 259.519 241.226 270.914 243.891 276.732C246.557 282.55 245.346 266.793 245.346 266.793Z" fill="#F6BE4A"/>
<path d="M249.881 219.596C242.225 219.667 236.128 221.533 237.497 215.325C238.857 209.155 252.449 208.297 260.531 209.801C268.072 211.204 257.596 219.526 249.881 219.596Z" fill="#F6BE4A"/>
<path d="M249.587 221.217C241.931 221.288 236.128 221.53 237.494 215.322C238.854 209.152 252.446 208.294 260.528 209.798C268.072 211.205 257.302 221.147 249.587 221.217Z" fill="#F6BE4A"/>
<path d="M251.303 213.637C251.735 211.649 250.132 212.911 248.901 213.585C247.991 214.085 247.271 214.459 248.082 215.01C249.388 215.899 251.024 214.933 251.303 213.637Z" stroke="#FEED7F" stroke-width="3" stroke-miterlimit="10"/>
<path d="M251.545 213.392C251.545 213.392 253.214 215.228 254.771 215.451C256.33 215.678 256.14 213.496 255.108 213.107C254.078 212.718 252.173 212.743 251.545 213.392Z" stroke="#FEED7F" stroke-width="3" stroke-miterlimit="10"/>
<path d="M251.636 213.233C251.636 213.233 253.735 215.182 253.729 217.933" stroke="#FEED7F" stroke-width="3" stroke-miterlimit="10"/>
<path d="M251.15 217.228C251.15 217.228 251.471 214.198 251.637 213.233" stroke="#FEED7F" stroke-width="3" stroke-miterlimit="10"/>
<path d="M239.271 175.219C239.271 175.219 238.428 176.527 238.158 180.792C238.039 182.692 237.144 188.728 237.304 194.794C237.34 196.154 237.206 202.751 236.896 205.193C236.17 210.928 235.496 212.381 236.758 213.919C238.021 215.457 245.683 211.498 251.912 211.768C260.761 212.148 262.811 213.891 264.257 213.652C265.703 213.413 264.532 204.197 264.278 201.369C264.024 198.541 263.524 190.976 262.694 185.866C261.606 179.153 260.016 177.351 259.839 176.714C259.446 175.317 257.436 174.266 254.4 173.828C249.958 173.188 242.506 174.753 239.271 175.219Z" fill="#29ACE4"/>
<path opacity="0.5" d="M239.271 175.219C239.271 175.219 238.428 176.527 238.158 180.792C238.039 182.692 237.144 188.728 237.304 194.794C237.34 196.154 237.206 202.751 236.896 205.193C236.17 210.928 235.496 212.381 236.758 213.919C238.021 215.457 245.683 211.498 251.912 211.768C260.761 212.148 262.811 213.891 264.257 213.652C265.703 213.413 250.203 207.806 249.948 204.975C249.694 202.147 247.283 194.068 248.735 188.492C250.19 182.915 257.436 174.269 254.397 173.828C249.958 173.188 242.506 174.753 239.271 175.219Z" fill="#29ACE4"/>
<path d="M239.041 184.653C239.041 184.653 251.557 180.93 262.373 184.08L262.878 186.923C262.878 186.923 251.413 182.309 238.762 187.401L239.041 184.653Z" fill="#3D4C6D"/>
<path d="M238.361 188.038C238.361 188.038 252.071 184.248 262.887 187.398L263.252 190.241C263.252 190.241 250.883 185.915 238.232 191.007L238.361 188.038Z" fill="#3D4C6D"/>
<path d="M243.952 174.45C243.664 174.481 243.704 174.903 243.704 174.903C245.196 176.221 248.763 177.986 251.784 177.989C254.765 177.995 257.271 177.811 257.856 175.899C258.107 175.075 256.422 174.248 256.422 174.248C256.422 174.248 254.373 173.577 251.643 173.488C248.974 173.399 244.155 174.428 243.952 174.45Z" fill="#7A4630"/>
<path d="M249.443 175.305C247.044 175.225 247.001 175.023 246.979 173.858L247.151 168.42C247.136 167.498 248.076 166.735 249.568 166.784L252.145 166.83C253.594 166.876 254.333 167.676 254.492 168.57C254.492 168.57 255.047 172.566 254.939 173.813C254.832 175.075 251.845 175.384 249.443 175.305Z" fill="#7A4630"/>
<path d="M249.443 175.305C247.044 175.225 254.333 167.676 254.495 168.57C254.495 168.57 255.05 172.566 254.943 173.813C254.832 175.075 251.845 175.384 249.443 175.305Z" fill="#A96344"/>
<path d="M237.077 182.885C237.077 182.885 237.276 191.641 238.394 190.572C242.469 186.675 240.992 179.021 240.606 177.067C240.22 175.112 239.497 174.79 238.262 175.636C236.366 176.935 237.077 182.885 237.077 182.885Z" fill="#7A4630"/>
<g opacity="0.5">
<path opacity="0.5" d="M238.235 190.673C238.238 192.619 238.226 194.564 238.198 196.51C238.189 198.456 238.143 200.404 238.039 202.35C237.929 204.295 237.757 206.235 237.518 208.168L237.319 209.614C237.282 209.856 237.258 210.095 237.215 210.34C237.172 210.582 237.12 210.821 237.068 211.06C236.961 211.535 236.844 212.007 236.761 212.485C236.722 212.724 236.688 212.963 236.679 213.205C236.669 213.444 236.673 213.692 236.755 213.922C236.571 213.463 236.63 212.951 236.679 212.473C236.737 211.989 236.829 211.508 236.915 211.03C236.961 210.791 237.003 210.552 237.037 210.316C237.071 210.08 237.089 209.835 237.117 209.593L237.27 208.144C237.478 206.213 237.622 204.274 237.736 202.334C237.861 200.395 237.91 198.453 237.984 196.51C238.057 194.561 238.137 192.616 238.235 190.673Z" fill="#29ACE4"/>
</g>
<path d="M259.406 211.036C259.406 211.036 253.554 209.501 250.052 207.589C250.052 207.589 255.368 208.389 257.733 207.714C260.099 207.037 262.351 210.922 259.406 211.036Z" fill="#29ACE4"/>
<path d="M239.933 176.178C239.525 173.727 234.025 177.1 232.751 178.847C230.768 181.561 231.537 182.649 230.14 184.258C227.683 187.089 221.856 195.824 225.088 197.65C228.403 199.522 231.338 195.906 233.704 192.941C235.444 190.756 238.162 188.244 239.681 185.079C240.328 183.74 240.453 179.319 239.933 176.178Z" fill="#7A4630"/>
<path d="M232.619 190.308C230.162 193.14 221.859 195.823 225.091 197.646C228.406 199.519 231.342 195.903 233.707 192.937C235.447 190.753 238.165 188.24 239.685 185.075C240.328 183.74 234.013 188.7 232.619 190.308Z" fill="#A86243"/>
<path d="M222.441 197.362C224.442 193.029 224.393 192.671 227.022 193.124C231.412 193.881 231.081 196.675 230.07 199.672C229.102 202.549 228.446 202.929 227.417 205.579C226.406 208.183 225.413 212.553 225.413 212.553C225.413 212.553 225.263 213.965 223.167 213.545C221.032 213.116 220.866 212.369 220.753 210.705C220.584 208.263 221.669 199.032 222.441 197.362Z" fill="#7A4630"/>
<path d="M225.829 206.308C225.829 206.308 225.737 194.807 227.916 193.688C230.272 192.481 231.583 196.087 230.07 199.672C228.881 202.485 228.446 202.929 227.416 205.579C226.405 208.184 225.413 212.553 225.413 212.553L225.829 206.308Z" fill="#A86243"/>
<path d="M259.253 161.042C258.983 167.89 257.549 170.035 252.996 170.102C249.549 170.154 246.764 166.027 246.774 161.018C246.783 156.008 249.586 151.952 253.03 151.958C256.477 151.964 259.495 154.878 259.253 161.042Z" fill="#273150"/>
<path d="M257.317 159.672C257.304 155.061 256.826 152.423 251.86 152.052C249.268 151.859 246.712 152.101 245.205 152.901C243.842 153.624 243.017 154.751 242.527 157.776C242.16 160.055 241.639 163.995 242.365 167.81C242.831 170.255 245.882 171.177 248.575 171.367C255.53 171.857 256.606 169.958 257.056 166.593C257.663 162.037 257.32 161.562 257.317 159.672Z" fill="#7A4630"/>
<path d="M257.102 154.795C256.012 151.888 253.616 152.776 253.993 154.716C254.719 158.472 255.163 163.16 254.072 166.796C252.871 170.798 249.467 170.433 249.467 170.433C249.467 170.433 250.313 170.718 251.891 170.798C255.963 171.003 256.667 168.794 257.063 165.384C257.4 162.479 257.773 156.585 257.102 154.795Z" fill="#A96344"/>
<path d="M244.139 152.792C243.722 153.043 243.56 153.291 243.262 154.896C243.201 155.233 243.826 153.928 244.387 153.42C244.948 152.911 244.819 153.594 247.754 153.53C250.692 153.463 254.859 152.969 254.859 152.969L255.261 157.029L256.771 160.558L257.69 158.613C257.834 155.157 257.215 153.144 254.948 152.375C250.797 150.969 245.668 151.869 244.139 152.792Z" fill="#273150"/>
<path d="M251.486 158.386C251.431 159.072 251.106 159.128 250.76 159.1C250.414 159.072 250.169 158.974 250.215 158.288C250.261 157.596 250.589 157.047 250.944 157.075C251.296 157.102 251.542 157.694 251.486 158.386Z" fill="#102342"/>
<path d="M250.251 154.93C250.251 154.93 251.676 154.856 252.252 155.552" stroke="#273150" stroke-miterlimit="10" stroke-linecap="round" stroke-linejoin="round"/>
<path d="M246.572 158.548C246.547 159.195 246.265 159.219 245.937 159.192C245.61 159.167 245.361 159.1 245.377 158.453C245.395 157.801 245.677 157.286 246.011 157.314C246.345 157.341 246.596 157.896 246.572 158.548Z" fill="#102342"/>
<path d="M246.685 155.138C246.685 155.138 245.68 154.706 244.687 155.5" stroke="#273150" stroke-miterlimit="10" stroke-linecap="round" stroke-linejoin="round"/>
<path d="M259.553 162.43C259.094 164.281 257.779 165.58 256.603 165.387C256.603 165.387 256.649 161.186 256.633 160.387C256.624 159.884 256.915 158.334 258.168 158.539C259.415 158.744 260.028 160.515 259.553 162.43Z" fill="#A96344"/>
<path d="M258.888 163.751C258.821 164.198 258.398 164.526 257.938 164.486C257.482 164.45 257.157 164.057 257.218 163.613C257.28 163.163 257.703 162.826 258.168 162.866C258.631 162.902 258.956 163.301 258.888 163.751Z" fill="#E2D6C9"/>
<path d="M328.36 222.099C328.36 222.099 327.98 222.553 327.671 222.629C327.361 222.706 325.284 222.878 324.858 222.562C324.432 222.247 324.42 220.782 325.55 220.439C326.684 220.096 329.696 221.56 329.696 221.56L329.592 222.565L328.36 222.099Z" fill="#F4E8D8"/>
<path d="M353.633 213.763C353.633 213.763 348.609 218.276 344.604 219.572L344.619 220.374C344.2 221.481 348.069 220.822 351.075 218.389C353.401 216.508 354.632 214.786 354.697 214.13C354.758 213.478 353.633 213.763 353.633 213.763Z" fill="#F4E8D8"/>
<path d="M354.338 213.56C354.338 213.56 353.551 215.065 349.92 217.819C346.93 220.093 338.991 221.551 330.762 221.971C329.159 222.054 325.302 222.047 325.198 221.165C324.447 214.811 329.591 210.926 337.211 209.651C353.239 206.976 354.338 213.56 354.338 213.56Z" fill="#C93F37"/>
<path d="M317.471 228.42C317.471 228.42 317.544 230.277 317.713 230.777C317.881 231.276 318.73 232.128 318.911 232.299C319.091 232.468 319.612 232.085 319.612 232.085L317.471 228.42Z" fill="#F6874E"/>
<path d="M321.331 225.592C321.331 225.592 322.86 228.144 322.305 228.984C322.106 229.214 321.889 228.843 321.542 228.463C321.187 228.071 320.709 227.663 320.709 227.663C320.513 228.187 320.145 229.581 319.873 231.067C319.759 231.689 320.537 232.033 319.964 232.615C319.609 232.976 317.89 230.292 317.89 230.292C317.89 230.292 316.64 227.164 318.561 225.534C320.473 223.91 321.331 225.592 321.331 225.592Z" fill="#CE6D3E"/>
<path d="M320.617 209.583C320.617 209.583 319.866 209.89 319.361 211.462C318.852 213.046 316.649 222.345 317.443 224.158C317.863 225.124 319.885 225.035 321.576 224.722C323.231 224.416 322.357 222.204 322.728 220.224C323.096 218.26 324.649 212.914 324.312 211.281C323.978 209.654 320.617 209.583 320.617 209.583Z" fill="#C93F37"/>
<path d="M320.859 210.288C320.859 210.288 321.242 216.431 320.736 218.006C320.228 219.59 318.555 222.005 319.22 223.279C319.707 224.211 319.882 225.035 321.573 224.722C323.227 224.416 322.354 222.204 322.725 220.224C323.093 218.26 324.646 212.914 324.309 211.281C323.978 209.654 320.859 210.288 320.859 210.288Z" fill="#972B28"/>
<path d="M318.595 222.391C318.757 222.431 318.837 223.117 320.776 223.561C320.776 223.561 319.523 224.045 318.595 223.561C317.667 223.077 318.433 222.351 318.595 222.391Z" fill="#C93F37"/>
<path d="M318.077 224.578C318.077 224.578 317.853 225.249 318.328 225.347C318.696 225.424 320.403 225.004 321.481 225.292C321.714 225.353 321.916 225.124 321.944 224.915L321.987 224.618C322.008 224.474 321.879 224.342 321.711 224.333C320.871 224.296 318.616 224.232 318.077 224.578Z" fill="#F4E8D8"/>
<path d="M320.513 228.102L320.58 230.409C320.58 230.452 320.59 230.495 320.605 230.534L320.982 231.454C321.049 231.616 320.982 231.821 320.822 231.938C320.639 232.069 320.403 232.03 320.308 231.849L319.349 230.035C319.294 229.928 319.297 229.793 319.364 229.674L319.867 228.767C320.063 228.427 320.504 227.734 320.513 228.102Z" fill="#CE6D3E"/>
<path d="M324.756 199.038C324.756 199.038 321.888 204.06 321.419 206.079C320.945 208.116 319.765 208.524 320.071 209.884C320.225 210.567 321.377 210.488 322.253 210.852C323.708 211.459 324.018 212.301 324.811 211.545C326.386 210.037 327.615 205.224 328.093 202.806C328.568 200.404 327.198 196.216 324.756 199.038Z" fill="#1D2436"/>
<path d="M324.756 199.038C324.756 199.038 321.888 204.06 321.419 206.079C320.945 208.116 319.765 208.524 320.071 209.884C320.145 210.215 320.457 210.368 320.856 210.478C320.856 210.478 320.837 209.621 321.383 208.046C321.928 206.471 323.221 205.763 324.25 203.885C325.43 201.737 327.198 196.216 324.756 199.038Z" fill="#273150"/>
<path d="M324.615 202.997C324.615 202.997 323.727 205.42 323.807 207.118C323.807 207.118 322.998 206.52 322.998 204.856C323.001 203.278 324.615 202.997 324.615 202.997Z" fill="#273150"/>
<path d="M342.024 264.607C342.024 264.607 340.553 268.22 341.05 269.795C341.546 271.369 345.885 271.201 348.899 270.87C351.911 270.539 352.785 268.018 350.68 264.938C348.575 261.856 342.024 264.607 342.024 264.607Z" fill="#EC6141"/>
<path d="M342.069 263.498C342.069 263.498 340.599 267.111 341.095 268.686C341.591 270.26 345.93 270.092 348.945 269.761C351.956 269.43 352.83 266.909 350.725 263.829C348.617 260.744 342.069 263.498 342.069 263.498Z" fill="#13161F"/>
<path d="M335.998 226.888C335.998 226.888 337.003 233.188 338.041 237.872C338.761 241.12 339.343 249.843 340.615 256.933C341.222 260.318 338.648 259.843 341.261 263.235C342.367 264.672 343.703 262.111 346.755 262.589C349.852 263.073 350.321 264.069 351.164 262.429C352.589 259.66 349.954 258.737 349.537 254.733C349.056 250.131 348.382 242.343 346.792 237.489C345.744 234.288 345.952 228.521 345.45 223.248C345.183 220.433 345.664 218.202 344.414 217.672C340.866 216.168 333.065 212.421 335.998 226.888Z" fill="#48598B"/>
<path d="M335.998 226.888L338.556 232.489C339.276 235.737 340.882 249.926 342.153 257.012C342.76 260.398 340.106 259.197 342.72 262.589C343.826 264.026 343.706 262.111 346.761 262.589C349.859 263.073 350.327 264.069 351.17 262.429C352.595 259.66 349.96 258.737 349.543 254.733C349.062 250.131 348.388 242.343 346.798 237.489C345.75 234.288 345.958 228.521 345.456 223.248C345.189 220.433 345.67 218.202 344.42 217.672C340.866 216.168 333.066 212.421 335.998 226.888Z" fill="#273150"/>
<path d="M323.111 265.077C323.111 265.077 320.234 265.689 319.943 267.491C319.633 269.397 319.995 270.196 320.859 270.469C321.748 270.751 323.163 271.238 325.06 271.112C328.601 270.876 328.421 270.815 331.276 268.021C334.049 265.306 331.865 264.317 331.622 263.857C331.387 263.401 323.111 265.077 323.111 265.077Z" fill="#EC6141"/>
<path d="M325.667 263.318C325.667 263.318 320.146 265.597 319.889 267.237C319.619 268.962 320.403 269.847 325.06 269.743C328.55 269.663 328.366 268.971 331.133 266.465C333.838 264.013 331.896 263.679 331.654 263.26C331.418 262.846 325.667 263.318 325.667 263.318Z" fill="#13161F"/>
<path d="M327.02 219.901C327.02 219.901 325.314 239.151 325.586 241.517C325.85 243.809 325.58 249.026 325.305 249.985C325.032 250.932 324.839 260.819 324.634 261.947C324.431 263.053 324.189 262.946 324.52 263.543C324.848 264.137 326.545 263.424 328.148 263.46C331.745 263.54 332.054 264.922 332.511 264.309C332.97 263.687 332.655 261.858 332.82 261.098C332.989 260.329 333.179 257.899 333.025 257.054C332.872 256.196 333.914 243.747 333.822 241.771C333.724 239.74 334.876 231.136 335.222 228.97C335.578 226.743 337.107 216.849 332.731 215.805C328.347 214.757 327.553 215.841 327.02 219.901Z" fill="#48598B"/>
<path d="M327.02 219.9L326.392 227.118C326.392 227.118 328.898 229.542 329.545 230.755C329.799 231.233 330.461 249.494 330.642 254.068C330.703 255.64 328.898 261.057 328.898 261.057L329.934 260.769C328.978 263.511 327.67 263.45 328.151 263.462C331.748 263.542 332.057 264.924 332.514 264.311C332.973 263.689 332.658 261.86 332.823 261.1C332.992 260.331 333.182 257.901 333.029 257.055C332.875 256.198 333.917 243.749 333.825 241.773C333.727 239.741 334.879 231.138 335.225 228.972C335.581 226.744 338.562 216.634 334.187 215.589C329.796 214.538 327.553 215.84 327.02 219.9Z" fill="#273150"/>
<path d="M327.186 228.607C327.186 228.607 328.439 229.395 329.34 230.43C330.24 231.466 331.15 235.121 331.15 235.121L327.186 228.607Z" fill="#48598B"/>
<path d="M326.07 242.278C326.07 242.278 327.039 243.035 328.01 243.035C328.978 243.035 327.425 244.077 326.616 243.672C325.807 243.268 326.07 242.278 326.07 242.278Z" fill="#273150"/>
<path d="M337.962 191.887C337.962 191.887 327.667 194.791 326.886 197.328C326.417 198.842 326.089 211.612 326.356 217.378C326.536 221.272 326.83 221.223 326.83 221.223C326.83 221.223 330.67 219.593 335.489 219.18C340.854 218.72 344.38 219.177 345.75 219.076C345.968 219.06 346.969 217.957 346.92 217.743C346.157 214.379 341.025 191.271 337.962 191.887Z" fill="#F6BE4A"/>
<path opacity="0.5" d="M329.775 198.747C329.775 198.747 327.667 194.788 326.883 197.328C326.414 198.842 326.086 211.612 326.353 217.378C326.533 221.272 326.827 221.223 326.827 221.223C326.827 221.223 329.493 218.478 334.312 218.064C339.677 217.605 344.377 219.177 345.747 219.075C345.964 219.06 346.966 217.957 346.917 217.743C346.537 216.061 333.464 207.399 333.464 207.399L329.775 198.747Z" fill="#F6BE4A"/>
<path d="M331.328 193.716C331.328 193.716 330.982 194.236 331.062 194.8C331.38 197.064 332.229 202.877 333.084 202.864C333.954 202.852 334.331 202.604 335.042 198.97C335.192 198.195 336.892 192.306 336.12 191.893" stroke="#913636" stroke-miterlimit="10"/>
<path d="M333.463 204.791C333.715 204.765 333.871 204.275 333.811 203.698C333.75 203.121 333.497 202.674 333.244 202.701C332.992 202.727 332.836 203.217 332.897 203.794C332.957 204.371 333.211 204.818 333.463 204.791Z" fill="#29ACE4"/>
<path d="M330.32 190.168L331.19 193.305C331.19 193.305 331.172 195.557 333.075 195.331C334.965 195.104 334.941 194.178 335.045 192.974C335.121 192.092 334.15 188.777 334.15 188.777L330.32 190.168Z" fill="#CE6D3E"/>
<path d="M330.32 190.168L331.19 193.305C331.19 193.305 331.172 195.557 333.075 195.331L332.293 193.422L330.32 190.168Z" fill="#F6874E"/>
<path d="M329.775 198.747C329.775 198.747 329.86 209.231 329.217 211.339C328.574 213.447 330.789 216.72 329.79 217.25C328.224 218.086 324.508 222.213 324.413 221.628C324.1 216.845 325.755 209.201 325.255 205.935C324.756 202.665 325.102 199.323 325.378 198.667C326.172 196.771 328.632 194.905 329.134 195.334C329.634 195.763 329.775 198.747 329.775 198.747Z" fill="#972B28"/>
<path d="M330.86 194.88C330.829 194.617 330.863 193.881 330.63 193.937C329.977 194.087 327.952 194.908 327.998 196.057C328.062 197.638 329.766 206.094 329.766 206.094C329.766 206.094 331.506 200.248 330.86 194.88Z" fill="#F4E8D8"/>
<path d="M326.205 213L326.668 214.213C326.668 214.213 325.255 216.095 324.676 216.033L324.808 214.664C324.805 214.667 325.617 213.87 326.205 213Z" fill="#F4E8D8"/>
<path d="M336.644 193.345C336.442 194.653 337.012 199.997 337.49 205.346C338.001 211.109 341.402 215.417 342.456 216.073C352.757 210.923 354.571 213.907 354.571 213.907C354.571 213.907 354.427 208.349 352.506 205.907C349.932 202.632 349.715 204.55 346.93 196.685C345.808 193.523 342.897 188.728 340.713 189.895C338.703 190.967 336.846 192.037 336.644 193.345Z" fill="#972B28"/>
<path d="M336.644 193.345C336.442 194.653 337.012 199.997 337.49 205.346C338.001 211.109 341.402 215.417 342.456 216.073C349.099 213.383 345.223 212.09 345.223 212.09L341.669 211.281L343.771 210.714L341.105 208.612C339.981 205.45 336.846 192.037 336.644 193.345Z" fill="#C93F37"/>
<path d="M335.514 192.132C334.953 193.063 335.437 201.541 337.367 203.98C337.367 203.98 338.722 192.545 338.409 191.614C338.097 190.68 336.071 191.2 335.514 192.132Z" fill="#F4E8D8"/>
<path d="M342.214 207.01L342.128 208.3C342.128 208.3 346.363 210.411 347.781 209.586L347.328 208.364C345.713 208.784 342.214 207.01 342.214 207.01Z" fill="#F4E8D8"/>
<path d="M342.689 215.62C342.334 215.779 342.223 216.297 342.508 216.573C342.57 216.631 342.637 216.671 342.714 216.674C343.06 216.686 348.458 213.812 351.253 213.545C353.201 213.358 354.194 213.653 353.983 214.314C353.918 214.52 354.678 214.241 354.706 214.017L354.681 214.063C354.718 213.766 354.697 213.527 354.516 213.303C354.127 212.822 352.941 211.98 350.808 212.501C348.523 213.064 344.206 214.946 342.689 215.62Z" fill="#F4E8D8"/>
<path d="M346.258 196.403C346.258 196.403 347.278 201.798 349.062 203.529C350.845 205.264 352.677 208.45 352.999 212.399" stroke="#C93F37" stroke-width="0.25" stroke-miterlimit="10"/>
<path d="M329.79 217.253L330.139 218.159C330.139 218.159 326.315 221.211 325.776 221.956C325.237 222.703 324.284 222.501 324.413 221.631C324.545 220.761 329.278 217.231 329.79 217.253Z" fill="#F4E8D8"/>
<path opacity="0.5" d="M338.191 210.187C338.191 210.187 336.984 208.616 335.97 207.804C335.565 207.482 333.868 207.035 333.868 207.035C333.868 207.035 334.637 207.761 335.93 208.772C337.22 209.783 338.191 210.187 338.191 210.187Z" fill="#F6BE4A"/>
<path opacity="0.5" d="M327.768 199.644L326.233 204.816L326.153 217.179C326.153 217.179 324.511 222.216 324.416 221.634C324.103 216.851 325.758 209.207 325.258 205.941C324.759 202.671 325.105 199.329 325.381 198.673C326.175 196.776 328.635 194.911 329.137 195.339C329.634 195.762 327.768 199.644 327.768 199.644Z" fill="#972B28"/>
<path d="M341.748 182.103C340.682 181.448 341.632 180.621 341.708 180.28C341.84 179.692 341.396 179.922 341.506 179.147C341.61 178.43 340.624 172.887 340.029 171.328C339.435 169.768 339.555 167.817 341.543 167.345C344.726 166.588 344.729 167.044 345.41 168.898C346.301 171.328 347.419 174.863 347.907 177.155C348.314 179.079 348.878 181.8 347.462 182.483C346.041 183.164 342.646 182.655 341.748 182.103Z" fill="#C93F37"/>
<path d="M344.157 182.624C343.09 181.969 344.04 181.142 344.117 180.801C344.248 180.213 343.804 180.443 343.915 179.668C344.019 178.951 342.842 171.049 342.245 169.49C341.65 167.93 339.552 167.814 341.54 167.342C344.723 166.585 344.726 167.042 345.407 168.895C346.298 171.325 347.417 174.861 347.904 177.152C348.311 179.076 348.875 181.797 347.459 182.48C346.041 183.164 345.054 183.176 344.157 182.624Z" fill="#972B28"/>
<path d="M346.899 195.401C346.899 195.401 348.026 190.465 347.775 188.378C347.527 186.292 348.664 182.542 348.333 181.678C347.885 180.501 345.986 182.385 344.503 182.235C342.11 181.996 341.448 181.993 341.237 183.295C340.881 185.52 340.302 190.088 339.913 190.97C339.527 191.856 344.163 196.066 345.541 196.418C346.792 196.737 346.899 195.401 346.899 195.401Z" fill="#273150"/>
<path d="M346.899 195.401C346.899 195.401 348.026 190.465 347.775 188.378C347.527 186.292 348.664 182.542 348.333 181.678C347.885 180.501 345.986 182.385 344.503 182.235C343.532 182.284 344.007 187.462 343.038 188.614C342.07 189.766 341.543 189.503 339.916 190.974C339.785 191.35 340.449 192.266 341.418 193.259C342.796 194.675 344.736 196.216 345.545 196.421C346.792 196.737 346.899 195.401 346.899 195.401Z" fill="#1D2436"/>
<path d="M341.457 167.731C341.442 167.728 341.429 167.725 341.417 167.719C341.224 167.651 340.296 167.866 339.717 167.241C339.257 166.744 337.446 165.479 337.244 164.452L337.066 163.552C337.051 163.472 337.066 163.389 337.109 163.319L337.118 163.3C337.238 163.104 337.514 163.086 337.658 163.264L338.693 164.207L339.419 164.054L339.361 162.375L338.39 160.319C338.372 160.267 338.365 160.212 338.375 160.16L338.494 159.32C338.513 159.192 338.604 159.088 338.727 159.051L338.813 159.026C338.862 159.011 338.908 158.986 338.945 158.953L339.039 158.864C339.187 158.726 339.422 158.754 339.536 158.922L339.609 159.032C339.704 159.17 339.885 159.219 340.035 159.14L340.124 159.094C340.176 159.066 340.231 159.054 340.29 159.057L340.59 159.069C340.718 159.075 340.832 159.152 340.881 159.271L341.76 161.361C341.892 161.677 342.361 161.603 342.391 161.263C342.425 160.898 342.459 160.571 342.486 160.46C342.502 160.399 342.514 160.332 342.523 160.261C342.56 160.013 342.851 159.893 343.053 160.047C343.121 160.099 343.167 160.172 343.182 160.258L343.792 163.895C343.795 163.916 343.798 163.935 343.795 163.956C343.789 164.247 343.715 166.603 343.072 167.256C342.447 167.881 341.604 167.758 341.457 167.731Z" fill="#F6874E"/>
<path d="M343.152 167.813C342.79 167.896 341.237 168.245 340.37 168.279C340.241 168.285 340.121 168.212 340.063 168.095L339.99 167.948C339.889 167.746 340.02 167.504 340.244 167.479C340.94 167.4 342.22 167.219 342.658 166.937C342.974 166.735 343.237 166.591 343.421 166.502C343.574 166.425 343.758 166.484 343.847 166.631L343.954 166.815C344.034 166.952 344.006 167.124 343.884 167.228L343.286 167.743C343.25 167.777 343.204 167.801 343.152 167.813Z" fill="#F4E8D8"/>
<path d="M337.005 186.564C335.915 190.366 334.548 190.945 334.548 190.945C328.702 192.419 325.271 189.453 325.151 186.018C324.894 182.556 325.488 181.186 329.499 180.368C335.204 179.207 337.964 183.227 337.005 186.564Z" fill="#1D2436"/>
<path d="M336.84 185.554C335.912 188.774 331.129 187.313 331.129 187.313C330.17 186.951 326.843 185.906 326.395 184.016C326.012 182.404 325.482 180.581 330.436 180.155C334.947 179.766 337.655 182.72 336.84 185.554Z" fill="#3D4C6D"/>
<path d="M329.578 180.762C329.578 180.762 326.125 181.298 325.681 181.911C325.237 182.527 326.147 189.963 327.36 191.675C328.577 193.394 334.971 191.445 336.255 189.843C337.303 188.532 336.916 188.005 336.889 186.133C336.861 184.184 335.25 183.201 334.986 182.502C334.536 181.316 329.578 180.762 329.578 180.762Z" fill="#CE6D3E"/>
<path d="M325.828 185.018C325.384 185.633 326.147 189.963 327.36 191.678C328.172 192.818 332.449 192.144 331.607 190.272C331.276 189.54 330.584 186.712 328.981 185.667C327.048 184.405 326.07 184.684 325.828 185.018Z" fill="#F6874E"/>
<path d="M328.169 185.679C328.224 186.132 328.022 186.359 327.786 186.39C327.55 186.42 327.363 186.243 327.311 185.789C327.259 185.336 327.406 184.944 327.642 184.913C327.881 184.882 328.117 185.226 328.169 185.679Z" fill="#34273A"/>
<path d="M332.076 184.432C332.131 184.886 331.929 185.112 331.693 185.143C331.457 185.174 331.27 184.996 331.218 184.542C331.163 184.089 331.313 183.697 331.549 183.666C331.788 183.639 332.024 183.979 332.076 184.432Z" fill="#34273A"/>
<path d="M331.58 182.845C331.58 182.845 331.071 182.664 330.66 182.971" stroke="#34273A" stroke-miterlimit="10" stroke-linecap="round" stroke-linejoin="round"/>
<path d="M327.728 183.979C327.253 184.098 326.962 184.481 326.962 184.481" stroke="#34273A" stroke-miterlimit="10" stroke-linecap="round" stroke-linejoin="round"/>
<path d="M337.52 185.125C337.425 186.249 336.797 187.175 336.117 187.193C335.437 187.211 334.965 186.311 335.063 185.186C335.161 184.065 335.789 183.142 336.466 183.127C337.143 183.112 337.615 184.006 337.52 185.125Z" fill="#CE6D3E"/>
<path d="M331.699 180.262C331.699 180.262 331.307 181.516 328.442 182.913C327.002 183.614 326.015 184.687 325.237 184.898C323.316 185.422 324.75 181.108 327.642 179.619C330.519 178.139 331.699 180.262 331.699 180.262Z" fill="#1D2436"/>
<path d="M331.873 180.529C331.873 180.529 331.83 180.93 330.648 181.549C328.601 182.621 326.401 183.32 325.43 183.583C323.892 184 325.375 180.86 327.645 179.582C330.059 178.219 331.873 180.529 331.873 180.529Z" fill="#3D4C6D"/>
<path d="M329.637 180.891C329.637 180.891 327.906 182.974 326.27 183.526C326.27 183.526 330.136 182.294 329.637 180.891Z" fill="#1D2436"/>
<path d="M334.374 181.427C334.374 181.427 334.469 184.221 334.947 184.984L335.933 186.078L335.608 182.098L334.374 181.427Z" fill="#3D4C6D"/>
<path d="M192.504 153.558C192.504 153.558 189.556 149.486 185.346 149.627C181.137 149.768 178.891 152.433 182.399 153.836C185.907 155.243 191.1 155.803 192.504 153.558Z" fill="#273150"/>
<path d="M187.029 154.541C187.029 154.541 179.871 153.839 180.432 156.505C180.993 159.171 185.766 158.19 186.747 157.488C187.73 156.787 187.029 154.541 187.029 154.541Z" fill="#273150"/>
<path d="M190.117 150.894C193.064 150.051 201.122 147.971 204.854 154.966C208.586 161.961 205.556 165.352 205.556 165.352C205.556 165.352 208.923 168.72 207.1 174.195C205.277 179.67 195.246 178.558 195.246 178.558C195.246 178.558 182.365 189.104 175.94 175.598C173.829 171.162 179.449 168.018 179.449 168.018C179.449 168.018 174.712 167.558 175.659 162.966C176.642 158.192 183.799 156.93 183.799 156.93C186.468 154.402 187.17 151.737 190.117 150.894Z" fill="#273150"/>
<path d="M154.735 234.015C154.726 235.645 160.897 236.193 162.536 238.347C164.901 241.454 162.95 241.638 183.897 242.573C200.844 243.329 214.849 237.26 214.803 236.23C214.49 232.842 193.009 224.051 180.254 224.425C171.375 224.686 161.865 228.886 157.284 231.769C155.274 233.032 154.741 232.961 154.735 234.015Z" fill="#EC5E4D"/>
<path d="M199.851 219.223C197.142 221.061 196.199 225.531 197.271 230.366C198.343 235.198 198.3 246.755 199.673 248.872C201.043 250.989 205.173 251.7 208.132 250.116C211.616 248.25 211.708 244.046 211.739 239.916C211.769 235.786 212.296 228.859 211.426 223.5C210.553 218.141 202.559 217.384 199.851 219.223Z" fill="#273150"/>
<path d="M200.381 246.583C199.317 248.226 199.014 251.896 198.637 254.537C198.129 258.091 198.273 260.683 199.048 265.276C199.835 269.942 211.119 262.8 211.499 259.075C211.879 255.349 211.585 249.494 211.346 246.268C211.107 243.042 203.218 242.202 200.381 246.583Z" fill="#273150"/>
<path d="M206.021 252.895C205.513 256.449 205.988 258.211 206.763 262.804C207.55 267.47 211.12 262.804 211.496 259.081C211.876 255.355 211.647 251.685 211.404 248.458C211.165 245.232 206.398 250.251 206.021 252.895Z" fill="#48598B"/>
<path d="M198.361 257.895C197.795 261.578 199.112 269.688 201.955 280.488C203.683 287.063 203.009 292.057 206.064 291.876C209.119 291.696 209.655 291.705 209.808 288.047C209.964 284.339 211.386 261.467 211.616 257.61C211.616 257.61 207.388 257.392 203.778 257.454C200.656 257.509 198.361 257.895 198.361 257.895Z" fill="#F6874E"/>
<path d="M198.361 257.895C197.795 261.578 199.112 269.688 201.955 280.488C203.683 287.063 203.009 292.057 206.064 291.877C209.119 291.696 209.655 291.705 209.808 288.047C209.866 286.665 208.132 284.199 207.136 274.621C206.413 267.666 205.945 257.466 205.945 257.466C202.139 257.288 198.361 257.895 198.361 257.895Z" fill="#CE6D3E"/>
<path d="M203.61 288.096C203.196 289.049 202.923 290.642 201.872 293.243C200.972 295.474 205.571 296.332 207.237 297.916C205.837 297.177 219.232 300.581 222.021 300.287C228.323 299.622 215.393 293.154 218.972 295.125C218.972 295.125 211.481 291.322 210.415 288.283C209.348 285.244 204.023 287.143 203.61 288.096Z" fill="#CE6D3E"/>
<path d="M202.179 291.368C202.378 291 202.734 290.675 202.792 291.034C202.85 291.392 203.423 292.759 204.22 293.157C205.016 293.559 214.116 297.955 217.333 296.996C219.297 296.414 218.05 295.081 216.589 294.003C215.62 293.289 213.935 291.993 213.935 291.993C213.935 291.993 217.802 294.465 219.677 295.428C221.552 296.39 225.474 299.76 225.835 301.114C226.197 302.468 212.992 302.358 210.951 301.528C208.91 300.697 206.046 299.199 204.762 298.436C203.748 297.836 202.51 297.986 202.13 297.581C201.266 296.671 201.582 292.471 202.179 291.368Z" fill="#992C29"/>
<path d="M178.361 236.392C178.361 236.392 178.967 221.995 179.881 217.825C180.797 213.655 196.282 211.832 196.805 219.271C197.329 226.711 194.734 237.679 193.285 242.643C191.839 247.606 191.146 250.646 183.756 249.69C176.161 248.703 177.95 245.82 178.361 236.392Z" fill="#273150"/>
<path d="M186.388 240.394C182.515 239.943 177.987 241.157 177.656 245.697C177.423 248.896 175.036 251.277 173.075 257.576C171.114 263.875 187.166 267.494 188.361 259.546C189.553 251.598 194.011 241.282 186.388 240.394Z" fill="#273150"/>
<path d="M187.482 249.864C187.482 249.864 185.34 255.839 183.376 262.138C181.413 268.438 187.163 267.494 188.358 259.546C188.8 256.611 189.685 253.354 190.243 250.367C191.199 245.265 187.482 249.864 187.482 249.864Z" fill="#48598B"/>
<path d="M188.358 259.546C187.163 267.494 178.854 288.834 178.115 292.811C177.374 296.791 174.917 299.313 174.917 299.313C174.917 299.313 171.044 301.237 170.894 292.321C170.78 285.51 171.111 263.873 173.075 257.573C173.075 257.573 177.585 256.354 181.057 257.16C184.525 257.972 188.358 259.546 188.358 259.546Z" fill="#F6874E"/>
<path d="M179.148 279.596C177.812 285.378 177.402 288.914 176.66 292.894C175.919 296.874 174.917 299.315 174.917 299.315C174.917 299.315 171.044 301.24 170.894 292.324C170.78 285.513 171.111 263.875 173.075 257.576C173.075 257.576 177.585 256.357 181.057 257.163C181.973 257.374 184.623 258.241 184.623 258.241C184.623 258.241 183.045 262.72 179.148 279.596Z" fill="#CE6D3E"/>
<path d="M175.53 291.095C172.16 291.006 170.955 295.054 170.955 295.054C170.955 295.054 168.651 298.859 168.985 300.21C169.197 301.028 170.091 303.103 170.091 303.103C170.091 303.103 171.354 309.57 171.593 310.425C171.954 311.703 184.513 314.194 185.386 314.491C186.263 314.791 184.804 307.453 184.804 307.453C184.804 307.453 180.104 300.857 178.98 297.961C177.871 295.121 177.206 291.138 175.53 291.095Z" fill="#CE6D3E"/>
<path d="M171.029 294.949C171.069 294.885 170.995 294.809 170.928 294.848C170.508 295.09 169.935 295.59 169.819 295.921C169.212 297.661 168.709 299.297 168.903 300.314C168.976 300.71 169.393 301.715 169.846 303.633C170.349 305.744 170.171 309.583 171.4 311.157C172.628 312.732 182.803 315.922 185.028 315.435C187.252 314.947 185.785 308.397 185.573 307.107C185.349 305.747 180.276 299.726 178.097 295.234C178.097 295.234 178.113 295.734 178.474 296.861C179.32 299.502 181.991 304.775 178.903 305.312C175.946 305.826 171.519 301.767 171.28 299.738C171.044 297.738 170.67 296.144 170.713 295.731C170.741 295.473 170.906 295.158 171.029 294.949Z" fill="#992C29"/>
<path d="M208.739 189.371C208.739 189.371 210.666 193.801 212.581 197.052C214.297 199.963 221.776 208.765 222.594 210.043C224.322 212.742 222.061 213.76 219.683 213.055C218.415 212.678 210.639 204.056 208.142 200.769C206.064 198.033 204.002 193.878 203.328 192.695C201.833 190.076 205.151 185.017 208.739 189.371Z" fill="#F6874E"/>
<path d="M208.739 189.371C208.739 189.371 209.14 197.439 211.04 200.671C212.741 203.566 218.571 209.495 219.386 210.773C221.108 213.469 222.297 213.938 219.919 213.233C218.651 212.856 210.642 204.054 208.142 200.766C206.064 198.03 204.002 193.875 203.328 192.693C201.686 189.819 205.338 185.247 208.739 189.371Z" fill="#CE6D3E"/>
<path d="M209.367 190.336C209.367 190.336 204.199 181.433 200.923 181.123C197.7 180.817 197.709 183.74 198.843 186.73C200.494 191.093 204.934 196.804 204.934 196.804C204.934 196.804 206.303 191.911 209.367 190.336Z" fill="#EC5E4D"/>
<path d="M223.645 206.118L221.411 206.829C221.313 206.86 221.225 206.912 221.148 206.976L218.948 208.9C218.562 209.237 218.299 209.688 218.191 210.19L218.283 212.7C218.259 212.816 218.262 212.936 218.292 213.049L218.678 215.522C218.767 215.846 219.677 216.128 220.011 216.128C220.011 216.128 220.75 216.876 221.283 216.977C221.819 217.078 222.536 216.695 222.677 216.582C222.818 216.471 222.233 215.601 222.233 215.601C222.233 215.601 222.94 216.664 223.161 216.716C223.382 216.769 225.263 216.741 225.1 216.367L224.978 214.851C224.871 214.605 224.451 214.608 224.613 214.397L225.912 212.231C226.219 211.833 227.466 211.603 227.748 212.019L228.06 212.482C228.4 213.187 228.164 213.257 228.409 213.257L229.813 212.602C230.22 212.602 229.662 210.267 229.662 210.267L228.492 208.772C228.492 208.772 227.913 208.116 227.665 207.99L224.197 206.158C224.028 206.076 223.829 206.06 223.645 206.118Z" fill="#7A4630"/>
<path d="M227.668 210.509C228.986 210.886 229.17 211.793 228.98 212.17C228.793 212.546 228.919 213.986 228.919 213.986L228.637 214.955C228.637 214.955 226.688 216.692 226.394 216.772C226.1 216.854 225.04 216.134 225.04 216.134C225.04 216.134 223.857 215.23 223.799 214.982C223.741 214.734 224.454 214.023 224.454 214.023C224.454 214.023 224.225 213.809 224.173 213.579C224.12 213.349 224.16 213.08 224.35 212.975C224.598 212.837 224.969 212.776 224.969 212.776C224.969 212.776 224.868 212.605 224.791 212.516C224.715 212.427 224.537 211.676 225.027 211.664C225.027 211.664 226.063 211.545 226.348 211.581C226.633 211.618 227.411 211.783 226.66 211.495C225.965 211.229 225.659 211.214 225.637 210.806C225.585 209.957 226.351 210.132 227.668 210.509Z" fill="#CE6D3E"/>
<path d="M197.761 180.443C197.761 180.443 199.192 180.78 200.525 181.632C202.921 183.161 205.761 184.678 205.828 188.25C205.883 191.096 205.353 195.334 204.98 199.522C204.799 201.547 203.61 203.407 201.585 204.25C195.417 206.817 191.097 207.85 187.767 205.705C186.529 204.908 186.504 205.73 184.979 200.938C183.848 197.384 183.036 195.934 181.909 192.696C178.495 182.901 185.934 181.338 190.071 180.86C193.64 180.446 197.761 180.443 197.761 180.443Z" fill="#F6BE4A"/>
<path opacity="0.5" d="M202.443 199.442C202.443 199.442 191.1 207.85 187.77 205.705C186.532 204.908 186.507 205.729 184.982 200.937C183.851 197.383 183.039 195.934 181.912 192.696C178.498 182.9 185.619 200.162 188.68 195.177C190.702 191.881 193.993 190.392 196.983 189.95C200.439 189.439 204.321 191.409 204.538 192.536C205.139 195.661 202.443 199.442 202.443 199.442Z" fill="#F6BE4A"/>
<path d="M204.86 195.037C204.86 195.037 203.405 192.491 200.375 192.129C200.375 192.129 202.679 191.28 204.86 193.342V195.037Z" fill="#F6BE4A"/>
<path d="M196.297 184.292C195.166 184.613 191.097 183.274 191.128 181.957L191.296 174.821C191.327 173.504 192.421 172.459 193.741 172.489L194.477 172.508C195.794 172.538 196.839 173.632 196.808 174.953L197.991 181.788C197.96 183.103 197.427 183.967 196.297 184.292Z" fill="#F6874E"/>
<path d="M194.56 179.402C193.709 179.454 191.15 180.042 191.181 178.724L191.349 171.589C191.38 170.271 192.474 169.226 193.794 169.257L194.53 169.275C195.847 169.306 197.054 174.57 197.024 175.89C197.024 175.887 195.409 179.349 194.56 179.402Z" fill="#CE6D3E"/>
<path d="M179.01 229.352L173.615 234.401C173.048 234.876 172.227 234.542 172.322 233.865C172.656 231.546 173.716 227.612 179.01 229.352Z" fill="#EC5E4D"/>
<path d="M202.948 201.268C203.907 202.963 212.443 216.413 214.802 236.23C214.802 236.23 200.295 229.3 190.509 229.962C173.376 231.123 174.5 232.351 174.108 233.62C173.847 234.462 172.956 234.922 172.113 234.662C171.896 234.594 171.651 234.511 171.381 234.413C167.557 233.019 160.921 230.933 154.873 233.283C154.873 233.283 169.632 223.249 180.392 210.307C189.645 199.176 201.989 199.574 202.948 201.268Z" fill="#F6BE4A"/>
<path opacity="0.5" d="M204.523 219.019C202.035 223.498 196.33 229.571 190.509 229.966C173.376 231.127 174.5 232.356 174.108 233.625C173.848 234.467 172.956 234.927 172.113 234.666C171.896 234.599 171.651 234.516 171.381 234.418C167.557 233.024 160.921 230.938 154.873 233.288C154.873 233.288 169.632 223.253 180.392 210.311C187.323 201.975 195.984 200.106 200.301 200.403C201.747 200.501 207.011 214.54 204.523 219.019Z" fill="#F6BE4A"/>
<path opacity="0.5" d="M173.636 232.869C173.636 232.869 174.864 221.508 178.685 217.933C178.685 217.933 177.196 220.65 177.257 222.694L179.105 221.379C179.105 221.379 177.239 224.324 175.983 227.293C174.883 229.897 174.436 232.55 173.636 232.869Z" fill="#F6BE4A"/>
<path opacity="0.5" d="M205.766 218.021C205.766 218.021 206.263 220.758 202.531 223.993C198.799 227.228 198.799 227.228 198.799 227.228C198.799 227.228 203.775 226.233 204.771 224.492C205.766 222.749 205.766 218.021 205.766 218.021Z" fill="#F6BE4A"/>
<path d="M175.986 188.274C175.986 188.274 168.32 195.162 167.132 196.945C165.934 198.743 166.121 198.915 167.285 200.609C168.443 202.298 171.89 203.538 174.007 201.654C176.097 199.791 182.399 194.056 183.3 192.999C184.194 191.945 184.158 189.377 182.941 188.139C181.719 186.898 178.336 186.617 175.986 188.274Z" fill="#F6874E"/>
<path d="M175.986 188.274C175.986 188.274 165.477 197.392 166.877 197.708C168.278 198.026 169.028 196.77 170.401 195.627C173.407 193.127 176.893 189.303 176.893 189.303C176.893 189.303 178.336 186.616 175.986 188.274Z" fill="#CE6D3E"/>
<path d="M181.608 195.254C181.608 195.254 189.777 187.622 187.764 184.405C185.84 181.331 183.024 182.097 179.74 184.386C176.385 186.727 174.834 189.052 174.834 189.052C174.834 189.052 178.309 190.41 181.608 195.254Z" fill="#EC5E4D"/>
<path d="M183.045 184.598C184.191 184.215 187.764 184.405 187.764 184.405C185.84 181.331 183.024 182.097 179.74 184.386C176.385 186.727 174.834 189.052 174.834 189.052C174.834 189.052 175.18 189.255 176.103 189.825C176.336 189.972 181.9 184.981 183.045 184.598Z" fill="#C93F37"/>
<path d="M152.753 214.235C152.753 214.235 158.89 211.79 161.66 209.804C164.102 208.055 168.502 206.314 171.081 204.075C174.862 200.793 172.436 198.489 170.594 196.957C169.041 195.664 166.608 197.147 164.053 199.019C161.507 200.885 150.955 207.733 148.841 210.276C146.739 212.801 148.88 217.274 152.753 214.235Z" fill="#F4864D"/>
<path d="M156.653 205.815C158.954 203.888 169.469 196.47 169.469 196.47C168.578 195.897 166.608 197.147 164.052 199.022C161.908 200.594 154.067 205.711 150.394 208.802C149.707 209.375 153.47 207.512 156.653 205.815Z" fill="#CE6D3E"/>
<path d="M153.51 211.603C153.268 210.157 151.448 207.482 148.417 207.724C145.387 207.966 139.934 208.331 138.236 209.541C136.539 210.754 137.387 211.48 138.114 211.722C138.84 211.964 141.75 211.48 143.083 211.48C144.416 211.48 143.567 214.146 141.386 215.966C139.204 217.783 137.749 222.149 136.9 224.33C136.052 226.512 136.536 226.996 137.384 226.876C138.233 226.754 139.93 223.12 140.899 221.665C141.867 220.209 139.082 225.663 139.082 226.757C139.082 227.847 140.537 227.725 140.537 227.725L143.203 222.755C143.203 222.755 142.253 225.645 142.617 225.887C142.982 226.129 144.434 225.764 144.434 225.764L145.749 222.875L146.962 220.209C146.962 220.209 147.204 223.966 147.688 223.966C148.172 223.966 149.263 222.268 149.263 222.268C149.263 222.268 149.811 219.624 150.596 218.389C151.448 217.056 153.874 213.784 153.51 211.603Z" fill="#F4864D"/>
<path d="M203.54 162.85C205.599 172.747 201.561 176.12 194.578 175.902C189.333 175.74 185.034 172.416 184.688 165.85C184.342 159.281 187.108 153.894 192.289 153.027C199.131 151.881 202.201 156.422 203.54 162.85Z" fill="#F6874E"/>
<path d="M202.802 164.615C203.286 173.402 197.332 175.231 194.076 175.161C189.513 175.06 185.163 172.366 184.862 166.554C184.562 160.742 187.746 155.319 192.256 154.556C202.762 152.776 202.612 161.162 202.802 164.615Z" fill="#CE6D3E"/>
<path d="M185.009 170.728C186.193 170.545 186.895 168.732 186.578 166.679C186.26 164.625 185.043 163.109 183.859 163.292C182.675 163.476 181.973 165.289 182.29 167.342C182.608 169.395 183.825 170.912 185.009 170.728Z" fill="#CE6D3E"/>
<path d="M184.688 163.129L184.92 164.128C184.92 164.128 184.859 158.625 190.92 156.493C196.315 154.593 201.585 156.615 201.585 156.615C201.585 156.615 197.39 150.527 190.056 153.68C183.922 156.318 184.688 163.129 184.688 163.129Z" fill="#F6BE4A"/>
<path d="M200.99 156.094C200.99 156.094 201.992 158.297 203.31 159.483C204.306 160.377 205.2 160.733 205.2 160.733L205.093 160.209L205.785 159.921C205.785 159.921 203.693 159.118 201.514 155.944L200.99 156.094Z" fill="#EE5D4F"/>
<path d="M200.896 155.843C200.896 155.843 201.082 158.257 201.913 159.82C202.541 160.999 203.261 161.643 203.261 161.643L203.34 161.116L204.091 161.082C204.091 161.082 202.4 159.611 201.438 155.883L200.896 155.843Z" fill="#EE5D4F"/>
<path d="M201.53 157.262C202.106 157.314 203.414 154.519 202.124 154.106C200.908 153.717 199.471 153.499 199.453 154.489C199.434 155.481 200.954 157.209 201.53 157.262Z" fill="#EE5D4F"/>
<path d="M202.449 155.72C202.449 155.72 202.584 154.409 202.186 154.332C201.787 154.256 201.993 154.887 201.87 155.742C201.754 156.597 202.379 156.269 202.449 155.72Z" fill="#F7BC4B"/>
<path d="M201.236 156.529C201.236 156.529 201.309 155.929 202.302 155.595C203.295 155.261 204.018 155.129 204.465 155.604C204.912 156.079 204.704 157.593 204.202 158.248C203.696 158.904 201.971 157.841 201.573 157.436C201.175 157.035 201.236 156.529 201.236 156.529Z" fill="#EE5D4F"/>
<path d="M204.437 156.863C204.437 156.863 204.3 158.083 203.724 158.135C202.869 158.212 203.956 156.122 204.094 155.782C204.232 155.442 204.802 156.061 204.437 156.863Z" fill="#F7BC4B"/>
<path d="M190.607 164.572C190.607 165.494 190.206 165.583 189.716 165.583C189.222 165.583 188.824 165.491 188.824 164.572C188.824 163.653 189.225 162.905 189.716 162.905C190.209 162.905 190.607 163.65 190.607 164.572Z" fill="#273150"/>
<path d="M198.824 163.858C198.824 164.78 198.423 164.869 197.93 164.869C197.436 164.869 197.038 164.777 197.038 163.858C197.038 162.939 197.44 162.191 197.93 162.191C198.426 162.188 198.824 162.936 198.824 163.858Z" fill="#273150"/>
<path d="M196.852 158.585C198.065 158.282 199.033 159.434 199.033 159.434" stroke="#273150" stroke-miterlimit="10" stroke-linecap="round" stroke-linejoin="round"/>
<path d="M190.549 159.17C189.52 158.99 188.64 160.197 188.64 160.197" stroke="#273150" stroke-miterlimit="10" stroke-linecap="round" stroke-linejoin="round"/>
<path d="M116.71 282.002C116.71 282.002 118.625 288.905 120.025 290.575L121.876 287.186C121.876 287.189 119.979 283.54 116.71 282.002Z" fill="#992C29"/>
<path d="M117.504 284.952C117.504 284.952 116.042 290.479 116.428 292.505L119.354 291.797C119.358 291.794 119.422 288.227 117.504 284.952Z" fill="#992C29"/>
<path d="M44.458 305.493C44.458 305.493 42.3654 320.87 42.779 324.498C43.1926 328.126 40.4811 332.097 38.845 334.352C37.1966 336.619 40.3402 341.374 40.3402 341.374C40.3402 341.374 44.6173 342.992 48.9405 341.843C52.7182 340.838 51.9921 338.598 49.7493 337.354C47.4851 336.098 54.8231 327.329 54.8231 327.329C54.8231 327.329 59.0789 310.677 59.5385 308.207C60.0011 305.738 47.3411 297.496 44.458 305.493Z" fill="#1D2538"/>
<path d="M112.681 285.397C108.931 285.896 94.9475 289.236 92.7967 282.048C90.6336 274.817 86.7118 264.366 86.5831 259.743C86.5831 259.743 84.8337 256.342 83.3752 252.258C81.9107 248.155 82.741 247.554 84.9623 248.82C87.1653 250.073 91.1698 254.488 91.1698 254.488C91.1698 254.488 96.9636 250.968 104.626 250.885C112.056 250.805 110.736 250.526 113.239 254.166L114.991 257.432C114.991 257.432 120.905 255.729 124.486 255.594C128.016 255.462 129.735 256.722 130.292 260.993C130.85 265.258 130.636 267.399 129.6 269.682C128.558 271.977 125.167 276.171 121.545 279.195C121.545 279.198 116.37 284.906 112.681 285.397Z" fill="#1D2538"/>
<path d="M129.245 257.46C130.452 259.326 127.661 261.112 126.438 259.237C125.21 257.353 121.487 256.4 123.751 255.757C125.311 255.315 128.031 255.585 129.245 257.46Z" fill="#121721"/>
<path d="M101.063 253.057C101.063 253.057 100.634 247.665 100.861 243.663C101.079 239.846 103.085 240.624 104.878 243.869C106.744 247.248 109.229 253.667 109.664 254.945C110.099 256.219 102.791 257.555 101.063 253.057Z" fill="#1D2538"/>
<path d="M103.306 244.598C102.852 240.722 103.505 241.926 105.294 245.165C107.157 248.535 108.729 252.071 109.161 253.351C109.596 254.626 103.71 248.042 103.306 244.598Z" fill="#273150"/>
<path d="M102.634 331.085C102.218 329.587 99.5521 329.339 99.4694 328.965C98.0876 322.623 98.0753 316.287 97.9344 314.798C97.6433 311.74 99.7605 306.001 99.1753 299.417C98.6115 293.072 87.6183 298.302 88.1116 305.842C88.3965 310.196 90.2685 324.939 90.8139 328.947C90.8905 329.513 91.0897 330.053 91.3961 330.543L95.1309 334.557C95.7897 335.807 96.5832 334.845 99.3897 334.232C102.156 333.628 103.198 333.117 102.634 331.085Z" fill="#273150"/>
<path d="M123.932 332.445C123.245 329.17 118.558 329.663 118.558 329.663C118.239 329.253 117.24 328.511 117.099 328.079C116.042 324.801 115.494 317.046 115.172 315.576C114.504 312.515 114.308 303.084 112.932 296.01C111.55 288.901 102.092 295.912 102.751 303.023C103.22 308.087 109.798 327.782 110.454 329.676C110.454 329.676 116.453 335.8 119.026 335.341C121.572 334.89 124.357 334.464 123.932 332.445Z" fill="#273150"/>
<path d="M100.756 278.907C100.756 278.907 95.1219 276.603 80.8626 281.383C71.0796 284.661 64.1461 284.238 52.9568 286.533C45.6586 288.031 41.795 309.436 44.6475 313.86C46.8413 317.337 53.8821 314.785 62.3843 314.295C83.3995 313.085 88.5683 315.377 90.6242 314.902C100.851 312.542 108.116 309.5 111.547 306.482C112.785 305.391 113.502 302.187 114.51 298.835C115.969 293.981 118.383 288.457 115.561 283.708C113.643 280.485 106.323 279.125 100.756 278.907Z" fill="#1D2538"/>
<path d="M107.543 285.727L102.126 294.288C102.126 294.288 96.1146 302.094 96.5895 302.116L101.296 311.902C101.296 311.902 108.11 309.5 111.538 306.479C112.776 305.388 113.493 302.183 114.501 298.831C115.959 293.978 118.374 288.454 115.552 283.705L107.543 285.727Z" fill="#273150"/>
<path d="M90.5599 275.623C90.5599 275.623 90.2872 276.744 90.2627 278.818C90.2627 278.818 94.5674 282.945 106.863 285.672C113.104 287.054 117.988 286.475 117.988 286.475L117.789 282.663C117.783 282.666 104.111 283.399 90.5599 275.623Z" fill="#992C29"/>
<path d="M59.4676 293.301C58.9161 291.904 55.0035 284.817 54.6205 281.591C54.2375 278.362 53.6738 270.736 58.0245 268.156C58.0245 268.156 53.2111 266.633 48.3886 275.399C43.4588 284.361 51.3238 296.224 51.9886 297.208C54.9361 301.574 61.0363 297.284 59.4676 293.301Z" fill="#273150"/>
<path d="M59.4676 293.301C58.9161 291.904 54.5776 291.668 52.9538 286.53C51.3299 281.395 51.6149 270.552 58.0214 268.156C58.0214 268.156 53.2081 266.633 48.3855 275.399C43.4557 284.361 51.3207 296.224 51.9856 297.208C54.9361 301.574 61.0363 297.284 59.4676 293.301Z" fill="#1D2538"/>
<path d="M62.2777 306.712C62.2777 306.712 66.3925 327.13 67.8785 330.479C69.3583 333.809 65.4764 337.556 64.4469 339.943C63.4113 342.345 67.5598 348.191 67.5598 348.191C67.5598 348.191 74.7538 347.734 75.8415 347.594C76.9231 347.456 79.7571 343.874 77.1038 343.114C74.4199 342.345 78.9238 330.601 78.9238 330.601C78.9238 330.601 79.0678 309.286 78.838 306.832C78.6051 304.387 62.9119 298.479 62.2777 306.712Z" fill="#1D2538"/>
<path d="M182.502 338.171C182.502 338.171 171.824 336.627 161.14 336.627C150.457 336.627 146.644 344.357 151.224 344.357C151.224 344.357 119.184 349.771 135.204 352.864C151.224 355.952 200.812 352.087 182.502 338.171Z" fill="#33A86D"/>
<path d="M176.77 338.209C176.77 338.209 175.788 332.283 177.751 332.283C179.715 332.283 179.39 336.027 179.39 336.027C179.39 336.027 183.327 330.411 183.327 332.597C183.327 334.779 181.358 336.651 181.358 336.651C181.358 336.651 177.756 340.396 176.77 338.209Z" fill="#288453"/>
<path d="M168.793 342.882C168.793 342.882 164.42 338.935 166.805 337.949C169.19 336.962 168.992 339.922 168.992 339.922C168.992 339.922 169.389 333.016 171.377 334.002C173.365 334.989 171.973 338.146 171.973 338.146C171.973 338.146 173.365 334.594 173.762 336.962C174.16 339.33 171.576 343.671 168.793 342.882Z" fill="#288453"/>
<path d="M237.988 364.026C241.574 361.044 228.908 359.175 213.237 358.117C193.348 356.772 197.421 361.545 197.421 361.545C197.421 361.545 186.657 359.798 181.168 362.51C177.817 364.164 182.925 366.032 198.305 368.645C213.685 371.258 218.513 366.716 218.513 366.716C218.513 366.716 234.402 367.008 237.988 364.026Z" fill="#33A86D"/>
<path d="M223.614 357.41C223.614 357.41 222.251 348.222 226.797 349.599C231.344 350.976 229.073 354.651 229.073 354.651C229.073 354.651 234.532 353.274 232.256 358.326C229.98 363.379 227.71 363.379 227.71 363.379C227.71 363.379 221.344 367.054 219.067 358.787C216.791 350.52 223.614 357.41 223.614 357.41Z" fill="#288453"/>
<path d="M203.525 357.487C203.525 357.487 200.744 351.543 203.525 350.631C206.307 349.719 206.307 354.289 206.307 354.289C206.307 354.289 209.553 348.344 210.484 352.918C211.41 357.487 209.553 363.427 203.525 357.487Z" fill="#288453"/>
</svg>
