<svg width="347" height="248" viewBox="0 0 347 248" fill="none" xmlns="http://www.w3.org/2000/svg">
<path d="M99.401 112.958C99.401 112.958 38.2017 163.448 23.1428 172.186C8.08395 180.923 -5.51385 160.533 2.25807 143.055C10.03 125.577 20.2299 124.122 20.2299 124.122C20.2299 124.122 -1.14291 88.1959 27.5168 60.0377C56.1766 31.8795 86.7731 27.0259 91.6321 41.105C91.6321 41.105 112.968 13.453 155.262 2.75175C193.634 -6.95851 192.664 10.52 171.291 31.8825C171.291 31.8825 185.862 24.5991 192.664 27.0289C199.46 29.4557 99.401 112.958 99.401 112.958Z" fill="#F4E8D8"/>
<path d="M278.147 109.562C278.147 109.562 154.287 170.732 144.575 177.046C134.861 183.357 131.948 184.814 132.433 189.183C132.918 193.552 151.374 184.33 151.374 184.33C151.374 184.33 137.773 199.378 174.69 192.583C211.604 185.787 256.777 174.135 299.035 147.918C341.292 121.702 351.007 116.849 345.663 107.138C340.319 97.428 323.805 99.3701 314.579 103.739C305.352 108.108 329.634 93.0592 319.923 91.6019C310.205 90.1415 278.147 109.562 278.147 109.562Z" fill="#F4E8D8"/>
<path d="M204.073 62.7101C204.073 62.7101 204.073 51.7879 183.674 47.416C163.274 43.0441 163.274 52.515 164.732 60.5256C166.19 68.5362 177.848 73.6353 180.033 73.6353C182.219 73.6353 204.073 62.7101 204.073 62.7101Z" fill="#48598B"/>
<path d="M177.601 118.784C177.601 118.784 171.772 132.379 181.487 140.632C191.202 148.885 208.201 152.284 223.745 140.632C239.289 128.979 201.402 91.1141 177.601 118.784Z" fill="#273150"/>
<path d="M188.771 66.1091C188.771 66.1091 207.044 44.5194 229.086 49.6031C254.345 55.4293 263.329 69.7508 267.7 91.5982C267.7 91.5982 281.543 85.0449 285.914 105.435C290.285 125.825 264.057 135.293 248.758 134.566C233.46 133.836 188.771 66.1091 188.771 66.1091Z" fill="#48598B"/>
<path d="M183.916 69.2663C183.916 69.2663 202.189 47.6767 224.231 52.7604C249.489 58.5865 258.474 72.908 262.845 94.7553C262.845 94.7553 276.688 88.2021 281.059 108.592C285.43 128.982 259.201 138.45 243.9 137.723C228.601 136.99 183.916 69.2663 183.916 69.2663Z" fill="#273150"/>
<path d="M171.045 95.4827C171.045 95.4827 160.118 102.766 155.744 91.8409C151.37 80.9157 168.129 71.4509 174.686 72.178C181.245 72.9082 179.06 86.0148 171.045 95.4827Z" fill="#273150"/>
<path d="M201.645 64.8985C201.645 64.8985 201.645 53.9764 181.245 49.6045C160.845 45.2326 160.845 54.7035 162.303 62.7141C163.761 70.7247 175.419 75.8237 177.605 75.8237C179.787 75.8207 201.645 64.8985 201.645 64.8985Z" fill="#273150"/>
<path d="M197.517 151.314C197.517 151.314 183.189 166.12 175.175 175.588C167.799 184.298 151.131 191.852 148.703 203.504C146.275 215.156 171.774 218.798 179.545 211.03C187.317 203.262 213.061 172.192 216.947 163.939C220.83 155.683 210.63 138.689 197.517 151.314Z" fill="#CE6D3E"/>
<path d="M223.746 146.458C223.746 146.458 215.974 140.632 211.119 141.117C206.263 141.601 192.177 156.895 192.177 156.895C192.177 156.895 197.763 157.138 201.407 160.537C205.05 163.936 209.664 174.374 209.664 174.374C209.664 174.374 229.09 152.284 223.746 146.458Z" fill="#C93F37"/>
<path d="M207.718 211.515C207.718 211.515 191.931 199.945 177.928 196.626C165.764 193.745 159.877 193.226 153.563 196.626C147.249 200.025 142.39 209.978 147.976 212.162C153.56 214.347 207.718 211.515 207.718 211.515Z" fill="#F6874E"/>
<path d="M281.06 219.768C281.06 219.768 283.003 188.698 280.09 169.277C277.177 149.857 272.803 135.293 263.576 129.467C254.346 123.641 237.347 132.866 224.719 138.205C214.421 142.558 210.149 162.963 203.347 174.616C197.53 184.584 193.147 194.036 207.717 211.512C222.288 228.987 272.803 251.322 281.06 219.768Z" fill="#D09435"/>
<path d="M281.06 219.768C281.06 219.768 283.003 188.698 280.09 169.278C277.177 149.857 272.803 135.293 263.576 129.467C254.346 123.641 265.034 168.305 255.804 186.756C249.813 198.734 244.632 211.515 258.232 221.71C276.441 235.36 272.803 251.323 281.06 219.768Z" fill="#F6BE4A"/>
<path d="M202.857 126.552C219.77 146.316 224.23 154.226 224.23 154.226C224.23 154.226 241.717 153.741 241.229 142.089C240.741 130.436 234.562 128.525 227.143 117.815C218.401 105.193 197.21 119.953 202.857 126.552Z" fill="#F6874E"/>
<path d="M202.858 126.552C211.115 136.989 223.5 136.262 223.5 136.262C223.5 136.262 246.085 140.266 227.143 117.814C217.244 106.076 197.21 119.953 202.858 126.552Z" fill="#CE6D3E"/>
<path d="M190.11 64.0479C190.11 64.0479 172.979 62.5415 168.86 88.9296C163.516 123.156 171.773 136.266 205.289 132.624C238.804 128.982 239.532 107.378 237.346 92.0865C235.161 76.7894 209.779 58.9489 190.11 64.0479Z" fill="#F6874E"/>
<path d="M190.11 64.048C190.11 64.048 172.979 62.5417 168.86 88.9297C163.516 123.156 171.773 136.266 205.289 132.624C205.289 132.624 189.987 116.118 187.802 100.824C185.617 85.5303 213.061 63.6032 190.11 64.048Z" fill="#CE6D3E"/>
<path d="M172.016 78.0657C172.016 78.0657 178.722 63.6 199.46 67.0822C214.638 69.6317 230.91 85.0454 230.91 85.0454L237.346 79.4616C237.346 79.4616 223.254 57.6879 194.116 61.1333C178.21 63.014 173.778 72.2395 172.016 78.0657Z" fill="#F6BE4A"/>
<path d="M172.016 78.0659C172.016 78.0659 178.722 63.6003 199.46 67.0825L194.116 61.1367C178.21 63.0143 173.778 72.2398 172.016 78.0659Z" fill="#D09435"/>
<path d="M243.175 95.4824C235.161 95.4824 229.09 104.22 227.147 114.415C225.419 123.49 223.503 134.805 250.462 134.078C277.419 133.351 258.474 95.4824 243.175 95.4824Z" fill="#273150"/>
<path d="M231.03 105.678C235.926 105.678 239.894 100.053 239.894 93.1143C239.894 86.1756 235.926 80.5508 231.03 80.5508C226.134 80.5508 222.165 86.1756 222.165 93.1143C222.165 100.053 226.134 105.678 231.03 105.678Z" fill="#F6874E"/>
<path d="M197.186 88.9561C198.812 88.546 199.571 86.0001 198.881 83.2696C198.192 80.5391 196.315 78.658 194.689 79.0681C193.064 79.4781 192.305 82.024 192.994 84.7545C193.684 87.485 195.561 89.3661 197.186 88.9561Z" fill="#263052"/>
<path d="M179.231 93.8817C179.394 91.578 178.415 89.6317 177.043 89.5346C175.672 89.4374 174.428 91.2262 174.265 93.5299C174.101 95.8336 175.08 97.7799 176.452 97.8771C177.823 97.9742 179.067 96.1855 179.231 93.8817Z" fill="#263052"/>
<path d="M172.905 88.6836L178.492 89.0888" stroke="#273150" stroke-width="2" stroke-miterlimit="10"/>
<path d="M186.67 79.7037C186.67 79.7037 188.208 76.062 190.961 75.8994" stroke="#273150" stroke-width="2" stroke-miterlimit="10"/>
<path d="M223.206 74.6079C223.206 74.6079 231.709 84.9348 240.429 89.3589C247.022 92.7061 252.305 93.3228 252.305 93.3228L250.985 90.6843L254.269 88.1532C254.269 88.1532 241.945 86.8646 225.775 73.0586L223.206 74.6079Z" fill="#C93F37"/>
<path d="M222.344 73.4018C222.344 73.4018 226.794 86.0145 233.471 93.1568C238.52 98.5565 243.271 100.947 243.271 100.947L242.937 98.0166L246.887 96.7648C246.887 96.7648 235.751 91.3344 225.287 72.8281L222.344 73.4018Z" fill="#C93F37"/>
<path d="M227.749 80.0665C230.892 79.5142 233.882 62.7445 226.399 62.3917C219.354 62.0573 211.367 62.9562 212.693 68.2639C214.022 73.5715 224.609 80.6187 227.749 80.0665Z" fill="#C93F37"/>
<path d="M230.462 70.5276C230.462 70.5276 229.305 63.3362 227.074 63.4958C224.839 63.6553 226.837 66.7264 227.414 71.4634C227.991 76.2003 230.868 73.5619 230.462 70.5276Z" fill="#F7BC4B"/>
<path d="M225.141 76.5903C225.141 76.5903 224.668 73.2799 229.493 70.0769C234.318 66.8739 237.989 65.1282 241.059 67.0304C244.128 68.9325 245.19 77.299 243.438 81.5175C241.685 85.7329 230.948 82.5299 228.244 80.9438C225.54 79.3576 225.141 76.5903 225.141 76.5903Z" fill="#C93F37"/>
<path d="M242.705 73.7904C242.705 73.7904 243.715 80.5001 240.713 81.5985C236.253 83.2276 239.064 70.5199 239.325 68.5103C239.586 66.5008 243.509 68.9828 242.705 73.7904Z" fill="#F7BC4B"/>
<path d="M146.637 147.188C146.637 147.188 149.55 136.628 148.095 131.167C146.637 125.705 145.909 123.883 140.808 120.972C135.706 118.06 130.243 118.422 130.973 112.596C131.701 106.77 133.159 109.684 140.08 110.777C147.002 111.869 146.892 116.139 152.831 118.422C157.567 120.241 163.758 123.156 167.04 130.801C170.318 138.447 179.425 144.638 171.411 150.099C163.393 155.56 147.364 153.011 146.637 147.188Z" fill="#F6874E"/>
<path d="M226.658 140.147C226.658 140.147 215.485 163.936 212.087 173.646C208.686 183.356 213.057 188.695 220.829 193.067C228.601 197.436 237.827 199.135 245.599 183.599C253.371 168.062 260.17 157.625 257.257 149.857C254.344 142.089 236.372 126.552 226.658 140.147Z" fill="#F6874E"/>
<path d="M226.658 140.146C226.658 140.146 215.485 163.936 212.087 173.646C208.686 183.356 213.057 188.695 220.829 193.067C228.601 197.435 228.601 191.125 236.372 175.588C244.144 160.052 260.173 157.625 257.257 149.857C254.341 142.089 236.372 126.552 226.658 140.146Z" fill="#CE6D3E"/>
<path d="M226.173 141.604C226.173 141.604 235.403 119.757 238.316 115.388C241.229 111.019 247.546 108.105 254.345 110.534C261.143 112.961 264.544 129.467 264.544 135.781C264.544 142.092 255.315 161.028 254.83 164.912C254.345 168.796 253.372 150.833 243.657 145.007C233.942 139.18 226.173 141.604 226.173 141.604Z" fill="#C93F37"/>
<path d="M238.316 115.388C241.229 111.019 247.546 108.105 254.345 110.534C261.144 112.961 264.545 129.467 264.545 135.781C264.545 142.092 255.315 161.028 254.83 164.912C254.345 168.796 257.743 128.985 253.86 123.644C248.341 116.057 238.316 115.388 238.316 115.388Z" fill="#EE5D4F"/>
<path d="M239.961 177.377C239.961 177.377 234.638 157.684 216.452 158.457C198.265 159.23 206.249 188.575 224.435 190.892C242.622 193.208 239.961 177.377 239.961 177.377Z" fill="#CE6D3E"/>
<path d="M240.259 180.927C240.259 180.927 234.43 157.462 214.515 158.432C194.6 159.401 183.43 150.826 175.17 147.912C168.807 145.666 157.806 155.195 167.521 162.476C177.236 169.759 203.342 195.003 223.257 197.917C243.171 200.832 240.259 180.927 240.259 180.927Z" fill="#F6874E"/>
<path d="M152.831 142.454C152.831 142.454 140.811 137.72 139.353 136.628C137.895 135.536 137.167 130.437 132.431 130.437C127.695 130.437 131.704 135.536 132.066 138.447C132.431 141.359 135.924 144.105 138.503 147.673C140.08 149.857 141.781 153.864 146.64 155.926C154.805 159.393 163.761 162.479 170.318 160.295C176.874 158.11 164.124 139.904 152.831 142.454Z" fill="#F6874E"/>
<path d="M159.629 130.273C159.629 130.273 160.844 145 163.03 146.092C165.215 147.184 170.679 147.911 170.679 147.911C170.679 147.911 163.757 152.28 160.479 147.911C157.201 143.546 159.629 130.273 159.629 130.273Z" fill="#CE6D3E"/>
<path d="M151.542 122.588C150.787 121.683 148.067 120.625 145.194 121.984C142.324 123.343 142.324 123.647 142.475 126.515C142.625 129.384 142.475 135.275 143.38 136.183C144.286 137.088 147.159 138.146 148.819 136.183C150.48 134.219 151.238 130.746 151.238 127.875C151.241 125.003 152.297 123.493 151.542 122.588Z" fill="#F6874E"/>
<path d="M154.894 120.809C154.084 119.84 151.171 118.704 148.095 120.162C145.019 121.619 145.019 121.941 145.182 125.015C145.345 128.089 145.182 134.4 146.152 135.373C147.122 136.342 150.201 137.478 151.981 135.373C153.761 133.268 154.572 129.547 154.572 126.473C154.572 123.398 155.704 121.779 154.894 120.809Z" fill="#CE6D3E"/>
<path d="M155.867 120.809C155.056 119.84 152.143 118.704 149.068 120.162C145.992 121.619 145.992 121.941 146.155 125.015C146.317 128.089 146.155 134.4 147.125 135.373C148.095 136.342 151.173 137.478 152.954 135.373C154.734 133.268 155.544 129.547 155.544 126.473C155.544 123.398 156.674 121.779 155.867 120.809Z" fill="#F6874E"/>
<path d="M153.598 121.699C151.047 122.426 148.496 130.437 148.496 132.621C148.496 134.805 150.602 137.113 155.092 137.232C159.224 137.343 157.441 130.759 157.441 130.759C157.441 130.759 156.148 120.969 153.598 121.699Z" fill="#CE6D3E"/>
<path d="M175.416 148.642C175.416 148.642 174.931 136.99 173.838 134.078C172.746 131.167 168.375 128.252 163.273 125.34C158.172 122.429 157.444 120.972 154.893 121.699C152.343 122.426 149.792 130.436 149.792 132.621C149.792 134.805 150.762 135.778 155.256 135.897C159.387 136.008 158.736 130.758 158.736 130.758C158.736 130.758 160.354 132.621 160.719 138.444C161.085 144.267 162.423 153.011 175.416 148.642Z" fill="#F6874E"/>
<path d="M62.7295 197.151L81.9137 196.463L110.693 196.341L117.615 194.764L78.0278 192.579L62.7295 197.151Z" fill="#634874"/>
<path d="M69.4492 110.411L89.364 112.715L125.062 98.3934L125.329 96.6661L107.821 91.9629L69.4492 110.411Z" fill="#634874"/>
<path d="M38.1982 66.5355L48.834 60.6358L49.1409 60.6296L62.5116 53.1406H62.8185L76.0848 45.5166L124.414 63.1975V79.7035L76.5729 64.6119L38.1982 84.1337V66.5355Z" fill="#29ACE4"/>
<path d="M76.5729 64.4493L38.1982 84.1337V66.5355L48.8371 60.6296H49.1409L62.5116 53.1406H62.8186L76.0848 45.5166" fill="#48598B"/>
<path d="M38.1982 84.1337L93.0867 93.4175L124.414 79.7034L76.5729 64.4492L62.84 71.4903L62.5208 71.4811L49.1471 78.4639L48.8309 78.4609L38.1982 84.1337Z" fill="#634874"/>
<path d="M51.3145 161.261L78.418 164.829L122.471 154.646L105.896 149.517L51.3145 161.261Z" fill="#634874"/>
<path d="M79.4866 114.78L61.9199 106.242L74.6306 97.5439L125.145 111.464L79.4866 114.78Z" fill="#634874"/>
<path d="M37.7139 128.374V145.123L79.1641 148.399L121.501 138.931L111.667 129.224L124.172 126.31L96.9733 109.196L76.3279 111.623L37.7139 128.374Z" fill="#634874"/>
<path d="M38.1982 85.0454L76.0848 65.2598L93.9554 70.9019L94.0567 81.5663L110.583 76.1482L125.307 80.7962V97.3021L76.5729 84.1956L38.1982 102.644V85.0454Z" fill="#29ACE4"/>
<path d="M76.5729 84.1956L38.1982 102.644V85.0454L76.0848 65.2598" fill="#48598B"/>
<path d="M94.0689 81.5659L110.574 76.1846V93.4176L94.0566 96.7771L94.0689 81.5659Z" fill="#48598B"/>
<path d="M38.1982 102.643L55.3628 103.41L94.0781 88.8986L76.5729 84.1953L38.1982 102.643Z" fill="#634874"/>
<path d="M61.9199 92.4483V106.242L76.4907 100.134V85.4072L61.9199 92.4483Z" fill="#48598B"/>
<path d="M125.145 97.6271V111.464L76.4902 100.217V85.4072L125.145 97.6271Z" fill="#29ACE4"/>
<path d="M37.7139 116.722V129.142L76.3279 114.578V100.701L37.7139 116.722Z" fill="#48598B"/>
<path d="M76.3281 100.701V114.578L92.2372 118.422V104.585L76.3281 100.701Z" fill="#29ACE4"/>
<path d="M108.671 108.387L108.306 122.708L124.172 126.31V112.111L108.671 108.387Z" fill="#29ACE4"/>
<path d="M37.7539 130.193V145.122L51.5973 138.931V124.732L37.7539 130.193Z" fill="#48598B"/>
<path d="M62.1621 121.333V135.17L76.3278 130.194V115.63L62.1621 121.333Z" fill="#48598B"/>
<path d="M76.3281 115.63L121.502 126.917V138.932L76.3281 130.194V115.63Z" fill="#29ACE4"/>
<path d="M65.2412 163.592V149.798L105.743 136.756V152.025L65.2412 163.592Z" fill="#48598B"/>
<path d="M105.69 136.763V151.995L122.471 154.668V140.073L105.69 136.763Z" fill="#29ACE4"/>
<path d="M36.0342 170.759L81.7572 178.159L108.437 170.827L65.4306 160.745L36.0342 170.759Z" fill="#634874"/>
<path d="M48.8156 149.477L48.4902 167.477L77.1745 171.855L77.4815 153.79L48.8156 149.477Z" fill="#29ACE4"/>
<path d="M49.6074 166.924L61.9406 163.685L84.5473 165.949L68.6873 169.222L49.6074 166.924Z" fill="#634874"/>
<path d="M36.3381 153.946L36.0342 170.759L48.6651 167.538L48.9905 149.461L36.3381 153.946Z" fill="#48598B"/>
<path d="M49.9881 149.559L49.6074 166.924L61.9437 163.752L62.1892 145.666L49.9881 149.559Z" fill="#48598B"/>
<path d="M62.1522 145.685L61.876 163.878L108.529 170.827L108.781 155.508L62.1522 145.685Z" fill="#29ACE4"/>
<path d="M124.576 184.568L104.256 190.272L72.8311 188.413L109.883 182.424L124.576 184.568Z" fill="#634874"/>
<path d="M109.883 167.596L124.576 169.624V184.568L109.883 182.423V167.596Z" fill="#29ACE4"/>
<path d="M109.945 167.617V182.423L85.7207 187.157V173.483L109.945 167.617Z" fill="#48598B"/>
<path d="M93.8328 180.617L56.6583 188.373L38.6865 187.118L72.0978 177.236L93.8328 180.617Z" fill="#634874"/>
<path d="M77.3804 163.185V178.061L38.6865 187.118V173.159L77.3804 163.185Z" fill="#48598B"/>
<path d="M77.3799 163.185V178.061L93.7709 180.709V165.878L77.3799 163.185Z" fill="#29ACE4"/>
<path d="M122.311 198.646L90.0905 205.282L67.9902 199.174L108.547 190.961L122.311 198.646Z" fill="#634874"/>
<path d="M62.7295 182.908V197.149L78.0984 193.591V178.824L62.7295 182.908Z" fill="#48598B"/>
<path d="M122.311 185.942V198.647L75.9248 194.318V179.552L122.311 185.942Z" fill="#29ACE4"/>
<path d="M40.2236 200.469V214.871H77.3797L95.637 211.471L95.5541 197.555L77.7849 195.493L40.2236 200.469Z" fill="#48598B"/>
<path d="M73.1719 202.813V215.978H107.13L123.815 212.87L123.742 200.15L107.501 198.267L73.1719 202.813Z" fill="#48598B"/>
<path d="M107.833 198.23V213.205L123.889 212.923V199.672L107.833 198.23Z" fill="#29ACE4"/>
<path d="M78.1504 195.45V211.837L95.717 211.527V197.03L78.1504 195.45Z" fill="#29ACE4"/>
<path d="M48.9883 60.6299V78.4583" stroke="#29ACE4" stroke-miterlimit="10"/>
<path d="M62.6689 53.1406V71.4812" stroke="#29ACE4" stroke-miterlimit="10"/>
<path d="M108.67 108.387L92.2764 112.311V119.576L105.533 122.911L108.305 122.708L108.67 108.387Z" fill="#48598B"/>
<path d="M318.947 244.042C318.053 242.52 283.976 210.542 202.859 209.573C137.129 208.787 38.1996 211.515 16.3418 218.798C16.3418 218.798 81.6726 215.156 122.472 224.867C163.272 234.577 190.332 240.112 210.146 242.588C225.69 244.53 254.024 247.119 260.823 247.604C292.844 249.89 257.621 235.724 293.083 242.223C314.941 246.226 319.978 245.8 318.947 244.042Z" fill="#866694"/>
<path d="M114.457 228.02C114.457 228.02 92.5991 219.767 55.6855 222.194C11.6262 225.09 0.407227 219.188 0.407227 219.188C0.407227 219.188 12.5501 236.957 41.0441 232.012C79.7073 225.305 114.457 228.02 114.457 228.02Z" fill="#866694"/>
</svg>
