<svg width="301" height="230" viewBox="0 0 301 230" fill="none" xmlns="http://www.w3.org/2000/svg">
<path d="M252.917 74.3495C252.917 74.3495 172.961 73.3552 156.299 103.157C139.637 132.959 56.3241 146.984 25.6299 132.959C-5.06433 118.936 -11.2021 97.0221 23.8759 77.7368C67.8653 53.5548 62.8886 85.7246 66.8484 80.3652C88.9747 50.4057 129.919 14.2005 158.931 21.6371C193.133 30.4031 167.701 62.836 167.701 62.836C167.701 62.836 219.594 47.1762 252.917 74.3495Z" fill="#BB83C3"/>
<path d="M100.173 150.054C100.173 150.054 172.742 140.338 194.666 107.905C216.59 75.4717 301 98.0447 301 98.0447C301 98.0447 262.633 102.648 245.971 123.684C245.971 123.684 265.047 115.355 283.463 119.74C283.463 119.74 270.309 128.287 255.179 144.063C240.086 159.806 129.113 169.34 100.173 150.054Z" fill="#BB83C3"/>
<path d="M162.977 220.58C162.977 220.58 168.342 216.137 155.756 216.658C143.32 217.173 130.03 218.909 135.534 222.036C141.04 225.164 157.818 223.25 162.977 220.58Z" fill="#866694"/>
<path d="M189.692 216.169C189.692 216.169 197.65 209.577 178.98 210.35C160.53 211.114 140.815 213.69 148.981 218.332C157.147 222.97 182.041 220.132 189.692 216.169Z" fill="#866694"/>
<path d="M184.677 225.471C184.677 225.471 188.324 222.452 179.77 222.804C171.318 223.153 162.285 224.336 166.025 226.46C169.766 228.587 181.172 227.288 184.677 225.471Z" fill="#866694"/>
<path d="M286.529 212.946C289.599 211.193 265.043 211.85 252.742 210.9C251.895 210.833 250.947 210.98 249.933 211.002C244.236 210.121 213.433 209.013 201.463 209.659C189.536 210.301 176.615 214.206 188.345 217.322C197.14 219.657 202.607 220.884 222.511 219.74C226.579 219.505 237.602 217.58 246.402 215.688C249.514 215.672 259.52 216.364 263.112 216.156C271.111 215.694 283.913 214.439 286.529 212.946Z" fill="#866694"/>
<path d="M279.591 201.158C279.591 201.158 282.711 192.119 288.325 192.429C293.939 192.742 290.819 198.353 290.819 198.353C290.819 198.353 293.313 194.611 296.433 197.73C299.553 200.848 296.433 203.028 296.433 203.028C296.433 203.028 298.927 201.469 299.24 204.274C299.553 207.08 287.075 211.132 282.398 209.885C277.721 208.639 279.591 201.158 279.591 201.158Z" fill="#288453"/>
<path d="M139.418 192.568C103.561 193.296 127.359 199.362 127.359 199.362C127.359 199.362 -1.6586 197.564 35.2759 204.84C35.2759 204.84 12.5372 208.848 6.33569 212.728C2.3039 215.251 40.0725 224.455 61.1458 223.685C91.1833 222.588 95.0544 219.157 94.9103 216.235C94.7302 212.626 73.6319 212.293 80.0024 210.537C89.3933 207.948 96.0242 211.64 132.183 207.469C154.985 204.84 172.304 205.715 172.304 205.715C172.304 205.715 154.359 211.213 171.899 209.801C205.905 207.062 213.049 210.476 217.249 204.838C223.479 196.479 183.82 191.665 139.418 192.568Z" fill="#866694"/>
<path d="M250.913 52.1093L258.284 15.8878C258.328 15.6746 260.836 15.2646 260.836 15.2646L264.056 16.2313L262.861 58.8201C262.845 59.4627 262.105 59.8061 261.52 59.4405L251.378 53.1119C251.026 52.8931 250.838 52.4859 250.913 52.1093Z" fill="#1D2538"/>
<path d="M254.517 52.846L260.555 15.4526C260.64 15.0454 265.44 16.3527 265.426 16.782L264.143 57.596C264.104 58.8257 262.694 59.4738 261.588 58.7842L255.364 54.7294C254.702 54.3167 254.359 53.5522 254.517 52.846Z" fill="#1D2538"/>
<path d="M254.184 36.0398C254.184 36.0398 253.638 35.3308 255.725 35.2061C257.82 35.0787 264.681 40.9809 264.681 40.9809L264.196 58.582L250.784 52.7408L254.184 36.0398Z" fill="#C73F37"/>
<path d="M251.391 49.7412C251.391 49.7412 257.307 20.8728 257.587 19.4298C257.916 17.7209 259.438 17.6267 259.257 19.8618C259.138 21.3436 253.724 50.4336 253.724 50.4336L251.391 49.7412Z" fill="#F4E8D8"/>
<path d="M255.071 31.619C255.071 31.619 255.531 31.1454 256.464 31.2285C260.288 31.5692 264.777 37.5346 264.777 37.5346L264.661 41.0518C264.661 41.0518 258.565 34.7845 257.093 34.4079C255.001 33.8734 254.325 35.4242 254.325 35.4242L255.071 31.619Z" fill="#C73F37"/>
<path d="M263.891 45.3008C263.891 45.3008 259.022 39.541 254.744 40.056C252.943 40.272 253.508 40.8702 253.508 40.8702C253.508 40.8702 253.15 41.1249 254.638 41.0889C256.85 41.0363 263.891 45.3008 263.891 45.3008Z" fill="#1D2538"/>
<path d="M264.431 49.0575C262.336 45.5617 255.392 43.4287 255.392 43.4287C255.392 43.4287 263.214 48.0215 264.356 50.0547L264.431 49.0575Z" fill="#1D2538"/>
<path d="M252.119 47.6387C252.119 47.6387 252.978 46.34 253.701 46.6142C254.425 46.8883 259.193 49.8152 260.258 51.2634C261.308 52.695 253.857 47.9073 253.474 47.7467C253.089 47.5889 252.119 47.6387 252.119 47.6387Z" fill="#1D2538"/>
<path d="M264.27 54.6452C264.27 54.6452 263.599 53.5711 262.219 53.1696C260.839 52.7682 264.267 55.6973 264.267 55.6973L264.27 54.6452Z" fill="#1D2538"/>
<path d="M216.045 211.302C251.128 210.599 275.568 212.515 282.147 209.887C282.147 209.887 288.284 195.197 280.83 184.678C265.321 168.603 254.52 162.327 230.185 164.955C205.85 167.583 185.386 182.778 178.808 197.241C172.23 211.704 179.54 211.959 181.842 212.288C184.145 212.618 205.119 211.524 216.045 211.302Z" fill="#634874"/>
<path d="M249.283 167.711C237.223 163.49 229.786 162.941 216.314 169.846C202.841 176.753 199.76 178.664 197.803 187.984C195.847 197.306 208.89 196.196 218.234 193.988C227.583 191.784 263.093 172.544 249.283 167.711Z" fill="#F4E8D8"/>
<path d="M271.509 187.939C258.959 192.993 249.945 194.442 236.644 186.991C222.484 179.062 219.519 176.827 226.378 168.144C231.712 161.389 250.704 166.322 258.039 168.778C264.745 171.025 281.817 183.787 271.509 187.939Z" fill="#F4E8D8"/>
<path d="M229.088 44.6482L279.453 73.8435C279.996 74.1592 284.172 71.7662 284.555 71.2206C284.937 70.675 283.299 66.7281 282.427 66.2102L233.807 37.0897C233.095 36.6659 229.581 37.5799 229.581 37.5799L229.088 44.6482Z" fill="#F6874E"/>
<path d="M252.769 51.5498L255.728 56.8096L232.698 43.0246C232.05 42.623 231.607 41.2159 231.607 41.2159L230.62 37.8867L252.769 51.5498Z" fill="#F4E8D8"/>
<path d="M284.557 71.2174C284.557 71.2174 284.197 71.6245 283.388 72.112C282.033 72.9263 280.265 74.3028 279.259 73.7738C278.253 73.2448 229.894 45.2327 229.09 44.6483C228.481 44.2052 228.215 40.0452 228.215 39.5356C228.215 39.0232 229.586 37.583 229.586 37.583C229.586 37.583 230.044 41.7652 230.847 42.6791C231.651 43.5931 280.359 71.8239 280.359 71.8239C281.013 72.04 283.241 71.5664 284.557 71.2174Z" fill="#C73F37"/>
<path d="M229.617 167.823L249.125 57.5489C249.169 57.3051 249.255 57.0697 249.383 56.8565C250.053 55.7292 251.07 55.5492 252.553 56.3995C252.553 56.3995 260.735 61.1744 261.467 61.6148C262.199 62.0524 263.069 62.9082 262.966 64.0992L253.819 170.72C253.744 171.601 253.115 172.332 252.256 172.543L243.029 174.8C242.627 174.9 242.203 174.872 241.815 174.728L231.964 171.031C231.732 170.942 231.515 170.815 231.327 170.648L230.285 169.732C229.745 169.253 229.49 168.53 229.617 167.823Z" fill="#F6BE4A"/>
<path d="M249.238 57.0946C249.698 56.1529 250.696 55.5962 250.602 56.1778L231.762 169.94C231.692 170.353 231.196 170.533 230.88 170.253L229.636 169.156C229.498 169.034 229.431 168.846 229.465 168.663L249.169 57.2718C249.183 57.2109 249.205 57.15 249.238 57.0946Z" fill="#F6874E"/>
<path d="M242.571 174.707L257.59 59.4414" stroke="#F4E8D8" stroke-width="2" stroke-miterlimit="10"/>
<path d="M246.617 87.9665L256.421 111.193L257.105 104.671L247.656 80.0479L246.617 87.9665Z" fill="#F4E8D8"/>
<path d="M248.113 76.6154L257.917 102.317L260.006 86.1179L250.557 61.4961L248.113 76.6154Z" fill="#F4E8D8"/>
<path d="M276.446 183.583C276.446 183.583 277.763 188.624 267.02 192.13C267.017 192.127 281.706 191.908 276.446 183.583Z" fill="#F4E8D8"/>
<path d="M257.81 124.78L254.961 123.902L252.769 127.849L254.52 131.574L248.82 138.366L247.066 140.723" stroke="#F4E8D8" stroke-width="2" stroke-miterlimit="10"/>
<path d="M199.235 189.914C199.235 189.914 205.079 196.594 215.717 195.121C220.317 194.736 234.078 190.244 234.078 190.244C234.078 190.244 209.081 194.91 199.235 189.914Z" fill="#634874"/>
<path d="M268.771 65.2462L271.842 63.9336L273.377 68.0957L268.771 65.2462Z" fill="#C73F37"/>
<path d="M262.65 0.710439C258.266 -0.289414 254.603 3.22254 254.523 8.31597C254.448 13.1518 257.662 17.5528 261.658 18.3588C265.607 19.1565 269.12 16.1929 269.569 11.5426C270.04 6.64863 266.976 1.69644 262.65 0.710439ZM261.63 13.6282C260.117 13.138 258.829 11.0219 258.757 8.85883C258.682 6.64586 259.907 5.24994 261.486 5.79002C263.052 6.32457 264.321 8.54862 264.329 10.7117C264.338 12.8278 263.135 14.1157 261.63 13.6282Z" fill="#1D2538"/>
<path d="M263.362 3.83673C260.874 3.22186 258.787 5.24651 258.72 8.27101C258.707 8.86372 258.776 9.4509 258.909 10.0131C258.823 9.63647 258.768 9.24871 258.757 8.85818C258.682 6.6452 259.906 5.24927 261.486 5.78936C263.052 6.32391 264.321 8.54798 264.329 10.7111C264.337 12.8272 263.132 14.1151 261.63 13.6276C260.693 13.3229 259.843 12.3951 259.313 11.2207C260.037 12.8715 261.353 14.1483 262.874 14.5C265.21 15.0374 267.244 13.2121 267.441 10.351C267.649 7.39856 265.831 4.44606 263.362 3.83673Z" fill="#F6BE4A"/>
<path d="M258.979 10.2783C258.992 10.3282 259.003 10.3781 259.017 10.428C259.003 10.3781 258.992 10.3282 258.979 10.2783Z" fill="#F6BE4A"/>
<path d="M259.167 10.8564C259.195 10.9345 259.228 11.0097 259.258 11.085C259.228 11.0097 259.195 10.9345 259.167 10.8564Z" fill="#F6BE4A"/>
<path d="M257.274 13.5811C257.149 13.5811 257.024 13.5257 256.944 13.4177C254.195 9.83385 256.096 4.92343 256.179 4.71572C256.262 4.50246 256.503 4.39722 256.72 4.48307C256.933 4.56616 257.038 4.80988 256.952 5.02314C256.933 5.07022 255.146 9.70645 257.606 12.9136C257.745 13.0964 257.712 13.3567 257.529 13.4952C257.451 13.5534 257.362 13.5811 257.274 13.5811Z" fill="#F4E8D8"/>
<path d="M260.209 15.8936C260.123 15.8936 260.037 15.8686 259.965 15.8132C259.397 15.3978 258.928 14.9326 258.576 14.4258C258.446 14.2374 258.491 13.9799 258.679 13.847C258.867 13.7168 259.125 13.7611 259.258 13.9494C259.557 14.3787 259.962 14.7802 260.455 15.1403C260.641 15.276 260.682 15.5363 260.547 15.7218C260.464 15.8354 260.339 15.8936 260.209 15.8936Z" fill="#F4E8D8"/>
<path d="M280.974 213.894C283.238 212.639 275.016 201.353 269.153 198.589C263.289 195.825 266.994 209.294 271.361 212.384C275.728 215.478 278.71 215.151 280.974 213.894Z" fill="#33A86D"/>
<path d="M276.413 214.675C276.413 214.675 265.057 209.158 259.108 209.36C253.162 209.562 260.455 214.224 260.455 214.224C260.455 214.224 254.179 212.933 252.599 216.229C251.02 219.525 276.413 214.675 276.413 214.675Z" fill="#33A86D"/>
<path d="M287.497 212.265C288.068 211.044 287.633 207.443 282.418 208.039C277.203 208.634 275.953 213.423 277.777 214.589C279.6 215.752 286.927 213.486 287.497 212.265Z" fill="#33A86D"/>
<path d="M241.914 106.282L241.537 110.27C241.473 110.522 241.894 110.722 242.31 110.636L245.51 109.977C245.832 109.91 245.987 109.7 245.846 109.52L243.022 106.191C242.781 105.886 241.999 105.95 241.914 106.282Z" fill="#F6874E"/>
<path d="M256.603 138.988L253.862 141.728L256.054 144.575L256.603 138.988Z" fill="#F6874E"/>
<path d="M235.336 148.08L237.749 151.368L234.568 153.121L235.336 148.08Z" fill="#F6874E"/>
<path d="M268.147 227.748C268.147 227.748 266.237 226.512 262.616 226.983C259.038 227.449 257.711 228.247 260.28 228.975C261.928 229.441 266.88 229.477 268.147 227.748Z" fill="#33A86D"/>
<path d="M254.336 220.517C254.336 220.517 252.427 219.282 248.805 219.752C245.228 220.218 243.9 221.015 246.469 221.743C248.118 222.208 253.067 222.244 254.336 220.517Z" fill="#288453"/>
<path d="M262.558 224.46C262.558 224.46 260.648 223.224 257.027 223.695C253.449 224.16 252.122 224.959 254.691 225.687C256.34 226.153 261.289 226.192 262.558 224.46Z" fill="#33A86D"/>
<path d="M254.663 226.106C254.663 226.106 252.754 224.871 249.132 225.341C245.555 225.806 244.228 226.604 246.796 227.332C248.445 227.797 253.397 227.833 254.663 226.106Z" fill="#33A86D"/>
<path d="M227.342 223.744C227.342 223.744 225.313 222.253 221.279 222.53C217.294 222.805 215.776 223.603 218.566 224.575C220.356 225.201 225.826 225.573 227.342 223.744Z" fill="#288453"/>
<path d="M242.36 224.646C242.36 224.646 240.332 223.156 236.297 223.433C232.313 223.708 230.794 224.505 233.585 225.477C235.377 226.103 240.845 226.474 242.36 224.646Z" fill="#288453"/>
<path d="M233.909 221.389C233.909 221.389 232.318 220.22 229.159 220.438C226.037 220.655 224.848 221.278 227.034 222.04C228.436 222.531 232.72 222.821 233.909 221.389Z" fill="#288453"/>
<path d="M234.235 224.968C234.235 224.968 232.207 223.478 228.172 223.755C224.188 224.03 222.669 224.827 225.46 225.799C227.252 226.425 232.722 226.796 234.235 224.968Z" fill="#288453"/>
<path d="M253.643 151.661C253.643 151.661 253.205 148.154 251.598 149.176C249.991 150.198 249.991 151.22 250.723 152.536C251.451 153.854 253.059 152.976 253.643 151.661Z" fill="#288453"/>
<path d="M251.889 146.4C251.889 146.4 251.452 142.893 249.844 143.915C248.237 144.937 248.237 145.96 248.969 147.275C249.7 148.591 251.305 147.716 251.889 146.4Z" fill="#33A86D"/>
<path d="M252.767 141.8C252.767 141.8 252.329 138.294 250.722 139.316C249.115 140.338 249.115 141.359 249.847 142.675C250.573 143.99 252.183 143.115 252.767 141.8Z" fill="#33A86D"/>
<path d="M258.027 120.98C258.027 120.98 257.589 117.474 255.982 118.496C254.375 119.518 254.375 120.54 255.106 121.855C255.835 123.174 257.442 122.296 258.027 120.98Z" fill="#33A86D"/>
<path d="M259.781 117.037C259.781 117.037 259.343 113.531 257.736 114.553C256.129 115.575 256.129 116.597 256.86 117.912C257.592 119.228 259.196 118.353 259.781 117.037Z" fill="#288453"/>
<path d="M254.666 156.629C254.666 156.629 254.306 153.121 252.992 154.144C251.676 155.166 251.676 156.189 252.275 157.505C252.873 158.821 254.189 157.946 254.666 156.629Z" fill="#288453"/>
<path d="M252.621 155.897C252.621 155.897 252.261 152.391 250.947 153.413C249.631 154.435 249.631 155.457 250.23 156.773C250.826 158.088 252.142 157.213 252.621 155.897Z" fill="#288453"/>
<path d="M255.718 150.131C255.718 150.131 255.427 147.289 254.361 148.117C253.294 148.945 253.294 149.774 253.779 150.84C254.264 151.907 255.33 151.197 255.718 150.131Z" fill="#288453"/>
<path d="M251.452 161.797C251.452 161.797 251.208 159.424 250.318 160.116C249.429 160.808 249.429 161.5 249.834 162.389C250.238 163.278 251.128 162.686 251.452 161.797Z" fill="#288453"/>
<path d="M256.932 114.408C256.932 114.408 256.495 110.902 254.887 111.924C253.28 112.946 253.28 113.968 254.012 115.283C254.74 116.599 256.348 115.724 256.932 114.408Z" fill="#288453"/>
<path d="M237.09 168.354C237.09 168.354 232.706 166.711 231.06 168.902C230.517 169.628 230.273 170.34 230.19 170.971C230.021 172.245 230.514 173.176 230.514 173.176C230.514 173.176 226.457 169.013 223.609 171.204C220.757 173.395 224.595 176.026 224.595 176.026C224.595 176.026 221.855 174.929 219.552 175.915C217.249 176.901 218.784 179.859 218.784 179.859C218.784 179.859 220.428 181.942 222.73 180.515C225.033 179.092 224.922 178.651 224.922 178.651C224.922 178.651 226.457 179.2 228.868 177.447C231.279 175.693 231.39 174.926 231.39 174.926C231.39 174.926 233.473 176.679 234.787 175.583C236.103 174.486 236.652 173.173 236.652 173.173C236.652 173.173 237.09 175.475 239.063 175.475C241.038 175.475 243.887 165.504 237.09 168.354Z" fill="#288453"/>
<path d="M261.426 175.451C261.426 175.451 260.989 173.367 259.381 173.976C257.774 174.585 257.774 175.191 258.506 175.975C259.237 176.758 260.842 176.232 261.426 175.451Z" fill="#288453"/>
<path d="M264.495 178.082C264.495 178.082 264.057 175.995 262.45 176.605C260.843 177.214 260.843 177.821 261.574 178.605C262.306 179.39 263.913 178.866 264.495 178.082Z" fill="#288453"/>
<path d="M260.44 180.052C260.44 180.052 260.002 177.966 258.395 178.575C256.788 179.185 256.788 179.792 257.52 180.576C258.248 181.358 259.855 180.837 260.44 180.052Z" fill="#288453"/>
<path d="M268.003 183.232C268.003 183.232 267.565 181.147 265.958 181.756C264.35 182.365 264.35 182.972 265.082 183.755C265.811 184.533 267.418 184.013 268.003 183.232Z" fill="#288453"/>
<path d="M254.96 175.147C254.96 175.147 258.03 173.613 256.714 171.422C255.398 169.231 251.671 169.339 251.014 171.311C251.014 171.311 249.917 164.408 247.398 164.846C244.876 165.284 244.001 167.367 244.876 170.655C244.876 170.655 243.341 168.572 241.149 170.984C238.958 173.394 241.806 175.147 241.806 175.147C241.806 175.147 238.955 172.956 238.298 176.244C237.641 179.532 240.49 181.834 242.793 180.737C245.095 179.64 245.752 178.873 245.752 178.873C245.752 178.873 253.863 182.488 254.96 175.147Z" fill="#288453"/>
<path d="M250.429 175.031C250.429 175.031 249.783 172.336 247.411 173.122C245.039 173.909 245.039 174.696 246.117 175.704C247.192 176.715 249.564 176.042 250.429 175.031Z" fill="#33A86D"/>
<path d="M248.381 172.841C248.381 172.841 247.833 170.147 245.826 170.933C243.818 171.719 243.817 172.506 244.732 173.513C245.644 174.524 247.653 173.851 248.381 172.841Z" fill="#33A86D"/>
<path d="M244.582 173.131C244.582 173.131 244.034 170.436 242.028 171.223C240.019 172.01 240.019 172.796 240.933 173.804C241.842 174.818 243.851 174.142 244.582 173.131Z" fill="#33A86D"/>
<path d="M237.505 172.848C237.505 172.848 239.115 171.745 238.228 169.74C237.378 167.818 235.981 168.53 235.421 169.771C234.862 171.014 236.286 172.585 237.505 172.848Z" fill="#33A86D"/>
<path d="M229.746 175.583C229.746 175.583 229.68 172.787 226.837 172.881C223.994 172.975 223.8 173.737 224.759 175.023C225.717 176.306 228.535 176.32 229.746 175.583Z" fill="#33A86D"/>
<path d="M185.458 101.623C185.458 101.623 184.324 97.0194 183.978 93.4604C183.646 90.0538 185.632 91.4386 187.724 93.8066C189.916 96.291 192.036 100.745 192.621 101.769C193.205 102.791 187.652 105.129 185.458 101.623Z" fill="#1D2538"/>
<path d="M146.725 153.123C146.06 152.151 141.9 147.498 141.025 145.088C140.149 142.679 138.32 136.907 140.953 133.838C140.953 133.838 137.226 133.838 135.472 141.726C133.718 149.614 141.393 157.028 142.05 157.649C144.971 160.426 148.626 155.898 146.725 153.123Z" fill="#1D2538"/>
<path d="M218.433 172.167C217.615 170.52 214.564 169.75 214.564 169.75C214.329 169.406 213.611 168.844 213.528 168.439C212.397 162.956 211.336 157.992 210.951 156.696C210.15 154.004 209.471 149.686 207.723 143.479C205.974 137.272 199.138 142.009 200.468 148.196C201.416 152.608 208.338 170.564 208.568 170.841L211.605 174.067C212.386 175.015 213.711 175.638 215.083 175.029C216.454 174.419 219.233 173.779 218.433 172.167Z" fill="#1D2538"/>
<path d="M165.399 164.941C167 163.066 175.482 161.474 176.43 165.315C177.239 168.586 165.277 189.336 165.277 189.336L165.349 192.28C165.349 192.28 167.333 193.959 167.045 195.587C166.975 195.969 164.936 196.493 163.276 196.858C162.062 197.124 161.059 196.745 160.868 195.928L160.63 194.897L159.111 191.314L163.42 176.939C163.417 176.945 163.21 167.503 165.399 164.941Z" fill="#1D2538"/>
<path d="M190.282 143.482C186.627 143.994 175.812 139.756 174.058 133.621C172.304 127.486 170.112 117.842 170.112 113.898C170.112 113.898 167.188 108.054 166.019 104.694C164.85 101.335 165.581 100.75 167.479 101.625C169.38 102.501 173.617 106.738 173.617 106.738C173.617 106.738 179.17 99.8721 186.333 99.1409C193.496 98.4097 197.442 101.332 199.781 104.401L200.091 104.547C200.091 104.547 206.797 104.401 210.449 103.963C214.104 103.525 215.858 104.547 216.296 108.492C216.734 112.436 216.662 113.458 215.492 115.651C214.323 117.842 207.891 124.672 204.092 127.594C204.092 127.594 206.503 136.031 206.212 138.806C205.921 141.581 193.937 142.969 190.282 143.482Z" fill="#273150"/>
<path d="M184.216 134.787C184.216 134.787 175.812 139.753 174.058 133.618C172.304 127.483 170.112 117.839 170.112 113.895C170.112 113.895 167.188 108.051 166.019 104.692C164.85 101.332 165.581 100.748 167.479 101.623C169.38 102.498 173.617 106.736 173.617 106.736C173.617 106.736 179.17 99.8699 186.333 99.1387C186.333 99.1387 180.741 106.334 179.536 110.278C178.331 114.222 183.41 126.312 183.41 126.312C183.41 126.312 191.102 128.652 191.011 129.525C190.72 132.303 184.216 134.787 184.216 134.787Z" fill="#1D2538"/>
<path d="M186.938 100.911C186.938 100.911 185.591 96.5487 184.746 93.6239C183.795 90.3363 186.142 91.2171 188.235 93.5879C190.426 96.0723 192.383 98.7921 192.967 99.8141C193.552 100.839 188.146 103.542 186.938 100.911Z" fill="#273150"/>
<path d="M196.949 105.402C197.517 104.761 197.196 103.551 196.233 102.7C195.27 101.849 194.029 101.679 193.461 102.321C192.894 102.963 193.214 104.173 194.178 105.024C195.141 105.875 196.382 106.044 196.949 105.402Z" fill="#121721"/>
<path d="M203.486 130.865C203.486 130.865 210.946 134.881 212.437 137.072L207.795 138.714C207.795 138.714 204.149 135.427 203.486 130.865Z" fill="#992C29"/>
<path d="M188.101 111.023C188.785 110.25 188.398 108.791 187.237 107.765C186.075 106.739 184.579 106.534 183.895 107.308C183.211 108.081 183.598 109.54 184.76 110.566C185.921 111.592 187.417 111.797 188.101 111.023Z" fill="#121721"/>
<path d="M192.036 128.577C192.036 128.577 179.738 126.394 173.401 133.836C167.734 140.492 164.711 142.6 156.739 146.547C151.729 149.026 145.536 148.779 142.05 155.532C139.711 160.06 140.881 166.636 143.22 172.333C148.188 177.883 186.946 166.876 189.844 165.613C198.395 161.888 203.38 154.23 206.068 150.931C208.479 147.973 208.595 138.39 201.987 132.582C199.576 130.463 196.314 128.928 192.036 128.577Z" fill="#273150"/>
<path d="M190.063 130.33C182.828 128.649 179.738 126.394 173.401 133.836C167.734 140.492 164.711 142.6 156.739 146.546C151.729 149.025 145.536 148.779 142.05 155.531C139.711 160.06 140.881 166.635 143.22 172.332C148.188 177.882 186.946 166.876 189.844 165.613C189.844 165.613 179.758 164.297 178.444 160.572C177.128 156.847 183.488 147.424 183.488 147.424C185.679 141.068 192.629 130.926 190.063 130.33Z" fill="#1D2538"/>
<path d="M213.166 111.32C215.371 109.705 216.183 107.065 214.979 105.423C213.775 103.781 211.012 103.758 208.807 105.372C206.602 106.987 205.79 109.627 206.994 111.269C208.198 112.912 210.961 112.934 213.166 111.32Z" fill="#121721"/>
<path d="M212.317 181.736C210.995 179.82 207.307 179.385 207.307 179.385C206.955 178.994 206.002 178.418 205.813 177.928C203.244 171.272 200.875 165.251 200.133 163.697C198.589 160.473 197.644 154.009 194.197 146.555C190.75 139.102 180.716 152.172 185.233 157.349C189.013 161.684 200.335 181.479 200.662 181.784L204.899 185.29C206.018 186.34 207.684 186.885 209.119 185.888C210.557 184.894 213.614 183.614 212.317 181.736Z" fill="#273150"/>
<path d="M142.89 168.622C145.417 164.717 152.998 167.381 154.47 168.406C156.019 169.481 153.422 178.858 153.345 180.124C153.262 181.448 141.964 192.308 139.792 195.232C137.445 198.392 140.377 201.345 138.9 202.807C138.152 203.549 130.831 203.453 130.731 200.198C130.637 197.124 132.593 191.806 132.621 191.557C132.676 191.067 141.895 178.947 142.05 178.288C142.203 177.643 142.139 169.782 142.89 168.622Z" fill="#1D2538"/>
<path d="M196.348 129.602C196.348 129.602 204.533 129.311 204.095 127.594C207.038 125.384 211.239 120.855 211.239 120.855L202.635 125.658L196.348 129.602Z" fill="#1D2538"/>
<path d="M172.889 130.33C172.889 130.33 172.049 132.887 172.376 134.64C172.376 134.64 179.34 135.881 190.792 135.881C196.93 135.881 205.7 134.421 205.7 134.421L204.825 129.801C204.825 129.801 187.068 133.105 172.889 130.33Z" fill="#992C29"/>
<path d="M203.104 131.173C203.104 131.173 208.331 126.977 211.393 126.764L215.438 133.616C215.438 133.616 206.186 132.702 203.104 131.173Z" fill="#C93F37"/>
<path d="M203.104 131.175C205.775 132.864 215.434 133.617 215.434 133.617C215.434 133.617 211.489 130.463 210.217 130.336C208.945 130.208 203.104 131.175 203.104 131.175Z" fill="#992C29"/>
<path d="M78.9075 49.154C83.5129 49.4836 94.705 59.3825 102.586 67.7664C112.78 78.6125 125.302 90.1233 130.429 92.4194C136.788 95.2694 143.912 98.9946 146.872 98.9946C146.872 98.9946 133.169 113.583 127.577 118.513C121.985 123.443 124.948 113.583 117.712 118.513C110.477 123.443 98.1992 138.003 98.1992 138.003C98.1992 138.003 91.8398 136.125 82.4129 127.484C70.0986 116.197 50.5132 66.4535 53.2537 57.7982C55.997 49.1402 74.5211 47.9492 78.9075 49.154Z" fill="#992C29"/>
<path d="M78.9082 49.1543C83.5136 49.4839 95.0354 58.8481 102.916 67.2319C113.111 78.0779 126.893 89.7963 132.039 92.0536C137.922 94.6322 149.945 99.7754 152.905 99.7754L147.094 104.035C147.094 104.035 133.901 103.243 123.416 91.7628C110.73 77.8757 89.704 53.7852 78.9082 49.1543Z" fill="#29ACE4"/>
<path d="M57.8704 55.7877C57.8704 55.7877 46.1907 55.9649 40.7485 54.0179C35.3063 52.0709 36.8386 31.3652 47.6649 28.6372C60.0346 25.5186 74.8982 32.1795 83.1197 37.5332C91.3412 42.8868 88.0022 50.8938 76.1035 54.666C64.0303 58.4908 57.8704 55.7877 57.8704 55.7877Z" fill="#229BC6"/>
<path d="M83.7707 45.1159C83.7707 51.7629 62.1487 52.098 55.5566 52.098C48.9644 52.098 43.6191 46.7084 43.6191 40.0614C43.6191 33.4144 48.9644 28.0248 55.5566 28.0248C62.1487 28.0248 83.7707 38.4689 83.7707 45.1159Z" fill="#992C29"/>
<path d="M123.595 119.007C123.194 118.423 116.834 110.388 114.642 108.197C112.451 106.006 128.819 117.401 128.819 117.401C128.819 117.401 127.112 119.232 125.713 119.775C124.399 120.287 123.997 119.592 123.595 119.007Z" fill="#C93F37"/>
<path d="M114.261 103.104L111.409 102.556L107.555 105.423C106.887 104.628 107.959 99.0878 108.996 99.0158C110.603 98.9022 113.983 98.6695 116.039 99.8635C117.467 100.692 122.025 104.437 121.149 105.315C120.955 105.509 120.035 105.426 120.035 105.426C119.827 105.528 119.049 105.354 118.755 105.462C118.464 105.573 117.899 105.503 117.431 105.307L114.261 103.104Z" fill="#F6874E"/>
<path d="M88.5482 60.4677C88.5482 60.4677 94.0292 73.1833 95.1958 75.928C97.3683 81.0381 92.8959 83.5945 89.8284 81.0381C86.7609 78.4817 80.6259 66.5997 79.476 63.7913C78.3232 60.9801 85.3532 56.7618 88.5482 60.4677Z" fill="#CE6D3E"/>
<path d="M90.127 63.9214C90.127 63.9214 94.2142 73.4354 95.2201 76.0002C96.4089 79.033 92.9008 80.8028 91.3297 78.9471C89.4121 76.6843 87.8576 61.0022 90.127 63.9214Z" fill="#F6874E"/>
<path d="M76.8987 49.0835C78.8495 47.876 83.43 50.2605 86.104 55.2953C89.0661 60.873 89.8864 63.2048 89.8864 63.2048C89.8864 63.2048 86.6498 62.6482 85.0538 64.0855C82.4601 66.4201 80.4373 69.0566 80.4373 69.0566C80.4373 69.0566 77.4446 63.0027 75.8485 58.9316C74.3716 55.1485 74.3799 50.6454 76.8987 49.0835Z" fill="#C93F37"/>
<path d="M109.461 96.9283C110.78 100.457 107.48 101.822 105.507 100.285C103.534 98.7507 99.6491 93.1865 95.1102 88.2537C89.8841 82.5787 87.986 79.7951 91.3139 77.3661C94.6419 74.9344 94.7971 75.1753 100.156 82.803C103.839 88.0432 108.838 95.2665 109.461 96.9283Z" fill="#CE6D3E"/>
<path d="M105.291 91.5548C102.806 95.158 93.1046 81.756 93.1046 81.756C90.0177 77.7845 90.3447 77.7762 91.8438 76.8068C94.878 75.2725 94.9307 75.4913 98.5136 80.4405C101.337 84.34 106.073 90.4192 105.291 91.5548Z" fill="#F6874E"/>
<path d="M111.149 100.218L115.657 100.606C115.884 100.625 116.092 100.739 116.233 100.919L121.529 104.575C121.833 104.965 122.415 104.999 122.762 104.644C123.017 104.381 123.069 103.982 122.886 103.664L118.187 99.3316C118.095 99.1709 117.951 99.0463 117.782 98.9798L109.522 95.6615C109.225 95.5424 106.964 94.7059 105.476 96.1961C103.988 97.6863 104.761 99.2845 104.911 99.6058L105.692 103.093C105.701 103.11 105.706 103.124 105.715 103.137L108.391 108.084C108.535 108.353 108.818 108.516 109.123 108.514L109.721 108.505C110.273 108.5 110.661 107.962 110.492 107.436L109.539 104.45C109.494 104.309 109.489 104.157 109.522 104.01L110.281 100.838C110.375 100.451 110.744 100.185 111.149 100.218Z" fill="#CE6D3E"/>
<path d="M99.5906 120.667C99.5906 120.667 98.7704 124.394 78.7057 126.635C70.5174 127.549 62.5148 126.934 56.1083 126.604C50.7187 126.328 40.7708 124.234 36.2347 122.586C31.7263 120.949 27.7417 117.523 38.3712 110.057C49.0201 102.576 94.6416 106.861 99.5906 120.667Z" fill="#EC5E4D"/>
<path d="M46.8587 114.596C46.8587 114.596 43.7746 112.965 44.761 110.993C45.7475 109.022 48.4326 108.911 48.4326 108.911L46.8587 114.596Z" fill="#C93F37"/>
<path d="M85.1448 35.729C84.5352 44.3342 76.9621 45.6332 68.2086 46.4142C62.9465 46.8851 57.3408 44.8134 53.7025 41.2212C51.2889 38.8393 49.7399 35.7871 49.7344 32.3666C49.7178 23.7891 59.3996 16.131 68.1531 15.35C76.9039 14.5689 85.7988 26.4839 85.1448 35.729Z" fill="#273150"/>
<path d="M68.5068 17.9165C71.0166 14.2654 71.316 10.114 69.1755 8.64402C67.035 7.17403 63.2652 8.94212 60.7554 12.5932C58.2456 16.2442 57.9461 20.3956 60.0866 21.8656C62.2271 23.3356 65.9969 21.5675 68.5068 17.9165Z" fill="#273150"/>
<path d="M61.3759 13.1163C61.714 8.81345 60.1973 5.18471 57.9882 5.0113C55.7791 4.83789 53.7141 8.18547 53.376 12.4883C53.0378 16.7912 54.5545 20.4199 56.7636 20.5933C58.9727 20.7667 61.0377 17.4191 61.3759 13.1163Z" fill="#273150"/>
<path d="M61.3657 26.2301C63.0874 21.5155 61.6279 16.6519 58.1057 15.3668C54.5835 14.0818 50.3324 16.862 48.6107 21.5765C46.8889 26.2911 48.3485 31.1548 51.8707 32.4398C55.3929 33.7249 59.6439 30.9447 61.3657 26.2301Z" fill="#273150"/>
<path d="M56.915 44.8921C61.8236 42.5511 63.9235 36.7162 61.6053 31.8594C59.287 27.0026 53.4284 24.9631 48.5197 27.3041C43.6111 29.6451 41.5112 35.4801 43.8295 40.3368C46.1478 45.1936 52.0063 47.2331 56.915 44.8921Z" fill="#273150"/>
<path d="M80.4494 31.8108C84.1879 28.618 84.1536 22.4442 80.373 18.0212C76.5923 13.5982 70.4968 12.6009 66.7583 15.7936C63.0199 18.9864 63.0541 25.1601 66.8348 29.5832C70.6155 34.0062 76.7109 35.0035 80.4494 31.8108Z" fill="#273150"/>
<path d="M85.0718 35.2178C84.5758 42.2417 78.3937 43.2997 71.2529 43.9367C66.9579 44.3189 62.383 42.6294 59.4152 39.6991C57.4451 37.7548 56.1843 35.2649 56.1787 32.4731C56.1649 25.4742 64.065 19.2259 71.2086 18.5861C78.3466 17.9519 85.6038 27.6761 85.0718 35.2178Z" fill="#48598B"/>
<path d="M68.1837 19.1146C70.3399 15.9779 70.5961 12.4106 68.7558 11.1468C66.9155 9.88297 63.6757 11.4012 61.5194 14.5379C59.3632 17.6745 59.1071 21.2418 60.9474 22.5056C62.7877 23.7695 66.0275 22.2512 68.1837 19.1146Z" fill="#48598B"/>
<path d="M60.8607 15.7443C61.0912 12.8104 60.0574 10.3362 58.5516 10.2179C57.0458 10.0997 55.6382 12.3823 55.4077 15.3162C55.1771 18.2501 56.2109 20.7244 57.7167 20.8426C59.2225 20.9608 60.6301 18.6782 60.8607 15.7443Z" fill="#48598B"/>
<path d="M63.1016 26.2374C64.9241 21.2469 63.9483 16.3063 60.9221 15.2022C57.8959 14.0981 53.9652 17.2487 52.1427 22.2391C50.3202 27.2296 51.296 32.1702 54.3222 33.2743C57.3484 34.3784 61.2791 31.2278 63.1016 26.2374Z" fill="#48598B"/>
<path d="M59.0947 43.0991C63.3127 41.0876 65.1172 36.074 63.1251 31.9009C61.133 27.7278 56.0987 25.9754 51.8807 27.9869C47.6626 29.9984 45.8581 35.012 47.8502 39.1851C49.8423 43.3583 54.8766 45.1106 59.0947 43.0991Z" fill="#48598B"/>
<path d="M78.7352 31.8557C81.9477 29.1122 81.9183 23.8072 78.6695 20.0066C75.4206 16.206 70.1827 15.349 66.9701 18.0924C63.7576 20.8359 63.787 26.141 67.0358 29.9416C70.2846 33.7422 75.5226 34.5992 78.7352 31.8557Z" fill="#48598B"/>
<path d="M51.9411 133.658C51.9273 137.101 52.8389 145.559 57.4221 145.781C61.9167 145.999 63.7039 142.723 65.2058 137.563C67.3478 130.207 77.2153 95.4697 65.7545 94.517C54.2937 93.5642 53.2795 98.6715 51.9965 105.341C50.7136 112.013 51.9688 127.285 51.9411 133.658Z" fill="#273150"/>
<path d="M52.49 139.317C52.6507 140.034 55.6683 134.713 55.6683 134.713C55.6683 134.713 55.4439 123.477 57.2035 122.222C63.3412 117.181 69.0439 119.813 69.0439 119.813C71.596 108.313 72.9898 95.1182 65.7547 94.5172C54.2939 93.5645 53.2797 98.6717 51.9968 105.341C51.2542 109.213 51.365 115.982 51.5811 122.228C51.7391 126.745 51.667 135.647 52.49 139.317Z" fill="#102441"/>
<path d="M49.5112 144.62C40.5387 161.451 42.8829 177.415 42.3315 197.426C42.1126 205.366 46.8843 204.056 48.2143 198.046C49.9517 190.208 55.4466 173.82 61.3682 151.48C63.2331 145.891 55.3718 133.624 49.5112 144.62Z" fill="#CE6D3E"/>
<path d="M50.6888 141.552C53.2741 136.201 58.2176 135.032 61.9279 136.793C64.3636 137.948 64.8458 139.1 62.834 146.808C61.576 151.622 60.7309 154.073 60.584 154.441C60.584 154.441 54.6818 151.234 46.5684 151.481C46.5684 151.478 48.9348 145.183 50.6888 141.552Z" fill="#102441"/>
<path d="M51.1687 145.863C43.4294 160.385 45.2305 174.532 44.7539 191.795C44.7068 193.493 44.5877 194.861 44.7789 196C45.2167 198.592 47.971 199.717 48.8356 195.817C50.3347 189.053 56.2895 171.053 61.3992 151.779C63.0064 146.96 56.2258 136.377 51.1687 145.863Z" fill="#F6874E"/>
<path d="M51.7223 142.603C51.7223 142.603 55.2303 133.618 62.1855 135.482C64.5076 136.103 64.9842 138.872 62.9392 146.221C61.5232 151.317 60.8554 153.943 60.7224 154.336C60.7224 154.336 55.6765 151.012 48.6631 151.414L51.7223 142.603Z" fill="#273150"/>
<path d="M62.9034 141.435C62.9034 141.435 58.7746 142.166 57.3115 140.56C57.3115 140.56 57.9683 143.262 59.4313 143.772C60.8916 144.284 62.2439 142.822 62.2439 142.822L60.9277 142.675L62.9034 141.435Z" fill="#102441"/>
<path d="M43.7368 199.839C44.3685 205.575 45.017 212.923 57.2287 211.527C63.4219 210.818 55.7601 203.628 53.5322 200.952C53.5322 200.952 49.6417 196.556 49.312 195.856C48.4724 194.066 45.5268 193.623 43.9335 197.26C43.1078 199.138 43.6453 199.005 43.7368 199.839Z" fill="#F6874E"/>
<path d="M41.1979 203.305C41.0067 204.313 41.5138 204.723 42.9325 205.626C45.9141 207.526 50.7218 209.182 55.5599 208.672C61.6367 208.035 49.3114 205.715 48.2141 204.291C47.1167 202.868 46.6762 200.021 45.8033 198.102C44.7808 195.856 44.4871 194.213 43.5006 195.966C42.5141 197.717 41.4141 202.167 41.1979 203.305Z" fill="#CE6D3E"/>
<path d="M42.3311 197.535C42.3311 197.535 42.1399 197.69 43.2455 199.8C47.4103 207.763 49.5218 207.832 54.6814 207.799C58.0814 207.777 52.7805 201.152 52.7805 201.152L49.5273 196.211C49.5273 196.211 52.2872 199.507 55.3907 203.032C57.3 205.198 59.5833 207.032 60.3951 208.361C61.8056 210.319 63.3601 213.465 61.6947 213.825C56.1029 215.03 48.6905 213.593 47.3161 212.895C45.9417 212.197 45.781 210.261 44.0463 208.239C43.3896 207.472 41.6716 206.705 41.5608 206.012C41.4444 204.226 40.8929 202.944 41.2975 200.808C41.727 198.546 42.3311 197.535 42.3311 197.535Z" fill="#992C29"/>
<path d="M84.4859 189.022C83.48 192.886 84.4194 193.601 85.4834 194.825C93.3669 203.91 95.229 200.398 96.4898 200.996C100.693 202.993 100.821 197.96 98.9227 196.908C97.0966 195.894 94.1289 191.789 91.8234 189.693C90.7455 188.712 90.6652 188.1 89.1938 187.903C87.6642 187.701 84.9126 187.391 84.4859 189.022Z" fill="#F6874E"/>
<path d="M84.5106 193.823C88.9359 205.277 98.4154 202.318 100.283 201.449C101.053 201.089 96.0822 195.485 96.0822 195.485C96.0822 195.485 90.471 193.984 87.4395 192.635C84.264 191.222 83.1944 190.422 84.5106 193.823Z" fill="#CE6D3E"/>
<path d="M84.1839 189.177C84.5026 188.587 84.5636 188.855 84.6661 189.285C85.4586 192.608 85.7301 193.938 88.3903 196.794C89.2964 197.766 89.2742 199.937 96.8529 200.317C100.067 200.477 96.0826 195.489 96.0826 195.489L91.5797 189.423L92.9181 190.733C92.9181 190.733 98.2051 196.622 100.278 197.982C102.309 199.314 104.659 205.679 102.719 205.862C97.7673 206.327 93.0455 205.804 89.1024 204.851C87.2653 204.302 86.168 200.447 85.4614 200.198C85.4614 200.198 83.53 198.807 83.5106 197.774C83.4939 196.777 83.7378 190.002 84.1839 189.177Z" fill="#992C29"/>
<path d="M92.2817 139.827C92.2817 139.827 95.3519 117.197 91.0763 105.694C88.5187 98.809 83.7082 97.535 78.4988 97.7012C73.2893 97.8673 72.2253 101.964 72.9984 106.348C73.7715 110.732 77.4015 134.717 79.2359 140.21C81.206 146.109 85.0965 145.685 87.6042 145.674C90.5221 145.657 91.6554 144.131 92.2817 139.827Z" fill="#273150"/>
<path d="M83.2914 122.443C85.2644 121.127 93.2476 120.474 93.2476 120.474C93.1672 115.247 92.613 109.838 91.0724 105.695C88.5148 98.8094 83.7043 97.5354 78.4949 97.7015C73.2854 97.8677 72.2213 101.964 72.9945 106.348C73.3297 108.251 74.2026 113.849 75.2362 120.025C75.2362 120.025 77.6968 134.499 78.6833 137.823C78.8717 137.726 79.4869 134.28 80.4373 128.802C81.1605 126.885 81.3185 123.758 83.2914 122.443Z" fill="#102441"/>
<path d="M79.4836 144.897C75.4269 158.435 79.3838 164.811 84.6099 189.37C85.0921 191.636 89.6975 193.242 90.8834 189.83C91.0802 189.265 90.9943 188.188 90.9943 186.955C90.9943 177.848 93.4272 155.322 91.9336 146.6C90.7781 139.872 81.4815 138.224 79.4836 144.897Z" fill="#F6874E"/>
<path d="M77.7689 153.533C77.6858 155.821 77.7938 159.15 78.7055 163.786C80.0688 170.727 82.4463 179.44 82.7428 180.952C83.2361 183.473 84.6326 189.663 85.0178 191.225C85.2589 192.203 88.2238 193.225 88.2238 193.225C88.2238 193.225 86.3534 187.932 85.9211 186.577C85.0289 183.775 80.6563 163.908 79.6559 153.932C79.5423 152.779 77.852 151.22 77.7689 153.533Z" fill="#CE6D3E"/>
<path d="M78.4812 142.329C80.0246 137.637 82.1278 136.615 85.8354 136.526C88.9583 136.451 91.5824 136.274 91.8845 143.625C92.0812 148.42 92.2669 151.91 92.4969 153.89C92.4969 153.89 88.4512 152.239 77.7108 153.945C77.7136 153.945 77.4587 145.439 78.4812 142.329Z" fill="#273150"/>
<path d="M78.481 142.33C78.8025 141.408 78.8717 144.568 78.8717 144.568L79.6642 153.679C79.6642 153.679 79.2292 153.704 77.7135 153.945C77.7135 153.945 77.4142 148.451 78.481 142.33Z" fill="#102441"/>
<path d="M90.9066 142.487C90.9066 142.487 87.1519 142.345 85.6694 141.523C84.1869 140.7 88.421 146.466 90.9066 142.487Z" fill="#102441"/>
<path d="M78.6885 79.2858C74.0083 84.1938 60.1977 79.1113 59.613 74.4498C59.3636 72.4666 58.6459 67.8605 56.5428 59.4515C55.2265 54.1917 55.0076 52.4689 55.5923 51.7294C57.1274 49.7878 62.9049 49.0981 68.821 48.2035C78.5776 46.7245 79.2704 49.0594 82.4875 53.5907C86.4057 59.1164 87.8965 69.6304 78.6885 79.2858Z" fill="#F6BE4A"/>
<path d="M62.7913 59.7667C58.1111 64.6747 60.1977 79.1105 59.613 74.4491C59.3636 72.4659 58.6459 67.8599 56.5428 59.451C55.2265 54.1912 55.0076 52.4685 55.5923 51.7289C57.1274 49.7874 62.9049 49.0977 68.821 48.2031C78.5776 46.724 79.2621 49.0284 82.6621 53.7675C86.608 59.2709 71.9993 50.1114 62.7913 59.7667Z" fill="#D09435"/>
<path d="M60.051 69.8491C59.3195 72.5882 59.4553 79.5814 59.6853 75.3993C59.7961 73.4052 56.543 59.0144 56.543 59.0144L71.6698 53.7051L61.7303 62.6897C61.733 62.6897 60.7826 67.1099 60.051 69.8491Z" fill="#D09435"/>
<path d="M58.0781 76.8609C58.0781 76.8609 38.6645 104.043 37.2874 107.619C35.9074 111.206 31.4156 115.809 31.6096 117.692C32.9037 114.111 44.7219 115.28 46.8528 114.596C46.8528 114.596 42.5273 111.746 46.1795 110.433C49.8316 109.12 58.1668 108.976 63.0659 109.059C77.6911 109.314 94.6246 112.122 99.6013 120.869C99.6013 120.869 91.269 79.9409 79.7167 71.039C68.4 62.3143 58.0781 76.8609 58.0781 76.8609Z" fill="#F6BE4A"/>
<path d="M81.3183 55.8791C83.2358 56.9204 84.9538 59.0918 84.9538 59.0918C84.9538 59.0918 84.6074 56.6435 82.9088 54.2339C81.6286 52.4171 76.9346 54.8903 76.9346 54.8903C76.9346 54.8903 80.1018 55.2199 81.3183 55.8791Z" fill="#D09435"/>
<path d="M79.0014 75.0227C76.1113 77.4128 61.9322 76.8977 64.0714 70.8128C65.0939 67.8992 71.5586 64.3236 76.2027 63.7891C83.859 62.9083 85.2639 69.849 79.0014 75.0227Z" fill="#FEED7F"/>
<path d="M92.2803 107.979L65.0941 105.788C58.3135 105.788 49.3078 93.5153 51.5024 90.0089C53.6943 86.5025 62.7582 75.2549 62.7582 75.2549C63.7086 70.5796 65.3324 67.0732 72.113 67.0732C72.113 67.0732 79.8607 67.5108 83.0751 75.986C83.0751 75.986 91.4074 88.5853 92.7209 98.2293C93.6852 105.3 92.2803 107.979 92.2803 107.979Z" fill="#FEED7F"/>
<path d="M59.7068 104.822C57.1824 104.999 54.9629 106.12 52.6436 98.917C52.6463 98.917 55.2012 102.6 59.7068 104.822Z" fill="#FEED7F"/>
<path d="M51.793 87.3822C51.793 87.3822 52.5245 92.9321 55.0073 96.585C55.0073 96.585 52.8155 90.304 52.9623 86.5043C53.1092 82.7047 51.793 87.3822 51.793 87.3822Z" fill="#F6BE4A"/>
<path d="M90.7784 108.442C90.8754 107.007 91.3935 102.462 90.4043 100.18C90.4043 100.18 92.5213 103.841 92.4188 107.611C92.3191 111.381 90.6814 109.877 90.7784 108.442Z" fill="#F6BE4A"/>
<path d="M59.1278 79.565C59.1278 79.565 62.2369 74.6594 68.2527 72.6152C68.2527 72.6152 61.0703 73.5044 58.5154 77.0083C55.9606 80.5123 59.1278 79.565 59.1278 79.565Z" fill="#F6BE4A"/>
<path d="M71.3933 53.1197L70.756 53.2167C69.1405 53.4631 67.6303 52.3553 67.3837 50.7407L66.4416 44.5896C66.1949 42.975 67.3033 41.4656 68.9188 41.2191L69.5561 41.1222C71.1716 40.8757 72.6818 41.9835 72.9284 43.5981L73.8706 49.7492C74.12 51.3639 73.0088 52.8732 71.3933 53.1197Z" fill="#F6874E"/>
<path d="M70.4923 45.8914L69.4282 46.0548C67.9291 46.2846 66.5297 45.2571 66.2998 43.7587L65.2939 37.1809C65.0639 35.6825 66.0919 34.2838 67.591 34.054L68.6551 33.8905C70.1542 33.6607 71.5536 34.6882 71.7835 36.1866L72.7894 42.7645C73.0194 44.2628 71.9914 45.6642 70.4923 45.8914Z" fill="#CE6D3E"/>
<path d="M48.5409 62.3988C46.6761 67.0742 43.6668 75.4277 42.8244 76.8458C41.982 78.2639 41.9543 80.4299 44.1988 81.5378C46.4405 82.6484 48.1336 82.0889 49.145 80.8841C50.1564 79.6793 55.9229 69.9215 57.1282 66.0133C58.0759 62.9445 57.4358 59.5764 55.776 58.7815C54.1162 57.9866 50.4058 57.7235 48.5409 62.3988Z" fill="#F6874E"/>
<path d="M48.5412 62.3995C46.6763 67.0748 43.667 75.4283 42.8246 76.8464C42.5669 77.2812 42.3841 77.8435 42.3536 78.1509C42.2871 78.8406 42.7886 78.9015 43.4897 78.0678C44.0439 77.4086 48.1172 69.141 49.5277 64.5793C50.6887 60.8208 49.3836 60.2862 48.5412 62.3995Z" fill="#CE6D3E"/>
<path d="M58.6633 51.2963C56.2304 50.4544 52.9274 51.7699 50.6247 57.3591C49.4165 60.2949 47.7373 64.225 47.7373 64.225C47.7373 64.225 51.5391 64.8233 56.4327 67.8782C56.4327 67.8782 57.9872 64.8094 59.1011 61.9622C61.4398 55.9715 60.5642 51.9527 58.6633 51.2963Z" fill="#EC5E4D"/>
<path d="M58.6633 51.2963C56.2304 50.4544 52.9274 51.7699 50.6247 57.3588C49.4165 60.2945 47.7373 64.2245 47.7373 64.2245L49.4553 64.5901L53.1463 61.4688L59.8327 59.6243C61.3179 54.6807 60.3564 51.8835 58.6633 51.2963Z" fill="#C93F37"/>
<path d="M28.8613 94.0263C28.8613 94.0263 26.5004 96.4636 27.2707 97.8429C27.9967 99.1363 30.5959 100.192 32.4497 98.6876C34.3035 97.1837 40.2611 93.2758 48.1806 82.6321C51.5584 78.0954 44.9967 74.9353 42.3754 77.8018C39.754 80.6684 28.8613 94.0263 28.8613 94.0263Z" fill="#F6874E"/>
<path d="M31.1855 91.4727L37.0323 88.0385L44.0956 76.8164C44.0956 76.8164 43.1285 76.9604 42.3748 77.8051C39.7895 80.702 31.1855 91.4727 31.1855 91.4727Z" fill="#CE6D3E"/>
<path d="M23.3661 102.25C23.3661 102.25 20.8112 106.65 20.1296 107.727C19.5338 108.666 18.6471 107.86 18.9214 107.223C19.1958 106.586 21.0745 102.05 23.3661 102.25Z" fill="#CE6D3E"/>
<path d="M21.7587 102.25C21.7587 102.25 19.2038 106.65 18.5222 107.727C17.9264 108.666 17.0397 107.86 17.314 107.223C17.5883 106.586 19.4643 102.05 21.7587 102.25Z" fill="#CE6D3E"/>
<path d="M32.6234 97.538C32.3851 99.0752 31.4264 101.452 29.096 103.997C27.2976 105.961 26.8903 106.952 26.2335 108.376C26.0673 108.733 25.6295 109.179 25.1916 109.58C23.7951 110.86 23.227 110.661 23.0829 109.81C22.9167 108.813 23.4099 108.06 24.2855 106.733C24.7344 106.052 24.8176 105.235 24.97 104.789C25.1667 104.224 25.2443 102.872 23.6066 102.59C21.9246 102.299 21.0074 100.094 21.57 99.2829C22.5564 97.8593 28.999 94.1784 29.7416 94.3917C31.3876 94.6991 32.8617 96.0009 32.6234 97.538Z" fill="#F6874E"/>
<path d="M24.1588 100.524C24.7157 100.682 25.4473 101.773 24.6963 102.443C23.9454 103.114 20.0272 105.114 18.9438 106.424C17.6552 107.983 16.9459 109.346 16.1451 109.761C15.1226 110.29 13.8119 110.221 14.8704 108.595C16.3695 106.293 17.4807 103.801 20.0522 102.527C22.6264 101.252 23.6018 100.366 24.1588 100.524Z" fill="#F6874E"/>
<path d="M24.0226 102.451C25.2723 101.163 23.8868 97.998 22.9696 98.2583C22.0524 98.5186 17.8655 101.941 16.8929 102.387C15.9202 102.833 13.7173 106.057 13.2324 107.203C12.7447 108.35 12.7031 109.059 14.0443 108.718C15.3854 108.377 16.9538 104.57 18.7937 103.609C20.6337 102.648 22.7729 103.739 24.0226 102.451Z" fill="#F6874E"/>
<path d="M56.1773 61.5215C56.1773 61.5215 52.0901 62.3382 50.6297 63.227C49.1694 64.1158 49.5269 64.5781 49.5269 64.5781L56.1773 61.5215Z" fill="#C93F37"/>
<path d="M75.7265 52.5354C67.6685 58.0137 49.3882 59.9137 49.4464 59.742C50.0311 57.9833 53.9853 49.2478 58.0781 48.5166C60.8241 48.5083 71.5811 48.6108 75.7265 52.5354Z" fill="#229BC6"/>
<path d="M78.5422 48.0813C75.9125 47.4968 70.5008 51.8315 70.2071 53.0004C69.9134 54.1692 79.016 52.355 95.5699 62.1073C101.256 65.456 82.779 49.1033 78.5422 48.0813Z" fill="#29ACE4"/>
<path d="M72.4399 53.1874C72.8593 53.1874 73.1992 52.8475 73.1992 52.4282C73.1992 52.0089 72.8593 51.6689 72.4399 51.6689C72.0206 51.6689 71.6807 52.0089 71.6807 52.4282C71.6807 52.8475 72.0206 53.1874 72.4399 53.1874Z" fill="#273150"/>
<path d="M79.3376 12.9627C80.1689 13.2425 80.0719 17.3729 78.0047 17.1014C76.0595 16.8466 73.9203 16.251 74.5742 15.0515C75.2254 13.8547 78.5063 12.6829 79.3376 12.9627Z" fill="#C93F37"/>
<path d="M79.562 14.3065C79.562 14.3065 79.2268 16.8059 78.5146 16.9084C77.7997 17.0082 78.4232 15.836 78.5867 14.2039C78.7502 12.5718 79.6757 13.2563 79.562 14.3065Z" fill="#F7BC4B"/>
<path d="M74.2275 16.072C74.2275 16.072 77.8686 19.1819 81.3296 20.3589C83.9454 21.2479 85.9516 21.2866 85.9516 21.2866L85.342 20.4641L86.4587 19.5364C86.4587 19.5364 81.7896 19.4949 75.1226 15.4849L74.2275 16.072Z" fill="#C93F37"/>
<path d="M76.0146 17.2053C76.0146 17.2053 78.7358 20.8693 81.8032 22.6169C84.1226 23.9379 86.0733 24.3229 86.0733 24.3229L85.6965 23.4172L87.0404 22.7083C87.0404 22.7083 82.4821 21.858 77.0482 16.7926L76.0146 17.2053Z" fill="#C93F37"/>
<path d="M57.7268 33.9236C59.4136 32.766 59.7123 30.2717 58.394 28.3523C57.0757 26.4329 54.6395 25.8154 52.9527 26.973C51.2659 28.1306 50.9672 30.6249 52.2855 32.5443C53.6039 34.4636 56.04 35.0812 57.7268 33.9236Z" fill="#CE6D3E"/>
<path d="M69.5559 16.7444C70.4814 18.373 67.353 20.3284 64.0167 22.2229C60.6832 24.1174 57.2278 24.3334 56.3023 22.702C55.3768 21.0734 57.3275 18.2151 60.661 16.3206C63.9973 14.4289 68.6304 15.1158 69.5559 16.7444Z" fill="#273150"/>
<path d="M54.7307 28.1271C54.8526 18.2419 62.8968 15.3032 64.8947 14.921C74.8592 13.0099 79.3426 18.9122 81.2463 29.3597C82.6373 36.9931 78.1179 39.1368 73.5956 40.8624C68.1534 42.9397 54.5811 40.4746 54.7307 28.1271Z" fill="#CE6D3E"/>
<path d="M58.0174 31.3155C58.5522 23.8286 65.7512 21.2527 67.5246 20.876C67.5246 20.876 77.2037 23.2276 79.0686 24.6928C80.9334 26.158 81.277 31.0828 81.277 31.0828C82.1693 36.7969 78.1043 38.6167 74.0503 40.1235C69.1789 41.9322 57.3496 40.6636 58.0174 31.3155Z" fill="#F6874E"/>
<path d="M61.054 18.5522C66.2912 14.6359 74.654 16.2174 74.654 16.2174C74.654 16.2174 66.729 9.91911 59.5133 16.3143C53.0403 22.0504 54.8276 27.1328 55.7392 30.1683C55.7392 30.1683 54.8636 23.1832 61.054 18.5522Z" fill="#F6BE4A"/>
<path d="M66.1387 27.3806C66.7142 27.2775 67.0245 26.3234 66.8319 25.2497C66.6393 24.1761 66.0167 23.3893 65.4413 23.4924C64.8659 23.5956 64.5555 24.5496 64.7481 25.6233C64.9407 26.697 65.5633 27.4838 66.1387 27.3806Z" fill="#273252"/>
<path d="M76.1166 25.9835C76.5974 25.8827 76.8206 25.0071 76.6151 24.0279C76.4096 23.0487 75.8533 22.3366 75.3725 22.4374C74.8917 22.5383 74.6685 23.4138 74.874 24.393C75.0795 25.3722 75.6358 26.0843 76.1166 25.9835Z" fill="#273252"/>
<path d="M65.3604 19.8496C65.3604 19.8496 63.9555 20.1073 63.6396 21.3875" stroke="#273252" stroke-miterlimit="10" stroke-linecap="round" stroke-linejoin="round"/>
<path d="M75.937 19.4972C75.937 19.4972 75.0198 18.7103 74.0693 18.8433" stroke="#273252" stroke-miterlimit="10" stroke-linecap="round" stroke-linejoin="round"/>
</svg>
