<svg width="350" height="428" viewBox="0 0 350 428" fill="none" xmlns="http://www.w3.org/2000/svg">
<path d="M108.771 70.8005C77.9205 58.6789 47.0699 33.3723 40.6871 30.8203C34.3042 28.2684 61.1123 12.1062 78.5588 15.9341C96.0053 19.762 93.8777 42.7293 93.8777 47.8332C93.8777 47.8332 98.1329 41.028 107.494 44.8559C116.856 48.6838 119.409 63.1447 119.409 69.9499C119.409 76.755 113.66 72.723 108.771 70.8005Z" fill="#F3E7D9"/>
<path d="M335.359 207.197C335.359 207.197 276.016 178.526 248.816 162.708C221.617 146.891 217.166 129.095 215.187 119.704C213.208 110.313 214.693 101.909 238.429 113.771C238.429 113.771 232.991 103.887 241.395 93.5046C249.803 83.1226 269.586 93.5046 278.982 106.358C288.377 119.211 288.871 121.682 288.871 121.682C288.871 121.682 295.794 110.313 306.181 113.771C316.568 117.229 319.534 144.913 311.619 153.317C311.619 153.317 320.521 151.34 332.389 163.202C344.257 175.064 352.172 184.953 348.708 189.402C345.244 193.85 335.849 193.85 324.968 186.93C324.968 186.93 347.717 207.69 347.717 210.659C347.721 213.624 335.359 207.197 335.359 207.197Z" fill="#F3E7D9"/>
<path d="M88.4066 243.052C83.828 237.603 75.5558 227.736 75.5558 227.736C75.5558 227.736 63.0709 239.764 58.8794 243.779C54.4242 248.045 45.6754 254.493 49.7264 254.978C53.8029 255.462 58.5092 254.62 59.7773 254.255C59.7773 254.255 60.3262 266.746 77.1345 263.765C93.3214 260.89 93.3895 248.981 88.4066 243.052Z" fill="#1D2538"/>
<path d="M59.3988 251.66C59.3988 251.66 29.0844 280.289 30.0078 282.998C30.961 285.797 52.6712 290.913 66.454 274.798C77.9985 261.302 78.8751 246.31 59.3988 251.66Z" fill="#1D2538"/>
<path d="M40.0455 284.737C38.4115 285.669 5.0333 319.643 5.30564 324.807C5.59499 330.225 22.5096 337.694 37.6881 326.942C51.5092 317.155 61.8281 272.335 40.0455 284.737Z" fill="#1D2538"/>
<path d="M264.509 243.558L306.751 276.048C306.751 276.048 303.189 278.868 293.355 276.639L238.637 289.067L264.509 243.558Z" fill="#1D2538"/>
<path d="M290.709 271.625L323.594 299.747C323.594 299.747 308.99 311.579 294.684 298.913C290.594 295.294 240.936 299.075 240.936 299.075L262.978 269.337C262.978 269.337 283.892 270.119 290.709 271.625Z" fill="#1D2538"/>
<path d="M312.726 301.197C314.215 301.823 327.24 311.027 341.908 323.514C341.908 323.514 324.653 336.725 312.904 331.723C301.147 326.717 291.224 292.151 312.726 301.197Z" fill="#1D2538"/>
<path d="M212.289 208.983L239.654 240.785C239.654 240.785 236.335 243.192 229.037 241.197L183.489 248.058L212.289 208.983Z" fill="#1D2538"/>
<path d="M224.322 235.477L248.113 257.9C248.113 257.9 214.999 305.812 206.148 294.779C203.616 291.628 183.416 256.709 183.416 256.709L206.259 231.22C206.267 231.215 219.263 234.129 224.322 235.477Z" fill="#1D2538"/>
<path d="M239.318 259.07C240.369 259.623 248.862 267.653 258.032 278.536C258.032 278.536 242.028 289.803 233.752 285.401C225.471 280.999 224.152 251.108 239.318 259.07Z" fill="#1D2538"/>
<path d="M202.6 151.825C202.6 151.825 211.11 104.189 168.983 93.9812C126.856 83.7735 113.035 116.281 110.686 123.329C106.006 137.364 106.006 145.871 106.006 145.871L202.6 151.825Z" fill="#C94039"/>
<path d="M201.094 146.806C201.094 146.806 188.213 128.211 157.324 120.725C126.435 113.24 120.929 120.275 119.614 121.733C116.584 125.098 116.584 137.045 116.584 137.045C116.584 137.045 138.878 132.383 161.533 134.859C190.826 138.057 201.094 146.806 201.094 146.806Z" fill="#EE5D4F"/>
<path d="M105.899 146.142C105.478 152.518 119.422 157.66 156.217 159.761C193.012 161.867 202.599 155.227 202.599 151.982C203.021 145.606 181.251 139.082 160.898 136.943C136.643 134.386 106.32 139.767 105.899 146.142Z" fill="#1D2538"/>
<path d="M112.555 141.141L112.853 141.03C112.849 140.962 111.887 134.484 117.219 118.076C122.648 101.374 141.291 93.5906 141.474 93.5098L140.716 93.7139L140.274 93.8415C140.091 93.9223 122.325 102.02 116.98 118.089C111.678 134.029 112.551 141.073 112.555 141.141Z" fill="#1D2538"/>
<path d="M169.217 128.074C159.981 128.074 152.494 120.591 152.494 111.359C152.494 102.128 159.981 94.644 169.217 94.644C178.453 94.644 185.94 102.128 185.94 111.359C185.94 120.591 178.453 128.074 169.217 128.074Z" fill="#EE5D4F"/>
<path d="M163.664 126.731C153.676 126.731 145.579 118.638 145.579 108.655C145.579 98.672 153.676 90.5791 163.664 90.5791C173.652 90.5791 181.749 98.672 181.749 108.655C181.749 118.638 173.652 126.731 163.664 126.731Z" fill="#34283A"/>
<path d="M165.792 124.604C155.804 124.604 147.707 116.511 147.707 106.527C147.707 96.5442 155.804 88.4512 165.792 88.4512C175.78 88.4512 183.877 96.5442 183.877 106.527C183.877 116.511 175.78 124.604 165.792 124.604Z" fill="#1689CB"/>
<path d="M166.856 120.777C158.396 120.777 151.537 113.922 151.537 105.465C151.537 97.0086 158.396 90.1533 166.856 90.1533C175.316 90.1533 182.175 97.0086 182.175 105.465C182.175 113.922 175.316 120.777 166.856 120.777Z" fill="#29ABE2"/>
<path d="M167.281 118.649C159.76 118.649 153.664 112.555 153.664 105.039C153.664 97.5218 159.76 91.4282 167.281 91.4282C174.801 91.4282 180.897 97.5218 180.897 105.039C180.897 112.555 174.801 118.649 167.281 118.649Z" fill="#665070"/>
<path d="M165.856 118.045C159.393 118.045 154.154 112.809 154.154 106.349C154.154 99.8891 159.393 94.6523 165.856 94.6523C172.318 94.6523 177.558 99.8891 177.558 106.349C177.558 112.809 172.318 118.045 165.856 118.045Z" fill="#FEED7F"/>
<path d="M156.724 111.818C161.103 119.019 169.66 116.008 169.66 116.008L156.316 100.99C156.316 100.99 152.346 104.618 156.724 111.818Z" fill="#F7BC4B"/>
<path d="M159.681 83.3689L167.762 0.588867" stroke="#F7BC4B" stroke-miterlimit="10"/>
<path d="M198.063 93.4658L256.646 19.7705" stroke="#F7BC4B" stroke-miterlimit="10"/>
<path d="M174.834 82.3613L197.055 34.9121" stroke="#F7BC4B" stroke-miterlimit="10"/>
<path d="M217.255 81.3535C217.255 81.3535 206.144 50.0578 167.762 52.0739" stroke="#F7BC4B" stroke-miterlimit="10"/>
<path d="M282.347 74.51L277.802 93.6921L281.334 90.1577L284.87 74.0039L282.347 74.51Z" fill="#3E4C6F"/>
<path d="M275.611 76.08L271.066 95.2625L274.603 91.728L278.139 75.5781L275.611 76.08Z" fill="#3E4C6F"/>
<path d="M276.343 75.2974L280.381 89.431L277.351 93.9736L272.807 80.8479L273.815 97.5081L266.241 95.9939L270.279 75.7992L276.343 75.2974Z" fill="#1D2538"/>
<path d="M278.968 154.798C284.649 150.842 286.402 108.591 286.053 96.5839C285.717 85.1257 285.849 89.6171 285.849 89.6171C285.849 89.6171 286.436 87.146 281.338 87.146C276.241 87.146 276.245 87.2906 275.602 88.8898C274.956 90.4975 274.53 93.1558 273.87 94.1936C273.207 95.2399 272.041 95.6142 270.981 95.5887C269.922 95.5632 271.483 93.747 268.317 93.747C265.151 93.747 263.994 93.1516 263.105 96.8902C262.198 100.68 255.569 133.051 255.475 136.377C255.377 139.746 260.743 140.75 265.109 141.698C267.96 142.319 272.649 148.746 273.322 150.596C273.985 152.442 276.551 156.482 278.968 154.798Z" fill="#1D2538"/>
<path d="M267.756 138.393C267.756 138.393 266.913 150.842 259.339 157.405C251.765 163.968 245.114 166.324 245.114 166.324" stroke="#4B3355" stroke-width="3" stroke-miterlimit="10"/>
<path d="M269.271 138.393C269.271 138.393 268.764 152.021 261.19 158.583C253.615 165.146 246.628 166.324 246.628 166.324" stroke="#665070" stroke-width="3" stroke-miterlimit="10"/>
<path d="M261.603 131.554C261.603 131.554 259.543 143.816 251.935 150.341C244.326 156.861 236.952 160.94 236.952 160.94" stroke="#665070" stroke-width="3" stroke-miterlimit="10"/>
<path d="M263.79 131.72C263.79 131.72 261.73 143.982 254.122 150.507C246.514 157.027 239.139 161.105 239.139 161.105" stroke="#4B3355" stroke-width="3" stroke-miterlimit="10"/>
<path d="M267.492 133.912C267.492 133.912 265.433 146.174 257.824 152.698C250.216 159.218 242.842 163.297 242.842 163.297" stroke="#4B3355" stroke-width="3" stroke-miterlimit="10"/>
<path d="M272.44 82.7015C272.44 82.7015 265.053 86.1593 263.096 85.011C261.138 83.8626 259.172 81.8338 257.743 78.8906C256.313 75.9474 254.947 74.0973 256.181 72.8894C257.415 71.6857 258.751 70.4523 258.751 70.4523C258.751 70.4523 257.462 71.4518 256.309 69.9844C255.156 68.5171 251.479 61.6311 252.109 59.8108C252.739 57.9904 254.168 55.4087 254.73 54.6006C255.292 53.7925 255.764 54.3327 255.764 54.3327C255.764 54.3327 255.743 52.1295 256.768 50.9769C257.794 49.8243 259.709 49.1055 259.709 49.1055C259.709 49.1055 259.641 47.5743 260.824 46.6046C262.006 45.6349 262.513 45.6689 264.726 45.0352C266.938 44.4014 268.364 44.3632 268.364 44.3632C268.364 44.3632 270.062 43.0362 270.994 42.7937C271.925 42.5513 276.445 41.6496 278.453 43.0064C280.466 44.3589 284.117 49.0459 285.585 53.4097C287.053 57.7735 288.827 69.2444 286.955 73.9314C285.083 78.6227 277.181 81.7956 272.44 82.7015Z" fill="#992C29"/>
<path d="M266.279 76.3641C266.279 76.3641 260.245 82.0251 259.011 79.6476C257.981 77.6571 256.709 75.237 256.709 75.237C256.709 75.237 256.322 74.1652 256.535 73.3444C256.747 72.5235 257.935 71.7664 257.935 71.7664C256.99 70.567 253.462 65.6291 253.981 64.1362C254.496 62.6433 255.667 60.5295 256.126 59.8703C256.586 59.211 256.973 59.6491 256.973 59.6491C256.973 59.6491 256.956 57.8457 257.794 56.9015C258.632 55.9573 260.203 55.3704 260.203 55.3704C260.203 55.3704 260.147 54.12 261.118 53.3246C262.088 52.5293 262.5 52.559 264.313 52.0401C266.126 51.5213 267.292 51.4915 267.292 51.4915C267.292 51.4915 268.683 50.4069 269.445 50.207C270.207 50.0071 273.909 49.2713 275.556 50.3814C277.202 51.4915 280.194 55.3279 281.398 58.9048C282.602 62.4817 283.93 67.0667 281.036 70.0184C278.802 72.3023 272.998 71.3794 266.279 76.3641Z" fill="#C94039"/>
<path d="M269.904 43.3853C269.904 43.3853 267.202 45.7457 267.16 47.1663C267.117 48.5868 269.389 56.3616 270.13 58.5732C270.87 60.7848 271.147 61.2059 272.594 61.661C274.04 62.1161 276.466 61.5632 276.466 61.5632C276.466 61.5632 275.657 62.2692 273.691 62.367C271.725 62.4648 270.606 61.3463 270.117 61.0613C269.628 60.7763 269.019 58.4456 268.436 56.1957C267.849 53.9458 266.219 48.3232 265.977 47.3917C265.734 46.4603 266.823 44.6017 269.904 43.3853Z" fill="#121721"/>
<path d="M259.798 49.0288C259.798 49.0288 260.011 52.1762 261.798 58.3944C262.381 60.4232 262.874 63.4727 265.849 62.9198C267.738 62.3329 271.1 61.2228 271.1 61.2228L271.253 61.5971C271.253 61.5971 268.734 62.7497 267.049 63.2728C265.359 63.796 263.904 63.9278 262.998 63.0006C262.091 62.0734 260.415 56.3826 259.921 53.5287C259.428 50.6706 258.666 49.9858 259.798 49.0288Z" fill="#121721"/>
<path d="M255.76 54.3283C255.76 54.3283 257.65 61.5716 258.296 63.7237C258.939 65.8758 260.347 66.3947 262.577 67.6367L261.879 67.709C261.879 67.709 258.428 66.2331 257.901 64.2171C257.373 62.2011 255.267 54.1752 255.267 54.1752C255.267 54.1752 255.356 54.1369 255.522 54.1752C255.684 54.2135 255.76 54.3283 255.76 54.3283Z" fill="#121721"/>
<path d="M257.654 71.7626C257.654 71.7626 261.934 67.8326 263.981 66.4674C266.028 65.1021 267.968 66.5056 268.547 67.7646C269.122 69.0235 270.824 70.4441 269.496 71.703C268.173 72.962 265.356 74.1869 263.926 75.3565C263.926 75.3565 264.054 75.4543 264.441 76.441C264.828 77.4278 265.445 77.6277 265.445 77.6277L264.5 75.3607C264.5 75.3607 270.36 72.1836 270.466 70.997C270.573 69.8104 269.092 67.6285 268.241 66.276C267.39 64.9235 265.679 65.0383 263.437 66.2845C261.194 67.5264 257.654 71.7626 257.654 71.7626Z" fill="#121721"/>
<path d="M261.19 166.575C253.846 166.575 247.892 160.624 247.892 153.284C247.892 145.943 253.846 139.993 261.19 139.993C268.534 139.993 274.487 145.943 274.487 153.284C274.487 160.624 268.534 166.575 261.19 166.575Z" fill="#992C29"/>
<path d="M263.883 159.17C261.187 159.17 259.002 156.986 259.002 154.292C259.002 151.598 261.187 149.414 263.883 149.414C266.578 149.414 268.764 151.598 268.764 154.292C268.764 156.986 266.578 159.17 263.883 159.17Z" fill="#4B3355"/>
<path d="M272.807 137.215C272.807 137.215 271.964 149.664 264.39 156.227C256.815 162.79 250.164 165.146 250.164 165.146" stroke="#856792" stroke-width="3" stroke-miterlimit="10"/>
<path d="M276.509 136.543C276.509 136.543 275.666 148.992 268.092 155.555C260.518 162.118 253.867 164.474 253.867 164.474" stroke="#BB83C3" stroke-width="3" stroke-miterlimit="10"/>
<path d="M275.33 139.822C275.33 139.822 273.645 156.227 266.071 162.79C258.496 169.353 251.845 171.709 251.845 171.709" stroke="#665070" stroke-width="3" stroke-miterlimit="10"/>
<path d="M201.544 171.849C205.407 168.264 203.22 168.995 222.552 159.621C234.373 153.888 243.215 150.927 247.245 149.715C248.747 149.264 251.364 150.038 251.717 152.046C252.517 156.563 253.224 159.357 254.522 161.769C255.798 164.134 256.96 165.031 258.964 163.972C260.892 162.951 263.347 160.199 264.07 162.968C264.781 165.703 264.9 172.134 262.517 173.721C257.27 177.221 226.752 197.556 213.446 200.797C198.276 204.493 197.561 175.549 201.544 171.849Z" fill="#C94039"/>
<path d="M216.841 174.201C219.603 171.747 215.654 172.61 229.637 166.043C238.305 161.973 244.841 159.812 247.837 158.919C248.956 158.583 250.913 159.085 251.177 160.467C251.777 163.589 252.305 165.524 253.283 167.187C254.245 168.825 255.122 169.442 256.637 168.68C258.096 167.949 259.956 165.996 260.509 167.927C261.058 169.841 261.156 174.358 259.347 175.49C255.364 177.978 232.497 191.98 222.799 194.421C217.586 195.744 214.003 176.723 216.841 174.201Z" fill="#EE5D4F"/>
<path d="M264.406 168.485L208.586 198.049" stroke="#1D2538" stroke-width="0.5" stroke-miterlimit="10"/>
<path d="M198.591 167.728C198.591 167.728 207.403 163.368 208.637 166.537C209.322 174.516 213.692 189.925 217.752 200.478C216.578 202.022 210.816 206.521 206.114 204.986C201.191 203.383 198.591 167.728 198.591 167.728Z" fill="#F7BC4B"/>
<path d="M208.071 188.258C209.79 187.178 210.667 185.145 210.297 183.146C209.114 176.732 207.633 163.968 208.637 166.541C209.322 174.52 213.692 189.93 217.752 200.482C216.578 202.026 210.816 206.526 206.114 204.99C203.569 204.161 201.991 189.377 201.991 189.377C204.99 189.283 206.641 189.156 208.071 188.258Z" fill="#FEED7F"/>
<path d="M280.036 154.062C286.53 149.651 288.955 103.742 287.806 92.1265C286.759 81.5403 287.164 85.6319 287.164 85.6319C287.164 85.6319 287.627 83.3691 282.321 83.3691C277.049 83.3691 277.057 83.501 276.457 84.9513C275.849 86.4187 275.513 88.8643 274.862 89.8255C274.206 90.7953 273.002 91.1355 271.896 91.11C270.794 91.0802 272.36 89.4045 269.079 89.3917C265.811 89.3789 264.611 88.8303 263.751 92.2796C262.866 95.8311 256.726 126.663 255.462 135.926C257.356 135.203 261.653 135.888 267.16 138.474C272.755 141.102 276.411 145.1 277.449 148.677C278.508 152.31 277.262 155.946 280.036 154.062Z" fill="#C94039"/>
<path d="M260.853 106.422L262.143 99.6334C262.143 99.6334 276.283 95.3717 288.181 101.203L287.955 108.382C287.955 108.387 273.87 101.713 260.853 106.422Z" fill="#F7BC4B"/>
<path d="M287.789 111.721L287.874 109.364C287.874 109.364 280.376 106.579 274.155 106.085C266.747 105.498 260.521 107.85 260.521 107.85L260.1 110.292C260.1 110.292 265.351 107.574 274.023 108.186C277.959 108.467 282.606 109.696 287.789 111.721Z" fill="#F7BC4B"/>
<path d="M280.994 152.093C284.589 141.588 286.342 116.745 286.342 116.745C286.342 116.745 286.759 114.703 281.976 114.703C277.223 114.703 267.721 119.867 265.228 122.742C260.458 128.237 258.436 133.847 259.334 134.293C260.232 134.74 264.415 135.701 269.381 138.032C274.428 140.401 277.725 144.008 278.662 147.236C279.615 150.511 280.015 154.96 280.994 152.093Z" fill="#EE5D4F"/>
<path d="M283.13 83.3691C285.674 88.086 285.653 110.53 282.904 127.454C280.81 140.354 276.845 147.142 276.845 147.142" stroke="#1D2538" stroke-width="0.5" stroke-miterlimit="10"/>
<path d="M201.748 167.502C201.748 167.502 192.004 152.697 160.017 150.34C122.537 146.525 104.729 160.331 104.729 160.331L72.8185 337.902L219.463 333.594L201.748 167.502Z" fill="#992C29"/>
<path d="M207.658 222.692C207.658 222.692 184.429 207.044 151.6 207.044C118.77 207.044 93.5793 222.356 93.5793 222.356L89.1454 246.697C89.1454 246.697 118.268 231.776 149.578 231.274C180.889 230.773 210.407 248.045 210.407 248.045L207.658 222.692Z" fill="#F7BC4B"/>
<path d="M211.22 256.424C211.22 256.424 185.846 242.46 150.566 242.46C115.286 242.46 87.6308 256.058 87.6308 256.058L83.2522 278.438C83.2522 278.438 123.43 261.277 149.017 261.502C174.604 261.727 213.773 278.574 213.773 278.574L211.22 256.424Z" fill="#F7BC4B"/>
<path d="M198.302 181.295C198.302 181.295 192.106 174.077 166.753 172.21C133.086 178.267 86.6226 293.019 86.6226 293.019C86.6226 293.019 114.231 281.242 149.583 280.735C184.936 280.229 212.544 298.403 212.544 298.403L198.302 181.295Z" fill="#EE5D4F"/>
<path d="M106.81 248.874C106.81 248.874 104.133 254.148 101.269 260.129C98.8907 265.096 96.4141 270.558 94.9503 273.803C151.941 241.537 209.91 277.201 209.91 277.201L207.195 254.514C207.195 254.514 181.911 242.597 149.469 242.771C128.371 242.882 115.801 246.356 106.81 248.874Z" fill="#FEED7F"/>
<path d="M203.004 219.991L206.199 245.854C206.199 245.854 192.17 235.647 161.787 233.04C131.4 230.432 112.605 237.667 112.605 237.667C112.605 237.667 119.996 223.198 128.877 209.401C128.877 209.396 161.366 199.133 203.004 219.991Z" fill="#FEED7F"/>
<path d="M102.112 172.886C102.112 172.886 121.303 155.555 157.719 158.464C171.043 159.527 186.391 163.687 202.221 173.227" stroke="#1D2538" stroke-width="0.5" stroke-miterlimit="10"/>
<path d="M187.344 165.763L189.255 206.789" stroke="#1D2538" stroke-width="0.5" stroke-miterlimit="10"/>
<path d="M207.024 217.677L207.109 217.75L207.084 217.448C207.084 217.448 203.386 213.836 196.08 209.919C189.335 206.308 178.093 201.727 162.825 200.417C128.689 197.482 101.124 207.295 94.8559 215.283L94.775 215.729L94.9027 215.572C100.89 207.593 128.515 197.682 162.808 200.626C178.042 201.936 189.259 206.5 195.982 210.102C203.258 214.007 206.986 217.639 207.024 217.677Z" fill="#1D2538"/>
<path d="M87.2949 285.788C87.2949 285.788 115.294 264.547 152.609 267.614C181.391 269.979 201.765 277.205 211.318 284.789" stroke="#1D2538" stroke-width="0.5" stroke-miterlimit="10"/>
<path d="M150.817 158.192L150.592 178.607C150.592 178.607 132.83 178.862 125.903 180.402C115.801 182.643 113.558 183.992 113.558 183.992L115.354 164.92C115.354 164.92 131.95 157.575 150.817 158.192Z" stroke="#1D2538" stroke-width="0.5" stroke-miterlimit="10"/>
<path d="M114.456 174.12C114.456 174.12 106.375 176.587 103.682 179.054" stroke="#1D2538" stroke-width="0.5" stroke-miterlimit="10"/>
<path d="M150.592 174.12C150.592 174.12 171.915 172.775 187.851 180.848" stroke="#1D2538" stroke-width="0.5" stroke-miterlimit="10"/>
<path d="M113.559 183.992L112.154 205.666" stroke="#1D2538" stroke-width="0.5" stroke-miterlimit="10"/>
<path d="M25.347 74.5091L29.8916 93.6912L26.3555 90.1567L22.8236 74.0029L25.347 74.5091Z" fill="#3E4C6F"/>
<path d="M32.0791 76.0795L36.6279 95.2617L33.0918 91.7273L29.5557 75.5776L32.0791 76.0795Z" fill="#3E4C6F"/>
<path d="M31.3512 75.2969L27.3129 89.4306L30.3427 93.9731L34.8873 80.8474L33.8745 97.5076L41.4531 95.9934L37.4106 75.7988L31.3512 75.2969Z" fill="#1D2538"/>
<path d="M41.2705 138.784C43.3769 138.24 44.713 136.505 44.5853 134.582C44.0364 126.246 42.8577 105.49 42.7471 104.108C42.6152 102.42 41.8322 100.769 39.2025 100.306C36.5897 99.8463 33.36 99.8463 33.0196 98.481C32.6877 97.1413 33.0579 94.9169 30.7983 94.7552C28.5431 94.5936 25.458 94.0662 24.2368 95.1848C22.5772 96.7032 15.722 125.438 14.8709 138.678C13.871 154.245 26.4027 161.765 27.3686 160.327C28.3175 158.911 24.1219 155.585 27.7984 145.811C29.9473 140.09 37.6706 139.716 41.2705 138.784Z" fill="#1D2538"/>
<path d="M27.7045 132.672C27.7045 132.672 28.547 145.121 36.1214 151.684C43.6957 158.247 50.3467 160.603 50.3467 160.603" stroke="#4B3355" stroke-width="3" stroke-miterlimit="10"/>
<path d="M26.1898 132.672C26.1898 132.672 26.6962 146.299 34.2706 152.862C41.8449 159.425 48.832 160.603 48.832 160.603" stroke="#665070" stroke-width="3" stroke-miterlimit="10"/>
<path d="M35.6277 124.063C35.6277 124.063 37.6872 136.326 45.2956 142.85C52.904 149.37 60.2783 153.449 60.2783 153.449" stroke="#665070" stroke-width="3" stroke-miterlimit="10"/>
<path d="M33.4362 124.234C33.4362 124.234 35.4958 136.496 43.1042 143.021C50.7126 149.541 58.0869 153.62 58.0869 153.62" stroke="#4B3355" stroke-width="3" stroke-miterlimit="10"/>
<path d="M27.9685 128.189C27.9685 128.189 30.028 140.451 37.6364 146.976C45.2448 153.496 52.6191 157.575 52.6191 157.575" stroke="#4B3355" stroke-width="3" stroke-miterlimit="10"/>
<path d="M38.1214 85.4362C38.1214 85.4362 45.6659 88.3751 47.5255 87.1034C49.385 85.8317 51.1893 83.6881 52.402 80.681C53.6147 77.6698 54.8402 75.7431 53.5339 74.6372C52.2318 73.5314 50.8233 72.4043 50.8233 72.4043C50.8233 72.4043 52.1679 73.3017 53.2105 71.7705C54.253 70.2394 57.4147 63.1705 56.6657 61.4139C55.9168 59.6531 54.3254 57.199 53.7126 56.4377C53.0998 55.6763 52.6701 56.242 52.6701 56.242C52.6701 56.242 52.5382 54.0601 51.4446 52.9925C50.351 51.925 48.4063 51.3465 48.4063 51.3465C48.4063 51.3465 48.368 49.8281 47.1297 48.9477C45.8915 48.0673 45.3936 48.1354 43.1596 47.6633C40.9256 47.1911 39.5128 47.2507 39.5128 47.2507C39.5128 47.2507 37.7384 46.0555 36.8022 45.8812C35.8618 45.7068 31.33 45.1241 29.4321 46.6042C27.5343 48.0843 24.245 52.967 23.0918 57.3904C21.9387 61.8137 20.9727 73.2847 23.1514 77.7931C25.3258 82.2973 33.3682 84.8705 38.1214 85.4362Z" fill="#992C29"/>
<path d="M42.568 79.9962C42.568 79.9962 47.9978 83.0797 49.3169 82.7778C50.636 82.4758 51.4956 81.8931 52.4402 79.5368C53.3849 77.1806 54.3466 75.6749 53.3253 74.8073C52.3041 73.9396 52.253 73.761 53.07 72.5659C53.887 71.3665 56.3593 65.8373 55.7721 64.4635C55.1849 63.0855 53.9423 61.1673 53.4615 60.5676C52.9806 59.9679 52.6445 60.4145 52.6445 60.4145C52.6445 60.4145 52.5423 58.709 51.687 57.8711C50.8317 57.0332 49.3126 56.5824 49.3126 56.5824C49.3126 56.5824 49.2828 55.3957 48.3126 54.7067C47.3424 54.0177 46.9552 54.073 45.2063 53.703C43.4616 53.3329 42.3553 53.3797 42.3553 53.3797C42.3553 53.3797 40.9681 52.444 40.2362 52.3079C39.5043 52.1718 35.9554 51.7167 34.4703 52.8736C32.9852 54.0305 30.4108 57.8541 29.5087 61.3119C28.6066 64.774 28.0193 68.2404 29.7214 71.7663C31.4235 75.2922 36.3639 74.4458 42.568 79.9962Z" fill="#C94039"/>
<path d="M37.9169 46.3833C37.9169 46.3833 40.7509 48.5312 40.8956 49.9347C41.0402 51.3382 39.3211 59.1896 38.7381 61.4268C38.1552 63.6639 37.9126 64.1063 36.5127 64.6507C35.1127 65.1951 32.6744 64.8208 32.6744 64.8208C32.6744 64.8208 33.5255 65.4673 35.4744 65.4247C37.4233 65.3865 38.4573 64.2041 38.9211 63.8851C39.3849 63.5661 39.8275 61.2226 40.2487 58.9557C40.6743 56.6887 41.8998 51.0108 42.0785 50.0751C42.2572 49.1394 41.053 47.3743 37.9169 46.3833Z" fill="#121721"/>
<path d="M48.3086 51.27C48.3086 51.27 48.3172 54.4003 46.9768 60.678C46.5385 62.728 46.2619 65.7775 43.2789 65.433C41.3683 64.9822 37.9684 64.1146 37.9684 64.1146L37.845 64.4973C37.845 64.4973 40.4151 65.4628 42.1215 65.8669C43.8279 66.2667 45.2789 66.2964 46.1087 65.3182C46.9384 64.34 48.2065 58.5897 48.5001 55.7316C48.7895 52.8692 49.4958 52.1377 48.3086 51.27Z" fill="#121721"/>
<path d="M52.6705 56.2377C52.6705 56.2377 51.2961 63.5361 50.811 65.7094C50.3259 67.8828 48.9685 68.491 46.8451 69.8733L47.543 69.8945C47.543 69.8945 50.8578 68.1975 51.2365 66.1645C51.6195 64.1315 53.1514 56.0463 53.1514 56.0463C53.1514 56.0463 53.062 56.0122 52.9003 56.0633C52.7386 56.1186 52.6705 56.2377 52.6705 56.2377Z" fill="#121721"/>
<path d="M51.998 73.6205C51.998 73.6205 47.4917 70.0265 45.3684 68.8185C43.245 67.6106 41.4238 69.1333 40.9387 70.4178C40.4536 71.7023 39.8876 72.2849 41.2791 73.9225C42.6705 75.56 45.5556 78.2055 45.5556 78.2055C45.5556 78.2055 42.9897 79.5665 41.8961 80.8425C42.2876 79.3752 44.3173 77.6313 44.3173 77.6313C44.3173 77.6313 39.8706 73.7226 39.6834 72.5529C39.4961 71.3833 40.3897 70.3157 41.1386 68.9164C41.8876 67.517 43.5897 67.5128 45.896 68.5931C48.2024 69.6734 51.998 73.6205 51.998 73.6205Z" fill="#121721"/>
<path d="M38.5891 163.687C31.245 163.687 25.2914 157.736 25.2914 150.396C25.2914 143.055 31.245 137.104 38.5891 137.104C45.9332 137.104 51.8867 143.055 51.8867 150.396C51.8867 157.736 45.9332 163.687 38.5891 163.687Z" fill="#992C29"/>
<path d="M36.5676 154.938C34.1494 154.938 32.189 152.979 32.189 150.562C32.189 148.144 34.1494 146.185 36.5676 146.185C38.9859 146.185 40.9463 148.144 40.9463 150.562C40.9463 152.979 38.9859 154.938 36.5676 154.938Z" fill="#4B3355"/>
<path d="M25.9935 134.297C25.9935 134.297 26.8361 146.747 34.4104 153.309C41.9848 159.872 48.6357 162.229 48.6357 162.229" stroke="#856792" stroke-width="3" stroke-miterlimit="10"/>
<path d="M22.2875 133.625C22.2875 133.625 23.13 146.074 30.7044 152.637C38.2787 159.2 44.9297 161.556 44.9297 161.556" stroke="#BB83C3" stroke-width="3" stroke-miterlimit="10"/>
<path d="M24.309 140.86C24.309 140.86 25.1515 153.309 32.7259 159.872C40.3002 166.435 46.9512 168.791 46.9512 168.791" stroke="#665070" stroke-width="3" stroke-miterlimit="10"/>
<path d="M103.362 159.753C103.362 159.753 63.078 146.611 57.4951 145.012C52.1335 143.472 49.9548 144.352 49.2952 148.852C48.6442 153.284 46.4357 155.398 42.3464 155.908C38.4018 156.401 37.3252 156.261 36.5167 156.423C35.7083 156.584 35.2019 158.303 35.1508 162.364C35.104 166.26 33.7849 166.907 42.2401 172.13C51.2484 177.693 88.4138 194.067 88.4138 194.067C88.4138 194.067 99.3923 188.253 102.856 179.938C106.465 171.287 103.362 159.753 103.362 159.753Z" fill="#C94039"/>
<path d="M74.4485 170.233C65.2274 167.136 53.551 161.713 50.3255 162.083C47.2021 162.441 43.0533 163.649 40.4107 163.581C37.7853 163.517 37.0534 162.279 37.0065 165.426C36.964 168.451 39.8023 169.093 46.4405 173.189C53.4957 177.54 85.8824 190.908 85.8824 190.908C85.8824 190.908 90.6865 185.638 91.3589 179.109C91.7248 175.498 83.8228 173.38 74.4485 170.233Z" fill="#EE5D4F"/>
<path d="M87.2609 183.958C87.2141 184.723 87.7716 185.374 88.512 185.412C89.2524 185.451 89.8949 184.855 89.946 184.09C89.9971 183.32 89.4354 182.665 88.6949 182.631C87.9503 182.593 87.312 183.188 87.2609 183.958Z" fill="#3E4C6F"/>
<path d="M93.8184 189.249L35.2023 164.474" stroke="#1D2538" stroke-width="0.5" stroke-miterlimit="10"/>
<path d="M100.282 158.103C100.282 158.103 107.188 159.357 108.537 160.952C109.894 162.556 108.014 177.055 103.818 185.519C99.801 193.617 95.3925 197.356 91.1968 195.51C89.1458 194.604 87.0693 193.507 87.0693 193.507C87.0693 193.507 91.3585 188.743 95.4138 176.664C99.8775 163.355 100.282 158.103 100.282 158.103Z" fill="#FEED7F"/>
<path d="M100.281 158.103C100.281 158.103 107.188 159.357 108.537 160.952C109.894 162.556 105.137 177.28 105.137 177.28C105.137 177.28 103.349 179.73 95.4134 176.664C99.8772 163.355 100.281 158.103 100.281 158.103Z" fill="#F7BC4B"/>
<path d="M38.5898 133.175C42.5174 133.175 44.3684 136.016 44.3684 136.016C44.3684 136.016 44.7471 135.888 44.4961 133.251C43.5982 122.189 42.7599 97.9071 42.6705 96.7417C42.5259 94.8533 41.6791 93.0074 38.8281 92.4885C35.9983 91.9738 32.4963 91.9738 32.1303 90.4469C31.7686 88.9498 32.1686 86.4574 29.7218 86.2788C27.2793 86.1002 23.9347 85.509 22.6113 86.7594C20.8113 88.4607 13.3859 120.598 12.4625 135.412C11.3774 152.824 25.3219 161.646 26.3644 160.038C27.3942 158.451 20.7986 153.99 24.7815 143.055C27.1176 136.654 34.6622 133.175 38.5898 133.175Z" fill="#C94039"/>
<path d="M41.9854 114.669C41.9854 114.669 33.9046 115.677 30.2026 113.661C26.5005 111.641 30.4111 95.9502 30.4111 95.9502L41.3939 98.264L41.9854 114.669Z" stroke="#1D2538" stroke-width="0.5" stroke-miterlimit="10"/>
<path d="M37.368 131.958C42.0403 132.162 42.9637 132.579 42.7424 130.261C42.3509 122.018 19.6789 118.429 17.9385 118.484C15.7854 118.552 13.4493 127.233 14.1216 138.002C14.7939 148.771 20.6789 157.622 21.53 147.423C21.981 142.038 26.6959 131.495 37.368 131.958Z" fill="#EE5D4F"/>
<path d="M26.8066 85.9512C26.1726 87.8056 13.2281 126.782 20.2961 156.396" stroke="#1D2538" stroke-width="0.5" stroke-miterlimit="10"/>
<path d="M93.5584 133.374C95.5541 135.364 100.12 138.665 97.8604 140.825C96.1115 142.501 93.9286 140.719 90.2223 137.061C87.8393 134.709 91.5627 131.383 93.5584 133.374Z" fill="#CC6D3D"/>
<path d="M95.1748 138.414L94.0216 140.37L90.7366 137.028L95.1748 138.414Z" fill="#F5894E"/>
<path d="M86.6905 129.61C86.6905 129.61 88.665 127.79 90.9415 130.205C93.5075 132.932 93.6309 133.136 93.6309 133.136L90.2267 137.062C90.2267 137.062 85.7884 130.346 86.6905 129.61Z" fill="#C94039"/>
<path d="M98.2518 140.808C96.588 141.748 95.8221 141.753 94.754 140.396C93.6859 139.039 96.5582 137.185 100.869 134.918C105.184 132.651 106.635 131.617 107.303 132.6C107.975 133.582 106.064 135.858 103.069 137.801C100.073 139.745 99.9156 139.868 98.2518 140.808Z" fill="#CC6D3D"/>
<path d="M98.5329 140.468C96.8691 141.408 96.1244 140.898 96.1244 140.898L97.2861 139.167C97.2861 139.167 106.677 135.165 103.682 137.108C100.686 139.052 100.197 139.528 98.5329 140.468Z" fill="#F5894E"/>
<path d="M107.418 134.88C108.18 134.374 108.656 134.131 109.099 133.685C109.609 132.924 110.039 131.439 110.426 130.805C111.226 129.504 110.346 128.411 110.001 129.287C109.656 130.163 107.975 131.673 107.975 131.673L108.707 129.032L110.835 126.446C110.835 126.446 110.933 124.2 110.256 124.417C109.58 124.634 108.29 127.322 107.15 127.607C106.009 127.892 104.512 132.443 104.827 133.442C105.141 134.442 106.426 135.475 107.418 134.88Z" fill="#CC6D3D"/>
<path d="M97.5842 152.007C97.5842 152.007 98.4693 155.227 91.5673 154.058C84.6653 152.888 72.0697 149.825 72.0697 149.825C72.0697 149.825 93.3588 146.797 97.5842 152.007Z" fill="#EE5D4F"/>
<path d="M88.4316 165.324L83.1424 173.482L80.8062 170.968L84.8827 162.585L88.4316 165.324Z" fill="#CC6D3D"/>
<path d="M94.0907 151.144C94.5546 151.259 97.3034 151.782 94.6907 156.142C91.678 161.169 90.9546 162.296 88.3717 165.486L84.7888 162.832C84.7888 162.832 86.827 157.728 87.81 154.832C89.0227 151.259 93.6269 151.029 94.0907 151.144Z" fill="#1D2538"/>
<path d="M88.4911 162.972C90.406 162.47 97.3037 151.782 94.691 156.142C91.6783 161.169 90.9549 162.296 88.3719 165.486L84.789 162.832C84.789 162.836 86.572 163.474 88.4911 162.972Z" fill="#3E4C6F"/>
<path d="M83.3507 172.576C83.3507 172.576 84.5209 177.361 83.2486 177.893C81.9763 178.424 80.0103 172.096 80.8061 170.969C81.6018 169.842 83.3507 172.576 83.3507 172.576Z" fill="#CC6D3D"/>
<path d="M83.538 173.367C83.538 173.367 83.8954 176.514 83.2529 176.557C82.6146 176.599 81.4784 174.452 81.121 173.801C80.7636 173.15 81.2188 170.934 80.7082 170.853C80.2018 170.773 79.3891 172.21 79.3678 172.848C79.3593 173.069 79.8146 173.609 80.1848 174.919C80.4231 175.762 80.4997 177.271 80.8359 178.067C81.4827 179.594 82.6358 180.657 83.0954 180.891C84.1592 181.44 84.4103 179.853 84.4188 177.812C84.4316 175.77 83.538 173.367 83.538 173.367Z" fill="#C94039"/>
<path d="M81.0184 173.112C80.9546 172.257 81.2141 170.938 80.7077 170.857C80.2014 170.776 79.3886 172.214 79.3673 172.852C79.3588 173.073 79.8141 173.614 80.1843 174.924C80.4226 175.766 80.4992 177.276 80.8354 178.071C81.4822 179.598 82.6354 180.662 83.0949 180.896C84.1587 181.444 81.312 179.152 81.3248 177.11C81.329 176.608 82.7588 176.319 82.7588 176.319C82.7588 176.319 81.1333 174.63 81.0184 173.112Z" fill="#992C29"/>
<path d="M87.3462 146.504C87.3462 146.504 93.2056 149.09 94.8992 151.085C96.5928 153.079 96.4311 157.282 88.2014 154.062C82.5164 151.837 76.708 149.655 79.4144 148.954C82.1165 148.252 84.4611 145.083 87.3462 146.504Z" fill="#1D2538"/>
<path d="M87.5202 178.003C87.5202 178.003 88.5798 179.836 89.0266 180.874C89.4138 181.78 90.1798 182.98 90.3244 183.682C90.6351 185.196 90.5159 186.034 89.8649 186.115C89.2138 186.195 87.4734 185.625 86.4904 184.545C85.9373 183.937 84.8649 181.087 84.6479 179.722C84.4734 178.658 85.6522 175.426 87.5202 178.003Z" fill="#C94039"/>
<path d="M86.4948 182.104C87.0608 184.843 90.516 186.038 89.865 186.115C89.2139 186.195 87.4735 185.625 86.4906 184.545C85.9374 183.937 84.2012 180.177 83.98 178.811C83.8097 177.744 84.6182 176.821 84.8523 176.595C85.0821 176.374 88.2991 179.56 86.4948 182.104Z" fill="#992C29"/>
<path d="M86.5628 168.808L87.1373 176.868C87.1373 176.868 89.0479 182.231 88.5415 182.253C88.0352 182.274 86.248 181.002 85.2863 179.02C84.665 177.731 83.048 170.735 82.4182 168.953C80.3076 162.951 86.3799 163.874 86.5628 168.808Z" fill="#F5894E"/>
<path d="M77.8179 148.12C79.0987 148.746 84.605 149.949 85.1454 153.654C85.8135 158.213 86.5752 168.974 86.5752 168.974L82.5114 169.119C82.5114 169.119 79.8817 163.126 79.1285 159.311C78.5923 156.597 78.3711 154.415 78.3711 154.415C78.3711 154.415 72.8307 150.307 72.3584 148.805C71.8903 147.304 76.5371 147.495 77.8179 148.12Z" fill="#1D2538"/>
<path d="M85.7461 159.323L86.0992 163.266L86.5801 168.978L82.5121 169.119L85.3886 165.997L85.7461 159.323Z" fill="#3E4C6F"/>
<path d="M75.2691 142.672C74.7159 141.974 75.8563 140.804 76.0095 139.269C76.2648 136.666 75.9967 133.212 76.6861 130.72C77.1627 128.989 77.1457 128.772 78.2903 127.955C79.0478 127.415 81.9839 128.41 84.9583 128.53C87.9625 128.653 88.1625 128.836 89.2816 132.064C90.3454 135.131 89.4391 135.684 88.2391 137.814C87.2817 139.516 85.737 141.345 85.737 141.345C85.737 141.345 85.3881 143.433 82.7158 143.96C79.218 144.658 76.7627 144.556 75.2691 142.672Z" fill="#CE9436"/>
<path d="M87.3115 124.987L86.1201 128.75C86.1201 128.75 85.4733 130.413 84.2095 130.426C82.9456 130.439 82.1627 128.84 82.2733 128.449C82.3839 128.057 83.835 123.511 83.835 123.511L87.3115 124.987Z" fill="#CC6D3D"/>
<path d="M85.4138 141.757C86.9712 142.544 90.8691 146.168 93.2818 147.592C98.5242 151.365 97.5839 152.007 97.5839 152.007C97.5839 152.007 95.7881 150.349 93.6605 150.842C92.4903 151.114 89.8223 153.262 86.3117 151.633C83.733 150.438 79.5927 149.872 79.5927 149.872C79.5927 149.872 75.6353 150.6 74.8991 150.782C72.6396 151.344 71.2907 149.813 71.2907 149.813C72.1417 147.486 75.0821 140.643 77.1331 139.869C79.1927 139.099 83.8564 140.97 85.4138 141.757Z" fill="#F7BC4B"/>
<path d="M74.9033 150.786C72.6608 151.395 71.2949 149.817 71.2949 149.817C72.5289 146.129 74.8225 142.497 74.8225 142.497L72.9161 148.558L74.9033 150.786Z" fill="#CE9436"/>
<path d="M84.031 137.083C84.7842 137.504 88.9714 134.786 88.5841 135.768C88.1969 136.747 85.5544 142.642 84.3927 143.118C83.2353 143.594 82.0566 141.076 80.5417 140.711C79.0268 140.345 76.3928 141.421 76.4737 140.774C76.5545 140.128 79.7545 134.692 84.031 137.083Z" fill="#F7BC4B"/>
<path d="M85.8908 149.919C87.1588 150.651 89.7588 151.102 89.7588 151.102C89.7588 151.102 86.7716 149.545 84.3716 145.827C84.3674 145.827 84.6227 149.187 85.8908 149.919Z" fill="#CE9436"/>
<path d="M73.2099 133.57C73.2099 133.57 71.478 136.666 70.8185 138.967C70.1589 141.268 71.8142 142.336 72.8525 142.289C73.8908 142.247 75.946 137.045 77.2779 134.906C78.6098 132.766 75.0482 129.989 73.2099 133.57Z" fill="#CC6D3D"/>
<path d="M77.3249 135.561C77.3249 135.561 80.6567 129.913 78.1546 128.254C75.6568 126.591 73.4824 132.137 72.9377 133.736L77.3249 135.561Z" fill="#C94039"/>
<path d="M68.6783 150.391C68.6783 150.391 73.5292 143.399 74.2484 140.898C74.9675 138.397 71.9676 138.01 70.874 138.984C69.7846 139.954 67.2017 147.061 66.657 148.83C66.1123 150.599 67.5847 151.259 68.6783 150.391Z" fill="#CC6D3D"/>
<path d="M69.4481 148.89C69.4481 148.89 73.1842 143.501 73.7373 141.579C74.2905 139.652 68.3077 146.325 67.8906 147.691C67.4736 149.052 68.6013 149.558 69.4481 148.89Z" fill="#F5894E"/>
<path d="M68.8146 149.414C68.8146 149.414 69.0444 151.137 68.7295 152.264C68.6146 152.774 67.6657 152.876 66.9125 153.004C66.1593 153.132 65.4019 153.115 64.9721 153.085C64.5466 153.055 63.9381 152.574 65.338 152.234C65.938 152.089 67.1891 151.519 67.1891 151.519C67.1891 151.519 67.3763 150.311 67.6486 149.703C68.0954 148.695 68.8146 149.414 68.8146 149.414Z" fill="#CC6D3D"/>
<path d="M66.7172 151.778C66.7172 151.778 64.4449 151.608 63.6705 151.71C62.8492 151.821 61.3088 152.255 61.0152 151.834C60.7301 151.417 61.7471 150.783 62.0705 150.757C62.3854 150.727 64.7428 150.604 64.7428 150.604C64.7428 150.604 69.2321 150.851 66.7172 151.778Z" fill="#CC6D3D"/>
<path d="M67.4568 150.516C67.4568 150.516 65.0057 149.631 64.5674 149.571C64.1164 149.511 61.0313 151.609 62.0015 151.605C62.9164 151.601 63.9079 150.686 64.6866 151.184C65.4568 151.673 67.7036 152.014 67.4568 150.516Z" fill="#CC6D3D"/>
<path d="M67.6436 149.703C67.6436 149.703 65.967 148.958 65.5287 149.124C65.0691 149.299 63.4053 150.635 64.4096 150.635C65.35 150.639 67.5372 152.043 67.6436 149.703Z" fill="#CC6D3D"/>
<path d="M91.759 124.6C91.759 124.6 90.0739 127.407 87.5038 126.259C84.9336 125.106 84.2996 118.569 88.1123 118.697C91.925 118.824 93.1845 122.682 91.759 124.6Z" fill="#273252"/>
<path d="M89.9208 115.83C88.6357 114.443 88.1549 112.661 85.3464 113.244C85.3464 113.244 82.4699 112.312 79.7082 114.286C76.3976 116.655 77.6529 120.087 77.6529 120.087C77.6529 120.087 74.0104 123.745 78.3721 126.191C80.4742 127.369 84.3252 126.191 86.0145 125.651C89.7804 124.451 91.2059 117.216 89.9208 115.83Z" fill="#273252"/>
<path d="M86.1292 114.983C87.5505 115.34 92.627 114.672 92.7419 113.503C92.8568 112.333 88.5249 111.057 87.8824 113.515C87.8824 113.515 88.9079 111.125 87.4441 110.466C85.976 109.802 84.708 114.625 86.1292 114.983Z" fill="#273252"/>
<path d="M91.1976 119.931C91.8018 125.447 88.2869 126.766 84.4828 126.277C81.6232 125.911 81.2232 124.095 81.3807 120.488C81.5381 116.882 82.9551 114.194 85.8317 113.994C89.6316 113.73 90.8061 116.35 91.1976 119.931Z" fill="#CC6D3D"/>
<path d="M89.9975 122.928C89.3336 124.872 87.8273 126.288 85.2146 125.973C83.1167 125.722 81.8912 124.11 81.7976 122.111C81.704 120.112 86.138 118.726 88.2188 118.662C90.9634 118.581 90.6613 120.98 89.9975 122.928Z" fill="#F5894E"/>
<path d="M80.725 121.185L83.1505 121.062C83.1505 121.062 83.2569 116.651 86.0526 115.591C88.9887 114.477 90.3291 116.357 90.3291 116.357C90.3291 116.357 88.9291 112.584 84.5888 114.166C81.1378 115.421 80.725 121.185 80.725 121.185Z" fill="#F7BC4B"/>
<path d="M80.1462 121.461C79.8544 120.357 80.3159 119.278 81.177 119.05C82.0381 118.823 82.9728 119.533 83.2646 120.637C83.5564 121.741 83.0949 122.82 82.2338 123.047C81.3726 123.275 80.438 122.564 80.1462 121.461Z" fill="#F5894E"/>
<path d="M86.7669 117.795C86.7669 117.795 87.5076 117.305 87.9844 117.31" stroke="#1D2538" stroke-width="0.25" stroke-miterlimit="10" stroke-linecap="round" stroke-linejoin="round"/>
<path d="M87.3741 119.241C87.2804 118.809 87.3925 118.419 87.6244 118.368C87.8564 118.318 88.1204 118.627 88.2141 119.059C88.3078 119.491 88.1957 119.882 87.9638 119.932C87.7318 119.982 87.4678 119.673 87.3741 119.241Z" fill="#273252"/>
<path d="M90.1113 118.885C90.0732 118.488 90.1637 118.154 90.3135 118.14C90.4633 118.125 90.6156 118.436 90.6537 118.834C90.6918 119.231 90.6012 119.565 90.4515 119.579C90.3017 119.593 90.1494 119.283 90.1113 118.885Z" fill="#273252"/>
<path d="M89.7797 117.029C89.7797 117.029 90.3246 116.991 90.5928 117.25" stroke="#1D2538" stroke-width="0.25" stroke-miterlimit="10" stroke-linecap="round" stroke-linejoin="round"/>
<path d="M80.5936 122.72C80.5936 122.72 83.1254 121.639 84.602 123.336C86.0786 125.034 83.7042 129.3 80.8191 127.751C77.934 126.212 78.6532 123.349 80.5936 122.72Z" fill="#273252"/>
<path d="M84.3423 115.027C84.3423 115.027 84.4572 116.92 83.9806 118.225C83.6189 119.212 83.1296 119.786 83.1296 119.786L83.0104 119.386L82.4232 119.442C82.4232 119.442 83.5806 118.115 83.921 115.12L84.3423 115.027Z" fill="#EE5D4F"/>
<path d="M84.3168 114.817C84.3168 114.817 85.0742 116.557 85.0742 117.943C85.0742 118.994 84.8104 119.7 84.8104 119.7L84.5636 119.364L84.0317 119.615C84.0317 119.615 84.6615 117.973 83.9593 115.038L84.3168 114.817Z" fill="#EE5D4F"/>
<path d="M84.3973 116.034C84.0186 116.28 82.0825 114.826 82.8271 114.069C83.525 113.354 84.4441 112.674 84.8186 113.354C85.1973 114.03 84.7803 115.787 84.3973 116.034Z" fill="#EE5D4F"/>
<path d="M83.1931 115.304C83.1931 115.304 82.6185 114.444 82.8653 114.244C83.1122 114.044 83.2016 114.559 83.6018 115.104C83.9976 115.658 83.4443 115.662 83.1931 115.304Z" fill="#F7BC4B"/>
<path d="M84.3337 115.418C84.3337 115.418 84.0614 115.027 83.2529 115.163C82.4401 115.295 81.8912 115.469 81.755 115.963C81.6189 116.456 82.321 117.43 82.9082 117.698C83.4997 117.966 84.3039 116.596 84.4316 116.171C84.5592 115.746 84.3337 115.418 84.3337 115.418Z" fill="#EE5D4F"/>
<path d="M82.2352 116.825C82.2352 116.825 82.7798 117.62 83.1969 117.442C83.8181 117.178 82.2947 116.132 82.0735 115.949C81.8564 115.766 81.6862 116.404 82.2352 116.825Z" fill="#F7BC4B"/>
<path d="M268.68 308.913C268.68 308.913 322.317 342.824 337.755 349.353C353.729 356.107 323.317 356.702 323.317 356.702C323.317 356.702 337.368 365.323 327.117 366.519C316.807 367.722 310.985 366.519 310.985 366.519C310.985 366.519 335.134 376.36 316.266 385.377C296.552 394.798 182.413 427.356 113.482 409.012C49.8109 392.063 48.4407 386.47 25.7092 387.759C2.83719 389.056 14.2328 378.734 22.2539 375.676C22.2539 375.676 -6.71158 377.713 1.44998 365.455C17.5433 341.284 29.7304 333.824 29.7304 333.824L268.68 308.913Z" fill="#1D2538"/>
<path d="M157.034 403.1C156.405 401.62 146.124 392.348 151.166 391.459C156.209 390.57 163.528 396.078 163.528 396.078C163.528 396.078 165.098 387.04 167.579 389.686C170.064 392.331 171.549 396.882 171.549 396.882C171.549 396.882 173.366 387.368 176.417 390.281C179.468 393.195 180.728 396.155 180.728 396.155C180.728 396.155 185.502 390.4 186.923 393.735C188.345 397.069 189.923 400.77 189.923 400.77C189.923 400.77 193.842 391.948 197.008 391.953C200.174 391.957 202.042 398.464 202.042 398.464C202.042 398.464 203.927 390.166 207.251 390.541C210.574 390.915 212.221 395.836 212.221 395.836C212.221 395.836 219.57 395.534 220.901 399.71C222.229 403.891 214.089 399.706 196.34 403.134C182.311 405.848 157.034 403.1 157.034 403.1Z" fill="#3E4C6F"/>
<path d="M288.943 378.708C288.943 378.708 299.96 370.534 297.109 370.147C294.202 369.751 290.709 373.813 290.709 373.813C290.709 373.813 290.854 367.093 287.939 369.9C285.062 372.665 282.403 382.175 282.403 382.175C282.403 382.175 285.543 369.168 281.424 373.656C277.411 378.028 275.964 383.361 275.964 383.361C275.964 383.361 263.794 367.004 258.165 373.473C252.735 379.712 256.544 383.485 256.544 383.485C256.544 383.485 252.578 374.106 248.965 379.814C245.488 385.305 261.714 394.768 288.943 378.708Z" fill="#3E4C6F"/>
<path d="M135.954 407.707C135.954 407.707 152.847 410.659 151.277 406.673C149.711 402.688 143.005 404.172 143.005 404.172C143.005 404.172 147.643 393.531 143.856 394.633C140.069 395.738 139.464 397.125 139.464 397.125C139.464 397.125 138.643 390.162 136.043 392.332C133.443 394.505 133.443 394.505 133.443 394.505C133.443 394.505 129.724 384.076 129.039 388.18C128.35 392.285 128.35 392.285 128.35 392.285C128.35 392.285 121.83 384.493 121.384 393.106C120.937 401.718 117.09 401.697 135.954 407.707Z" fill="#3E4C6F"/>
<path d="M117.261 389.265C117.261 389.265 112.21 380.682 111.707 383.208C111.201 385.73 113.222 392.293 113.222 392.293C113.222 392.293 104.635 381.694 102.618 386.236C100.597 390.779 106.154 394.819 106.154 394.819C106.154 394.819 92.0141 386.236 92.5205 389.771C93.0269 393.305 109.69 403.904 118.78 400.876C127.865 397.848 117.261 389.265 117.261 389.265Z" fill="#3E4C6F"/>
<path d="M72.8831 379.473C72.8831 379.473 78.4234 371.775 81.1595 376.39C83.8957 381.005 78.6574 381.575 78.6574 381.575C78.6574 381.575 87.1552 380.073 84.2488 384.667C81.3425 389.26 79.2617 389.388 79.2617 389.388C79.2617 389.388 87.7041 390.953 83.4872 394.279C79.2745 397.605 59.9301 388.367 53.8791 387.755C47.8282 387.146 48.9005 378.614 53.2749 379.941C57.6535 381.268 57.6535 381.268 57.6535 381.268C57.6535 381.268 54.2578 371.911 59.2195 372.83C64.1853 373.753 64.1853 373.753 64.1853 373.753C64.1853 373.753 70.3171 365.65 72.8831 379.473Z" fill="#3E4C6F"/>
<path d="M111.703 334.548C111.703 334.548 123.958 351.743 120.252 355.384C116.486 359.085 96.8438 352.739 96.8438 352.739C96.8438 352.739 91.729 359.778 83.2525 359.85C74.7718 359.927 63.7805 348.711 63.7805 348.711C63.7805 348.711 45.7638 358.191 41.1128 356.703C36.4916 355.223 28.5981 342.169 28.5981 342.169C28.5981 342.169 12.0579 346.835 9.0835 344.33C6.14312 341.855 37.7469 310.376 37.7469 310.376L49.3127 297.889L111.703 334.548Z" fill="#33A86D"/>
<path d="M69.2401 329.111C69.2529 330.043 72.2061 388.572 72.2061 388.572L55.2957 382.613L61.1637 326.338L69.2401 329.111Z" fill="#4B3355"/>
<path d="M69.2826 329.873C69.2953 330.804 70.9932 359.663 70.9932 359.663L63.3933 347.426L59.2402 343.726L60.3636 329.703L69.2826 329.873Z" fill="#34283A"/>
<path d="M94.1549 304.167L109.861 328.47C109.861 328.47 119.537 342.314 117.631 345.36C115.695 348.447 92.2954 330.745 92.2954 330.745C92.2954 330.745 85.721 344.326 80.3254 344.462C74.9254 344.598 65.1426 332.421 65.1426 332.421C65.1426 332.421 48.0833 341.442 42.8536 340.417C37.6452 339.396 32.6878 324.17 32.6878 324.17C32.6878 324.17 24.6199 331.417 20.9008 327.981C17.2413 324.599 41.0579 301.236 45.4578 294.848C49.6705 288.731 49.6705 288.731 49.6705 288.731L94.1549 304.167Z" fill="#288453"/>
<path d="M89.3582 278.477L89.4305 279.566C90.8603 283.241 105.826 309.079 105.826 309.079C105.826 309.079 106.166 317.152 101.737 316.922C97.3155 316.693 86.3667 308.56 86.3667 308.56C86.3667 308.56 76.8179 321.35 69.4266 319.827C62.0863 318.317 58.6182 305.43 58.6182 305.43C58.6182 305.43 47.1035 311.806 42.9759 308.964C38.9037 306.166 42.0738 301.525 42.0738 301.525C42.0738 301.525 34.1165 304.337 36.1931 301.202C38.2399 298.114 60.465 267.925 60.465 267.925C60.465 267.925 71.0861 253.787 77.1924 260.881C83.5497 268.265 90.3411 278.477 90.3411 278.477" fill="#33A86D"/>
<path d="M89.4225 271.068L89.4906 271.957C90.8693 274.956 106.418 301.832 106.418 301.832C106.418 301.832 103.75 305.664 101.069 305.468C98.3883 305.273 86.5545 295.558 86.5545 295.558C86.5545 295.558 75.3589 306.072 70.325 304.694C65.3336 303.325 61.6357 293.074 61.6357 293.074C61.6357 293.074 47.3721 298.076 45.5041 297.281C43.6403 296.49 44.7679 292.173 44.7679 292.173C44.7679 292.173 36.0702 295.099 37.9723 292.577C39.8446 290.093 61.5889 262.447 61.5889 262.447C61.5889 262.447 71.793 250.861 77.6908 256.679C83.8226 262.728 90.3672 271.072 90.3672 271.072" fill="#288453"/>
<path d="M74.0401 244.562C74.0401 244.562 87.5463 263.855 96.0908 278.762C96.0908 278.762 92.1632 283.717 89.4399 282.632C86.7293 281.552 79.6017 271.038 79.6017 271.038C79.6017 271.038 75.372 278.945 69.8912 280.038C64.3764 281.135 58.751 273.816 58.751 273.816C58.751 273.816 48.3001 279.689 48.8022 276.627C49.2916 273.611 73.138 246.294 74.0401 244.562Z" fill="#FFFCF3"/>
<path d="M62.2481 350.565L62.7502 359.93L61.9162 371.38L62.1927 382.311L59.129 372.163L60.8013 362.793L59.9119 343.5L63.3672 340.697L62.2481 350.565Z" fill="#34283A"/>
<path d="M65.525 370.87L66.4229 376.029L64.1761 380.742V375.132L64.6271 367.505L65.525 370.87Z" fill="#34283A"/>
<path d="M160.579 301.756C160.579 301.756 117.933 366.553 128.035 370.087C138.137 373.622 159.817 361.483 159.817 361.483C159.817 361.483 165.702 374.034 176.749 375.761C187.796 377.488 194.698 365.375 194.698 365.375C194.698 365.375 221.799 369.581 227.357 364.703C232.91 359.824 215.238 337.278 215.238 337.278L181.498 298.425L160.579 301.756Z" fill="#33A86D"/>
<path d="M183.216 345.347L185.578 406.593L173.238 405.742L176.914 344.496L183.216 345.347Z" fill="#4B3355"/>
<path d="M183.587 343.165L184.596 370.98L181.86 369.075L175.451 368.569L176.221 342.14L183.587 343.165Z" fill="#34283A"/>
<path d="M162.601 298.978C162.601 298.978 122.197 349.485 131.065 352.853C139.933 356.217 161.839 345.18 161.839 345.18C161.839 345.18 170.754 355.346 178.771 356.226C186.787 357.106 196.719 348.192 196.719 348.192C196.719 348.192 218.604 358.501 225.672 350.212C232.744 341.922 193.689 294.368 193.689 294.368L162.601 298.978Z" fill="#288453"/>
<path d="M198.217 296.255C198.217 296.255 181.532 274.551 174.983 259.291C174.983 259.291 165.741 280.221 161.92 286.465C158.098 292.708 150.592 302.138 153.298 303.545C156.005 304.953 164.392 297.183 164.392 297.183C164.392 297.183 170.294 302.499 174.098 303.329C177.902 304.158 181.17 301.138 181.17 301.138C181.17 301.138 189.851 305.868 193.438 305.319C197.025 304.77 198.217 296.255 198.217 296.255Z" fill="#FFFCF3"/>
<path d="M179.323 366.158L180.668 376.816L180.106 383.323L180.221 390.949L178.872 383.881L179.208 377.152L177.191 365.937L179.323 366.158Z" fill="#34283A"/>
<path d="M182.238 371.768L182.915 388.819L182.238 393.531L183.812 387.585L183.587 378.05L182.238 371.768Z" fill="#34283A"/>
<path d="M178.2 391.621L176.851 398.576L175.953 404.747L176.068 397.678L177.528 392.183L177.749 386.913L178.2 391.621Z" fill="#34283A"/>
<path d="M291.713 304.523C298.373 313.944 327.436 326.466 334.644 333.836C341.866 341.224 343.223 346.273 335.963 350.003C328.644 353.758 315.564 344.27 315.564 344.27C315.564 344.27 317.589 356.247 309.658 360.257C292.956 368.7 281.526 358.879 281.526 358.879C281.526 358.879 284.079 370.257 276.416 371.835C268.701 373.421 259.803 366.25 259.803 366.25C259.803 366.25 247.948 383.697 240.199 383.671C232.412 383.646 231.255 373.549 231.255 373.549C231.255 373.549 220.833 383.905 211.523 383.88C202.153 383.85 201.493 364.63 201.493 364.63C201.493 364.63 186.391 380.031 184.034 370.07C181.694 360.177 198.264 339.489 216.123 302.877C232.842 268.605 278.845 286.328 291.713 304.523Z" fill="#288453"/>
<path d="M252.829 315.91L247.387 389.63L267.974 393.407L260.408 311.678L252.829 315.91Z" fill="#665070"/>
<path d="M252.646 313.498L249.097 366.063L261.05 353.784L264.642 355.983L259.769 310.427L252.646 313.498Z" fill="#4B3355"/>
<path d="M301.172 307.688C301.172 307.688 343.431 338.579 337.44 341.139C331.41 343.717 308.189 329.592 308.189 329.592C308.189 329.592 308.968 350.084 296.274 352.274C283.449 354.486 273.347 340.259 273.347 340.259L261.462 338.434C261.462 338.434 248.513 364.528 243.297 364.464C234.795 364.362 238.339 350.628 238.339 350.628C238.339 350.628 224.199 367.739 214.029 367.62C203.795 367.501 207.025 349.578 207.025 349.578C207.025 349.578 195.561 363.686 187.408 363.405C179.212 363.12 200.795 328.159 218.318 295.689C233.982 266.67 269.802 283.708 301.172 307.688Z" fill="#33A86D"/>
<path d="M271.428 265.623C271.428 265.623 323.912 302.482 322.538 307.356C321.308 311.72 318.015 309.938 311.385 309.419C304.73 308.896 296.598 304.247 296.598 304.247C296.598 304.247 295.249 311.027 289.709 312.252C286.462 312.97 275.045 307.054 275.045 307.054C275.045 307.054 273.305 313.842 264.811 316.279C258.722 318.023 245.782 308.496 245.782 308.496C245.782 308.496 243.382 324.31 235.403 324.173C227.382 324.033 217.706 299.335 217.706 299.335L201.514 312.413C201.514 312.413 219.178 265.164 228.837 245.161C238.263 225.643 271.428 265.623 271.428 265.623Z" fill="#288453"/>
<path d="M226.118 292.181C226.118 292.181 229.841 314.744 222.842 318.589C215.786 322.463 217.846 309.665 217.846 309.665C217.846 309.665 207.595 321.923 205.046 318.521C202.501 315.122 207.991 308.003 207.991 308.003C207.991 308.003 198.761 317.232 203.238 306.331C207.723 295.409 208.906 294.269 208.906 294.269L226.118 292.181Z" fill="#288453"/>
<path d="M274.93 266.363C285.232 276.031 315.631 295.838 314.342 300.487C313.044 305.161 292.176 287.613 292.176 287.613C292.176 287.613 300.674 302.924 295.142 302.805C289.611 302.686 277.296 297.191 277.296 297.191C277.296 297.191 272.909 309.342 265.139 308.883C257.377 308.423 243.96 297.157 243.96 297.157C243.96 297.157 237.326 309.644 230.092 308.666C222.875 307.688 218.871 293.58 218.871 293.58C218.871 293.58 200.944 316.228 203.361 305.991C205.284 297.837 236.067 229.412 236.067 229.412C236.067 229.412 264.76 256.819 274.93 266.363Z" fill="#33A86D"/>
<path d="M236.391 222.959L282.012 265.768C282.012 265.768 279.386 267.478 274.365 267.444C269.327 267.405 264.05 260.724 264.05 260.724C264.05 260.724 267.003 268.311 261.446 269.09C255.867 269.872 250.361 259.83 250.361 259.83C250.361 259.83 242.149 272.509 235.259 271.918C228.345 271.323 230.034 262.969 230.034 262.969C222.991 271.119 209.847 287.464 210.06 280.357C210.272 273.292 228.025 241.592 236.391 222.959Z" fill="#F3E7D9"/>
<path d="M278.369 330.634C278.369 330.634 280.275 343.883 273.305 346.439C269.012 348.013 265.493 341.203 260.616 334.87C258.489 332.106 259.518 326.615 262.799 326.806L278.369 330.634Z" fill="#33A86D"/>
<path d="M253.289 360.181L250.689 367.501L250.527 376.152L249.034 387.24L252.251 379.554L252.468 369.355L254.804 359.705L253.289 360.181Z" fill="#4B3355"/>
<path d="M252.271 384.556L254.28 385.386L253.842 389.941L255.893 386.185L255.803 369.997L252.271 384.556Z" fill="#4B3355"/>
<path d="M258.275 351.913L255.301 354.941L257.995 377.487L259.812 369.815L258.275 351.913Z" fill="#4B3355"/>
<path d="M169.549 330.788C131.749 274.547 124.86 276.04 124.86 276.04C124.86 276.04 59.542 357.847 66.793 362.244C79.363 369.866 99.269 353.704 99.269 353.704C99.269 353.704 92.8053 369.407 100.426 371.1C108.099 372.801 127.362 367.063 127.362 367.063C127.362 367.063 134.464 378.394 144.196 380.525C154.013 382.673 164.264 354.857 164.264 354.857C164.264 354.857 177.94 369.637 190.659 361.347C194.574 357.689 178.829 344.593 169.549 330.788Z" fill="#288453"/>
<path d="M129.745 330.243L130.686 404.891L113.894 401.157L124.311 324.628L129.745 330.243Z" fill="#665070"/>
<path d="M122.754 365.004L121.303 374.757L122.098 384.233L122.158 393.237L123.196 386.415L122.392 373.962L122.754 365.004Z" fill="#4B3355"/>
<path d="M127.392 349.727L125.068 360.232L126.051 375.042L127.894 397.129L128.234 386.913L127.63 373.217L126.596 359.658L127.392 349.727Z" fill="#4B3355"/>
<path d="M124.273 380.18L125.103 397.129L128.048 403.181L126.431 393.824L124.273 380.18Z" fill="#4B3355"/>
<path d="M130.337 340L130.341 356.069L123.235 357.612L118.609 366.145L123.409 334.385L130.337 340Z" fill="#4B3355"/>
<path d="M162.392 308.347C133.465 262.055 126.707 270.591 126.707 270.591C126.707 270.591 87.2655 322.157 80.555 332.475C72.687 344.567 69.4275 345.95 74.5721 348.914C79.7805 351.917 103.18 338.443 103.18 338.443C103.18 338.443 107.465 347.515 116.584 349.263C125.771 351.028 132.269 343.019 132.269 343.019C132.269 343.019 145.218 354.949 153.341 354.052C161.435 353.159 161.022 340.752 161.022 340.752C161.022 340.752 182.289 350.671 189.434 351.024C196.591 351.381 169.443 319.631 162.392 308.347Z" fill="#33A86D"/>
<path d="M146.209 285.296L170.962 319.747C170.962 319.747 167.034 325.642 159.779 325.935C152.515 326.233 146.239 320.219 146.239 320.219C146.239 320.219 135.818 331.282 130.716 331.252C125.614 331.222 119.907 320.87 119.907 320.87C119.907 320.87 108.635 329.287 104.257 328.551C99.8907 327.82 98.0993 317.927 98.0993 317.927C98.0993 317.927 90.1973 321.401 89.0654 318.229C87.9463 315.094 112.103 286.461 116.129 277.036C119.724 268.606 137.226 276.394 146.209 285.296Z" fill="#288453"/>
<path d="M143.342 278.694C152.592 291.917 170.073 309.334 167.762 312.541C165.418 315.795 162.29 312.235 157.158 312.035C152.031 311.835 145.073 301.359 145.073 301.359C145.073 301.359 135.988 314.927 129.95 315.038C123.908 315.149 119.453 301.33 119.453 301.33C119.453 301.33 108.002 314.17 104.108 312.754C100.24 311.35 100.836 302.499 100.836 302.499C100.836 302.499 96.2061 307.535 93.5296 306.485C90.8658 305.434 116.959 272.497 116.959 272.497C116.959 272.497 134.661 266.283 143.342 278.694Z" fill="#33A86D"/>
<path d="M128.397 255.097L152.967 289.986L141.248 286.528C141.248 286.528 138.252 294.358 135.533 294.358C132.81 294.358 123.014 287.562 123.014 287.562C123.014 287.562 118.393 294.495 115.078 294.133C111.772 293.771 109.402 287.502 109.402 287.502C109.402 287.502 99.2443 293.363 102.81 288.931C122.555 264.39 128.397 255.097 128.397 255.097Z" fill="#F3E7D9"/>
<path d="M2.45383 389.72C2.45383 389.72 20.1642 374.889 54.6317 383.021C89.0992 391.153 114.95 407.422 157.553 404.074C200.157 400.727 244.68 393.071 273.879 382.064C303.079 371.061 332.283 372.975 344.729 376.803C357.176 380.631 345.193 379.512 333.406 381.528C321.619 383.544 304.036 391.157 297.334 394.505C297.334 394.505 317.636 389.907 317.44 392.114C317.244 394.317 253.45 425.689 214.995 427.297C166.749 429.317 124.779 421.495 77.8654 404.751C41.8787 391.897 12.0281 387.325 2.45383 389.72Z" fill="#1D2538"/>
</svg>
