<svg width="383" height="414" viewBox="0 0 383 414" fill="none" xmlns="http://www.w3.org/2000/svg">
<path d="M186.959 37.4013C186.959 37.4013 166.813 -1.61207 124.004 13.0704C81.1947 27.7529 97.5629 70.5417 97.5629 70.5417C97.5629 70.5417 81.6144 61.7323 65.2461 71.3807C48.8778 81.0292 54.7536 95.7117 54.7536 95.7117C54.7536 95.7117 44.2611 96.1312 38.3854 104.102C32.5096 112.072 37.1263 122.979 40.4838 124.657C40.4838 124.657 24.1156 134.306 24.5353 141.437C24.955 148.569 81.1947 119.204 104.698 107.038C128.201 94.8727 197.871 57.5373 206.685 52.9228C215.498 48.3083 201.229 47.4693 196.612 51.6643C191.995 55.8593 242.779 28.5919 226.83 27.7529C210.882 26.9139 186.959 37.4013 186.959 37.4013Z" fill="#F3E7D9"/>
<path d="M346.674 29.7241C346.674 29.7241 337.021 38.5336 342.897 37.6946C348.772 36.8556 388.644 16.7196 393.26 13.3636C397.877 10.0076 396.618 4.13464 392.001 3.29564C387.385 2.45664 377.312 7.91013 375.213 16.3001C375.213 16.3001 373.115 0.359145 361.363 0.778644C349.612 1.19814 345.415 20.0756 346.674 29.7241Z" fill="#F3E7D9"/>
<path d="M73.9089 392.96C73.9089 392.96 64.6125 391.635 55.312 391.635C46.0115 391.635 42.6917 398.271 46.6788 398.271C46.6788 398.271 18.7856 402.919 32.7322 405.575C46.6788 408.226 89.8491 404.908 73.9089 392.96Z" fill="#33A86D"/>
<path d="M228.107 376.348C230.797 373.773 221.295 373.433 209.539 373.961C194.619 374.633 197.674 377.917 197.674 377.917C197.674 377.917 189.599 377.506 185.482 380.036C182.968 381.579 186.8 382.565 198.337 383.245C209.871 383.924 213.497 380.052 213.497 380.052C213.497 380.052 225.412 378.924 228.107 376.348Z" fill="#33A86D"/>
<path d="M100.258 377.623C102.948 375.354 93.4461 373.932 81.6904 373.126C66.7701 372.103 69.8255 375.735 69.8255 375.735C69.8255 375.735 61.7505 374.406 57.6332 376.47C55.1192 377.728 58.9511 379.15 70.4886 381.139C82.0261 383.127 85.6481 379.67 85.6481 379.67C85.6481 379.67 97.5676 379.893 100.258 377.623Z" fill="#33A86D"/>
<path d="M128.701 388.321C128.701 388.321 115.98 388.107 105.122 389.806C94.2645 391.505 97.9117 395.151 100.803 395.151C103.695 395.151 57.5576 408.352 70.5851 411.746C83.6125 415.14 102.99 413.6 156.59 411.033C184.483 409.699 198.43 403.129 186.477 400.793C175.766 398.7 148.187 396.073 148.187 396.073C156.158 390.553 128.701 388.321 128.701 388.321Z" fill="#33A86D"/>
<path d="M68.9854 392.948C68.9854 392.948 68.1376 387.57 69.8332 387.57C71.5288 387.57 71.2476 390.968 71.2476 390.968C71.2476 390.968 74.6471 385.871 74.6471 387.855C74.6471 389.835 72.9473 391.534 72.9473 391.534C72.9473 391.534 69.8374 394.932 68.9854 392.948Z" fill="#288453"/>
<path d="M89.9121 403.435C89.9121 403.435 91.6622 396.274 89.9121 395.955C88.162 395.636 87.843 399.932 87.843 400.41C87.843 400.889 87.6835 393.249 86.4118 393.09C85.1401 392.931 84.5022 395.955 84.5022 395.955C84.5022 395.955 83.3858 393.728 81.9546 395.477C80.5234 397.226 82.1141 398.502 82.1141 398.502C82.1141 398.502 80.5234 398.183 79.5665 400.092C78.6096 402 84.0237 404.068 84.0237 404.068L81.9546 405.34C81.9546 405.348 87.205 405.507 89.9121 403.435Z" fill="#33A86D"/>
<path d="M205.379 400.537C205.379 400.537 203.931 399.333 204.657 397.642C205.379 395.956 206.827 397.882 206.827 397.882C206.827 397.882 208.032 392.818 209.723 394.022C211.41 395.226 209.962 397.399 209.962 397.399C209.962 397.399 214.306 390.163 216.237 393.301C218.167 396.434 213.584 399.09 213.584 399.09C213.584 399.09 216.963 401.502 215.515 401.502C214.067 401.502 204.657 402.706 203.209 402.223C201.761 401.745 205.379 400.537 205.379 400.537Z" fill="#288453"/>
<path d="M115.085 399.819C104.971 397.746 96.0645 400.977 101.248 402.533C101.248 402.533 80.5105 404.693 86.8479 407.026C93.1854 409.358 121.41 408.754 128.579 408.062C135.747 407.37 138.051 406.678 141.379 404.257C144.708 401.837 125.2 401.891 115.085 399.819Z" fill="#288453"/>
<path d="M103.489 409.375C103.489 409.375 102.721 405.406 103.875 406.304C105.025 407.202 105.407 410.528 103.489 409.375Z" fill="#33A86D"/>
<path d="M122.691 408.896C122.691 408.896 121.923 404.928 123.077 405.826C124.227 406.719 124.609 410.046 122.691 408.896Z" fill="#33A86D"/>
<path d="M101.441 408.863C101.441 408.863 100.673 404.895 101.827 405.792C102.977 406.69 103.359 410.017 101.441 408.863Z" fill="#33A86D"/>
<path d="M61.9054 396.967C61.9054 396.967 58.1198 393.528 60.1847 392.668C62.2496 391.808 62.0775 394.387 62.0775 394.387C62.0775 394.387 62.4217 388.368 64.1424 389.228C65.8632 390.088 64.6587 392.84 64.6587 392.84C64.6587 392.84 65.8632 389.744 66.2074 391.808C66.5515 393.872 64.3145 397.655 61.9054 396.967Z" fill="#288453"/>
<path d="M116.043 343.76V185.098C116.043 185.098 116.043 182.065 119.077 179.464C122.112 176.863 126.015 173.398 126.015 173.398V133.94C126.015 132.459 127.106 131.2 128.571 130.991L135.118 130.055V68.993C135.118 67.2437 136.478 65.7964 138.224 65.6832L149.43 64.9658L152.901 68.5064C152.901 68.5064 255.236 65.0371 259.139 65.0371C263.043 65.0371 312.042 88.8731 316.378 91.0419C320.713 93.2107 318.111 94.5111 318.548 99.2766C318.98 104.042 318.98 206.333 318.98 206.333V341.596L116.043 343.76Z" fill="#F7BC4B"/>
<path d="M152.901 68.5071L163.671 80.1021L161.081 181.696L169.547 208.582L169.047 223.021L168.942 227.141L168.552 269.82L244.262 271.809L245.756 173.235L247.241 64.417L152.901 68.5071Z" fill="#F5894E"/>
<path d="M251.509 72.3034V206.719L285.664 207.852L288.581 167.215L276.225 155.041V76.0579C276.225 76.0579 272.343 61.6984 267.138 60.398C264.045 59.6261 259.936 67.1981 256.071 67.4414C253.502 67.605 251.509 69.736 251.509 72.3034Z" fill="#CE9436"/>
<path d="M244.668 69.3924C244.668 74.9759 244.668 215.307 244.668 215.307H283.016V178.034L266.106 168.067C266.106 168.067 266.106 78.0634 266.106 73.1469C266.106 68.2303 262.421 64.9121 260.449 64.9121C258.476 64.9121 250.46 65.0296 247.946 65.0296C245.428 65.0296 244.668 67.9325 244.668 69.3924Z" fill="#CC6D3D"/>
<path d="M247.241 64.4168C247.241 70.0003 247.241 204.5 247.241 204.5H285.589V167.228L268.679 157.26C268.679 157.26 268.679 73.0878 268.679 68.1713C268.679 63.2548 267.97 59.9365 265.998 59.9365C264.025 59.9365 253.037 60.054 250.519 60.054C248.001 60.054 247.241 62.9611 247.241 64.4168Z" fill="#F7BC4B"/>
<path d="M158.101 74.1445V182.497L167.64 188.131V221.506L162.873 227.14L165.475 231.905V286.084L169.81 283.919L171.544 231.905L168.941 227.14L171.544 224.107V181.196L167.137 175.021L163.67 80.1014L158.101 74.1445Z" fill="#CC6D3D"/>
<path d="M200.234 81.5277V86.7631C200.234 87.3043 200.675 87.7322 201.216 87.7196L232.266 86.8344C232.9 86.8176 233.37 86.2094 233.223 85.5969L231.976 80.3993C231.871 79.9588 231.477 79.6567 231.019 79.6693L201.216 80.5209C200.675 80.5293 200.234 80.9824 200.234 81.5277Z" fill="#FEED7F"/>
<path d="M230.856 97.5025L214.559 97.9681C213.85 97.9891 213.271 97.427 213.271 96.718V93.1187C213.271 92.4097 213.845 91.8182 214.559 91.7973L230.856 91.3316C231.565 91.3107 232.144 91.8686 232.144 92.5817V96.181C232.144 96.89 231.569 97.4815 230.856 97.5025Z" fill="#FEED7F"/>
<path d="M193.461 146.235L174.763 146.768C173.865 146.793 173.135 146.084 173.135 145.187V141.243C173.135 140.346 173.865 139.595 174.763 139.57L193.461 139.037C194.359 139.012 195.089 139.721 195.089 140.618V144.562C195.089 145.459 194.359 146.21 193.461 146.235Z" fill="#FEED7F"/>
<path d="M214.219 144.272L207.873 144.453C207.256 144.47 206.757 143.987 206.757 143.37V140.455C206.757 139.838 207.256 139.326 207.873 139.31L214.219 139.129C214.836 139.113 215.335 139.595 215.335 140.212V143.127C215.331 143.74 214.832 144.256 214.219 144.272Z" fill="#FEED7F"/>
<path d="M201.179 160.075L178.708 160.717C177.902 160.738 177.252 160.104 177.252 159.299V156.039C177.252 155.234 177.907 154.563 178.708 154.542L201.179 153.9C201.985 153.879 202.635 154.512 202.635 155.318V158.577C202.64 159.379 201.985 160.05 201.179 160.075Z" fill="#FEED7F"/>
<path d="M216.36 200.997H198.862V207.512H216.36V200.997Z" fill="#FEED7F"/>
<path d="M263.744 64.8574L259.819 70.2144L263.093 78.8771L262.514 98.6481L265.401 108.867L265.787 81.9898L265.208 74.8834L267.135 72.442C267.139 72.4378 265.477 65.0798 263.744 64.8574Z" fill="#FEED7F"/>
<path d="M144.142 110.809L150.316 126.238L146.199 137.556L147.231 158.132V170.474L144.142 168.418L142.598 155.045L144.654 128.298L144.142 110.809Z" fill="#CC6D3D"/>
<path d="M126.473 157.101L125.444 176.133L129.045 184.88L128.529 225.001L130.074 230.144L132.646 184.364L128.017 174.078L126.473 157.101Z" fill="#CE9436"/>
<path d="M158.723 142.699L144.314 168.989L158.039 185.224L156.666 201.681L169.702 220.885L167.641 188.131L159.411 174.422L158.723 142.699Z" fill="#CC6D3D"/>
<path d="M282.919 74.7988L282.235 106.349L293.899 135.156V161.22L319.975 203.056L319.047 93.886C319.039 92.8037 318.413 91.8221 317.44 91.3564L282.919 74.7988Z" fill="#CE9436"/>
<path d="M161.983 108.065L172.79 112.693L181.025 108.577L204.696 109.093L181.025 111.149L171.758 117.324L160.438 111.665L161.983 108.065Z" fill="#CC6D3D"/>
<path d="M245.868 138.412L250.497 147.159L245.868 152.818V138.412Z" fill="#CC6D3D"/>
<path d="M132.831 236.533L146.613 237.037L154.067 246.186L157.853 273.436L152.355 306.082L137.3 318.029L128.806 292.452L132.831 236.533Z" fill="#4B3355"/>
<path d="M154.067 246.186L145.174 257.743L147.537 273.398L153.417 290.208L157.853 273.436L154.067 246.186Z" fill="#665070"/>
<path d="M350.953 218.906C350.953 218.906 341.845 195.934 339.68 192.901C337.514 189.868 336.209 188.567 326.669 188.135C317.129 187.703 306.288 184.666 306.288 184.666L286.353 194.138L283.742 202.436L291.981 353.699L315.853 364.426L341.073 364.744L346.181 357.6C346.181 357.6 344.88 264.417 344.88 258.347C344.88 252.277 347.914 250.98 349.648 249.68C351.385 248.375 350.953 218.906 350.953 218.906Z" fill="#273252"/>
<path d="M292.183 192.766L304.19 189.679L320.315 197.221C320.315 197.221 325.805 200.309 329.234 199.277C332.663 198.245 338.152 196.189 338.152 196.189L341.925 203.048L347.759 220.193L347.415 241.453L339.525 240.425L330.946 263.401L321.511 237.682L326.657 221.221L318.25 200.988L303.498 193.102L292.183 192.766Z" fill="#3E4C6F"/>
<path d="M58.5986 266.149L69.0072 256.614V217.605L69.6367 205.314C69.7836 202.47 71.4624 199.927 74.0226 198.673L108.9 181.629C108.9 181.629 121.474 183.798 127.547 187.695C133.616 191.596 136.654 198.098 136.654 198.098L138.388 217.601V247.507C138.388 247.507 139.689 248.807 136.654 251.408C133.62 254.009 133.183 255.31 133.183 255.31C133.183 255.31 132.315 257.478 132.751 259.643C133.183 261.812 132.751 335.493 132.751 335.493L114.104 361.942H66.405L60.7685 340.262L58.5986 266.149Z" fill="#3E4C6F"/>
<path d="M58.5986 266.149L69.0072 256.614V217.605L69.473 208.544C69.7207 203.703 72.5788 199.378 76.9353 197.251L78.5805 196.446L108.9 181.629L98.6337 204.659L104.539 225.802C104.161 227.971 104.782 230.198 106.234 231.855L108.442 234.377C111.015 237.317 111.896 238.844 114.943 236.399L138.388 217.597L137.796 231.507L128.017 239.738L124.928 261.342C124.928 261.342 122.435 296.211 122.871 298.38C123.035 299.202 113.609 294.264 113.609 294.264L103.83 335.488L114.104 361.938H66.405L60.7685 340.258L58.5986 266.149Z" fill="#273252"/>
<path d="M96.2792 229.003L90.1055 239.289L101.425 241.861L106.574 242.893L102.457 230.031L96.2792 229.003Z" fill="#3E4C6F"/>
<path d="M82.7231 211.409L91.6501 206.614L96.9677 207.743C97.87 207.806 100.682 223.205 100.057 223.86L95.4861 222.832L90.2525 220.084C90.1769 220.953 88.9472 221.049 88.7374 220.206L84.3893 228.269L79.6593 228.63L73.624 216.33L82.7231 211.409Z" fill="#48598B"/>
<path d="M75.6932 203.398L85.9885 205.797L95.2512 199.97L107.603 182.821L85.3002 193.795L73.6367 201.682L75.6932 203.398Z" fill="#48598B"/>
<path d="M323.403 240.09L321.691 256.895L328.548 271.64L330.038 287.414L333.01 299.071L327.52 287.414L326.148 273.012L318.602 256.551L321.518 237.69L323.403 240.09Z" fill="#3E4C6F"/>
<path d="M329.237 287.93L338.5 292.213L342.273 304.903L342.617 310.734L341.245 304.559L337.128 294.273L330.266 291.529L329.237 287.93Z" fill="#3E4C6F"/>
<path d="M292.224 201.941C291.108 200.825 292.598 195.628 294.826 199.835C297.051 204.043 293.336 203.053 292.224 201.941Z" fill="#288453"/>
<path d="M288.211 200.649C286.6 199.78 287.221 195.141 288.954 196.441C289.945 197.184 291.838 198.048 290.44 200.28C289.823 201.27 289.823 201.517 288.211 200.649Z" fill="#288453"/>
<path d="M289.001 196.37C287.267 195.133 287.267 187.951 289.991 189.931C292.719 191.911 290.734 197.608 289.001 196.37Z" fill="#288453"/>
<path d="M292.224 197.856C292.224 197.856 293.462 192.658 294.7 195.381C295.938 198.103 292.224 197.856 292.224 197.856Z" fill="#288453"/>
<path d="M287.384 207.55C287.384 207.55 288.136 202.7 286.037 204.412C283.939 206.123 284.988 208.976 287.384 207.55Z" fill="#288453"/>
<path d="M286.608 196.278C285.84 195.405 282.956 194.608 284.874 197.763C287.057 201.354 287.372 197.151 286.608 196.278Z" fill="#288453"/>
<path d="M288.01 205.407C288.01 205.407 293.457 209.367 292.219 206.397C290.981 203.427 288.257 203.179 288.01 205.407Z" fill="#288453"/>
<path d="M287.762 195.875C287.762 195.875 287.019 188.198 286.029 190.678C285.038 193.157 286.276 196.37 287.762 195.875Z" fill="#288453"/>
<path d="M282.709 197.742C280.955 197.033 278.898 198.803 282.881 200.15C286.86 201.492 284.464 198.451 282.709 197.742Z" fill="#288453"/>
<path d="M31.0491 369.737C28.8792 368.868 24.5437 358.033 27.1459 355.436C29.748 352.835 31.4814 353.267 29.3157 346.333C27.1459 339.398 27.5824 302.558 27.5824 287.389C27.5824 272.22 27.5824 258.783 30.1845 252.717C32.7866 246.651 30.1845 240.581 31.9179 237.548C33.6512 234.515 38.4232 232.347 38.4232 232.347C38.4232 232.347 39.7243 218.046 40.593 215.877C41.4618 213.708 50.5651 210.243 54.036 210.243C57.5069 210.243 57.5069 211.976 63.1435 218.046C68.78 224.112 73.1155 227.581 74.4166 229.75C75.7177 231.919 75.2854 234.52 76.5864 237.553C77.8875 240.585 85.2574 269.627 86.5585 272.66C87.8596 275.693 87.8596 274.829 88.2919 282.196C88.7241 289.562 89.5929 314.703 90.0252 316.867C90.4575 319.036 90.0252 320.768 93.4961 322.933C96.967 325.102 96.967 328.999 97.8316 331.168C98.7004 333.337 98.7004 341.571 98.7004 345.469C98.7004 349.366 97.8316 365.407 98.2681 368.008C98.7004 370.609 100.87 373.642 95.2337 374.51C89.5971 375.379 78.324 375.811 73.1197 376.243C67.9155 376.675 66.6144 374.51 66.6144 374.51C66.6144 374.51 52.7391 373.642 46.6661 373.642C40.593 373.642 38.4274 374.943 37.5586 373.21C36.6856 371.469 33.2189 370.601 31.0491 369.737Z" fill="#856792"/>
<path d="M63.3453 371.544L63.5719 363.771L53.965 352.34L55.7949 336.109L47.7912 330.165L45.7347 319.421L39.3301 309.593C39.3301 309.593 44.8197 291.533 44.5889 290.161C44.3623 288.79 53.2809 285.362 53.2809 285.362L63.5719 297.708L61.2845 310.054L63.5719 322.169L78.4376 363.779L73.1788 363.322L70.8914 374.065L63.3453 371.544Z" fill="#665070"/>
<path d="M45.9609 233.232L49.3898 232.317C49.3898 232.317 58.023 237.691 58.023 242.834C58.023 247.977 54.934 254.152 54.934 254.152C54.934 254.152 53.9058 263.411 55.9623 269.07C58.0188 274.729 66.2533 287.586 66.2533 287.586L76.5444 292.729C76.5444 292.729 77.0606 300.96 78.0888 302.504C79.0542 303.951 78.6596 310.336 78.6596 310.336C78.6596 310.336 81.2324 314.279 81.4045 311.879C81.5765 309.48 84.7789 308.163 84.7789 308.163L81.6899 300.448L82.2061 290.674L68.3099 284.503L59.0471 268.558L58.5309 256.728L61.6198 242.838C61.6198 242.838 57.6159 234.037 54.187 231.638C52.7222 230.61 43.4385 232.095 43.4385 232.095L45.9609 233.232Z" fill="#BB83C3"/>
<path d="M79.6421 303.016L78.0977 307.303L79.6421 338.509C79.6421 338.509 81.6441 330.392 82.6724 322.162C83.7006 313.935 79.6421 303.016 79.6421 303.016Z" fill="#BB83C3"/>
<path d="M29.0342 357.37C29.0342 357.37 33.1514 361.829 35.5521 361.829C37.9528 361.829 41.0418 356.686 41.0418 356.686C41.0418 356.686 48.588 356.342 49.9604 356.342C51.3328 356.342 56.8225 361.485 56.8225 361.485L62.3121 364.572L59.2231 364.916L55.1059 362.861L49.2721 358.746L42.0658 359.09L36.232 364.921L30.3982 360.461L29.0342 357.37Z" fill="#BB83C3"/>
<path d="M39.6703 360.113L36.2413 367.316L37.555 373.202L33.8365 369.372L33.1523 363.201H35.553L39.6703 360.113Z" fill="#BB83C3"/>
<path d="M53.9099 215.055L50.3047 220.089L52.3654 226.239L58.0272 231.83L59.0554 240.774L61.1119 232.388L56.9947 227.359L53.3937 221.209L53.9099 215.055Z" fill="#BB83C3"/>
<path d="M32.8082 250.549C32.8082 250.549 30.2354 269.581 30.7516 274.725C31.2679 279.868 34.8689 284.499 34.8689 287.582C34.8689 290.665 34.3527 301.984 30.2354 309.186C26.1182 316.389 28.1789 291.697 28.1789 291.697L27.1506 269.577C27.1464 269.581 27.1464 251.065 32.8082 250.549Z" fill="#BB83C3"/>
<path d="M36.5807 302.332C32.2913 311.762 30.5748 312.106 33.1517 317.249C35.7245 322.392 41.0421 334.91 41.0421 334.91C41.0421 334.91 50.3048 347.256 52.3656 347.767C54.4221 348.283 51.8493 335.938 51.8493 335.938L47.7321 337.481L45.1593 335.426L39.4976 316.393L36.4086 311.762L40.0096 298.388L39.3255 285.015L36.7527 289.646L36.5807 302.332Z" fill="#BB83C3"/>
<path d="M44.1314 252.092L41.5586 260.838L44.1314 272.152V279.355L46.1879 271.641L44.1314 260.838L46.1879 247.977L44.1314 252.092Z" fill="#665070"/>
<path d="M44.1309 268.037L49.2764 269.581L55.9664 269.069L50.3046 273.18L44.1309 272.152V268.037Z" fill="#665070"/>
<path d="M46.1879 247.977L39.4979 245.921L36.4131 241.29L32.2959 242.318L34.3524 244.889L37.9534 248.493L46.1879 247.977Z" fill="#665070"/>
<path d="M41.9447 288.526C42.8596 289.898 46.0619 290.582 46.7461 288.182C47.4302 285.783 44.6895 284.755 44.6895 284.755C44.6895 284.755 41.0298 287.154 41.9447 288.526Z" fill="#288453"/>
<path d="M42.5152 278.353C42.5152 278.353 41.8311 285.211 45.6042 282.812C49.3773 280.412 45.2601 276.981 42.5152 278.353Z" fill="#33A86D"/>
<path d="M49.3779 285.9C49.3779 285.9 50.062 290.699 51.7786 287.615C53.4952 284.528 52.1228 282.812 49.3779 285.9Z" fill="#33A86D"/>
<path d="M45.6045 292.415C45.6045 292.415 48.6935 285.212 49.0334 288.644C49.3776 292.071 45.6045 292.415 45.6045 292.415Z" fill="#33A86D"/>
<path d="M157.097 272.979C157.097 272.979 156.64 263.796 159.393 267.928C162.146 272.06 159.85 274.359 159.85 274.359C159.85 274.359 162.608 267.928 165.365 273.44C168.123 278.952 161.231 279.871 161.231 279.871C161.231 279.871 152.044 280.328 152.044 273.44C152.044 266.552 157.097 272.979 157.097 272.979Z" fill="#33A86D"/>
<path d="M69.0528 209.438C69.0528 209.438 63.8947 203.938 63.8947 206.346C63.8947 208.754 67.3321 211.502 67.3321 211.502C67.3321 211.502 62.8623 211.158 63.5506 213.566C64.2389 215.973 67.6762 214.597 67.6762 214.597C67.6762 214.597 71.1135 221.129 72.8343 214.597C74.5551 208.066 70.7694 198.438 69.0528 209.438Z" fill="#33A86D"/>
<path d="M83.9811 226.016C83.1878 223.378 88.5768 217.752 88.5768 221.423C88.5768 225.098 85.3577 230.61 83.9811 226.016Z" fill="#33A86D"/>
<path d="M81.1611 233.202C81.1611 233.202 84.8125 227.728 85.7274 231.071C86.6424 234.414 82.0719 238.978 81.1611 233.202Z" fill="#33A86D"/>
<path d="M83.5203 248.056C83.5203 248.056 78.4671 239.331 83.5203 240.249C88.5776 241.168 86.7394 252.193 83.5203 248.056Z" fill="#33A86D"/>
<path d="M88.5771 247.6C88.5771 247.6 95.4686 240.711 95.0111 244.844C94.5495 248.976 90.8729 251.732 88.5771 247.6Z" fill="#33A86D"/>
<path d="M80.7665 250.355C80.7665 250.355 73.875 249.898 77.0899 251.731C80.3048 253.569 85.358 254.03 80.7665 250.355Z" fill="#33A86D"/>
<path d="M78.0084 244.844C78.0084 244.844 71.5744 243.468 75.251 245.762C78.9275 248.057 78.0084 244.844 78.0084 244.844Z" fill="#33A86D"/>
<path d="M89.0342 258.62C89.0342 258.62 89.9533 250.356 93.1682 252.651C96.3873 254.949 94.549 260 89.0342 258.62Z" fill="#33A86D"/>
<path d="M86.2774 263.67C86.2774 263.67 81.2243 255.863 85.82 258.62C90.4115 261.376 91.3306 263.67 86.2774 263.67Z" fill="#33A86D"/>
<path d="M87.6582 269.182C87.6582 269.182 90.4156 260.457 92.7114 266.426C95.0071 272.396 88.5773 272.857 87.6582 269.182Z" fill="#33A86D"/>
<path d="M89.4962 276.99C89.4962 276.99 81.6856 269.64 84.443 273.776C87.1963 277.908 89.4962 276.99 89.4962 276.99Z" fill="#33A86D"/>
<path d="M95.4681 272.857C95.4681 272.857 89.0341 277.451 94.5489 276.071C100.06 274.695 98.683 273.315 95.4681 272.857Z" fill="#33A86D"/>
<path d="M83.7505 268.033C83.7505 268.033 79.6164 272.165 83.5196 271.02C87.4228 269.875 88.3462 266.888 83.7505 268.033Z" fill="#33A86D"/>
<path d="M86.7384 279.515C86.7384 279.515 84.6693 286.173 89.7266 283.878C94.7756 281.584 93.8607 276.071 86.7384 279.515Z" fill="#33A86D"/>
<path d="M94.5491 283.42C94.5491 283.42 97.5374 279.519 99.6023 281.583C101.667 283.647 88.5768 288.702 94.5491 283.42Z" fill="#33A86D"/>
<path d="M88.1153 285.946C88.1153 285.946 78.2356 289.621 85.8196 288.472C93.3993 287.322 91.7919 287.092 88.1153 285.946Z" fill="#33A86D"/>
<path d="M90.4111 289.621C90.4111 289.621 92.4803 292.834 95.4643 290.77C98.4484 288.706 96.1568 289.159 90.4111 289.621Z" fill="#33A86D"/>
<path d="M98.6829 285.715C98.6829 285.715 106.263 285.715 101.671 286.865C97.0796 288.015 94.7755 287.553 98.6829 285.715Z" fill="#33A86D"/>
<path d="M86.9655 291.454C86.9655 291.454 83.5198 296.048 89.9538 293.522C96.3878 290.997 86.9655 291.454 86.9655 291.454Z" fill="#33A86D"/>
<path d="M96.6138 292.373C96.6138 292.373 92.4797 297.423 99.1404 294.898C105.805 292.373 103.505 290.766 96.6138 292.373Z" fill="#33A86D"/>
<path d="M89.0341 296.509C89.0341 296.509 88.8033 299.265 92.4799 297.658C96.1564 296.047 95.0064 295.359 89.0341 296.509Z" fill="#33A86D"/>
<path d="M89.7224 301.098C89.7224 301.098 85.5883 303.393 90.8723 303.167C96.1563 302.936 89.7224 301.098 89.7224 301.098Z" fill="#33A86D"/>
<path d="M80.3047 256.556C80.3047 256.556 71.5749 254.949 76.1706 257.244C80.7663 259.538 81.2238 257.701 80.3047 256.556Z" fill="#33A86D"/>
<path d="M85.5887 253.8C85.5887 253.8 78.0089 252.651 82.143 254.719C86.277 256.783 87.6578 255.637 85.5887 253.8Z" fill="#33A86D"/>
<path d="M93.8612 261.145C93.8612 261.145 101.441 257.243 98.6836 260.457C95.9261 263.67 87.8847 266.426 93.8612 261.145Z" fill="#33A86D"/>
<path d="M70.198 220.66C70.198 220.66 61.3171 218.822 64.9895 221.272C68.6619 223.722 73.5682 223.722 70.198 220.66Z" fill="#33A86D"/>
<path d="M70.5043 224.946C70.5043 224.946 65.9086 231.377 72.3426 228.927C78.7765 226.477 74.7936 223.721 70.5043 224.946Z" fill="#33A86D"/>
<path d="M70.198 220.659C70.198 220.659 77.8533 218.822 73.5681 221.884C69.2788 224.946 70.198 220.659 70.198 220.659Z" fill="#33A86D"/>
<path d="M75.0963 213.616C75.0963 213.616 69.5815 221.574 76.3218 217.291C83.0622 213.008 80.3048 209.639 75.0963 213.616Z" fill="#33A86D"/>
<path d="M79.3854 218.516C79.3854 218.516 83.6747 220.047 78.7726 221.578C73.8747 223.109 75.4024 222.19 79.3854 218.516Z" fill="#33A86D"/>
<path d="M78.4661 224.027C78.4661 224.027 73.8704 228.315 79.3852 226.477C84.9001 224.64 83.6746 223.415 78.4661 224.027Z" fill="#33A86D"/>
<path d="M75.4028 232.599C75.4028 232.599 66.8284 233.211 73.2582 235.048C79.688 236.886 78.4666 233.824 75.4028 232.599Z" fill="#33A86D"/>
<path d="M76.3223 229.536C76.3223 229.536 82.1435 224.636 80.6116 228.311C79.0797 231.986 74.4882 232.292 76.3223 229.536Z" fill="#33A86D"/>
<path d="M81.5424 228.873C81.5424 228.873 88.8956 227.036 83.9935 229.486C79.0914 231.936 81.5424 228.873 81.5424 228.873Z" fill="#33A86D"/>
<path d="M73.8751 237.804C73.8751 237.804 64.0751 238.722 70.1986 239.947C76.322 241.168 75.7092 239.029 73.8751 237.804Z" fill="#33A86D"/>
<path d="M68.9727 234.436C68.9727 234.436 62.5387 234.436 65.6025 235.967C68.6663 237.498 72.3429 237.498 68.9727 234.436Z" fill="#33A86D"/>
<path d="M238.78 269.354L165.009 270.097C163.566 270.097 160.321 269.182 160.321 273.47C160.321 277.757 160.351 280.014 160.351 280.014L239.649 279.758L238.78 269.354Z" fill="#4B3355"/>
<path d="M144.826 295.094C144.826 295.094 144.373 294.411 144.226 290.069C144.054 285.01 143.622 283.256 145.599 282.266C147.999 281.066 154.089 280.722 154.089 280.722L233.668 278.713L234.012 285.123V295.958L144.826 295.094Z" fill="#4B3355"/>
<path d="M144.125 283.827C144.125 283.827 143.722 282.22 145.858 281.658C150.941 280.324 153.803 279.41 160.434 279.183C167.066 278.957 234.008 279.057 234.008 279.057V285.123L144.125 283.827Z" fill="#FEED7F"/>
<path d="M145.171 295.045C145.171 295.045 144.999 295.188 139.74 296.673C134.481 298.158 133.852 299.739 133.852 301.472C133.852 303.204 138.485 302.843 138.485 302.843L233.148 304.215V295.62L145.171 295.045Z" fill="#FEED7F"/>
<path d="M135.391 311.656C133.103 311.656 131.618 313.02 127.614 315.075C124.592 316.631 122.355 317.361 121.897 319.874C121.352 322.865 234.012 329.422 234.012 329.422V312.525C234.012 312.525 137.678 311.656 135.391 311.656Z" fill="#FFACFF"/>
<path d="M125.784 317.135C123.64 317.676 122.737 317.315 122.011 318.536C121.428 319.513 121.21 321.431 121.21 322.395C121.21 324.564 121.143 329.43 121.143 329.43H234.008L232.367 318.511C232.367 318.511 187.296 317.911 155.747 317.508L153.657 318.628C153.657 318.628 151.273 317.454 150.484 317.441C136.856 317.257 126.725 316.896 125.784 317.135Z" fill="#4B3355"/>
<path d="M236.631 334.843L111.036 335.535C110.637 335.535 110.352 333.135 111.938 332.523L121.067 329.461C121.117 329.435 121.176 329.423 121.234 329.423H239.804C240.106 329.423 240.286 329.763 240.114 330.014L236.941 334.675C236.87 334.784 236.757 334.843 236.631 334.843Z" fill="#FFACFF"/>
<path d="M108.916 342.398C108.916 342.398 108.4 340.112 108.631 337.884C108.857 335.657 110.918 333.71 110.918 333.71C110.918 332.959 111.879 333.253 112.635 333.253L233.47 333.37C234.221 333.37 234.834 333.979 234.834 334.734V341.723C234.834 342.473 234.226 343.082 233.474 343.086L111.443 343.338C110.687 343.338 108.916 343.149 108.916 342.398Z" fill="#665070"/>
<path d="M110.306 342.364L96.4268 347.998L214.476 351.199L240.95 347.998L236.946 342.968L110.306 342.364Z" fill="#FFACFF"/>
<path d="M96.4265 347.972C96.4265 347.972 94.9071 354.399 94.6763 355.997C94.4497 357.595 96.4265 359.546 96.4265 359.546H237.479L242.247 347.54L219.105 348.455C219.105 348.455 215.029 349.826 213.959 349.826C210.014 349.826 205.552 347.649 205.552 347.649L96.4265 347.972Z" fill="#665070"/>
<path d="M95.5155 359.664L88.2505 361.565C85.0314 362.408 83.701 362.5 83.701 365.827L82.7861 369.027C82.7861 373.067 81.4892 376.344 85.5309 376.344H232.329C236.371 376.344 239.649 373.067 239.649 369.027V366.737C239.649 362.697 236.371 359.421 232.329 359.421H97.3706C96.7452 359.429 96.1241 359.509 95.5155 359.664Z" fill="#665070"/>
<path d="M96.3127 359.458L85.5852 362.265C84.7248 362.491 84.6661 363.691 85.5013 364.001L91.4946 366.212C91.6331 366.262 97.9621 363.565 98.109 363.544L113.138 363.552C113.185 363.548 113.231 363.544 113.277 363.544L186.355 365.247C186.666 365.256 186.955 365.419 187.115 365.688C187.467 366.275 188.315 366.279 188.672 365.696L188.991 365.176C189.154 364.907 189.448 364.744 189.767 364.744H235.854C236.475 364.744 236.916 364.136 236.719 363.544L235.783 360.733C235.661 360.364 235.313 360.113 234.923 360.113L96.5477 359.429C96.468 359.429 96.3882 359.437 96.3127 359.458Z" fill="#FFACFF"/>
<path d="M165.584 268.898C165.584 268.898 159.411 270.555 160.783 271.071C162.155 271.587 176.224 271.298 181.541 271.642C186.859 271.986 234.721 271.298 234.721 271.298C234.721 271.298 236.551 268.898 230.205 269.07C223.851 269.238 165.584 268.898 165.584 268.898Z" fill="#FEED7F"/>
<path d="M145.8 283.643L148.087 284.327L149.229 285.355L157.006 284.214L158.836 284.671L161.58 283.299L145.8 283.643Z" fill="#FEED7F"/>
<path d="M222.874 300.51L220.481 302.503L218.966 300.535L217.632 300.544L217.048 301.593L214.354 300.565L177.936 300.787L175.351 301.572L172.447 301.987L166.613 300.133L135.505 299.986C135.505 299.986 133.847 299.738 133.847 301.471C133.847 303.203 133.218 311.186 134.934 312.214C136.651 313.242 233.144 313.385 233.144 313.385V300.443L222.874 300.51Z" fill="#4B3355"/>
<path d="M157.006 315.188L160.523 319.174C160.523 319.174 166.382 318.775 168.14 319.174C169.341 319.446 186.397 319.644 186.397 319.644L190.993 320.168L196.231 317.815L188.357 315.981L157.006 315.188Z" fill="#FFACFF"/>
<path d="M118.754 332.678L129.561 334.738L132.747 335.493L138.136 335.422L142.597 336.11L151.176 331.65L118.754 332.678Z" fill="#FFACFF"/>
<path d="M166.042 346.853L169.013 349.596L175.418 350.968L178.394 349.37L182.738 349.596L187.77 346.853H166.042Z" fill="#FFACFF"/>
<path d="M135.509 299.986L143.173 300.213L145.003 301.584L144.088 304.097L146.375 307.525V310.037L150.719 309.354L152.775 311.866L134.25 311.409C134.25 311.409 133.566 310.952 133.566 307.294C133.566 303.636 133.104 299.529 135.509 299.986Z" fill="#34283A"/>
<path d="M108.917 342.397C108.917 342.397 106.571 338.626 110.919 333.709L113.433 333.365L113.207 337.023L116.044 340.648C116.119 340.664 116.191 340.618 116.207 340.543L116.409 339.536L125.558 337.707L126.473 339.993L124.874 342.28L108.917 342.397Z" fill="#4B3355"/>
<path d="M128.361 323.079L130.078 325.307L130.506 327.279L133.767 327.362L135.396 329.078L135.74 329.334H124.416L121.235 329.426L121.071 325.563C121.071 325.563 121.071 320.16 121.327 319.648C121.583 319.136 122.616 317.848 122.616 317.848L126.045 316.904L128.79 318.276L128.361 323.079Z" fill="#34283A"/>
<path d="M100.51 363.657L101.769 368.687L105.542 369.371L107.259 372.802L110.918 376.343H92.6194L93.1944 372.916L90.332 370.285L91.9353 366.401L98.1091 363.544L100.51 363.657Z" fill="#4B3355"/>
<path d="M132.42 364.002L132.135 366.628L134.934 368.801L139.681 367.828L143.399 371.087L148.579 364.359L132.42 364.002Z" fill="#4B3355"/>
<path d="M111.834 363.314L112.749 364.685L115.72 362.63L118.923 364.685H123.497C123.497 364.685 123.724 366.514 124.412 366.741C125.101 366.968 129.445 362.856 129.445 362.856L112.291 360.801L111.834 363.314Z" fill="#FFACFF"/>
<path d="M205.61 332.451L206.983 334.737L211.557 334.964L216.816 333.592L219.104 334.737L220.707 332.451H205.61Z" fill="#FFACFF"/>
<path d="M157.098 272.979C157.098 272.979 156.641 263.796 159.394 267.928C162.147 272.06 159.851 274.359 159.851 274.359C159.851 274.359 162.609 267.928 165.366 273.44C168.124 278.952 161.232 279.871 161.232 279.871C161.232 279.871 152.045 280.328 152.045 273.44C152.045 266.552 157.098 272.979 157.098 272.979Z" fill="#33A86D"/>
<path d="M230.298 305.591C230.298 305.591 230.298 292.154 230.298 287.389C230.298 282.623 232.9 279.645 232.9 279.645C232.9 279.645 233.135 269.984 233.345 267.785C233.601 265.042 239.464 259.756 239.464 259.756L240.706 252.897V198.967C240.706 198.967 239.405 195.497 238.973 194.633C238.541 193.765 238.973 189.868 238.973 189.868C238.973 189.868 251.115 184.666 252.416 184.666C253.717 184.666 278.433 191.6 278.433 191.6C278.433 191.6 292.741 208.502 293.177 211.103C293.609 213.704 293.177 232.774 293.177 232.774L305.05 238.202L311.224 254.148C311.224 254.148 315.287 279.582 317.024 280.014C318.758 280.446 324.394 296.483 324.831 299.084C326.228 307.47 328.726 300.506 328.726 325.957L334.899 335.493L337.472 367.886L319.631 380.345L240.379 379.087L233.336 376.574L230.298 305.591Z" fill="#665070"/>
<path d="M274.987 235.975L285.471 241.118L286.919 246.605L290.898 251.405L294.15 259.979L294.23 266.494L310.368 270.265L310.712 274.209C310.712 274.209 309.683 288.438 309.683 291.181C309.683 293.925 308.878 315.701 308.878 315.701L314.661 330.791L308.878 376.742L237.025 371.083L235.577 321.36L241 274.724L248.953 269.237L252.571 241.802L261.972 230.828L274.987 235.975Z" fill="#856792"/>
<path d="M228.711 314.505C228.711 314.505 229.911 302.021 229.911 296.16C229.911 294.52 230.298 288.429 230.298 287.389C230.298 285.648 230.646 284.146 231.087 282.938C231.85 280.844 232.9 279.645 232.9 279.645C232.9 279.645 233.252 268.771 233.345 267.785C233.601 265.042 239.464 259.756 239.464 259.756L245.411 262.5L246.326 258.158L240.706 245.812V198.967C240.706 198.967 239.405 195.497 238.973 194.633C238.54 193.765 238.973 189.868 238.973 189.868C238.973 189.868 251.115 184.666 252.416 184.666C253.717 184.666 253.075 220.202 253.075 220.202C253.075 220.202 276.313 226.347 276.746 228.948C277.178 231.549 254.275 306.107 254.275 306.107L228.371 336.113L228.711 314.505Z" fill="#856792"/>
<path d="M243.808 270.609L246.209 253.464L260.432 239.746L278.803 241.118C278.803 241.118 281.72 243.752 282.152 246.785C282.584 249.818 288.41 256.207 288.41 256.207C288.41 256.207 289.509 263.758 290.466 270C290.693 271.485 304.761 273.772 305.219 274.212C308.35 277.212 305.903 299.189 305.903 301.475C305.903 303.762 321.939 317.139 322.372 319.308C322.804 321.477 326.342 331.163 326.342 331.163C326.342 331.163 318.943 377.497 318.943 379.661C318.943 381.826 241.403 379.146 241.403 379.146V277.467L243.808 270.609Z" fill="#1D2538"/>
<path d="M255.102 226.628L258.892 221.133L253.188 219.899L255.102 226.628Z" fill="#665070"/>
<path d="M254.103 193.966L249.47 198.081L255.131 203.224L254.103 193.966Z" fill="#665070"/>
<path d="M276.401 195.51L279.49 211.283C279.49 211.283 283.952 219.169 286.697 222.601C289.441 226.028 289.097 235.975 289.097 235.975L295.959 240.434L287.041 237.346C287.041 237.346 286.697 226.028 285.668 224.317C284.64 222.601 279.835 215.742 278.122 213.687C276.401 211.627 276.401 195.51 276.401 195.51Z" fill="#4B3355"/>
<path d="M243.33 294.587C243.33 294.587 238.277 294.406 235.507 294.708C232.51 295.036 230.453 295.43 227.444 300.363C224.863 304.596 223.713 308.665 222.991 310.347C222.269 312.029 222.509 312.994 224.674 314.92C226.84 316.845 239.599 323.1 246.335 316.124C253.075 309.147 252.11 300.246 249.944 298.081C247.779 295.916 243.33 294.587 243.33 294.587Z" fill="#665070"/>
<path d="M259.216 283.391C256.206 281.348 246.553 280.895 242.096 282.267C234.605 284.57 234.55 288.782 232.833 293.241C231.604 296.433 233.408 301.073 235.822 302.008C238.235 302.94 247.057 302.768 250.075 300.591C253.092 298.413 262.225 285.438 259.216 283.391Z" fill="#665070"/>
<path d="M252.596 282.669C252.596 282.669 247.925 282.266 253.074 286.042L246.59 295.447C246.59 295.447 242.271 297.439 240.945 300.758C239.619 304.076 242.179 312.596 242.007 313.947C241.285 319.719 233.823 341.852 235.749 349.793C237.676 357.73 253.801 351.718 271.613 354.365C289.425 357.012 319.752 351.718 324.083 350.758C328.415 349.797 324.705 333.273 323.001 329.225C319.148 320.084 320.231 314.911 318.308 307.453C316.382 299.994 319.996 295.711 310.128 289.695C300.253 283.68 262.463 279.543 252.596 282.669Z" fill="#856792"/>
<path d="M282.895 277.967C282.895 277.967 289.027 278.047 294.575 279.414C296.099 279.787 299.695 278.646 301.269 279.074C307.498 280.769 312.891 284.05 313.667 285.711C315.35 289.318 317.759 303.514 315.594 305.44C313.428 307.365 310.847 309.857 306.511 309.857C302.176 309.857 294.957 309.136 293.996 305.285C293.031 301.434 274.471 288.551 282.895 277.967Z" fill="#856792"/>
<path d="M246.217 315.868L242.003 311.296C234.301 310.813 229.727 311.535 226.6 313.943C223.469 316.346 221.303 320.797 220.581 327.052C219.86 333.307 219.86 337.636 226.357 342.208C232.853 346.781 234.541 345.816 241.52 347.981C248.5 350.145 260.272 347.763 260.272 347.763L261.645 343.991L262.329 337.476C262.329 337.476 261.158 331.415 261.301 329.59C261.422 328.021 257.402 322.601 254.997 322.362C252.592 322.123 248.017 321.64 246.091 320.919L246.217 315.868Z" fill="#856792"/>
<path d="M251.4 326.46H254.393C254.393 326.46 254.074 324.79 259.198 324.459C264.327 324.123 264.352 327.643 264.352 327.643C264.352 327.643 264.768 330.957 265.687 334.67C266.363 337.409 265.93 340.165 265.93 341.831C265.93 345.757 263.685 349.474 260.478 350.472C258.124 351.206 252.949 349.977 250.246 347.288C249.272 346.319 248.622 345.161 248.538 343.836C248.399 341.7 249.457 338.777 249.453 336.218C249.453 335.236 248.345 334.506 248.358 333.6C248.399 331.33 248.488 329.413 248.622 328.457C248.945 326.125 251.4 326.46 251.4 326.46Z" fill="#665070"/>
<path d="M251.023 327.711H254.733C254.733 327.711 254.708 326.07 256.399 325.894C262.758 325.592 261.965 328.621 261.965 328.621C261.965 328.621 263.61 331.046 264.445 335.169C264.97 337.741 264.995 340.149 264.995 341.663C264.995 345.229 261.965 348.614 257.99 349.52C255.069 350.187 252.945 349.072 249.596 346.63C248.392 345.749 247.582 344.696 247.477 343.496C247.309 341.558 248.614 338.903 248.61 336.579C248.61 335.685 247.233 335.027 247.254 334.2C247.305 332.136 247.418 330.4 247.582 329.531C247.976 327.409 251.023 327.711 251.023 327.711Z" fill="#856792"/>
<path d="M327.098 353.762C327.098 361.338 328.076 370.781 327.098 372.979C326.12 375.177 325.209 377.078 320.32 379.318C314.461 382.002 310.738 380.056 306.339 381.768C301.941 383.479 295.352 382.988 287.046 382.745C278.744 382.502 278.253 380.304 274.589 382.011C270.925 383.718 263.601 384.696 263.354 378.105C263.11 371.515 262.867 357.357 263.597 353.695C264.332 350.033 267.135 350.385 270.556 350.154C274.22 349.911 279.47 351.253 279.47 351.253C287.491 347.998 298.013 348.455 298.013 348.455C298.013 348.455 304.136 346.861 309.021 345.397C313.907 343.933 313.415 343.933 315.371 342.469C317.327 341.001 327.098 346.182 327.098 353.762Z" fill="#665070"/>
<path d="M229.61 339.688C229.61 339.688 217.795 343.685 214.375 345.884C210.954 348.082 209.489 349.789 209.489 355.645C209.489 361.501 210.224 366.141 210.224 368.583C210.224 371.024 214.375 375.173 217.061 378.344C219.747 381.516 221.455 380.295 227.318 381.029C233.181 381.763 234.398 379.808 238.797 380.295C243.191 380.782 250.032 379.318 250.032 379.318C250.032 379.318 251.497 381.268 255.648 381.759C259.799 382.246 256.626 382.246 260.776 382.002C264.927 381.759 267.37 380.538 267.127 370.042C266.883 359.547 269.326 355.398 265.418 352.47C261.511 349.542 260.533 349.298 256.869 349.051C253.205 348.803 252.567 349.932 249.881 349.445C247.195 348.958 235.716 346.76 234.008 344.319C232.296 341.886 233.76 341.152 229.61 339.688Z" fill="#665070"/>
<path d="M290.516 281.83C290.516 281.83 292.401 290.711 294.827 294.482C297.253 298.253 297.311 299.05 302.428 299.86C307.544 300.665 310.775 299.592 310.775 299.592C310.775 299.592 312.228 302.222 306.171 302.083C300.111 301.949 294.457 300.603 293.379 299.797C292.3 298.992 291.595 292.599 290.516 288.697C289.438 284.796 290.516 281.83 290.516 281.83Z" fill="#665070"/>
<path d="M309.159 321.435C309.159 321.435 306.469 320.24 305.063 320.319C303.657 320.399 300.849 324.304 300.031 325.785C299.212 327.266 300.257 335.845 300.257 337.376C300.257 338.907 299.678 339.893 301.785 340.711C303.892 341.529 306.817 340.527 307.405 340.564C307.988 340.602 309.747 339.012 308.811 338.781C307.875 338.551 303.896 339.658 303.078 339.264C302.259 338.87 301.672 336.449 301.672 336.449C301.672 336.449 301.088 331.134 301.319 329.448C301.55 327.761 302.49 325.949 302.49 325.949C302.49 325.949 304.127 321.968 305.067 322.031C305.999 322.085 309.159 321.435 309.159 321.435Z" fill="#665070"/>
<path d="M298.705 349.482L291.213 355.204C291.213 355.204 287.939 367.474 288.535 370.361C289.131 373.247 292.703 377.215 292.703 377.215L304.014 381.184C304.014 381.184 308.182 381.544 310.859 379.019C313.537 376.494 312.349 370.717 312.349 370.717C312.349 370.717 310.809 351.429 309.172 350.166C307.535 348.903 298.705 349.482 298.705 349.482Z" fill="#856792"/>
<path d="M270.916 350.872C270.916 350.872 264.339 348.707 264.029 350.511C263.718 352.315 262.778 361.699 263.403 364.224C264.029 366.75 264.654 368.193 264.654 368.193L263.403 371.079C263.403 371.079 263.441 382.154 265.456 382.569C267.475 382.988 272.171 378.294 272.171 378.294L274.051 372.161C274.051 372.161 274.677 354.118 273.736 353.036C272.796 351.954 270.916 350.872 270.916 350.872Z" fill="#856792"/>
<path d="M315.414 321.787C315.414 321.787 317.218 325.114 317.579 329.099C317.94 333.084 316.824 337.057 314.331 340.14C309.68 345.891 309.185 345.489 309.185 345.489C309.185 345.489 299.616 347.23 296.729 346.021L308.644 342.577C308.644 342.577 315.661 336.356 315.661 335.274C315.661 334.192 314.998 325.097 314.998 325.097L315.414 321.787Z" fill="#665070"/>
<path d="M257.284 271.527C257.284 271.527 257.943 273.939 257.393 275.37C256.843 276.796 254.921 276.523 253.385 276.523C251.849 276.523 250.476 276.36 249.708 275.701C248.94 275.042 247.828 271.397 248.39 270.545C248.953 269.694 250.804 269.996 253.112 270.327C255.42 270.659 257.284 271.527 257.284 271.527Z" fill="#856792"/>
<path d="M283.709 280.786C283.709 280.786 284.032 270.571 282.899 267.656C281.761 264.736 281.761 265.063 278.681 262.953C275.6 260.847 275.113 261.17 274.95 259.874C274.786 258.578 273.812 257.928 267.328 257.928C260.839 257.928 254.351 258.578 252.894 259.874C251.438 261.17 249.747 266.427 249.747 266.427C249.747 266.427 248.446 271.985 249.646 279.977C249.663 282.171 249.99 285.073 249.99 285.073L249.075 285.531C249.075 285.531 249.549 294.407 250.036 296.027C250.523 297.646 250.2 299.433 259.769 298.783C269.338 298.133 276.314 297.646 277.934 294.567C279.554 291.488 281.098 289.357 281.098 289.357C281.098 289.357 284.066 285.128 283.709 280.786Z" fill="#856792"/>
<path d="M263.273 273.335C263.273 273.335 264.57 276.146 265.435 277.01C266.299 277.874 272.788 278.092 272.788 278.092C272.788 278.092 269.33 278.524 267.164 278.524C265.003 278.524 264.138 277.66 264.138 277.66L263.273 273.335Z" fill="#665070"/>
<path d="M256.504 273.411C255.131 271.867 249.214 271.381 249.126 272.455C249.042 273.524 249.944 276.415 250.955 276.671C251.858 276.897 256.088 277.287 256.386 276.444C256.63 275.756 257.876 274.955 256.504 273.411Z" fill="#665070"/>
<path d="M275.705 269.14L283.222 269.165L283.18 270.352L278.194 271.543C278.194 271.543 277.002 274.526 276.574 275.273C274.861 278.239 264.398 276.095 264.398 276.095L263.542 274.039L275.705 269.14Z" fill="#665070"/>
<path d="M249.012 285.299C249.012 285.299 249.545 288.89 250.519 292.132C251.493 295.375 251.812 296.944 254.087 297.108C256.357 297.271 265.716 297.204 271.718 296.558C277.72 295.908 278.912 293.106 279.885 291C280.859 288.894 281.346 286.138 281.346 286.138C281.346 286.138 282.156 287.598 281.669 289.217C281.182 290.836 281.598 296.235 277.38 297.045C274.597 297.578 259.643 298.949 253.763 298.731C249.386 298.568 249.55 296.512 249.226 291.973C248.895 287.43 249.012 285.299 249.012 285.299Z" fill="#665070"/>
<path d="M262.786 271.653C262.786 271.653 263.328 274.786 264.843 275.541C266.358 276.296 271.113 276.192 273.384 276.082C275.654 275.973 275.331 276.192 275.545 274.354C275.763 272.517 276.196 268.41 275.113 267.869C274.03 267.328 265.271 269.924 262.786 271.653Z" fill="#34283A"/>
<path d="M256.487 272.63C256.487 272.63 256.974 274.413 256.567 275.466C256.16 276.519 254.745 276.318 253.608 276.318C252.475 276.318 251.459 276.196 250.892 275.709C250.326 275.223 249.503 272.534 249.919 271.905C250.334 271.275 251.702 271.498 253.402 271.741C255.11 271.98 256.487 272.63 256.487 272.63Z" fill="#34283A"/>
<path d="M283.977 267.87C283.977 267.87 283.835 269.816 282.189 269.816C280.544 269.816 276.171 268.465 273.044 269.439C269.917 270.412 264.94 273.29 263.131 273.29C261.322 273.29 257.906 273.332 256.751 273.332C255.597 273.332 254.943 272.035 252.143 271.872C249.344 271.708 247.929 272.102 247.669 271.729C247.174 269.783 247.371 266.2 248.853 264.904C250.334 263.608 246.888 257.881 257.41 256.636C276.57 254.366 276.234 257.772 277.22 258.741C278.206 259.715 280.2 259.648 281.384 260.31C284.086 261.816 283.977 265.277 283.977 267.87Z" fill="#856792"/>
<path d="M250.326 270.269C246.209 269.925 247.371 266.195 248.853 264.899C250.334 263.603 246.889 257.877 257.411 256.631C276.57 254.361 276.234 257.768 277.22 258.737C277.867 259.374 271.491 262.034 267.949 264.358C264.407 266.682 263.446 265 262.413 265.684C261.385 266.367 256.026 264.689 256.5 264.777C256.504 264.782 252.11 270.415 250.326 270.269Z" fill="#665070"/>
<path d="M250.309 278.742L250.632 284.85L249.046 285.307L249.105 286.344C249.105 286.344 266.4 285.228 273.212 286.847L271.915 285.228C271.915 285.228 261.498 283.768 252.198 284.527L251.279 283.067L250.309 278.742Z" fill="#665070"/>
<path d="M256.537 273.327C256.537 273.327 258.459 273.705 258.732 273.705C259.001 273.705 260.193 273.541 260.193 273.541L263.492 273.272L263.168 273.759L260.247 274.678L258.191 274.733L256.726 274.481L256.537 273.327Z" fill="#665070"/>
<path d="M283.797 277.094C283.797 277.094 283.839 283.491 283.205 284.951C282.122 287.606 281.203 288.668 281.203 288.668L281.421 286.545C281.421 286.545 282.878 284.951 283.096 284.158C283.31 283.361 283.797 277.094 283.797 277.094Z" fill="#665070"/>
<path d="M251.106 260.52C251.106 260.52 253.054 264.085 254.514 264.735C255.975 265.386 259.706 264.412 259.706 264.412C259.706 264.412 254.678 267.005 253.704 266.359C252.731 265.709 251.106 260.52 251.106 260.52Z" fill="#856792"/>
<path d="M224.9 315.461C224.9 315.461 228.015 314.022 231.867 312.709C235.72 311.396 237.403 311.161 237.403 311.161C237.403 311.161 235.116 309.379 230.982 311.27C228.321 312.487 226.73 312.781 224.9 315.461Z" fill="#856792"/>
<path d="M226.723 327.057L227.084 336.982L230.874 345.099C230.874 345.099 224.918 339.147 224.918 337.523C224.918 335.9 226.723 327.057 226.723 327.057Z" fill="#665070"/>
<path d="M271.164 323.88L275.017 321.686L282.722 322.626L285.786 324.56L286.68 324.602L280.725 320.839L273.019 319.899L269.166 322.093L269.384 325.395L271.491 325.097L271.164 323.88Z" fill="#665070"/>
<path d="M268.726 324.858L265.074 324.481C264.856 324.46 264.655 324.59 264.583 324.795L263.06 329.305C262.988 329.519 263.076 329.75 263.274 329.863L264.738 330.689C265.057 330.87 265.057 331.327 264.738 331.503L264 331.914C263.845 332.002 263.752 332.17 263.761 332.351L264.424 343.719C264.428 343.803 264.453 343.883 264.499 343.95L267.995 349.219C268.071 349.332 268.188 349.407 268.323 349.424L275.709 350.41C275.789 350.423 275.873 350.41 275.949 350.381L280.444 348.535C280.914 348.342 280.784 347.65 280.276 347.637L269.502 347.381C269.313 347.377 269.145 347.26 269.078 347.083L267.555 343.203C267.509 343.081 267.412 342.985 267.29 342.939L265.41 342.205C265.225 342.133 265.104 341.949 265.112 341.752L265.2 339.679C265.209 339.532 265.284 339.394 265.406 339.314L265.683 338.71C265.947 338.53 265.956 338.148 265.704 337.955L265.158 337.057C265.049 336.973 264.982 336.843 264.978 336.705L264.881 334.188C264.877 334.07 264.919 333.953 264.994 333.865L266.472 332.153C266.631 331.969 266.623 331.696 266.451 331.524L264.608 329.632C264.466 329.485 264.436 329.259 264.533 329.078L265.88 326.645C265.943 326.532 266.052 326.448 266.178 326.419L268.789 325.781C269.301 325.651 269.246 324.913 268.726 324.858Z" fill="#665070"/>
<path d="M215.558 351.295C217.791 350.015 225.703 350.028 227.604 351.295C229.505 352.562 226.311 362.684 226.311 362.684C226.311 362.684 233.82 375.349 231.918 377.249C230.017 379.149 218.605 374.715 216.385 372.496C214.165 370.277 212.218 359.081 213.023 356.362C213.775 353.828 213.326 352.574 215.558 351.295Z" fill="#856792"/>
<path d="M230.332 348.346L235.746 352.318L247.179 352.197L235.746 349.789L230.332 348.346Z" fill="#856792"/>
<path d="M307.737 319.421L291.528 322.442L286.655 325.319L291.184 320.726L301.815 317.672L307.737 319.421Z" fill="#665070"/>
<path d="M297.194 299.097L292.821 305.414C292.821 305.414 292.334 318.532 295.738 319.992C295.738 319.992 298.168 314.161 298.655 311.245C299.142 308.33 299.142 307.684 299.952 306.224C300.762 304.768 302.059 300.557 302.059 300.557L297.194 299.097Z" fill="#665070"/>
<path d="M260.756 309.609C260.756 309.609 259.648 316.913 259.87 320.009C260.093 323.105 264.521 326.868 264.521 326.868C264.521 326.868 262.086 323.327 262.086 319.346C262.086 315.365 260.756 309.609 260.756 309.609Z" fill="#665070"/>
<path d="M259.761 298.782C259.761 298.782 264.847 304.411 268.835 304.411C272.822 304.411 278.798 296.776 278.798 296.776L259.761 298.782Z" fill="#665070"/>
<path d="M278.799 348.719C278.799 348.719 287.432 345.401 288.095 344.738C288.758 344.075 288.095 337.435 288.095 337.435C288.095 337.435 291.914 343.74 289.757 346.064C287.6 348.388 278.799 348.719 278.799 348.719Z" fill="#665070"/>
<path d="M315.879 302.528C315.879 302.528 317.205 306.291 317.873 312.265C318.536 318.239 314.553 325.542 314.553 325.542C314.553 325.542 320.307 322.664 319.866 314.257C319.421 305.847 315.879 302.528 315.879 302.528Z" fill="#665070"/>
<path d="M240.941 339.427C240.773 340.921 244.374 344.13 244.374 344.13L243.266 339.842L243.682 335.861C243.682 335.857 241.109 337.929 240.941 339.427Z" fill="#665070"/>
<path d="M229.32 343.492C229.32 343.492 231.532 345.678 233.526 346.563C235.519 347.448 244.152 348.111 244.152 348.111C244.996 348.333 237.912 348.711 233.085 347.448C232.199 347.217 231.532 346.588 229.32 343.492Z" fill="#665070"/>
<path d="M232.64 295.117C232.64 295.117 235.922 293.215 237.84 293.144C239.754 293.073 240.031 294.533 240.031 294.533C240.031 294.533 238.205 293.87 236.795 294.034C234.528 294.303 232.64 295.117 232.64 295.117Z" fill="#856792"/>
<path d="M246.586 320.407C246.586 320.407 242.775 318.649 240.433 318.649C238.092 318.649 234.134 322.165 234.134 322.165C234.134 322.165 240.433 320.554 241.751 320.701C243.069 320.848 246.586 320.407 246.586 320.407Z" fill="#665070"/>
<path d="M259.371 325.319C259.371 324.656 256.882 322.441 254.888 322.441C252.895 322.441 252.538 322.58 251.014 323.104C249.411 323.658 248.358 324.43 247.917 325.097C247.917 325.097 247.917 322.001 251.459 321.556C255.002 321.116 254.704 320.738 255.996 321.116C257.322 321.502 259.371 325.319 259.371 325.319Z" fill="#665070"/>
<path d="M240.11 320.84C240.11 320.84 246.586 321.007 248.911 323.164C248.911 323.164 251.262 321.595 248.911 320.84C244.261 319.346 240.11 320.84 240.11 320.84Z" fill="#665070"/>
<path d="M38.7131 371.556L39.3258 365.415L18.4332 350.674L6.1444 356.199L0 365.415L11.0591 374.01L38.7131 371.556Z" fill="#665070"/>
<path d="M11.0591 374.01L21.5054 372.786L12.7001 365.822L18.4332 350.674L6.1444 356.199L6.75716 361.728L0 365.415L11.0591 374.01Z" fill="#4B3355"/>
<path d="M302.104 385.462L295.787 375.227L288.619 377.953L285.463 385.882L289.479 386.591L295.334 388.08L302.104 385.462Z" fill="#4B3355"/>
<path d="M295.62 375.311L296.304 380.173L293.571 382.903L293.315 385.974L295.28 387.849C299.548 387.51 302.108 385.458 302.108 385.458L302.448 380.508L295.62 375.311Z" fill="#665070"/>
<path d="M287.037 388.231L288.409 382.744L281.778 380.458L277.43 384.804L280.632 387.774L287.037 388.231Z" fill="#4B3355"/>
<path d="M287.037 388.231L283.377 383.201L279.948 384.804L280.632 387.774L287.037 388.231Z" fill="#665070"/>
<path d="M239.346 309.361C239.346 309.361 239.346 304.218 242.091 305.59C244.835 306.962 243.463 310.733 243.463 310.733C243.463 310.733 246.552 308.678 247.236 311.417C247.92 314.16 245.18 313.133 245.18 313.133L239.346 309.361Z" fill="#33A86D"/>
<path d="M232.828 311.761C232.828 311.761 231.111 308.674 233.856 309.018C236.601 309.362 234.544 312.105 232.828 311.761Z" fill="#33A86D"/>
<path d="M240.034 313.817C240.034 313.817 235.916 308.674 235.232 312.445C234.544 316.221 238.317 317.249 240.034 313.817Z" fill="#288453"/>
<path d="M239.69 317.932C239.69 317.932 239.005 309.701 242.09 311.417C245.179 313.133 243.123 318.964 239.69 317.932Z" fill="#288453"/>
<path d="M237.974 321.708C237.974 321.708 230.427 324.452 235.917 325.135C241.407 325.823 237.974 321.708 237.974 321.708Z" fill="#288453"/>
<path d="M213.341 376.616C213.341 376.616 211.91 371.569 213.799 371.762C215.687 371.955 214.789 375.827 214.789 375.827C214.789 375.827 218.239 369.908 218.974 374.019C219.708 378.13 218.655 379.645 218.655 379.645C218.655 379.645 220.976 376.314 222.071 377.975C223.162 379.636 221.698 380.798 221.698 380.798C221.698 380.798 219.301 383.244 217.484 381.977C215.666 380.71 215.666 380.71 215.666 380.71C215.666 380.71 214.097 382.317 210.882 379.179C207.671 376.037 208.129 371.183 213.341 376.616Z" fill="#33A86D"/>
<path d="M82.5539 375.546C82.5539 375.546 81.5256 368.688 84.9546 369.715C88.3835 370.743 86.6712 373.487 86.6712 373.487C86.6712 373.487 90.7884 372.459 89.0718 376.23C87.3553 380.001 85.6429 380.001 85.6429 380.001C85.6429 380.001 80.8415 382.745 79.125 376.574C77.4084 370.403 82.5539 375.546 82.5539 375.546Z" fill="#33A86D"/>
<path d="M67.4619 375.546C67.4619 375.546 65.4053 371.086 67.4619 370.403C69.5184 369.719 69.5184 373.146 69.5184 373.146C69.5184 373.146 71.9191 368.687 72.6074 372.118C73.2915 375.546 71.9191 380.001 67.4619 375.546Z" fill="#33A86D"/>
<path d="M68.4902 363.544C68.4902 363.544 68.4902 367.659 70.5468 366.288C72.6075 364.916 73.6357 359.429 68.4902 363.544Z" fill="#33A86D"/>
<path d="M58.1946 364.228C58.1946 364.228 57.1663 368.687 59.2228 368.344C61.2794 368 61.9677 367.66 61.2794 365.6C60.5994 363.545 58.1946 364.228 58.1946 364.228Z" fill="#33A86D"/>
<path d="M56.1387 359.084C56.1387 359.084 57.1669 363.2 59.2277 360.8C61.2842 358.396 58.5394 356.341 56.1387 359.084Z" fill="#33A86D"/>
<path d="M61.6279 361.14C61.6279 361.14 63.0003 364.228 64.3728 363.884C65.7452 363.54 66.0893 357.369 61.6279 361.14Z" fill="#33A86D"/>
<path d="M58.8838 356.685C58.8838 356.685 59.2279 362.172 62.3127 358.74C65.3975 355.309 61.9728 354.281 58.8838 356.685Z" fill="#33A86D"/>
<path d="M58.5395 352.226C58.5395 352.226 58.1954 356.341 60.5961 353.942C63.001 351.538 61.2844 348.111 58.5395 352.226Z" fill="#33A86D"/>
<path d="M305.562 326.163C305.562 326.163 306.078 319.476 310.195 322.048C314.312 324.619 307.622 328.223 305.562 326.163Z" fill="#33A86D"/>
<path d="M307.106 328.734C307.106 328.734 299.786 333.42 308.02 330.907C316.255 328.395 315.113 327.48 307.106 328.734Z" fill="#33A86D"/>
<path d="M308.709 332.967C308.709 332.967 309.624 340.51 311.454 336.168C313.284 331.822 312.595 332.279 308.709 332.967Z" fill="#33A86D"/>
<path d="M307.337 333.193C307.337 333.193 300.705 334.565 306.195 335.249C311.68 335.937 307.337 333.193 307.337 333.193Z" fill="#33A86D"/>
<path d="M308.021 343.937C308.021 343.937 313.511 340.736 308.936 340.736C304.361 340.736 302.532 343.937 308.021 343.937Z" fill="#33A86D"/>
<path d="M313.339 313.935C313.339 313.935 312.424 319.422 316.541 316.447C320.658 313.477 318.144 312.332 313.339 313.935Z" fill="#33A86D"/>
<path d="M320.889 306.618C320.889 306.618 314.715 308.904 318.833 309.362C322.946 309.819 322.262 306.845 320.889 306.618Z" fill="#33A86D"/>
<path d="M316.998 301.131C316.998 301.131 316.314 306.618 319.512 303.874C322.718 301.131 321.115 301.131 316.998 301.131Z" fill="#33A86D"/>
<path d="M315.4 303.875C315.4 303.875 311.513 303.417 314.715 304.79C317.914 306.162 315.4 303.875 315.4 303.875Z" fill="#33A86D"/>
<path d="M315.168 298.157C315.168 298.157 321.573 301.358 319.055 298.157C316.541 294.956 311.508 294.73 315.168 298.157Z" fill="#33A86D"/>
<path d="M318.37 374.514C318.37 374.514 317.455 378.856 320.427 377.715C323.398 376.574 322.483 374.288 321.342 374.057C320.2 373.826 318.37 374.514 318.37 374.514Z" fill="#33A86D"/>
<path d="M318.371 371.544C318.371 371.544 321.343 364.458 320.658 369.257C319.974 374.056 318.371 371.544 318.371 371.544Z" fill="#33A86D"/>
<path d="M316.998 373.146C316.998 373.146 309.678 364.232 313.112 365.147C316.541 366.061 316.314 368.805 316.314 368.805C316.314 368.805 316.998 359.202 318.37 362.86C319.743 366.518 316.998 373.146 316.998 373.146Z" fill="#33A86D"/>
<path d="M322.95 367.823C322.95 367.823 327.936 364.245 327.223 367.274C326.509 370.303 322.237 368.927 322.95 367.823Z" fill="#33A86D"/>
<path d="M326.606 375.886C326.606 375.886 326.379 369.941 324.549 369.941C322.719 369.941 324.549 376.8 326.606 375.886Z" fill="#33A86D"/>
<path d="M328.666 375.202C328.666 375.202 325.695 363.544 329.351 365.6C333.01 367.659 331.411 377.257 328.666 375.202Z" fill="#33A86D"/>
<path d="M320.658 364.228C320.658 364.228 321.116 358.283 322.257 362.172C323.403 366.057 321.573 366.514 320.658 364.228Z" fill="#33A86D"/>
<path d="M330.953 374.057C330.953 374.057 331.868 366.972 333.698 367.429C335.528 367.886 334.382 370.63 334.382 370.63C334.382 370.63 336.439 364.002 338.268 365.831C340.098 367.66 336.896 370.403 336.896 370.403C336.896 370.403 342.155 367.66 340.556 370.177C338.957 372.69 335.297 371.775 335.297 371.775C335.297 371.775 336.669 376.117 330.953 374.057Z" fill="#33A86D"/>
<path d="M311.739 382.287C311.739 382.287 305.108 377.031 308.08 376.343C311.051 375.659 310.367 377.941 310.367 377.941C310.367 377.941 313.796 375.885 313.569 377.257C313.343 378.629 314.253 378.855 314.253 378.855C314.253 378.855 319.516 383.432 311.739 382.287Z" fill="#33A86D"/>
<path d="M234.2 373.146C234.2 373.146 234.2 368.574 235.342 369.488C236.483 370.403 236.257 372.689 236.257 372.689C236.257 372.689 240.601 369.945 240.143 372.232C239.686 374.518 237.398 374.744 237.398 374.744C237.398 374.744 237.398 378.629 236.026 377.488C234.653 376.347 234.2 373.146 234.2 373.146Z" fill="#33A86D"/>
<path d="M235.572 363.313C235.572 363.313 239.689 364.685 237.86 366.057C236.03 367.429 235.572 363.313 235.572 363.313Z" fill="#33A86D"/>
<path d="M238.775 368.116C238.775 368.116 239.917 373.146 242.204 369.488C244.496 365.83 244.265 366.971 238.775 368.116Z" fill="#33A86D"/>
<path d="M220.476 344.566C220.476 344.566 217.505 339.536 220.934 340.681C224.363 341.827 221.849 343.651 221.849 343.651C221.849 343.651 226.881 342.968 225.508 345.25C224.136 347.536 221.164 346.164 221.164 346.164L220.476 344.566Z" fill="#33A86D"/>
<path d="M219.104 345.254C219.104 345.254 219.561 341.827 217.731 341.139C215.901 340.451 214.529 346.395 219.104 345.254Z" fill="#33A86D"/>
<path d="M220.476 337.938C220.476 337.938 217.047 333.366 219.334 333.823C221.622 334.28 222.079 335.421 222.079 335.421C222.079 335.421 225.282 335.195 223.909 338.391C222.537 341.588 220.476 337.938 220.476 337.938Z" fill="#33A86D"/>
<path d="M218.877 329.477C218.877 329.477 221.848 332.904 223.221 330.391C224.593 327.878 218.877 329.477 218.877 329.477Z" fill="#33A86D"/>
<path d="M228.484 330.848C228.484 330.848 231.455 328.104 230.083 328.104C228.71 328.104 228.71 328.104 228.026 328.104C227.338 328.104 226.88 330.622 228.484 330.848Z" fill="#33A86D"/>
<path d="M224.367 326.049C224.367 326.049 222.31 329.707 225.508 327.878C228.706 326.049 229.168 325.135 224.367 326.049Z" fill="#33A86D"/>
<path d="M224.878 313.477C224.878 313.477 224.194 309.592 226.477 310.964C228.765 312.336 226.935 313.934 226.935 313.934C226.935 313.934 231.51 313.02 229.68 315.763C227.85 318.507 226.251 316.904 226.251 316.904L224.878 313.477Z" fill="#33A86D"/>
<path d="M222.822 309.131C222.822 309.131 215.733 308.447 218.247 310.729C220.766 313.02 225.11 310.046 222.822 309.131Z" fill="#33A86D"/>
<path d="M222.138 312.789C222.138 312.789 218.478 315.759 221.681 314.844C224.879 313.934 223.28 312.562 222.138 312.789Z" fill="#33A86D"/>
<path d="M220.077 318.05C220.077 318.05 226.024 317.135 222.591 316.451C219.158 315.767 218.247 317.362 220.077 318.05Z" fill="#33A86D"/>
<path d="M223.963 322.849C223.963 322.849 226.02 320.105 223.506 320.105C220.992 320.105 220.992 322.392 223.963 322.849Z" fill="#33A86D"/>
<path d="M282.234 357.826C282.234 357.826 277.66 361.027 281.093 360.112C284.522 359.198 282.234 357.826 282.234 357.826Z" fill="#33A86D"/>
<path d="M283.149 361.258C282.511 361.782 285.436 365.373 286.12 361.941C286.809 358.514 287.035 358.057 283.149 361.258Z" fill="#33A86D"/>
<path d="M280.174 364.228C280.174 364.228 286.578 368.57 284.06 365.6C281.546 362.63 279.032 363.544 280.174 364.228Z" fill="#33A86D"/>
<path d="M281.089 367.886C281.089 367.886 284.06 372.685 284.291 370.172C284.522 367.659 284.979 367.659 281.089 367.886Z" fill="#33A86D"/>
<path d="M279.947 371.544C279.947 371.544 288.182 373.6 282.919 373.83C277.656 374.061 275.83 371.775 279.947 371.544Z" fill="#33A86D"/>
<path d="M289.555 350.284C289.555 350.284 287.268 353.485 290.47 352.113C293.672 350.741 296.644 348.681 289.555 350.284Z" fill="#33A86D"/>
<path d="M288.639 354.857C288.639 354.857 292.525 355.083 290.696 354.173C288.866 353.253 286.578 353.027 288.639 354.857Z" fill="#33A86D"/>
<path d="M288.639 357.37C288.639 357.37 291.153 360.113 292.525 357.143C293.898 354.169 286.809 356.229 288.639 357.37Z" fill="#33A86D"/>
<path d="M257.515 218.364C257.515 218.364 254.157 211.279 257.515 212.026C260.873 212.773 258.636 215.382 258.636 215.382C258.636 215.382 263.861 212.773 263.114 216.502C262.367 220.231 260.877 221.351 260.877 221.351C260.877 221.351 265.355 217.622 264.981 222.471C264.608 227.321 260.877 223.965 260.877 223.965C260.877 223.965 258.64 227.694 256.025 224.338C253.41 220.982 256.025 222.102 256.025 222.102C256.025 222.102 248.185 216.129 257.515 218.364Z" fill="#33A86D"/>
<path d="M249.986 258.149C248.156 258.833 245.868 265.692 252.558 261.577C259.248 257.466 251.816 257.466 249.986 258.149Z" fill="#33A86D"/>
<path d="M252.943 253.493C254.639 253.493 260.112 253.384 254.832 256.354C249.552 259.324 251.248 253.493 252.943 253.493Z" fill="#33A86D"/>
<path d="M254.522 265.784C254.522 265.784 257.346 262.487 253.107 263.985C248.873 265.487 249.93 267.886 254.522 265.784Z" fill="#33A86D"/>
<path d="M255.903 268.553C253.259 269.505 253.452 272.408 257.305 270.268C261.154 268.125 258.547 267.6 255.903 268.553Z" fill="#33A86D"/>
<path d="M258.081 261.296C256.406 261.581 257.602 265.625 261.736 263.41C263.868 262.265 259.755 261.007 258.081 261.296Z" fill="#33A86D"/>
<path d="M247.698 281.926C247.698 281.926 249.07 279.413 246.556 279.871C244.042 280.328 245.414 281.7 245.414 281.7C245.414 281.7 241.528 276.901 239.925 278.956C238.326 281.012 242.67 282.614 242.67 282.614C242.67 282.614 236.265 281.242 234.893 283.529C233.52 285.815 238.095 283.986 238.095 283.986C238.095 283.986 232.605 287.413 234.208 288.328C235.808 289.242 238.326 287.413 238.326 287.413C238.326 287.413 239.698 290.614 240.613 287.64C241.528 284.67 241.528 284.67 241.528 284.67C241.528 284.67 245.414 287.183 245.188 284.67C244.961 282.157 245.188 282.841 245.188 282.841C245.188 282.841 248.382 285.127 247.698 281.926Z" fill="#33A86D"/>
<path d="M281.546 219.858C281.546 219.858 276.4 217.114 278.457 222.257C280.513 227.4 283.263 221.913 281.546 219.858Z" fill="#288453"/>
<path d="M281.202 216.427C281.202 216.427 287.72 211.283 284.975 215.399C282.23 219.514 281.202 216.427 281.202 216.427Z" fill="#288453"/>
<path d="M276.401 211.283C276.401 211.283 274 215.054 278.117 214.371C282.235 213.687 276.401 211.283 276.401 211.283Z" fill="#288453"/>
<path d="M277.773 206.828C277.773 206.828 284.979 211.971 280.174 210.943C275.372 209.911 277.773 206.828 277.773 206.828Z" fill="#288453"/>
<path d="M284.291 221.229C284.291 221.229 278.802 225.689 282.919 225.345C287.036 225.001 284.291 221.229 284.291 221.229Z" fill="#288453"/>
<path d="M286.692 226.373C286.692 226.373 293.21 227.4 288.749 228.772C284.287 230.144 286.352 225.689 286.692 226.373Z" fill="#288453"/>
<path d="M56.709 295.95C56.709 295.95 65.2876 290.463 62.8828 294.922C60.4821 299.381 56.709 295.95 56.709 295.95Z" fill="#33A86D"/>
<path d="M57.7373 300.065C57.7373 300.065 56.0207 305.897 59.7938 303.153C63.5711 300.409 57.7373 300.065 57.7373 300.065Z" fill="#33A86D"/>
<path d="M54.6486 298.694C54.6486 298.694 50.1872 289.435 47.4424 294.235C44.6975 299.034 50.1872 295.95 50.1872 295.95C50.1872 295.95 45.3859 300.749 48.8148 300.066C52.2479 299.382 54.6486 298.694 54.6486 298.694Z" fill="#33A86D"/>
<path d="M53.2762 290.808C53.2762 290.808 50.8755 296.979 56.021 292.523C61.1665 288.068 54.6486 291.152 54.6486 291.152L53.2762 290.808Z" fill="#33A86D"/>
<path d="M125.783 193.11C125.783 193.11 130.585 188.995 130.245 192.766C129.9 196.538 125.783 193.11 125.783 193.11Z" fill="#33A86D"/>
<path d="M126.816 196.537C126.816 196.537 130.245 201.336 131.962 197.909C133.678 194.482 126.816 196.537 126.816 196.537Z" fill="#33A86D"/>
<path d="M135.051 199.969C135.051 199.969 128.877 207.512 135.051 204.085C141.224 200.657 141.224 198.937 135.051 199.969Z" fill="#33A86D"/>
<path d="M127.845 201.341C127.845 201.341 118.582 202.713 124.416 204.084C130.25 205.456 132.646 205.456 127.845 201.341Z" fill="#33A86D"/>
<path d="M134.363 210.255C134.363 210.255 142.253 207.856 139.164 207.168C136.079 206.484 131.962 210.255 134.363 210.255Z" fill="#33A86D"/>
<path d="M134.707 212.315C130.934 211.287 125.444 214.371 135.391 215.403C145.342 216.426 138.48 213.343 134.707 212.315Z" fill="#33A86D"/>
<path d="M314.64 165.388C312.583 160.132 312.126 153.5 316.239 145.726C316.239 145.726 318.073 149.569 320.327 149.355C322.585 149.141 324.44 146.184 324.553 141.737C324.666 137.211 323.592 135.243 323.592 135.243L327.453 140.227C327.453 140.227 327.99 136.116 327.692 132.835C327.361 129.198 325.388 125.708 325.388 125.708C325.388 125.708 335.633 128.779 337.983 137.001C339.775 143.264 339.263 147.249 339.263 147.249L342.545 143.671C342.545 143.671 346.663 157.846 343.213 165.346C340.355 171.555 334.953 175.058 329.51 175.448C323.248 175.893 316.7 170.645 314.64 165.388Z" fill="#FFACFF"/>
<path d="M330.312 168.815C330.312 168.815 325.288 168.086 322.728 163.077C320.096 157.934 323.798 156.499 323.798 156.499L326.195 160.585L330.656 148.583C330.656 148.583 333.401 151.897 333.972 153.382C334.542 154.867 338.815 165.988 330.312 168.815Z" fill="#9E54C7"/>
<path d="M333.74 123.892C333.74 123.892 333.396 121.492 334.424 121.492C335.456 121.492 336.485 123.552 333.74 123.892Z" fill="#9E54C7"/>
<path d="M318.988 131.438C318.988 131.438 317.272 126.639 320.016 124.235C320.016 124.235 313.843 128.351 318.988 131.438Z" fill="#FFACFF"/>
<path d="M329.996 113.492C330.08 114.218 329.119 114.549 328.749 113.92C327.927 112.511 327.037 110.661 328.59 111.55C329.564 112.104 329.92 112.825 329.996 113.492Z" fill="#FFACFF"/>
<path d="M95.515 178.617C95.515 178.617 85.6227 181.255 79.2432 169.77C75.0588 162.99 77.8163 151.224 77.8163 151.224C77.8163 151.224 82.0972 150.938 84.9553 154.076C83.243 144.658 88.0947 140.094 88.0947 140.094L90.6632 141.235C90.6632 141.235 92.3294 139.306 95.964 133.135C95.964 133.135 108.572 140.942 106.755 150.712C104.937 160.482 105.512 157.21 105.512 157.21L112.651 153.216C112.643 153.22 118.531 177.589 95.515 178.617Z" fill="#FFACFF"/>
<path d="M100.224 172.199C100.224 172.199 95.5148 176.05 91.6578 172.627C87.8049 169.204 88.6611 164.065 88.6611 164.065L90.3735 165.776C90.3735 165.776 89.9454 162.353 92.9421 157.642C95.9387 152.936 95.9387 152.936 95.9387 152.936L97.6511 159.354L100.22 157.214C100.224 157.214 107.078 168.772 100.224 172.199Z" fill="#9E54C7"/>
<path d="M77.7532 137.899C77.7532 137.899 77.5266 142.015 79.1257 143.386C80.7247 144.758 78.2107 139.271 80.2672 136.07L77.7532 137.899Z" fill="#9E54C7"/>
<path d="M90.3319 127.609C90.3319 127.609 87.8179 130.81 89.417 131.725C91.016 132.639 90.3319 127.609 90.3319 127.609Z" fill="#FFACFF"/>
<path d="M103.141 128.755C103.141 128.755 102.914 132.182 104.283 131.268C105.659 130.353 104.744 126.238 103.141 128.755Z" fill="#9E54C7"/>
<path d="M95.5947 116.866C95.5947 116.866 97.6513 117.323 97.4246 119.379C97.198 121.435 95.5947 116.866 95.5947 116.866Z" fill="#FFACFF"/>
<path d="M107.859 359.887C107.745 360.688 116.294 364.916 121.784 364.686C127.274 364.455 137.422 364.812 138.417 363.7C139.374 362.63 136.079 361.77 136.079 361.77C136.079 361.77 128.315 359.115 121.327 357.798C112.232 356.086 107.972 359.085 107.859 359.887Z" fill="#C94039"/>
<path d="M133.162 377.459C133.162 379.318 132.901 396.924 132.532 400.192C132.285 402.373 129.527 403.758 129.263 400.792C128.881 396.542 127.596 390.116 127.408 388.371C126.849 383.139 128.213 378.076 128.213 378.076C128.213 378.076 133.162 376.6 133.162 377.459Z" fill="#F5894E"/>
<path d="M131.223 383.576C130.665 384.23 132.357 396.756 131.987 400.028C131.74 402.21 129.528 403.758 129.263 400.792C128.881 396.542 127.597 390.116 127.408 388.37C126.85 383.139 127.862 378.093 127.862 378.093C127.862 378.093 131.782 382.921 131.223 383.576Z" fill="#CC6D3D"/>
<path d="M134.25 367.316C134.166 369.145 134.321 372.564 134.015 375.064C133.964 375.488 134.057 375.106 133.436 381.247L127.207 381.289L126.93 374.443C126.569 373.298 125.6 366.54 125.583 366.632C125.927 364.916 134.363 364.786 134.25 367.316Z" fill="#273252"/>
<path d="M130.988 400.464C133.045 401.605 133.368 401.794 135.093 402.738C136.944 403.749 130.111 403.984 129.616 402.654C129.116 401.328 129.225 399.482 130.988 400.464Z" fill="#CC6D3D"/>
<path d="M129.007 401.131C129.225 400.649 130.388 400.884 130.615 400.976C130.841 401.068 133.242 401.991 133.242 401.991C133.242 401.991 135.63 403.002 136.285 403.099C138.144 403.371 139.542 404.688 135.03 405.146C133.238 405.326 131.404 404.567 131.404 404.567L131.248 405.125L130.82 405.209C130.82 405.209 129.167 405.318 129.078 405.125C128.961 404.856 128.789 401.613 129.007 401.131Z" fill="#992C29"/>
<path d="M135.97 405.037C135.97 405.037 133.351 405.52 131.4 404.479C131.4 404.479 131.119 403.9 132.021 404.063C134.762 404.563 135.093 404.949 135.97 405.037Z" fill="#C94039"/>
<path d="M133.233 367.316C133.128 369.371 132.625 371.775 132.419 373.717C132.373 374.141 132.314 379.775 131.743 380.689C131.172 381.604 127.416 380.916 127.416 380.916L126.489 373.78C126.157 372.66 125.448 366.514 125.427 366.632C125.733 364.916 133.359 364.786 133.233 367.316Z" fill="#1D2538"/>
<path d="M124.013 357.542C124.013 357.542 125.184 365.525 125.767 367.58C126.35 369.636 133.846 372.228 134.132 369.317C134.417 366.406 135.135 357.886 133.578 355.142C132.021 352.399 124.013 353.082 124.013 357.542Z" fill="#273252"/>
<path d="M124.013 357.542C124.013 357.542 125.066 365.525 125.595 367.58C126.124 369.636 132.873 372.228 133.133 369.317C133.389 366.401 134.039 357.886 132.633 355.142C131.223 352.399 124.013 353.082 124.013 357.542Z" fill="#1D2538"/>
<path d="M115.535 371.121C115.535 371.121 114.876 375.375 113.504 379.75C112.559 382.762 112.32 383.861 112.324 390.217C112.324 391.672 111.879 396.807 111.913 397.814C111.972 399.563 111.942 400.801 112.84 400.633C114.251 400.364 114.683 399.79 116.29 392.805C118.439 383.471 120.735 371.201 120.735 371.201L115.535 371.121Z" fill="#F5894E"/>
<path d="M115.535 371.121C115.535 371.121 114.876 375.375 113.504 379.75C112.559 382.762 112.32 383.861 112.324 390.217C112.324 391.672 111.485 398.162 111.519 399.169C111.577 400.918 111.942 400.801 112.836 400.633C114.247 400.364 113.655 398.078 115.262 391.093C117.411 381.76 116.748 381.265 116.748 381.265L115.535 371.121Z" fill="#CC6D3D"/>
<path d="M124.747 356.493C124.747 356.493 122.754 368.172 121.293 370.848C119.35 374.41 115.535 373.755 115.199 371.482C114.67 367.866 114.284 361.317 114.608 357.777C114.956 353.972 120.525 350.838 124.747 356.493Z" fill="#273252"/>
<path d="M115.254 370.626C114.108 371.213 113.243 379.721 113.243 379.721L118.821 380.833C118.821 380.833 120.303 377.045 121.159 371.771C121.948 366.918 116.21 368.831 115.254 370.626Z" fill="#273252"/>
<path d="M122.929 356.116C122.929 356.116 122.699 361.888 121.565 365.798C121.251 366.888 120.357 370.882 120.038 371.465C118.095 375.027 115.53 373.751 115.194 371.473C114.666 367.857 114.279 361.309 114.603 357.768C114.955 353.972 118.707 350.461 122.929 356.116Z" fill="#1D2538"/>
<path d="M112.478 397.969C112.927 397.848 113.41 397.974 113.792 398.246C115.29 399.32 115.198 399.555 117.162 400.906C118.581 401.883 111.828 402.726 111.458 401.648C111.135 400.721 110.993 398.372 112.478 397.969Z" fill="#CC6D3D"/>
<path d="M111.04 399.689C111.351 398.989 111.078 397.382 113.092 398.506C115.917 400.084 117.004 400.402 117.805 400.717C118.607 401.032 119.039 401.229 119.648 401.329C121.453 401.619 120.999 401.883 118.943 402.798C117.361 403.502 114.129 402.605 114.129 402.605L114.007 402.953C113.923 403.196 113.697 403.356 113.441 403.356L111.682 403.238C111.682 403.238 111.292 403.1 111.195 402.856C111.061 402.517 110.729 400.39 111.04 399.689Z" fill="#992C29"/>
<path d="M115.254 370.626C114.108 371.214 113.243 379.721 113.243 379.721L118.158 380.665C118.158 380.665 119.266 376.818 120.122 371.549C120.911 366.696 116.21 368.831 115.254 370.626Z" fill="#1D2538"/>
<path d="M130.933 335.652L130.249 339.767C130.249 339.767 133.678 346.852 135.625 351.656C137.569 356.455 138.714 359.085 138.597 363.314C138.597 363.314 134.022 361.715 129.792 361.598C125.561 361.485 112.752 355.31 107.833 359.882C107.833 359.882 114.124 347.767 116.638 341.936C116.638 341.936 113.323 328.676 117.553 326.389C121.784 324.103 127.16 325.018 128.302 325.588C129.443 326.163 133.103 329.25 130.933 335.652Z" fill="#F7BC4B"/>
<path d="M128.016 335.653L127.332 339.768L130.761 351.883L124.071 354.798L131.105 355.142C131.105 355.142 126.766 356.808 121.154 357.542C116.231 358.188 110.129 357.748 107.833 359.887C107.833 359.887 114.124 347.772 116.638 341.941C116.638 341.941 113.323 328.68 117.553 326.394C121.784 324.108 127.16 325.022 128.302 325.593C129.443 326.163 130.19 329.251 128.016 335.653Z" fill="#CE9436"/>
<path d="M117.398 306.597C117.398 306.597 118.842 308.212 120.286 308.866C121.377 309.366 122.233 309.428 122.233 309.428L122.003 309.009L122.519 308.577C122.519 308.577 120.517 308.451 117.806 306.324L117.398 306.597Z" fill="#EE5D4F"/>
<path d="M117.252 306.404C117.252 306.404 118.058 308.413 119.187 309.525C120.039 310.364 120.824 310.72 120.824 310.72L120.748 310.246L121.378 310.015C121.378 310.015 119.539 309.21 117.722 306.286L117.252 306.404Z" fill="#EE5D4F"/>
<path d="M118.171 307.448C118.675 307.339 119.048 304.604 117.835 304.596C116.694 304.588 115.405 304.789 115.657 305.64C115.904 306.488 117.667 307.558 118.171 307.448Z" fill="#992C29"/>
<path d="M118.544 305.889C118.544 305.889 118.309 304.731 117.948 304.773C117.587 304.815 117.931 305.297 118.057 306.061C118.183 306.821 118.632 306.376 118.544 305.889Z" fill="#F7BC4B"/>
<path d="M117.726 306.903C117.726 306.903 117.625 306.37 118.385 305.821C119.145 305.271 119.728 304.965 120.236 305.25C120.744 305.536 120.975 306.886 120.719 307.578C120.463 308.271 118.704 307.826 118.255 307.587C117.81 307.348 117.726 306.903 117.726 306.903Z" fill="#992C29"/>
<path d="M120.55 306.333C120.55 306.333 120.76 307.411 120.282 307.608C119.573 307.902 119.942 305.825 119.967 305.498C119.996 305.175 120.647 305.548 120.55 306.333Z" fill="#F7BC4B"/>
<path d="M126.628 308.447C126.628 308.447 129.121 309.236 130.17 312.772C131.219 316.313 131.123 321.133 126.401 321.133C118.993 321.133 119.069 315.172 119.283 313.821C120.202 308.053 126.628 308.447 126.628 308.447Z" fill="#CC6D3D"/>
<path d="M126.229 308.334C126.229 308.334 128.722 309.122 129.771 312.659C130.821 316.2 130.724 321.02 126.003 321.02C118.595 321.02 118.67 315.058 118.884 313.708C119.804 307.939 126.229 308.334 126.229 308.334Z" fill="#F5894E"/>
<path d="M128.143 314.848C128.143 314.848 128.957 309.961 126.468 308.162C124.416 306.677 122.553 306.547 119.934 306.932C119.934 306.932 123.606 306.63 126.439 310.146C127.438 311.383 128.143 314.848 128.143 314.848Z" fill="#F7BC4B"/>
<path d="M124.244 307.646C124.244 307.646 120.298 305.59 116.697 308.502C113.096 311.417 112.866 313.015 113.554 314.731C114.238 316.447 114.238 316.447 114.238 316.447C114.238 316.447 111.493 316.963 111.493 318.503C111.493 320.042 111.476 323.7 116.639 323.99C120.215 324.191 120.727 322.903 120.727 322.903C120.727 322.903 127.673 325.131 130.019 322.161C131.769 319.946 132.004 316.388 128.403 315.36C128.403 315.36 127.845 308.162 124.244 307.646Z" fill="#273252"/>
<path d="M122.872 307.646C122.872 307.646 118.528 305.158 115.325 308.501C112.753 311.186 111.951 313.246 112.182 314.731C112.463 316.556 112.866 316.447 112.866 316.447C112.866 316.447 110.121 316.963 110.121 318.502C110.121 320.042 110.121 323.473 115.267 323.989C120.412 324.505 120.928 323.306 120.928 323.306C120.928 323.306 128.63 325.135 129.906 321.149C130.821 318.293 130.863 316.862 127.262 315.834C127.257 315.834 126.473 308.162 122.872 307.646Z" fill="#1D2538"/>
<path d="M121.755 307.461C121.755 307.461 123.014 303.459 124.613 304.147C126.212 304.831 123.471 308.149 123.471 308.149C123.471 308.149 125.872 305.519 127.245 306.551C128.617 307.578 127.245 310.095 124.613 310.209C121.982 310.318 121.755 307.461 121.755 307.461Z" fill="#273252"/>
<path d="M121.327 307.415C121.327 307.415 122.586 303.413 124.185 304.101C125.784 304.785 123.044 308.103 123.044 308.103C123.044 308.103 125.444 305.473 126.817 306.505C128.189 307.532 126.817 310.049 124.185 310.163C121.554 310.276 121.327 307.415 121.327 307.415Z" fill="#1D2538"/>
<path d="M129.142 313.834C129.142 313.834 128.281 311.401 127.371 311.845C126.46 312.29 126.556 314.79 128.567 315.784C130.573 316.783 129.142 313.834 129.142 313.834Z" fill="#CC6D3D"/>
<path d="M129.507 314.018C129.507 314.018 128.823 312.088 128.101 312.44C127.379 312.797 127.455 314.777 129.05 315.566C130.649 316.359 129.507 314.018 129.507 314.018Z" fill="#F5894E"/>
<path d="M143.57 353.824C143.784 354.042 144.313 354.822 144.569 355.309C144.648 355.456 144.896 355.75 144.871 356.06C144.808 356.853 144.653 357.339 144.036 357.281C143.885 356.937 143.679 355.825 143.255 355.653C142.81 355.473 142.449 352.691 143.57 353.824Z" fill="#CC6D3D"/>
<path d="M137.17 351.731C137.14 351.676 137.287 351.227 137.963 350.8C138.756 350.3 139.155 350.783 139.155 350.783L147.775 360.939L144.871 363.225L137.17 351.731Z" fill="#1D2538"/>
<path d="M135.55 347.612C134.472 348.3 134.346 349.764 135.236 350.825C136.079 351.832 137.523 352.079 138.484 351.433C139.437 350.791 139.63 349.47 138.895 348.425C138.119 347.326 136.612 346.932 135.55 347.612ZM137.636 350.468C137.237 350.674 136.6 350.502 136.201 350.074C135.794 349.634 135.794 349.101 136.213 348.891C136.629 348.681 137.284 348.879 137.67 349.323C138.052 349.751 138.031 350.263 137.636 350.468Z" fill="#1D2538"/>
<path d="M136.251 348.107C135.63 348.489 135.563 349.328 136.088 349.962C136.192 350.087 136.31 350.192 136.436 350.28C136.352 350.222 136.272 350.15 136.201 350.075C135.794 349.634 135.794 349.102 136.213 348.892C136.629 348.682 137.284 348.879 137.67 349.324C138.048 349.756 138.031 350.264 137.636 350.473C137.389 350.603 137.053 350.582 136.734 350.452C137.175 350.645 137.674 350.637 138.048 350.402C138.623 350.037 138.715 349.248 138.245 348.623C137.762 347.969 136.868 347.73 136.251 348.107Z" fill="#F7BC4B"/>
<path d="M136.499 350.322C136.511 350.331 136.52 350.339 136.532 350.343C136.52 350.335 136.511 350.331 136.499 350.322Z" fill="#F6BE4A"/>
<path d="M136.642 350.401C136.663 350.41 136.679 350.418 136.7 350.431C136.679 350.422 136.658 350.41 136.642 350.401Z" fill="#F6BE4A"/>
<path d="M137.573 351.249C137.556 351.265 137.535 351.278 137.51 351.282C137.321 351.312 137.141 351.312 136.977 351.282C136.919 351.27 136.881 351.207 136.898 351.144C136.914 351.077 136.973 351.035 137.036 351.047C137.175 351.072 137.33 351.077 137.494 351.047C137.556 351.039 137.611 351.081 137.615 351.148C137.615 351.186 137.598 351.223 137.573 351.249Z" fill="#3E4C6F"/>
<path d="M141.27 355.238C141.803 354.672 141.996 354.105 141.996 354.105L146.197 359.081C146.671 359.597 148.036 361.107 148.036 361.107C148.036 361.107 145.362 363.288 144.909 363.553C144.909 363.553 143.671 361.652 143.343 361.094L140.065 356.157C140.065 356.148 140.737 355.809 141.27 355.238Z" fill="#C94039"/>
<path d="M141.123 357.671L140.716 356.966C140.716 356.966 141.425 356.538 142.533 355.355C142.533 355.355 142.831 355.553 141.123 357.671Z" fill="#1D2538"/>
<path d="M141.963 354.068C141.963 354.068 140.582 355.511 139.81 355.784L139.327 354.945C139.327 354.945 141.212 353.913 141.535 353.564L141.963 354.068Z" fill="#C73F37"/>
<path d="M143.47 355.851L143.633 356.048C143.633 356.048 142.542 357.352 141.51 357.935L143.47 355.851Z" fill="#1D2538"/>
<path d="M141.866 358.871L142.278 359.484C142.278 359.484 143.797 358.414 144.389 356.929C144.389 356.929 142.903 358.728 141.866 358.871Z" fill="#1D2538"/>
<path d="M143.343 361.086L142.73 360.15C142.73 360.15 144.451 359.404 145.328 358.023L146.646 359.576C146.646 359.58 145.479 360.003 143.343 361.086Z" fill="#1D2538"/>
<path d="M144.091 362.26L144.406 362.78C144.406 362.78 146.11 362.264 147.016 360.649C147.016 360.654 144.603 362.441 144.091 362.26Z" fill="#1D2538"/>
<path d="M152.972 360.742C152.837 360.788 152.754 360.901 152.64 360.985L142.828 368.7C142.693 368.792 142.395 368.725 141.611 368.595C141.082 368.507 140.57 368.218 140.738 367.689C140.96 366.997 141.078 366.103 141.321 365.961L150.945 358.758C151.096 358.649 151.818 358.548 152.116 358.506C152.451 358.46 152.653 358.271 153.06 358.347C153.362 358.401 153.543 358.712 153.522 359.085L152.972 360.742Z" fill="#C94039"/>
<path d="M152.682 360.272C152.632 360.406 152.544 360.528 152.426 360.616L142.244 368.242C142.215 368.263 140.93 368.246 140.746 367.923C140.561 367.6 141.132 366.073 141.132 366.073C141.132 366.073 151.36 358.162 151.553 358.183C151.906 358.225 152.355 358.17 152.783 358.246C153.102 358.304 153.286 358.627 153.177 358.929L152.682 360.272Z" fill="#F5894E"/>
<path d="M152.682 360.272C152.632 360.406 152.543 360.528 152.426 360.616L150.059 360.549L141.132 366.07C141.132 366.07 151.36 358.158 151.553 358.179C151.989 358.162 152.355 358.166 152.783 358.242C153.102 358.301 153.286 358.624 153.177 358.926L152.682 360.272Z" fill="#FEED7F"/>
<path opacity="0.5" d="M162.712 379.943L160.71 377.321L153.785 376.251L155.695 378.856L162.712 379.943Z" fill="#FEED7F"/>
<path opacity="0.5" d="M160.09 376.583L159.28 375.609L152.354 374.539L153.072 375.496L160.09 376.583Z" fill="#FEED7F"/>
<path d="M151.204 361.699L150.579 361.611C150.365 361.577 150.323 361.59 150.285 361.808L150.143 362.492L151.204 361.699Z" fill="#C94039"/>
<path d="M174.179 393.915C174.179 393.915 150.957 364.521 150.638 364.064C150.319 363.607 149.983 363.174 149.983 363.174C149.765 362.998 149.543 363.103 148.745 363.766L145.459 366.337L168.761 398.14C168.874 398.299 173.575 399.545 173.575 399.545C173.688 399.499 173.902 399.587 174.011 399.13L174.422 394.549C174.41 394.222 174.276 394.041 174.179 393.915Z" fill="#F7BC4B"/>
<path d="M174.179 393.916C174.179 393.916 150.965 364.484 150.646 364.027C150.323 363.569 149.832 362.961 149.832 362.961C149.832 362.961 149.803 362.94 149.383 363.276L173.688 394.608C173.688 394.608 173.902 399.588 174.011 399.13L174.422 394.549C174.409 394.222 174.275 394.042 174.179 393.916Z" fill="#F5894E"/>
<path d="M162.944 379.867L163.914 380.996C164.002 381.068 163.855 381.21 163.649 381.252L162.252 381.538C162.126 381.563 162.042 381.521 162.063 381.445L162.638 379.901C162.671 379.779 162.852 379.796 162.944 379.867Z" fill="#F5894E"/>
<path d="M163.427 390.833L164.602 390.988L164.317 392.038L163.427 390.833Z" fill="#F5894E"/>
<path d="M165.487 392.381L167.086 392.297L166.167 393.413L165.487 392.381Z" fill="#F5894E"/>
<path d="M173.806 399.421L147.528 364.745" stroke="#F3E7D9" stroke-miterlimit="10"/>
<path d="M159.41 385.279L160.136 384.733L161.328 385.367L161.337 386.6L163.838 387.297L164.799 387.578" stroke="#F3E7D9" stroke-miterlimit="10"/>
<path d="M134.364 332.796C134.364 332.796 137.108 339.424 137.679 341.597C137.923 342.515 138.305 344.273 137.667 344.898C136.798 345.75 134.699 345.171 133.906 343.656C132.534 341.026 129.273 334.969 129.73 333.37C130.192 331.764 133.163 330.052 134.364 332.796Z" fill="#F5894E"/>
<path d="M132.474 334.222C132.474 334.222 134.875 339.365 135.819 341.681C136.323 342.914 135.278 346.283 133.905 343.652C132.533 341.022 129.272 334.964 129.729 333.366C130.191 331.764 131.274 331.478 132.474 334.222Z" fill="#CC6D3D"/>
<path d="M141.053 354.626C141.053 354.626 143.239 354.97 141.338 351.081C139.873 348.086 139.122 345.368 138.178 342.88C137.284 340.527 134.119 342.196 134.232 343.908C134.346 345.624 135.697 347.369 137.107 349.936C139.051 353.485 139.68 354.739 141.053 354.626Z" fill="#F5894E"/>
<path d="M141.052 354.626C141.052 354.626 142.912 355.298 141.01 351.413C139.546 348.418 137.481 344.315 136.079 342.025C134.45 339.365 133.334 340.909 133.447 342.625C133.561 344.34 135.697 347.373 137.107 349.941C139.05 353.485 139.68 354.74 141.052 354.626Z" fill="#CC6D3D"/>
<path d="M139.395 353.141C139.395 353.141 139.815 351.924 141.397 352.356C142.522 352.663 142.45 352.692 143.571 353.829C143.785 354.047 144.285 354.886 144.545 355.373C144.805 355.859 142.434 356.119 142.316 356.228C142.089 356.442 142.304 358.141 142.304 358.141L142.648 359.299C142.648 359.299 142.933 360.155 143.046 360.499C143.16 360.843 142.631 360.843 142.408 360.679C142.186 360.516 141.573 359.685 141.573 359.685C141.208 359.845 141.103 359.987 140.243 358.464C139.983 358.007 139.559 357.177 139.559 357.177C139.559 357.177 139.051 354.513 139.395 353.141Z" fill="#CC6D3D"/>
<path d="M129.39 324.91C129.39 324.91 130.934 324.683 132.307 327.423C133.679 330.166 134.653 333.254 134.653 333.254L130.019 335.309C130.019 335.309 128.932 334.793 127.732 329.478C126.674 324.797 129.39 324.91 129.39 324.91Z" fill="#C94039"/>
<path d="M130.246 325.077C130.246 325.077 130.032 329.079 130.288 329.679C130.544 330.278 132.562 334.138 132.562 334.138L130.019 335.308C130.019 335.308 128.932 334.792 127.732 329.477C127.203 327.136 127.505 325.475 128.474 325.018C129.305 324.632 130.246 325.077 130.246 325.077Z" fill="#992C29"/>
<path d="M130.791 328.608C130.791 328.608 130.409 330.983 131.223 332.233L131.873 332.883C131.873 332.879 130.698 329.07 130.791 328.608Z" fill="#992C29"/>
<path d="M126.241 323.876C124.449 323.876 114.75 324.618 113.033 327.362C110.226 331.851 108.173 336.964 105.773 338.852C103.372 340.74 92.2205 345.023 87.9311 344.511C83.6418 343.999 81.2411 343.139 78.3242 346.911C75.4073 350.682 69.2335 357.885 68.0332 358.397C68.0332 358.397 75.869 359.882 78.0976 358.854C80.3262 357.826 83.9314 358.053 89.4211 360.112C94.9107 362.168 96.7994 360.628 96.7994 360.628C96.7994 360.628 101.601 357.541 105.206 353.597C108.807 349.654 116.185 349.541 119.501 347.083C122.817 344.624 124.625 343.349 126.422 338.454C127.492 335.53 129.561 330.378 129.796 328.793C130.128 326.565 129.977 324.803 129.569 324.564C128.73 324.077 127.614 323.876 126.241 323.876Z" fill="#1689CB"/>
<path d="M126.288 326.326C126.288 326.326 121.587 330.395 116.563 331.846C114.599 332.417 112.664 332.358 110.952 330.08C109.244 327.802 110.201 325.432 111.514 323.117C112.828 320.801 115.845 321.321 120.223 321.061C124.6 320.801 128.478 321.95 126.288 326.326Z" fill="#29ABE2"/>
<path d="M125.1 321.59C126.216 322.446 114.162 327.605 113.176 326.708C112.194 325.81 112.4 323.536 113.613 322.022C114.486 320.931 115.745 321.187 119.4 321.057C122.682 320.944 123.983 320.734 125.1 321.59Z" fill="#992C29"/>
</svg>
