<svg width="146" height="120" viewBox="0 0 146 120" fill="none" xmlns="http://www.w3.org/2000/svg">
<path d="M92.4937 114.482C92.4937 114.482 75.7166 115.086 72.5585 115.327C69.4005 115.567 64.1325 117.089 67.2293 117.861C70.3262 118.633 75.5172 119.397 82.8202 119.397C90.1232 119.397 104.644 119.079 107.1 116.896C109.271 114.963 92.4937 114.482 92.4937 114.482Z" fill="#33A86D"/>
<path d="M16.6335 116.487C16.6335 116.487 13.278 113.329 8.73835 113.724C4.19866 114.118 -4.31228 119.3 2.61963 119.448C11.8964 119.645 15.4492 120.237 22.9496 119.053C30.4499 117.869 16.6335 116.487 16.6335 116.487Z" fill="#33A86D"/>
<path d="M138.244 105.499C135.473 105.14 132.674 104.984 129.958 104.978C129.435 104.711 128.083 104.514 125.489 104.378C113.621 103.754 55.8781 105.696 55.8781 105.696C55.8781 105.696 16.4894 105.059 10.3588 105.967C4.22825 106.873 16.6394 109.642 16.6394 109.642L23.145 110.319C23.145 110.319 9.11928 111.122 22.5114 113.469C35.9035 115.816 28.7169 116.171 41.5939 116.586C90.9266 118.171 114.367 114.713 114.367 114.713C114.367 114.713 122.487 113.463 122.801 110.653C122.858 110.143 123.172 109.668 123.64 109.226C140.382 108.282 155.601 107.751 138.244 105.499Z" fill="#33A86D"/>
<path d="M122.955 103.936C122.955 103.936 124.516 100.813 125.142 100.655C125.768 100.497 125.61 103.154 125.61 103.154C125.61 103.154 128.732 98.3124 131.857 98.9381C134.979 99.5618 129.826 102.998 129.826 102.998C129.826 102.998 135.291 101.749 135.761 102.998C136.229 104.248 134.824 105.497 134.824 105.497C134.824 105.497 141.382 103.31 139.509 105.185C137.636 107.06 135.137 106.902 128.265 106.59C121.394 106.277 122.955 103.936 122.955 103.936Z" fill="#33A86D"/>
<path d="M90.368 107.475C90.368 107.475 67.2551 108.724 76.0009 109.662C84.7467 110.599 84.7467 110.599 84.7467 110.599C84.7467 110.599 71.9408 112.786 80.6866 114.035C89.4325 115.285 119.728 112.786 118.479 109.664C117.229 106.537 90.368 107.475 90.368 107.475Z" fill="#288453"/>
<path d="M55.3354 113.305C52.2129 113.305 50.6497 115.648 58.7718 115.022C66.8919 114.399 58.458 113.305 55.3354 113.305Z" fill="#288453"/>
<path d="M120.555 114.86C117.433 114.86 115.869 117.203 123.992 116.577C132.112 115.954 123.678 114.86 120.555 114.86Z" fill="#288453"/>
<path d="M66.1103 111.744C63.9233 111.432 58.6139 113.305 65.9543 112.993C73.2948 112.68 68.2972 112.056 66.1103 111.744Z" fill="#288453"/>
<path d="M72.6985 84.262C72.6985 84.262 75.2644 76.959 78.4225 75.5774C81.5805 74.1957 86.1202 75.5774 87.8966 76.7616C87.8966 76.7616 85.9228 78.538 84.9359 78.1433C84.9359 78.1433 84.9359 80.5118 82.37 80.5118C80.2443 80.5118 72.6985 84.262 72.6985 84.262Z" fill="#33A86D"/>
<path d="M72.6985 88.0121C72.6985 88.0121 76.0539 83.4724 78.8172 83.0777C81.5805 82.6829 87.1071 85.6436 87.1071 85.6436C87.1071 85.6436 82.9621 85.6436 81.3831 85.6436C79.8041 85.6436 72.6985 88.0121 72.6985 88.0121Z" fill="#33A86D"/>
<path d="M76.4487 87.4202C76.4487 87.4202 78.0277 87.8149 79.4093 89.5913C80.791 91.3677 79.6067 94.131 79.6067 94.131C79.6067 94.131 76.2513 92.3546 74.6723 91.1703C73.0932 89.9861 76.4487 87.4202 76.4487 87.4202Z" fill="#33A86D"/>
<path d="M74.4749 98.868C74.4749 98.868 79.8041 92.5519 84.1464 94.723C84.1464 94.723 80.5936 97.8811 74.4749 98.868Z" fill="#33A86D"/>
<path d="M74.8697 102.618C74.8697 102.618 79.8041 96.6967 84.1464 96.6967C84.1464 96.6967 83.7517 102.815 78.2251 103.802C72.6985 104.789 74.8697 102.618 74.8697 102.618Z" fill="#33A86D"/>
<path d="M62.4348 99.46C62.4348 99.46 61.2506 95.9072 57.6977 93.1439C54.1449 90.3806 50 94.5256 50 94.5256L57.1056 95.7098L62.4348 99.46Z" fill="#33A86D"/>
<path d="M60.2637 100.25C60.2637 100.25 57.8951 97.0917 55.9213 96.8943C53.9476 96.697 50 97.2891 50 97.2891L60.2637 100.25Z" fill="#33A86D"/>
<mask id="mask0_821_17291" style="mask-type:alpha" maskUnits="userSpaceOnUse" x="23" y="44" width="62" height="67">
<rect x="23" y="44" width="62" height="67" fill="#C4C4C4"/>
</mask>
<g mask="url(#mask0_821_17291)">
<path d="M65.1903 282.372L67.293 225.599L71.8489 168.476L76.7551 74.2055L57.8309 72.1028L34.0005 74.9064L36.804 161.818L35.0518 177.938L41.7103 281.32L50.1211 285.526L65.1903 282.372Z" fill="#856792"/>
<path d="M76.7548 74.2054C76.7548 74.2054 69.0449 77.009 65.5404 77.009C65.5404 77.009 59.2324 81.5648 50.4712 80.5134L34.0001 74.9063L54.3261 70L76.7548 74.2054Z" fill="#665070"/>
<path d="M50.4715 80.5137L51.1724 110.302C51.1724 110.302 51.5228 144.996 51.1724 146.748C50.8219 148.501 50.121 169.528 50.121 169.528L50.4715 224.197L48.0183 170.228L49.0697 147.099L48.3688 108.9L46.2661 78.0605L50.4715 80.5137Z" fill="#665070"/>
<path d="M70.0195 75.8845L67.6434 125.371L65.1903 143.244L67.9413 213.137L68.3443 143.244L70.447 118.362L70.0195 75.8845Z" fill="#665070"/>
<path d="M70.0966 75.9579L69.3957 87.8732L63.438 77.0093L70.0966 75.9579Z" fill="#665070"/>
</g>
<path d="M33.3864 58.9872C33.3864 58.9872 20.9703 59.0716 15.8972 50.9512C10.8241 42.8307 17.1677 10.6021 20.4639 6.2887C23.76 1.97526 42.2887 2.22847 42.2887 2.22847C42.2887 2.22847 46.8553 14.4092 44.8252 16.4393C42.7951 18.4694 39.2413 16.4393 39.2413 16.4393" stroke="#7A462F" stroke-width="4" stroke-miterlimit="10" stroke-linecap="round" stroke-linejoin="round"/>
<path d="M59.4624 25.9589C59.4624 25.9589 65.2374 29.9569 67.9027 34.8434C70.5681 39.7299 72.345 43.2837 72.345 43.2837C72.345 43.2837 82.118 53.0566 83.0064 54.8335C83.8949 56.6104 83.8949 62.3854 77.6757 57.4989C71.4565 52.6124 65.6816 45.0606 65.6816 45.0606C65.6816 45.0606 57.2413 33.0665 56.3528 29.9569C55.4644 26.8473 55.4644 24.1819 59.4624 25.9589Z" fill="#7A462F"/>
<path d="M67.9028 34.8432C70.5682 39.7297 72.3451 43.2835 72.3451 43.2835C72.3451 43.2835 82.1181 53.0564 83.0065 54.8333C83.895 56.6102 84.8456 56.4103 79.3417 54.7711C70.5549 47.7435 67.5652 43.5233 67.5652 43.5233C67.5652 43.5233 65.2375 29.9567 67.9028 34.8432Z" fill="#A96443"/>
<path d="M83.8952 55.722C83.8952 55.722 87.0048 54.3894 89.2259 53.9451C91.4471 53.5009 91.0028 56.1663 89.6702 56.1663C88.3375 56.1663 85.6677 56.9392 85.6677 56.9392C85.6677 56.9392 91.8824 61.2749 94.1035 61.2749C96.3247 61.2749 94.1035 63.034 94.1035 63.034C94.1035 63.034 95.8716 64.802 94.1124 65.0552C92.5399 65.2818 88.9194 64.8775 88.9194 64.8775C88.9194 64.8775 85.6677 63.2695 85.2279 62.8341C84.3395 61.9412 78.1203 57.499 83.8952 55.722Z" fill="#A96443"/>
<path d="M101.22 49.948C100.798 46.3897 98.1103 36.6212 89.1813 44.4351C80.7233 51.8359 83.3886 61.4579 89.1947 63.9189C95.0007 66.3843 102.441 60.2362 101.22 49.948Z" fill="#F7BC4B"/>
<path d="M101.22 49.9473C100.798 46.389 98.1103 36.6205 89.1814 44.4344C97.3818 53.3056 96.2091 62.9098 96.2091 62.9098C96.2091 62.9098 102.442 60.2356 101.22 49.9473Z" fill="#FEED7F"/>
<path d="M89.4167 44.3008C89.4167 44.3008 91.7312 46.1399 95.3916 47.0372C99.0831 47.9434 100.607 47.4459 100.607 47.4459" stroke="#BB83C3" stroke-miterlimit="10"/>
<path d="M87.9242 45.678C87.9242 45.678 90.6517 47.8413 94.9607 48.9031C99.3097 49.9736 101.104 49.3873 101.104 49.3873" stroke="#BB83C3" stroke-miterlimit="10"/>
<path d="M84.1437 52.9677C84.1437 52.9677 86.9867 55.5042 91.8155 57.139C96.9996 58.8981 100.074 58.1918 100.074 58.1918" stroke="#BB83C3" stroke-miterlimit="10"/>
<path d="M84.7968 51.5195L87.8619 49.1784C88.0041 49.0673 88.2173 49.0052 88.2217 49.0762L88.3817 53.4163C88.3861 53.5007 88.1773 53.4785 88.0085 53.3808L84.8012 51.5772C84.779 51.5683 84.779 51.5373 84.7968 51.5195Z" fill="#BB83C3"/>
<path d="M88.3372 53.4562L91.8377 50.5687C91.9088 50.511 92.0243 50.5465 92.0332 50.6354L92.6284 54.8955C92.6373 54.971 92.5574 55.0243 92.4774 54.9977L88.3816 53.625C88.3017 53.5983 88.275 53.5051 88.3372 53.4562Z" fill="#BB83C3"/>
<path d="M92.3929 54.9666L95.4803 51.8526C95.5114 51.8215 95.5603 51.8393 95.5691 51.8793L96.3021 55.9262C96.311 55.9617 96.2755 55.9928 96.2399 55.9839L92.4196 55.0555C92.3752 55.0422 92.3618 54.9933 92.3929 54.9666Z" fill="#BB83C3"/>
<path d="M96.289 55.9167L99.0165 52.4784C99.0432 52.4473 99.0965 52.4561 99.1054 52.4961L100.278 56.4364C100.287 56.4719 100.26 56.5075 100.22 56.503L96.3201 56.0011C96.2845 55.9966 96.2623 55.9478 96.289 55.9167Z" fill="#FFACFF"/>
<path d="M84.7966 51.5815C84.7966 51.5815 92.3707 56.3125 100.22 56.508" stroke="#BB83C3" stroke-miterlimit="10"/>
<path d="M96.2089 56.046C97.5149 56.3037 98.8609 56.4725 100.22 56.508" stroke="#FFACFF" stroke-miterlimit="10"/>
<path d="M87.2489 61.4922C87.6365 61.4922 87.9508 61.1978 87.9508 60.8347C87.9508 60.4716 87.6365 60.1772 87.2489 60.1772C86.8612 60.1772 86.547 60.4716 86.547 60.8347C86.547 61.1978 86.8612 61.4922 87.2489 61.4922Z" fill="#BB83C3"/>
<path d="M95.0672 45.891C95.4303 45.891 95.7247 45.6166 95.7247 45.278C95.7247 44.9394 95.4303 44.665 95.0672 44.665C94.7041 44.665 94.4098 44.9394 94.4098 45.278C94.4098 45.6166 94.7041 45.891 95.0672 45.891Z" fill="#BB83C3"/>
<path d="M96.9552 43.5191C97.3183 43.5191 97.6126 43.2446 97.6126 42.9061C97.6126 42.5675 97.3183 42.293 96.9552 42.293C96.5921 42.293 96.2977 42.5675 96.2977 42.9061C96.2977 43.2446 96.5921 43.5191 96.9552 43.5191Z" fill="#FFACFF"/>
<path d="M98.6254 46.1578C98.9885 46.1578 99.2828 45.8833 99.2828 45.5447C99.2828 45.2062 98.9885 44.9317 98.6254 44.9317C98.2623 44.9317 97.9679 45.2062 97.9679 45.5447C97.9679 45.8833 98.2623 46.1578 98.6254 46.1578Z" fill="#FFACFF"/>
<path d="M91.5089 59.8663C91.872 59.8663 92.1663 59.5918 92.1663 59.2532C92.1663 58.9147 91.872 58.6402 91.5089 58.6402C91.1458 58.6402 90.8514 58.9147 90.8514 59.2532C90.8514 59.5918 91.1458 59.8663 91.5089 59.8663Z" fill="#BB83C3"/>
<path d="M86.7202 57.6677C87.0833 57.6677 87.3776 57.3933 87.3776 57.0547C87.3776 56.7161 87.0833 56.4417 86.7202 56.4417C86.3571 56.4417 86.0627 56.7161 86.0627 57.0547C86.0627 57.3933 86.3571 57.6677 86.7202 57.6677Z" fill="#BB83C3"/>
<path d="M92.4329 44.2255C92.796 44.2255 93.0903 43.9511 93.0903 43.6125C93.0903 43.2739 92.796 42.9995 92.4329 42.9995C92.0697 42.9995 91.7754 43.2739 91.7754 43.6125C91.7754 43.9511 92.0697 44.2255 92.4329 44.2255Z" fill="#BB83C3"/>
<path d="M92.5618 63.2915C92.9249 63.2915 93.2192 63.017 93.2192 62.6785C93.2192 62.3399 92.9249 62.0654 92.5618 62.0654C92.1987 62.0654 91.9043 62.3399 91.9043 62.6785C91.9043 63.017 92.1987 63.2915 92.5618 63.2915Z" fill="#BB83C3"/>
<path d="M96.7776 61.1816C97.1407 61.1816 97.435 60.9071 97.435 60.5685C97.435 60.23 97.1407 59.9555 96.7776 59.9555C96.4145 59.9555 96.1201 60.23 96.1201 60.5685C96.1201 60.9071 96.4145 61.1816 96.7776 61.1816Z" fill="#FFACFF"/>
<path d="M81.5361 57.9342C83.313 57.0457 83.8949 58.8315 84.7834 60.6084C85.3298 61.6968 86.6891 62.3809 87.9507 62.5008C88.7503 62.5764 89.4478 62.6785 90.1496 62.9406C91.6511 63.5003 89.2257 65.0507 87.0045 64.6065C84.7834 64.1622 79.7592 58.8227 81.5361 57.9342Z" fill="#A96443"/>
<path d="M50.0803 66.632C50.0803 66.632 48.028 69.0353 49.6405 69.8837C51.2531 70.7322 51.4841 70.5856 52.8034 71.0254C54.1228 71.4652 57.7121 73.7663 58.2363 74.0284C59.1248 74.4726 60.4574 73.5841 59.569 72.6957C59.569 72.6957 61.3104 73.9395 61.8701 72.6513C61.8701 72.6513 63.1672 72.4558 62.2788 71.5674C62.2788 71.5674 64.1756 71.2831 62.3987 69.9504C61.6391 69.3818 62.0567 68.9997 59.3913 68.2135C55.8286 67.1606 51.1776 65.4681 50.0803 66.632Z" fill="#A96443"/>
<path d="M47.9125 49.059C48.7965 48.9612 61.257 41.9291 64.8108 45.9272C68.3646 49.9252 57.5922 65.4776 53.5941 67.25C52.6524 67.6676 50.7999 68.7204 49.9026 68.4805C48.6277 68.1429 47.7481 67.903 48.641 65.4909C50.1914 61.324 52.799 56.1666 52.799 56.1666C52.799 56.1666 46.5798 59.7204 43.4702 57.055C40.3606 54.3897 43.9144 49.5032 47.9125 49.059Z" fill="#7A462F"/>
<path d="M58.0765 46.6867C58.0765 46.6867 62.0301 43.4349 64.811 45.927C68.7957 49.4942 57.5923 65.4774 53.5942 67.2499C52.6525 67.6675 56.7571 59.8668 56.7571 59.8668L59.6579 51.8708L58.0765 46.6867Z" fill="#A96443"/>
<path d="M58.1341 23.5467C52.6701 21.2056 50.5778 22.4051 40.3606 31.7338C33.9904 37.5487 29.2549 48.6144 34.5856 50.3913C39.9163 52.1682 44.403 50.3202 47.4682 48.6144C51.7061 46.2555 56.8858 43.7368 59.4623 38.8414C63.9045 30.4011 63.0561 25.6568 58.1341 23.5467Z" fill="#A96443"/>
<path d="M61.5326 30.2234C61.5326 30.2234 56.7971 27.9312 56.3529 24.6261C56.3529 24.6261 53.7986 27.6469 61.5326 30.2234Z" fill="#7A462F"/>
<path d="M47.0062 28.7622C47.0062 28.7622 50.5778 22.4054 40.3606 31.7341C33.9904 37.549 29.2549 48.6147 34.5856 50.3916C37.6952 50.3916 44.0166 38.7795 44.0166 38.7795C44.0166 38.7795 42.2929 34.1596 42.786 33.3333C44.4563 30.508 47.0062 28.7622 47.0062 28.7622Z" fill="#7A462F"/>
<path d="M38.9348 39.2991C35.6964 40.4274 31.5385 40.5118 31.5385 54.5938C31.5385 68.6758 42.6708 66.77 46.0646 61.155C51.4575 52.2527 42.1732 38.1708 38.9348 39.2991Z" fill="#A96443"/>
<path d="M40.6761 45.2206C37.4377 46.3489 31.5384 47.5617 31.0098 55.8243C30.1124 69.8796 41.378 64.7888 41.378 64.7888L35.4032 60.2177C35.4032 60.2177 35.2521 55.9398 36.8069 52.2527C38.5039 48.2369 41.8711 44.8075 40.6761 45.2206Z" fill="#7A462F"/>
<path d="M42.0265 50.085L39.2723 65.4908C39.2723 65.4908 37.6909 61.4483 38.3928 57.0549C39.0946 52.6615 42.0265 50.085 42.0265 50.085Z" fill="#7A462F"/>
<path d="M35.4922 37.9889C33.271 39.3216 31.4497 45.8962 31.0988 54.4209C31.4719 57.5571 31.5163 51.0225 35.7542 46.8646C37.1669 45.4786 40.7385 43.5373 42.9596 42.6489C43.315 40.7121 37.7133 36.6563 35.4922 37.9889Z" fill="#7A462F"/>
<path d="M59.4626 38.8419C59.4626 38.8419 64.5801 27.1232 53.6255 30.8103C48.2992 32.605 42.7242 45.5541 45.8338 47.331C48.9434 49.1079 48.4592 48.6815 52.6304 45.985C56.7973 43.2841 58.5742 41.5072 59.4626 38.8419Z" fill="#D77D5B"/>
<path d="M39.4501 70.2922C39.4501 70.2922 37.4733 72.6111 38.8371 74.0104C40.1964 75.4142 42.3865 77.5376 42.6752 78.5504C42.9107 79.3722 43.4704 79.9675 44.079 80.0163C44.692 80.0652 44.8653 78.4926 44.8653 78.4926C44.8653 78.4926 45.3272 79.852 46.2957 79.9408C47.2641 80.0297 47.0953 78.8436 47.0953 78.8436C47.0953 78.8436 47.9393 80.1141 48.8189 79.7631C49.6984 79.4122 49.6807 78.3594 49.6807 78.3594C49.6807 78.3594 50.9822 79.0124 51.4043 77.964C51.8263 76.9112 51.2266 75.7073 47.7127 72.7799C47.0997 72.269 44.7498 71.2784 44.1989 70.8742C41.6713 69.0395 40.8894 69.4304 39.4501 70.2922Z" fill="#D77D5B"/>
<path d="M44.2343 70.6611C44.2343 70.6611 49.8449 59.6709 52.1593 53.4251C54.5004 47.0993 57.3701 43.781 52.1593 42.6482C49.6806 42.1107 47.5216 42.6926 45.4826 43.5855C43.608 44.4073 42.8084 47.8012 42.0843 50.0312C41.4268 52.0524 40.2097 60.9281 39.5344 65.0994C39.0947 67.818 38.5083 71.1186 39.0369 71.8782C39.9076 73.131 43.488 72.7534 44.2343 70.6611Z" fill="#A96443"/>
<path d="M50.9646 42.4087C50.9646 42.4087 43.1151 41.9956 36.505 47.5617C36.505 47.5617 47.6817 42.5908 50.9646 42.4087Z" fill="#7A462F"/>
<path d="M39.641 24.9723C30.2723 30.1253 29.2639 33.8701 30.7432 35.8469C32.2269 37.8237 37.1667 45.2379 39.641 46.7216C42.1109 48.2053 44.5852 47.7122 42.6084 44.7448C41.6756 43.3455 41.107 41.533 40.1385 39.3074C39.0546 36.8153 36.909 34.5498 37.4332 33.5059C38.2239 32.804 53.4831 28.4328 54.4737 24.9767C55.4555 21.5162 49.525 19.5394 39.641 24.9723Z" fill="#A96443"/>
<path d="M39.6409 24.9728C30.2722 30.1258 30.3655 33.4308 30.4854 34.3815C30.6631 35.7852 32.9464 33.413 36.3714 34.1194C34.9676 31.7916 32.2401 33.6796 32.2401 33.6796C33.2307 31.7028 49.5249 19.5399 39.6409 24.9728Z" fill="#7A462F"/>
<path d="M39.6409 24.9727C33.3196 28.5932 32.2446 30.3567 31.4938 31.0719C30.7431 31.7871 29.8591 34.0882 31.0363 33.2886C32.0713 32.5868 36.3137 28.8552 36.3137 28.8552C36.3137 28.8552 45.9134 23.4046 48.3034 23.2491C50.4623 23.1114 53.0921 23.2802 54.4603 24.9727C55.4554 21.5166 49.4272 19.3666 39.6409 24.9727Z" fill="#7A462F"/>
<path d="M40.7471 47.1045C40.7471 47.1045 42.1108 47.7087 45.0738 48.2018C48.0413 48.6949 49.5205 49.6855 50.5112 50.6717C51.5018 51.6623 52.488 49.188 51.0043 47.7042C49.5205 46.2205 45.5669 44.2437 42.6039 44.7368C39.641 45.2299 38.3971 46.0073 40.7471 47.1045Z" fill="#D77D5B"/>
<path d="M45.0738 46.7222C45.0738 46.7222 49.5205 48.699 49.0274 51.6664C48.5344 54.6338 46.1577 50.6225 44.1321 48.6723C42.1064 46.7222 39.6409 45.2384 45.0738 46.7222Z" fill="#D77D5B"/>
<path d="M54.1315 11.7443C54.1315 11.7443 53.7317 2.87758 63.9622 1.17175C75.561 -0.760632 78.1108 10.1362 77.4934 11.8909C75.5388 17.4837 73.6775 21.0731 73.6775 21.0731C73.6775 21.0731 81.2293 31.2903 73.6775 33.0672C66.1256 34.8441 59.4622 28.1807 56.3526 24.6269C53.2431 21.0731 54.1315 11.7443 54.1315 11.7443Z" fill="#D77D5B"/>
<path d="M54.1316 11.7439C54.1316 11.7439 53.6874 1.97091 63.9046 0.194004C72.4337 -1.28971 77.1869 6.04446 77.4668 11.7128C77.5201 12.8367 74.8592 4.85838 66.5122 11.1842C61.8034 14.7513 65.2817 19.3579 65.2817 19.3579C65.2817 19.3579 62.483 23.7424 63.9046 26.8476C65.104 29.4641 66.5699 32.6225 73.6775 33.0667C66.1257 34.8436 58.1296 28.1802 55.02 24.6264C51.9105 21.0726 54.1316 11.7439 54.1316 11.7439Z" fill="#A96443"/>
<path d="M54.1314 11.7439C54.1314 11.7439 53.6872 1.97091 63.9044 0.194003C63.9044 0.194003 68.2889 -0.805504 71.9582 1.75768C69.4572 1.92649 62.2918 8.37665 62.2918 8.37665L61.7632 5.91564C57.7207 9.95809 58.7736 24.3688 58.7736 24.3688C56.4902 26.4789 53.8693 26.199 52.621 20.504C51.9058 17.2123 54.1314 11.7439 54.1314 11.7439Z" fill="#7A462F"/>
<path d="M59.9065 16.1861C59.9065 16.1861 60.3507 8.63428 54.1316 8.63428C47.9124 8.63428 47.5881 13.0987 47.9124 16.1861C48.2367 19.2735 52.7145 24.7197 56.7969 23.738C60.3596 22.8806 59.9065 16.1861 59.9065 16.1861Z" fill="#A96443"/>
<path d="M59.9108 16.1861C59.9108 16.1861 60.2707 8.63428 55.2198 8.63428C50.169 8.63428 50.1689 12.6323 50.1689 16.1861C50.1689 19.7399 54.0692 24.7197 57.3876 23.738C60.2751 22.8806 59.9108 16.1861 59.9108 16.1861Z" fill="#D77D5B"/>
<path d="M55.4641 19.7399C55.4641 19.7399 54.1314 14.8534 56.7967 13.9649C56.7967 13.9649 54.1314 10.8554 52.3545 14.4092C50.5776 17.963 55.4641 19.7399 55.4641 19.7399Z" fill="#A96443"/>
<path d="M69.9015 19.7398C70.5148 19.7398 71.012 18.9443 71.012 17.9629C71.012 16.9816 70.5148 16.186 69.9015 16.186C69.2881 16.186 68.7909 16.9816 68.7909 17.9629C68.7909 18.9443 69.2881 19.7398 69.9015 19.7398Z" fill="#1D2538"/>
<path d="M48.9546 111.553C48.6428 111.865 47.3756 104.052 51.3231 99.9074C55.2707 95.7625 55.0733 97.5389 53.8891 101.881C52.7048 106.224 52.7048 106.224 52.7048 106.224C52.7048 106.224 54.2838 102.868 55.4681 104.25C56.6524 105.631 53.0995 109.382 53.0995 109.382C53.0995 109.382 56.0602 110.566 56.8497 110.566C57.6392 110.566 49.152 111.355 48.9546 111.553Z" fill="#288453"/>
<path d="M39.6778 111.356C39.6778 111.356 38.2961 106.618 36.7171 105.237C35.1381 103.855 35.9276 106.421 36.7171 107.013C37.5066 107.605 33.3617 101.487 32.1774 105.829C30.9932 110.171 36.125 109.974 36.125 109.974C36.125 109.974 31.5853 111.553 34.546 111.553C37.5066 111.553 39.6778 111.356 39.6778 111.356Z" fill="#288453"/>
<path d="M39.4075 96.3921C38.1502 97.2093 38.2055 102.047 41.3082 98.5692C44.411 95.0914 40.6648 95.575 39.4075 96.3921Z" fill="#33A86D"/>
<path d="M43.8227 97.9339C42.441 98.9207 43.4279 102.671 45.5991 100.302C47.7703 97.9339 45.2043 96.947 43.8227 97.9339Z" fill="#33A86D"/>
<path d="M43.2307 102.276C41.4543 102.276 40.0727 104.645 42.4412 103.855C44.8097 103.066 45.0071 102.276 43.2307 102.276Z" fill="#33A86D"/>
<path d="M45.8953 95.1587C44.5708 95.9482 42.6129 97.3516 43.9017 94.8764C45.1926 92.4013 47.2197 94.3692 45.8953 95.1587Z" fill="#33A86D"/>
</svg>
